<svg width="572" height="346" viewBox="0 0 572 346" fill="none" xmlns="http://www.w3.org/2000/svg">
<g filter="url(#filter0_d_1395_505)">
<rect width="352.505" height="249.883" rx="22.4704" transform="matrix(0.882948 0.469472 -0.882948 0.469472 240.634 0.695557)" fill="url(#paint0_linear_1395_505)" shape-rendering="crispEdges"/>
<rect width="352.505" height="249.883" rx="22.4704" transform="matrix(0.882948 0.469472 -0.882948 0.469472 240.634 0.695557)" stroke="url(#paint1_linear_1395_505)" stroke-opacity="0.5" stroke-width="0.752358" shape-rendering="crispEdges"/>
<rect width="61.7937" height="61.7937" rx="14.044" transform="matrix(0.882948 0.469472 -0.882948 0.469472 240.634 28.9524)" fill="#EFEEF0" fill-opacity="0.24"/>
<path d="M238.155 54.0069H233.195L233.195 56.6442" stroke="white" stroke-width="2.25707" stroke-miterlimit="10" stroke-linecap="round" stroke-linejoin="round"/>
<path d="M248.075 59.281L248.075 61.9183H243.115" stroke="white" stroke-width="2.25707" stroke-miterlimit="10" stroke-linecap="round" stroke-linejoin="round"/>
<path d="M228.234 64.5559C235.082 68.1973 246.186 68.1973 253.034 64.5559C259.882 60.9146 259.882 55.0107 253.034 51.3694C246.186 47.728 235.082 47.728 228.234 51.3694C221.385 55.0107 221.385 60.9146 228.234 64.5559Z" stroke="white" stroke-width="2.25707" stroke-miterlimit="10" stroke-linecap="round" stroke-linejoin="round"/>
<path d="M244.763 57.0862L236.504 58.8401" stroke="white" stroke-width="2.25707" stroke-miterlimit="10" stroke-linecap="round" stroke-linejoin="round"/>
<path d="M144.393 86.8891C143.401 86.3616 142.679 85.7929 142.226 85.1831C141.786 84.5732 141.634 83.9584 141.77 83.3386C141.919 82.7188 142.378 82.132 143.147 81.5782L146.179 82.7749C145.596 83.2826 145.388 83.8018 145.556 84.3325C145.723 84.8633 146.179 85.3265 146.923 85.7221C147.338 85.9429 147.806 86.1226 148.327 86.2611C148.848 86.3995 149.359 86.4671 149.861 86.4638C150.37 86.4638 150.81 86.3649 151.182 86.1671C151.318 86.0946 151.427 86.0138 151.508 85.9248C151.601 85.8358 151.656 85.7369 151.675 85.6281C151.694 85.5193 151.666 85.3924 151.591 85.2474C151.523 85.1056 151.399 84.9441 151.219 84.7627L148.764 82.3694C148.578 82.1914 148.38 81.9738 148.169 81.7167C147.964 81.4628 147.828 81.1826 147.76 80.876C147.691 80.5694 147.757 80.248 147.955 79.9118C148.166 79.5755 148.59 79.2376 149.229 78.898C150.128 78.42 151.101 78.1431 152.149 78.0673C153.197 77.9915 154.245 78.0772 155.293 78.3244C156.341 78.5717 157.32 78.9409 158.232 79.4321C159.143 79.9299 159.809 80.4524 160.231 80.9996C160.653 81.5469 160.817 82.1057 160.724 82.676C160.637 83.243 160.284 83.8067 159.664 84.3672L156.465 83.1606C156.799 82.8771 156.982 82.5853 157.013 82.2853C157.044 81.9853 156.951 81.6952 156.734 81.415C156.523 81.1381 156.223 80.8892 155.832 80.6683C155.448 80.4508 155.017 80.281 154.539 80.159C154.074 80.037 153.616 79.9777 153.163 79.981C152.717 79.9876 152.335 80.0749 152.019 80.2431C151.728 80.398 151.579 80.5727 151.573 80.7672C151.573 80.9584 151.653 81.1562 151.814 81.3606C151.976 81.565 152.162 81.7628 152.372 81.954L154.065 83.5265C154.319 83.7606 154.58 84.0309 154.846 84.3375C155.119 84.6408 155.311 84.9671 155.423 85.3166C155.547 85.666 155.513 86.0237 155.321 86.3896C155.135 86.7589 154.704 87.1231 154.028 87.4825C153.309 87.8649 152.527 88.1187 151.684 88.244C150.853 88.3693 150.007 88.3907 149.145 88.3083C148.29 88.2226 147.453 88.0544 146.634 87.8039C145.822 87.5566 145.075 87.2517 144.393 86.8891ZM156.332 93.2374C155.322 92.7 154.662 92.1083 154.352 91.4622C154.042 90.816 154.069 90.1682 154.435 89.5188C154.813 88.8693 155.52 88.2694 156.556 87.7188C157.603 87.1617 158.741 86.7875 159.969 86.5963C161.203 86.4018 162.424 86.3886 163.633 86.5568C164.842 86.7249 165.943 87.0727 166.935 87.6001C167.945 88.1375 168.605 88.7292 168.915 89.3754C169.232 90.0248 169.204 90.6759 168.832 91.3286C168.466 91.9781 167.765 92.5781 166.73 93.1286C165.688 93.6824 164.551 94.0566 163.317 94.2511C162.095 94.4456 160.874 94.4588 159.653 94.2907C158.444 94.1225 157.337 93.7714 156.332 93.2374ZM158.695 91.9814C159.507 92.4132 160.384 92.5896 161.327 92.5105C162.281 92.4314 163.19 92.1627 164.052 91.7045C164.944 91.2297 165.453 90.7418 165.577 90.2407C165.707 89.743 165.372 89.2814 164.572 88.8562C164.021 88.5628 163.444 88.388 162.842 88.332C162.241 88.276 161.633 88.3188 161.02 88.4606C160.412 88.6056 159.817 88.8331 159.234 89.143C158.335 89.621 157.82 90.1089 157.69 90.6067C157.572 91.1045 157.907 91.5627 158.695 91.9814ZM164.59 97.3313L174.597 92.0106C174.851 91.8754 175.146 91.7254 175.48 91.5606C175.815 91.3958 176.19 91.2491 176.606 91.1205C177.027 90.9952 177.492 90.926 178.001 90.9128C178.658 90.893 179.228 90.9458 179.712 91.071C180.208 91.1963 180.63 91.348 180.977 91.526C181.33 91.7007 181.628 91.8523 181.87 91.9809L183.116 92.6435L181.07 93.7314L179.917 93.1182C179.52 92.9073 179.123 92.8051 178.726 92.8117C178.336 92.815 178.001 92.8908 177.722 93.0391L167.12 98.6764L164.59 97.3313ZM171.1 92.1886L173.053 91.1502L179.489 94.5721L177.536 95.6105L171.1 92.1886ZM176.954 103.906C176.13 103.606 175.392 103.273 174.741 102.907C174.09 102.547 173.609 102.17 173.299 101.774C173.002 101.379 172.962 100.978 173.179 100.573C173.389 100.197 173.724 99.8804 174.183 99.6233C174.648 99.3628 175.181 99.0727 175.783 98.7529L184.357 94.1937L186.887 95.5387L178.461 100.019C178.07 100.227 177.72 100.416 177.41 100.588C177.112 100.759 176.93 100.925 176.861 101.087C176.731 101.394 176.895 101.685 177.354 101.962C177.813 102.239 178.38 102.514 179.056 102.788L176.954 103.906ZM177.903 95.8057L179.856 94.7673L186.998 98.565L185.045 99.6035L177.903 95.8057ZM181.332 106.233L188.325 99.2508L190.781 100.576L186.614 104.73L194.454 102.529L196.556 103.647L192.417 107.815L200.229 105.6L202.703 106.915L189.59 110.624L187.656 109.596L192.008 104.947L183.266 107.262L181.332 106.233ZM196.29 114.483C195.57 114.101 195.096 113.703 194.867 113.291C194.65 112.879 194.64 112.482 194.839 112.1C195.05 111.717 195.434 111.378 195.992 111.081C196.457 110.834 196.953 110.646 197.48 110.517C198.007 110.389 198.574 110.331 199.182 110.344C199.802 110.357 200.481 110.454 201.219 110.636C201.727 110.761 202.291 110.933 202.911 111.15C203.531 111.368 204.213 111.625 204.957 111.921C205.707 112.215 206.532 112.538 207.431 112.891L206.017 112.673C206.613 112.357 206.907 112.048 206.901 111.748C206.895 111.448 206.557 111.12 205.887 110.764C205.515 110.567 205.038 110.408 204.455 110.29C203.872 110.171 203.271 110.191 202.651 110.349L201.088 108.747C202.173 108.44 203.327 108.335 204.548 108.43C205.769 108.526 206.985 108.895 208.194 109.538C209.08 110.009 209.731 110.501 210.147 111.012C210.562 111.523 210.612 112.05 210.296 112.594C210.122 112.897 209.868 113.158 209.533 113.375C209.198 113.593 208.801 113.824 208.342 114.068L202.204 117.331L199.991 116.154L202.056 115.057L201.944 115.452C200.778 115.551 199.759 115.53 198.884 115.388C198.022 115.246 197.158 114.945 196.29 114.483ZM198.819 113.712C199.284 113.959 199.755 114.124 200.233 114.206C200.723 114.288 201.166 114.323 201.563 114.31C201.966 114.3 202.273 114.275 202.483 114.236C202.886 114.16 203.277 114.031 203.655 113.85C204.046 113.669 204.362 113.514 204.604 113.385L205.162 113.88C204.288 113.547 203.575 113.28 203.023 113.079C202.477 112.874 202.028 112.714 201.674 112.599C201.321 112.484 200.995 112.39 200.698 112.317C200.351 112.238 200.041 112.189 199.768 112.169C199.507 112.149 199.272 112.156 199.061 112.189C198.856 112.225 198.67 112.287 198.503 112.376C198.274 112.498 198.131 112.634 198.075 112.782C198.032 112.93 198.072 113.084 198.196 113.242C198.32 113.4 198.528 113.557 198.819 113.712ZM204.623 118.617L214.667 113.276L216.899 114.463L214.444 115.769L214.518 115.472C214.995 115.357 215.485 115.281 215.987 115.245C216.49 115.208 216.992 115.225 217.494 115.294C217.885 115.343 218.263 115.423 218.629 115.531C219.001 115.637 219.348 115.765 219.67 115.917C219.999 116.065 220.296 116.23 220.563 116.412L218.201 117.668C218.009 117.473 217.711 117.285 217.308 117.104C216.917 116.923 216.502 116.791 216.062 116.708C215.628 116.623 215.194 116.586 214.76 116.599C214.332 116.609 213.91 116.669 213.495 116.778C213.086 116.883 212.689 117.038 212.304 117.242L207.171 119.972L204.623 118.617ZM216.496 125.227C215.467 124.68 214.779 124.08 214.431 123.427C214.097 122.774 214.093 122.123 214.422 121.474C214.763 120.824 215.436 120.232 216.44 119.698C217.538 119.115 218.709 118.723 219.956 118.522C221.202 118.32 222.429 118.304 223.638 118.472C224.854 118.637 225.957 118.983 226.949 119.511C228.003 120.071 228.651 120.679 228.893 121.335C229.135 121.991 228.983 122.652 228.437 123.318C227.892 123.984 226.959 124.612 225.638 125.202L223.136 123.872L224.066 123.377C225.089 122.834 225.66 122.356 225.777 121.943C225.908 121.531 225.604 121.129 224.866 120.737C224.004 120.279 223.105 120.081 222.169 120.143C221.245 120.206 220.272 120.509 219.249 121.053C218.313 121.551 217.789 122.044 217.677 122.532C217.578 123.02 217.922 123.473 218.709 123.892C219.205 124.155 219.739 124.324 220.309 124.396C220.879 124.469 221.462 124.446 222.057 124.327L223.862 126.058C222.566 126.344 221.254 126.405 219.928 126.241C218.607 126.079 217.463 125.741 216.496 125.227ZM217.761 121.014L219.639 120.015L226.298 123.555L224.42 124.554L217.761 121.014ZM230.941 132.907C230.017 132.416 229.44 131.862 229.211 131.246C228.981 130.629 229.071 130.005 229.481 129.372C229.896 128.742 230.606 128.16 231.61 127.626C232.633 127.082 233.737 126.703 234.921 126.489C236.118 126.274 237.302 126.235 238.474 126.37C239.646 126.505 240.712 126.828 241.673 127.339C242.628 127.847 243.198 128.398 243.384 128.991C243.57 129.584 243.431 130.183 242.966 130.786C242.501 131.389 241.766 131.958 240.762 132.492C239.757 133.026 238.685 133.415 237.544 133.659C236.409 133.906 235.275 133.975 234.14 133.867C233.005 133.758 231.939 133.438 230.941 132.907ZM233.601 131.928C234.165 132.228 234.741 132.4 235.33 132.442C235.926 132.489 236.527 132.429 237.135 132.264C237.742 132.1 238.35 131.856 238.957 131.533C239.565 131.21 240.024 130.886 240.334 130.563C240.644 130.24 240.762 129.924 240.687 129.614C240.619 129.307 240.321 129.014 239.794 128.734C239.23 128.434 238.626 128.261 237.981 128.215C237.348 128.168 236.713 128.223 236.074 128.378C235.442 128.529 234.847 128.754 234.289 129.05C233.725 129.35 233.294 129.668 232.996 130.005C232.705 130.338 232.596 130.669 232.671 130.999C232.745 131.328 233.055 131.638 233.601 131.928ZM233.935 134.203L240.817 130.544L240.501 130.376L247.011 126.914L249.56 128.269L236.167 135.39L233.935 134.203ZM243.161 139.405C242.132 138.858 241.444 138.258 241.096 137.605C240.762 136.952 240.759 136.301 241.087 135.652C241.428 135.002 242.101 134.411 243.105 133.877C244.203 133.293 245.374 132.901 246.621 132.7C247.867 132.499 249.095 132.482 250.304 132.65C251.519 132.815 252.622 133.161 253.614 133.689C254.668 134.249 255.316 134.857 255.558 135.513C255.8 136.169 255.648 136.83 255.102 137.496C254.557 138.162 253.624 138.79 252.303 139.38L249.801 138.05L250.731 137.556C251.754 137.012 252.325 136.534 252.443 136.122C252.573 135.709 252.269 135.307 251.531 134.915C250.669 134.457 249.77 134.259 248.834 134.322C247.91 134.384 246.937 134.688 245.914 135.231C244.978 135.729 244.454 136.222 244.342 136.71C244.243 137.198 244.587 137.651 245.374 138.07C245.87 138.334 246.404 138.502 246.974 138.574C247.544 138.647 248.127 138.624 248.723 138.505L250.527 140.236C249.231 140.523 247.92 140.584 246.593 140.419C245.272 140.257 244.128 139.919 243.161 139.405ZM244.426 135.192L246.304 134.193L252.963 137.734L251.085 138.732L244.426 135.192ZM252.44 144.042L258.839 136.763L261.368 138.108L256.793 143.073L266.13 140.64L268.659 141.985L254.97 145.387L252.44 144.042ZM264.322 150.657C263.293 150.109 262.605 149.509 262.258 148.857C261.923 148.204 261.92 147.553 262.248 146.903C262.589 146.254 263.262 145.662 264.267 145.128C265.364 144.545 266.536 144.152 267.782 143.951C269.028 143.75 270.256 143.734 271.465 143.902C272.68 144.067 273.784 144.413 274.776 144.94C275.83 145.501 276.478 146.109 276.719 146.765C276.961 147.421 276.809 148.082 276.264 148.748C275.718 149.414 274.785 150.042 273.464 150.632L270.963 149.302L271.893 148.807C272.916 148.263 273.486 147.785 273.604 147.373C273.734 146.961 273.43 146.559 272.692 146.167C271.831 145.708 270.932 145.511 269.995 145.573C269.072 145.636 268.098 145.939 267.075 146.483C266.139 146.981 265.615 147.474 265.504 147.962C265.404 148.45 265.748 148.903 266.536 149.322C267.032 149.585 267.565 149.753 268.135 149.826C268.706 149.898 269.289 149.875 269.884 149.757L271.688 151.487C270.392 151.774 269.081 151.835 267.754 151.67C266.434 151.509 265.29 151.171 264.322 150.657ZM265.587 146.444L267.466 145.445L274.125 148.985L272.246 149.984L265.587 146.444ZM271.435 154.142L285.106 146.873L287.636 148.218L273.965 155.487L271.435 154.142ZM280.994 159.521C279.983 158.984 279.323 158.392 279.013 157.746C278.703 157.1 278.731 156.452 279.096 155.802C279.475 155.153 280.181 154.553 281.217 154.002C282.265 153.445 283.402 153.071 284.63 152.88C285.864 152.685 287.085 152.672 288.294 152.84C289.503 153.008 290.604 153.356 291.596 153.884C292.606 154.421 293.267 155.013 293.577 155.659C293.893 156.308 293.865 156.959 293.493 157.612C293.127 158.262 292.427 158.862 291.391 159.412C290.35 159.966 289.212 160.34 287.978 160.535C286.757 160.729 285.535 160.742 284.314 160.574C283.105 160.406 281.998 160.055 280.994 159.521ZM283.356 158.265C284.168 158.697 285.045 158.873 285.988 158.794C286.943 158.715 287.851 158.446 288.713 157.988C289.606 157.513 290.114 157.025 290.238 156.524C290.368 156.027 290.033 155.565 289.234 155.14C288.682 154.846 288.105 154.672 287.504 154.616C286.902 154.56 286.295 154.602 285.681 154.744C285.073 154.889 284.478 155.117 283.895 155.427C282.996 155.905 282.482 156.392 282.352 156.89C282.234 157.388 282.569 157.846 283.356 158.265ZM293.064 165.939C292.066 165.408 291.465 164.841 291.26 164.238C291.056 163.635 291.183 163.03 291.641 162.423C292.106 161.82 292.841 161.251 293.846 160.717C294.85 160.183 295.919 159.792 297.054 159.545C298.189 159.298 299.314 159.224 300.43 159.323C301.546 159.422 302.581 159.725 303.536 160.233C304.497 160.744 305.105 161.311 305.359 161.934C305.613 162.557 305.536 163.185 305.127 163.818C304.73 164.451 304.02 165.039 302.997 165.583C301.992 166.117 300.895 166.493 299.705 166.71C298.52 166.931 297.349 166.981 296.189 166.859C295.03 166.737 293.988 166.43 293.064 165.939ZM283.932 165.534L298.44 157.819L300.672 159.006L293.79 162.665L294.106 162.834L286.48 166.888L283.932 165.534ZM294.906 164.525C295.451 164.815 296.034 164.98 296.654 165.019C297.274 165.059 297.897 165.001 298.524 164.846C299.156 164.688 299.754 164.459 300.318 164.159C300.876 163.862 301.298 163.546 301.583 163.209C301.875 162.87 301.974 162.53 301.881 162.191C301.8 161.851 301.478 161.531 300.914 161.231C300.387 160.951 299.832 160.791 299.249 160.752C298.672 160.716 298.08 160.78 297.473 160.945C296.865 161.109 296.257 161.353 295.65 161.676C295.042 162 294.583 162.323 294.273 162.646C293.963 162.969 293.849 163.287 293.929 163.6C294.016 163.917 294.342 164.225 294.906 164.525ZM312.111 175.77L318.045 172.615C318.708 172.262 319.065 171.905 319.114 171.542C319.176 171.179 318.931 170.851 318.38 170.558C318.026 170.37 317.636 170.251 317.208 170.202C316.786 170.149 316.352 170.162 315.906 170.241C315.472 170.321 315.063 170.462 314.678 170.667L314.325 169.727C315.013 169.361 315.782 169.124 316.631 169.015C317.487 168.91 318.333 168.924 319.17 169.06C320.02 169.195 320.779 169.44 321.449 169.796C322.596 170.406 323.12 171.047 323.02 171.72C322.934 172.392 322.342 173.02 321.244 173.604L314.641 177.115L312.111 175.77ZM300.003 169.332L310.047 163.991L312.279 165.178L308.949 166.948L309.266 167.116L302.551 170.686L300.003 169.332ZM306.066 172.556L312 169.401C312.663 169.048 313.02 168.69 313.069 168.328C313.131 167.965 312.886 167.637 312.335 167.344C311.808 167.063 311.2 166.935 310.512 166.958C309.836 166.981 309.21 167.146 308.633 167.452L308.317 166.493C308.974 166.144 309.727 165.918 310.577 165.816C311.426 165.713 312.279 165.728 313.134 165.86C313.996 165.995 314.771 166.246 315.459 166.612C316.247 167.03 316.724 167.462 316.892 167.907C317.065 168.356 316.994 168.793 316.678 169.218C316.362 169.643 315.869 170.034 315.199 170.39L308.596 173.901L306.066 172.556ZM321.267 180.935C320.238 180.388 319.55 179.788 319.203 179.135C318.868 178.482 318.865 177.831 319.193 177.182C319.534 176.532 320.207 175.94 321.212 175.406C322.309 174.823 323.481 174.431 324.727 174.229C325.973 174.028 327.201 174.012 328.41 174.18C329.625 174.345 330.729 174.691 331.721 175.218C332.775 175.779 333.423 176.387 333.664 177.043C333.906 177.699 333.754 178.36 333.209 179.026C332.663 179.692 331.73 180.32 330.409 180.91L327.908 179.58L328.838 179.085C329.861 178.541 330.431 178.063 330.549 177.651C330.679 177.239 330.375 176.837 329.637 176.445C328.776 175.987 327.877 175.789 326.94 175.851C326.017 175.914 325.043 176.217 324.02 176.761C323.084 177.259 322.56 177.752 322.448 178.24C322.349 178.728 322.693 179.181 323.481 179.6C323.977 179.863 324.51 180.032 325.08 180.104C325.651 180.177 326.234 180.154 326.829 180.035L328.633 181.766C327.337 182.052 326.026 182.113 324.699 181.949C323.378 181.787 322.235 181.449 321.267 180.935ZM322.532 176.722L324.411 175.723L331.07 179.263L329.191 180.262L322.532 176.722ZM334.766 187.816L339.509 185.294C339.739 185.172 340.018 185.01 340.346 184.809C340.681 184.605 340.963 184.372 341.193 184.112C341.422 183.852 341.509 183.578 341.453 183.291C341.404 183.008 341.109 182.722 340.57 182.436C340.353 182.32 340.086 182.215 339.77 182.119C339.454 182.024 339.088 181.971 338.672 181.961C338.263 181.948 337.798 182.004 337.277 182.129C336.763 182.258 336.192 182.488 335.566 182.821L334.804 181.684C335.597 181.262 336.502 180.952 337.519 180.754C338.536 180.557 339.581 180.515 340.653 180.631C341.732 180.749 342.765 181.071 343.75 181.595C344.538 182.014 345.046 182.426 345.276 182.831C345.505 183.237 345.551 183.621 345.415 183.983C345.285 184.349 345.055 184.682 344.727 184.982C344.404 185.279 344.073 185.531 343.732 185.739C343.391 185.947 343.137 186.095 342.969 186.184L337.333 189.181L334.766 187.816ZM327.903 184.166L337.947 178.826L340.198 180.022L336.868 181.793L337.184 181.961L330.47 185.531L327.903 184.166ZM345.773 193.668C344.948 193.368 344.211 193.035 343.56 192.669C342.909 192.31 342.428 191.932 342.118 191.537C341.82 191.141 341.78 190.741 341.997 190.335C342.208 189.959 342.543 189.643 343.002 189.386C343.467 189.125 344 188.835 344.601 188.515L353.176 183.956L355.705 185.301L347.28 189.781C346.889 189.989 346.539 190.179 346.229 190.35C345.931 190.521 345.748 190.688 345.68 190.849C345.55 191.156 345.714 191.448 346.173 191.725C346.632 192.002 347.199 192.277 347.875 192.55L345.773 193.668ZM346.722 185.568L348.675 184.53L355.817 188.327L353.864 189.366L346.722 185.568Z" fill="white"/>
<path d="M104.235 102.833L115.714 96.7297L116.99 97.4079L105.511 103.511L104.235 102.833ZM110.054 105.927L115.379 103.096C115.996 102.768 116.304 102.44 116.304 102.113C116.304 101.785 116.001 101.46 115.395 101.138C114.864 100.855 114.274 100.666 113.626 100.57C112.988 100.479 112.345 100.482 111.696 100.578C111.059 100.68 110.464 100.878 109.911 101.172L111.633 100.036C112.515 99.8606 113.413 99.8295 114.327 99.9425C115.252 100.061 116.075 100.313 116.798 100.697C117.649 101.149 118.084 101.641 118.106 102.172C118.148 102.703 117.776 103.178 116.99 103.596L111.33 106.606L110.054 105.927ZM113.779 107.908L121.91 103.585L123.186 104.263L115.055 108.586L113.779 107.908ZM123.664 102.55L125.162 101.754L126.629 102.533L125.131 103.33L123.664 102.55ZM117.387 113.471C116.42 112.957 115.84 112.406 115.649 111.818C115.458 111.242 115.665 110.719 116.271 110.25L117.482 110.894C117.174 111.182 117.1 111.499 117.259 111.844C117.419 112.2 117.849 112.564 118.551 112.937C119.38 113.378 120.235 113.59 121.117 113.573C121.989 113.562 122.861 113.324 123.732 112.861L125.47 111.937L125.597 112.039C124.8 112.27 123.945 112.341 123.031 112.251C122.127 112.154 121.303 111.909 120.559 111.513C119.847 111.134 119.39 110.711 119.188 110.241C118.997 109.767 119.061 109.286 119.38 108.8C119.699 108.314 120.267 107.854 121.086 107.419C121.915 106.978 122.797 106.673 123.732 106.503C124.667 106.334 125.581 106.305 126.474 106.418C127.388 106.531 128.217 106.786 128.961 107.181C129.727 107.588 130.178 108.026 130.317 108.495C130.465 108.97 130.279 109.436 129.759 109.894L129.599 109.826L131.624 108.749L132.82 109.385L125.008 113.539C123.849 114.155 122.59 114.457 121.229 114.446C119.869 114.435 118.588 114.11 117.387 113.471ZM121.978 111.098C122.776 111.521 123.684 111.711 124.705 111.666C125.725 111.62 126.708 111.346 127.654 110.843C128.579 110.352 129.073 109.84 129.137 109.309C129.211 108.772 128.85 108.292 128.053 107.868C127.245 107.438 126.336 107.243 125.326 107.283C124.327 107.328 123.355 107.602 122.409 108.105C121.484 108.597 120.979 109.114 120.894 109.657C120.82 110.193 121.181 110.674 121.978 111.098ZM127.247 115.069L138.726 108.965L140.001 109.643L128.522 115.747L127.247 115.069ZM133.066 118.163L138.391 115.331C139.007 115.004 139.316 114.676 139.316 114.348C139.316 114.02 139.013 113.695 138.407 113.373C137.875 113.091 137.285 112.901 136.637 112.805C135.999 112.715 135.356 112.718 134.708 112.814C134.07 112.915 133.475 113.113 132.922 113.407L134.644 112.271C135.526 112.096 136.425 112.065 137.339 112.178C138.263 112.297 139.087 112.548 139.81 112.932C140.66 113.385 141.096 113.876 141.117 114.407C141.16 114.939 140.788 115.413 140.001 115.832L134.341 118.841L133.066 118.163ZM139.805 117.779L141.017 117.135L146.533 120.068L145.321 120.712L139.805 117.779ZM148.014 126.263C147.248 125.856 146.791 125.416 146.642 124.941C146.494 124.466 146.664 123.997 147.153 123.534L147.44 123.652L142.147 126.467L140.871 125.788L152.27 119.727L153.466 120.363L151.569 121.372L151.441 121.253C152.27 121.027 153.142 120.971 154.056 121.084C154.981 121.191 155.815 121.443 156.559 121.838C157.282 122.222 157.733 122.649 157.914 123.118C158.106 123.593 158.036 124.076 157.707 124.568C157.377 125.059 156.793 125.529 155.953 125.975C155.103 126.427 154.205 126.741 153.259 126.916C152.313 127.091 151.388 127.125 150.485 127.018C149.581 126.91 148.758 126.659 148.014 126.263ZM148.938 125.568C149.746 125.998 150.655 126.187 151.665 126.136C152.685 126.08 153.679 125.794 154.646 125.28C155.602 124.771 156.123 124.251 156.208 123.72C156.304 123.183 155.948 122.7 155.14 122.271C154.332 121.841 153.413 121.652 152.382 121.703C151.362 121.748 150.368 122.028 149.401 122.542C148.455 123.045 147.939 123.568 147.854 124.11C147.769 124.653 148.13 125.139 148.938 125.568ZM156.981 131.048C156.205 130.635 155.7 130.175 155.466 129.666C155.243 129.152 155.28 128.635 155.578 128.115C155.875 127.595 156.439 127.115 157.268 126.674C158.097 126.233 158.989 125.934 159.946 125.775C160.924 125.617 161.891 125.606 162.848 125.741C163.804 125.877 164.676 126.154 165.462 126.572C166.217 126.973 166.706 127.409 166.929 127.878C167.163 128.352 167.131 128.827 166.833 129.302C166.546 129.782 165.999 130.237 165.191 130.667C165.085 130.723 164.979 130.774 164.872 130.819C164.777 130.87 164.66 130.921 164.522 130.972L157.81 127.403L158.878 126.835L164.809 129.988L163.804 130.082C164.782 129.562 165.314 129.047 165.399 128.539C165.505 128.03 165.165 127.567 164.378 127.149C163.57 126.719 162.635 126.521 161.572 126.555C160.531 126.589 159.537 126.858 158.591 127.361C157.624 127.875 157.092 128.417 156.997 128.988C156.922 129.559 157.3 130.065 158.129 130.506C158.649 130.782 159.218 130.966 159.834 131.057C160.462 131.141 161.078 131.119 161.684 130.989L162.896 131.633C161.886 131.887 160.849 131.964 159.787 131.862C158.745 131.76 157.81 131.489 156.981 131.048ZM162.807 133.976L170.938 129.653L172.134 130.289L170.061 131.391L170.141 131.433L164.083 134.655L162.807 133.976ZM168.323 132.4L170.045 131.264C170.927 130.998 171.794 130.899 172.644 130.967C173.494 131.035 174.238 131.238 174.876 131.577C175.142 131.719 175.301 131.826 175.354 131.9L174.127 132.552C174.095 132.513 174.031 132.468 173.935 132.417C173.85 132.36 173.739 132.295 173.601 132.222C172.793 131.792 171.932 131.594 171.018 131.628C170.125 131.662 169.227 131.919 168.323 132.4ZM169.642 137.611L178.921 132.677C179.665 132.281 180.457 132.087 181.296 132.092C182.147 132.103 183.013 132.344 183.895 132.813C184.108 132.926 184.262 133.019 184.358 133.092C184.464 133.172 184.544 133.242 184.597 133.304L183.592 133.838C183.539 133.788 183.454 133.72 183.337 133.635C183.231 133.556 183.103 133.477 182.955 133.398C182.466 133.138 181.982 133.011 181.504 133.016C181.036 133.027 180.579 133.152 180.133 133.389L170.918 138.289L169.642 137.611ZM175.015 132.974L176.099 132.397L181.025 135.017L179.941 135.593L175.015 132.974ZM177.518 141.968C176.721 141.544 176.205 141.072 175.971 140.552C175.737 140.032 175.769 139.512 176.067 138.992C176.386 138.472 176.949 137.998 177.757 137.568C178.575 137.133 179.468 136.839 180.435 136.687C181.403 136.534 182.364 136.52 183.321 136.644C184.288 136.774 185.17 137.051 185.968 137.475C186.775 137.904 187.296 138.374 187.53 138.882C187.774 139.396 187.748 139.908 187.45 140.417C187.163 140.931 186.611 141.406 185.792 141.841C184.984 142.27 184.086 142.567 183.098 142.731C182.131 142.895 181.158 142.914 180.18 142.79C179.213 142.671 178.326 142.397 177.518 141.968ZM178.602 141.391C179.155 141.685 179.766 141.869 180.435 141.942C181.116 142.01 181.806 141.976 182.508 141.841C183.209 141.705 183.874 141.47 184.501 141.137C185.436 140.64 185.936 140.109 185.999 139.543C186.074 138.984 185.702 138.487 184.883 138.051C184.076 137.622 183.14 137.424 182.077 137.458C181.015 137.492 180.015 137.758 179.08 138.255C178.453 138.588 178.012 138.942 177.757 139.314C177.502 139.687 177.438 140.055 177.566 140.417C177.714 140.778 178.06 141.103 178.602 141.391ZM183.608 145.036L191.739 140.713L192.934 141.349L190.862 142.451L190.942 142.493L184.883 145.715L183.608 145.036ZM189.124 143.46L190.846 142.324C191.728 142.058 192.594 141.959 193.445 142.027C194.295 142.095 195.039 142.298 195.677 142.637C195.942 142.779 196.102 142.886 196.155 142.959L194.927 143.612C194.895 143.573 194.832 143.527 194.736 143.477C194.651 143.42 194.539 143.355 194.401 143.282C193.593 142.852 192.732 142.654 191.818 142.688C190.926 142.722 190.027 142.979 189.124 143.46ZM189.586 148.215L197.717 143.892L198.913 144.528L197 145.545L197.08 145.587L190.862 148.893L189.586 148.215ZM195.071 151.131L200.46 148.266C201.076 147.938 201.39 147.625 201.4 147.325C201.411 147.026 201.156 146.737 200.635 146.461C200.146 146.201 199.588 146.028 198.961 145.943C198.334 145.859 197.696 145.864 197.048 145.96C196.41 146.062 195.815 146.26 195.262 146.554L196.984 145.418C197.866 145.243 198.759 145.209 199.662 145.316C200.566 145.423 201.342 145.65 201.99 145.994C202.777 146.412 203.18 146.876 203.202 147.385C203.234 147.887 202.856 148.348 202.07 148.766L196.346 151.81L195.071 151.131ZM200.555 154.047L205.944 151.182C206.56 150.854 206.874 150.541 206.885 150.241C206.895 149.942 206.64 149.654 206.119 149.377C205.63 149.117 205.072 148.944 204.445 148.86C203.818 148.775 203.18 148.78 202.532 148.876C201.894 148.978 201.299 149.176 200.746 149.47L202.357 148.275C203.239 148.099 204.142 148.071 205.067 148.19C205.992 148.309 206.784 148.543 207.443 148.893C208.229 149.312 208.638 149.778 208.67 150.292C208.713 150.801 208.341 151.264 207.554 151.682L201.831 154.726L200.555 154.047ZM209.227 158.659C209.365 158.54 209.541 158.413 209.753 158.277C209.977 158.147 210.269 157.986 210.63 157.794L210.551 157.751L214.441 155.683C215.057 155.355 215.365 155.039 215.365 154.734C215.387 154.428 215.084 154.109 214.457 153.776C213.84 153.448 213.218 153.253 212.591 153.191C211.985 153.129 211.433 153.208 210.933 153.428L209.706 152.775C210.545 152.386 211.491 152.233 212.543 152.318C213.596 152.402 214.611 152.705 215.589 153.225C216.598 153.762 217.108 154.287 217.119 154.801C217.13 155.316 216.657 155.827 215.7 156.336L211.794 158.413C211.56 158.537 211.332 158.675 211.109 158.828C210.896 158.975 210.678 159.136 210.455 159.311L209.227 158.659ZM206.278 157.26C205.438 156.813 204.971 156.35 204.875 155.87C204.8 155.389 205.119 154.96 205.831 154.581C206.544 154.202 207.341 154.039 208.223 154.089C209.105 154.14 210.094 154.372 211.188 154.785L214.504 156.039L213.452 156.599L210.391 155.412C209.7 155.146 209.089 154.991 208.558 154.946C208.026 154.9 207.548 154.991 207.123 155.217C206.708 155.437 206.533 155.677 206.597 155.937C206.671 156.203 206.985 156.483 207.537 156.777C208.249 157.155 208.988 157.379 209.753 157.446C210.54 157.514 211.194 157.41 211.714 157.133L210.79 157.845C210.078 158.043 209.323 158.088 208.526 157.98C207.739 157.879 206.99 157.638 206.278 157.26ZM212.738 160.525L220.869 156.202L222.065 156.838L220.152 157.855L220.231 157.897L214.013 161.203L212.738 160.525ZM218.557 163.619L223.882 160.788C224.499 160.46 224.807 160.132 224.807 159.805C224.807 159.477 224.504 159.152 223.898 158.83C223.367 158.547 222.777 158.358 222.128 158.262C221.491 158.171 220.848 158.174 220.199 158.27C219.562 158.372 218.966 158.57 218.414 158.864L220.136 157.728C221.018 157.553 221.916 157.522 222.83 157.635C223.755 157.753 224.578 158.005 225.301 158.389C226.151 158.841 226.587 159.333 226.608 159.864C226.651 160.395 226.279 160.87 225.492 161.288L219.833 164.298L218.557 163.619ZM225.343 167.397C224.599 167.001 224.115 166.552 223.892 166.049C223.69 165.546 223.738 165.035 224.036 164.515C224.355 163.995 224.923 163.517 225.742 163.082C226.56 162.647 227.448 162.35 228.404 162.192C229.371 162.04 230.323 162.02 231.258 162.133C232.204 162.251 233.044 162.506 233.777 162.896C234.383 163.218 234.808 163.568 235.052 163.947C235.307 164.331 235.371 164.721 235.244 165.117C235.137 165.512 234.84 165.885 234.351 166.236L233.171 165.608C233.586 165.275 233.766 164.919 233.713 164.54C233.66 164.162 233.331 163.811 232.725 163.489C232.204 163.212 231.625 163.04 230.987 162.972C230.349 162.904 229.69 162.938 229.01 163.074C228.33 163.209 227.676 163.444 227.049 163.777C226.422 164.111 225.975 164.461 225.71 164.828C225.444 165.196 225.37 165.552 225.487 165.897C225.614 166.247 225.938 166.561 226.459 166.838C227.044 167.148 227.692 167.324 228.404 167.363C229.127 167.397 229.802 167.304 230.429 167.083L231.609 167.711C230.95 167.959 230.238 168.112 229.472 168.168C228.728 168.225 228 168.188 227.288 168.058C226.576 167.928 225.928 167.708 225.343 167.397ZM233.924 171.96C233.149 171.547 232.644 171.087 232.41 170.578C232.187 170.064 232.224 169.547 232.521 169.027C232.819 168.507 233.382 168.026 234.211 167.586C235.04 167.145 235.933 166.845 236.89 166.687C237.868 166.529 238.835 166.518 239.791 166.653C240.748 166.789 241.62 167.066 242.406 167.484C243.161 167.885 243.65 168.32 243.873 168.789C244.107 169.264 244.075 169.739 243.777 170.214C243.49 170.694 242.943 171.149 242.135 171.578C242.029 171.635 241.923 171.686 241.816 171.731C241.721 171.782 241.604 171.833 241.465 171.883L234.753 168.315L235.822 167.747L241.752 170.9L240.748 170.993C241.726 170.473 242.257 169.959 242.342 169.451C242.449 168.942 242.109 168.479 241.322 168.06C240.514 167.631 239.579 167.433 238.516 167.467C237.474 167.501 236.481 167.769 235.535 168.272C234.567 168.787 234.036 169.329 233.94 169.9C233.866 170.471 234.243 170.976 235.072 171.417C235.593 171.694 236.162 171.878 236.778 171.968C237.405 172.053 238.022 172.03 238.628 171.9L239.839 172.545C238.83 172.799 237.793 172.875 236.73 172.774C235.689 172.672 234.753 172.401 233.924 171.96ZM246.785 178.781C245.446 178.069 244.707 177.326 244.569 176.551C244.441 175.783 244.92 175.037 246.004 174.313L247.279 174.992C246.514 175.523 246.184 176.054 246.291 176.585C246.397 177.116 246.939 177.642 247.917 178.162C248.746 178.603 249.522 178.851 250.244 178.908C250.988 178.964 251.663 178.832 252.269 178.51C252.79 178.233 253.061 177.936 253.082 177.619C253.104 177.303 252.912 176.93 252.508 176.5L251.249 175.119C250.611 174.418 250.298 173.816 250.308 173.313C250.33 172.804 250.712 172.352 251.456 171.957C252.073 171.629 252.758 171.428 253.513 171.355C254.278 171.276 255.07 171.318 255.888 171.482C256.707 171.646 257.488 171.926 258.232 172.321C259.38 172.932 259.996 173.582 260.081 174.271C260.177 174.955 259.725 175.619 258.726 176.263L257.451 175.585C258.11 175.088 258.407 174.624 258.344 174.195C258.29 173.771 257.86 173.344 257.052 172.915C256.287 172.508 255.538 172.273 254.804 172.211C254.071 172.149 253.422 172.268 252.859 172.567C252.381 172.821 252.147 173.104 252.158 173.415C252.168 173.726 252.381 174.104 252.795 174.551L254.135 176.026C254.719 176.664 254.969 177.244 254.884 177.764C254.809 178.278 254.368 178.75 253.561 179.179C252.604 179.688 251.531 179.908 250.34 179.84C249.171 179.773 247.986 179.419 246.785 178.781ZM255.832 183.608C255.034 183.184 254.519 182.712 254.285 182.192C254.051 181.672 254.083 181.153 254.381 180.633C254.7 180.113 255.263 179.638 256.071 179.208C256.889 178.773 257.782 178.479 258.749 178.327C259.716 178.174 260.678 178.16 261.635 178.284C262.602 178.414 263.484 178.691 264.281 179.115C265.089 179.545 265.61 180.014 265.844 180.522C266.088 181.037 266.062 181.548 265.764 182.057C265.477 182.571 264.924 183.046 264.106 183.481C263.298 183.91 262.4 184.207 261.412 184.371C260.444 184.535 259.472 184.555 258.494 184.43C257.527 184.312 256.639 184.038 255.832 183.608ZM256.916 183.032C257.468 183.325 258.08 183.509 258.749 183.583C259.429 183.65 260.12 183.617 260.822 183.481C261.523 183.345 262.188 183.111 262.815 182.777C263.75 182.28 264.25 181.749 264.313 181.184C264.388 180.624 264.016 180.127 263.197 179.692C262.39 179.262 261.454 179.064 260.391 179.098C259.328 179.132 258.329 179.398 257.394 179.895C256.767 180.229 256.326 180.582 256.071 180.955C255.816 181.328 255.752 181.695 255.879 182.057C256.028 182.418 256.374 182.743 256.916 183.032ZM262.513 186.991L271.792 182.058C272.536 181.662 273.328 181.467 274.168 181.473C275.018 181.484 275.884 181.724 276.766 182.193C276.979 182.306 277.133 182.4 277.229 182.473C277.335 182.552 277.415 182.623 277.468 182.685L276.464 183.219C276.41 183.168 276.325 183.1 276.208 183.016C276.102 182.936 275.975 182.857 275.826 182.778C275.337 182.518 274.853 182.391 274.375 182.397C273.907 182.408 273.45 182.532 273.004 182.77L263.789 187.669L262.513 186.991ZM267.886 182.354L268.97 181.778L273.897 184.397L272.813 184.974L267.886 182.354ZM270.791 191.545C269.888 191.065 269.431 190.607 269.42 190.172C269.431 189.737 269.824 189.313 270.6 188.9L278.38 184.764L280.134 185.187L271.891 189.57C271.434 189.813 271.216 190.053 271.238 190.291C271.259 190.528 271.535 190.788 272.067 191.071C272.279 191.184 272.471 191.274 272.641 191.342C272.832 191.41 272.997 191.458 273.135 191.486L272.051 192.062C271.902 192.028 271.716 191.963 271.493 191.867C271.269 191.783 271.036 191.675 270.791 191.545ZM273.725 185.459L274.809 184.882L280.182 187.739L279.097 188.315L273.725 185.459ZM275.35 193.817L280.994 188.171L282.285 188.858L277.231 193.579L276.913 193.41L286.175 190.926L287.212 191.477L282.556 196.411L282.238 196.241L291.102 193.545L292.329 194.198L281.711 197.199L280.675 196.648L285.187 191.808L285.522 191.986L276.386 194.368L275.35 193.817ZM290.702 201.979C290.84 201.861 291.015 201.733 291.228 201.598C291.451 201.468 291.743 201.307 292.105 201.115L292.025 201.072L295.915 199.004C296.532 198.676 296.84 198.36 296.84 198.054C296.861 197.749 296.558 197.43 295.931 197.096C295.315 196.769 294.693 196.574 294.066 196.512C293.46 196.449 292.907 196.529 292.408 196.749L291.18 196.096C292.02 195.706 292.966 195.554 294.018 195.638C295.07 195.723 296.085 196.026 297.063 196.545C298.073 197.082 298.583 197.608 298.594 198.122C298.604 198.636 298.131 199.148 297.175 199.657L293.269 201.733C293.035 201.858 292.806 201.996 292.583 202.149C292.37 202.296 292.153 202.457 291.929 202.632L290.702 201.979ZM287.752 200.581C286.913 200.134 286.445 199.671 286.349 199.19C286.275 198.71 286.594 198.28 287.306 197.902C288.018 197.523 288.815 197.359 289.697 197.41C290.58 197.461 291.568 197.693 292.663 198.105L295.979 199.36L294.927 199.919L291.866 198.733C291.175 198.467 290.564 198.312 290.032 198.266C289.501 198.221 289.022 198.312 288.597 198.538C288.183 198.758 288.007 198.998 288.071 199.258C288.146 199.524 288.459 199.804 289.012 200.097C289.724 200.476 290.463 200.699 291.228 200.767C292.014 200.835 292.668 200.73 293.189 200.453L292.264 201.165C291.552 201.363 290.797 201.408 290 201.301C289.214 201.199 288.464 200.959 287.752 200.581ZM294.212 203.846L302.343 199.523L303.539 200.158L301.467 201.26L301.546 201.303L295.488 204.524L294.212 203.846ZM299.729 202.269L301.451 201.133C302.333 200.868 303.199 200.769 304.049 200.837C304.9 200.904 305.644 201.108 306.281 201.447C306.547 201.588 306.706 201.696 306.76 201.769L305.532 202.422C305.5 202.382 305.436 202.337 305.341 202.286C305.256 202.23 305.144 202.165 305.006 202.091C304.198 201.662 303.337 201.464 302.423 201.498C301.53 201.532 300.632 201.789 299.729 202.269ZM303.084 208.732C302.308 208.32 301.803 207.859 301.569 207.351C301.346 206.836 301.383 206.319 301.681 205.799C301.978 205.279 302.541 204.799 303.37 204.358C304.2 203.917 305.092 203.618 306.049 203.46C307.027 203.301 307.994 203.29 308.951 203.426C309.907 203.561 310.779 203.838 311.565 204.256C312.32 204.658 312.809 205.093 313.032 205.562C313.266 206.037 313.234 206.511 312.936 206.986C312.649 207.466 312.102 207.921 311.294 208.351C311.188 208.407 311.082 208.458 310.975 208.503C310.88 208.554 310.763 208.605 310.625 208.656L303.913 205.087L304.981 204.519L310.912 207.673L309.907 207.766C310.885 207.246 311.416 206.732 311.501 206.223C311.608 205.714 311.268 205.251 310.481 204.833C309.673 204.403 308.738 204.206 307.675 204.239C306.633 204.273 305.64 204.542 304.694 205.045C303.727 205.559 303.195 206.102 303.099 206.672C303.025 207.243 303.402 207.749 304.231 208.19C304.752 208.467 305.321 208.65 305.937 208.741C306.564 208.826 307.181 208.803 307.787 208.673L308.998 209.317C307.989 209.572 306.952 209.648 305.889 209.546C304.848 209.444 303.913 209.173 303.084 208.732ZM311.509 213.212C310.51 212.681 309.941 212.135 309.803 211.576C309.675 211.011 309.994 210.48 310.759 209.982L311.987 210.635C311.541 210.951 311.37 211.285 311.477 211.635C311.583 211.986 311.955 212.33 312.593 212.67C313.156 212.969 313.703 213.147 314.235 213.204C314.766 213.26 315.229 213.184 315.622 212.975C315.898 212.828 316.047 212.653 316.068 212.449C316.1 212.24 315.914 211.955 315.51 211.593L314.538 210.72C313.985 210.222 313.719 209.77 313.741 209.363C313.773 208.951 314.065 208.598 314.618 208.304C315.319 207.931 316.132 207.775 317.057 207.838C317.992 207.894 318.906 208.16 319.799 208.634C320.681 209.103 321.186 209.598 321.314 210.118C321.441 210.638 321.165 211.118 320.485 211.559L319.257 210.906C319.618 210.635 319.751 210.35 319.656 210.05C319.56 209.751 319.241 209.457 318.699 209.168C318.178 208.892 317.673 208.731 317.184 208.685C316.706 208.634 316.286 208.705 315.925 208.897C315.649 209.044 315.51 209.225 315.51 209.44C315.521 209.66 315.702 209.937 316.052 210.271L316.977 211.135C317.53 211.644 317.79 212.11 317.758 212.534C317.726 212.958 317.418 213.325 316.834 213.636C316.121 214.015 315.292 214.167 314.347 214.094C313.411 214.015 312.465 213.721 311.509 213.212ZM323.511 219.577C322.746 219.17 322.289 218.729 322.14 218.255C321.991 217.78 322.162 217.311 322.65 216.847L322.858 216.924L320.833 218L319.637 217.365L331.116 211.261L332.392 211.939L327.146 214.728L327.019 214.609C327.848 214.383 328.703 214.318 329.586 214.415C330.489 214.511 331.313 214.756 332.057 215.152C332.78 215.536 333.231 215.963 333.412 216.432C333.603 216.907 333.534 217.39 333.205 217.882C332.875 218.373 332.291 218.842 331.451 219.289C330.601 219.741 329.703 220.055 328.757 220.23C327.811 220.405 326.886 220.439 325.983 220.332C325.079 220.224 324.255 219.973 323.511 219.577ZM324.436 218.882C325.244 219.311 326.153 219.501 327.162 219.45C328.183 219.393 329.176 219.108 330.144 218.594C331.1 218.085 331.621 217.565 331.706 217.034C331.802 216.497 331.446 216.014 330.638 215.584C329.83 215.155 328.911 214.966 327.88 215.016C326.859 215.062 325.866 215.341 324.898 215.856C323.952 216.359 323.437 216.881 323.352 217.424C323.267 217.966 323.628 218.452 324.436 218.882ZM331.793 223.997C331.261 223.715 330.895 223.407 330.693 223.073C330.502 222.734 330.486 222.398 330.645 222.065C330.815 221.726 331.161 221.418 331.681 221.141L337.341 218.131L338.617 218.809L333.292 221.641C332.675 221.969 332.362 222.293 332.351 222.616C332.351 222.943 332.633 223.257 333.196 223.557C333.706 223.828 334.275 224.006 334.902 224.091C335.529 224.175 336.161 224.167 336.799 224.065C337.458 223.963 338.059 223.768 338.601 223.48L336.879 224.616C336.007 224.797 335.114 224.831 334.2 224.718C333.286 224.605 332.484 224.365 331.793 223.997ZM334.95 225.506L336.863 224.489L336.783 224.447L343.001 221.141L344.276 221.819L336.145 226.142L334.95 225.506ZM338.647 227.472L346.778 223.149L348.054 223.827L339.923 228.151L338.647 227.472ZM348.532 222.115L350.031 221.318L351.497 222.098L349.999 222.895L348.532 222.115ZM342.477 229.509L353.956 223.405L355.232 224.084L343.753 230.187L342.477 229.509ZM349.416 233.351C348.513 232.871 348.056 232.413 348.045 231.978C348.056 231.543 348.449 231.119 349.225 230.706L357.005 226.569L358.759 226.993L350.517 231.376C350.059 231.619 349.842 231.859 349.863 232.096C349.884 232.334 350.16 232.594 350.692 232.876C350.904 232.989 351.096 233.08 351.266 233.148C351.457 233.215 351.622 233.263 351.76 233.292L350.676 233.868C350.527 233.834 350.341 233.769 350.118 233.673C349.895 233.588 349.661 233.481 349.416 233.351ZM352.35 227.264L353.434 226.688L358.807 229.545L357.723 230.121L352.35 227.264ZM81.0652 115.865L90.344 110.931C91.088 110.536 91.8799 110.341 92.7195 110.346C93.5698 110.358 94.436 110.598 95.3182 111.067C95.5308 111.18 95.6849 111.273 95.7806 111.347C95.8869 111.426 95.9666 111.496 96.0197 111.559L95.0153 112.093C94.9622 112.042 94.8771 111.974 94.7602 111.889C94.6539 111.81 94.5264 111.731 94.3776 111.652C93.8887 111.392 93.4051 111.265 92.9268 111.27C92.4591 111.282 92.0021 111.406 91.5557 111.643L82.3406 116.543L81.0652 115.865ZM86.438 111.228L87.5221 110.652L92.4485 113.271L91.3644 113.847L86.438 111.228ZM88.9408 120.222C88.1436 119.798 87.6281 119.326 87.3943 118.806C87.1605 118.286 87.1924 117.767 87.49 117.247C87.8088 116.727 88.3721 116.252 89.1799 115.822C89.9983 115.387 90.8911 115.093 91.8583 114.941C92.8256 114.788 93.7874 114.774 94.744 114.898C95.7112 115.028 96.5934 115.305 97.3906 115.729C98.1984 116.159 98.7192 116.628 98.953 117.136C99.1974 117.651 99.1709 118.162 98.8733 118.671C98.5863 119.185 98.0336 119.66 97.2152 120.095C96.4074 120.524 95.5093 120.821 94.5208 120.985C93.5536 121.149 92.5811 121.169 91.6033 121.044C90.636 120.926 89.7486 120.652 88.9408 120.222ZM90.0249 119.646C90.5776 119.939 91.1887 120.123 91.8583 120.197C92.5386 120.264 93.2294 120.231 93.9309 120.095C94.6324 119.959 95.2967 119.725 95.9238 119.391C96.8591 118.894 97.3587 118.363 97.4225 117.798C97.4969 117.238 97.1249 116.741 96.3064 116.306C95.4987 115.876 94.5633 115.678 93.5005 115.712C92.4376 115.746 91.4385 116.012 90.5032 116.509C89.8761 116.843 89.435 117.196 89.1799 117.569C88.9248 117.942 88.8611 118.309 88.9886 118.671C89.1374 119.032 89.4828 119.357 90.0249 119.646ZM95.0308 123.291L103.162 118.967L104.357 119.603L102.285 120.705L102.365 120.748L96.3062 123.969L95.0308 123.291ZM100.547 121.714L102.269 120.578C103.151 120.312 104.017 120.213 104.868 120.281C105.718 120.349 106.462 120.553 107.1 120.892C107.365 121.033 107.525 121.14 107.578 121.214L106.35 121.866C106.318 121.827 106.255 121.782 106.159 121.731C106.074 121.674 105.962 121.609 105.824 121.536C105.016 121.106 104.155 120.909 103.241 120.942C102.349 120.976 101.45 121.234 100.547 121.714ZM101.634 130.277L107.677 128.997L108.41 128.913L117.801 126.751L119.108 127.446L102.989 130.998L101.634 130.277ZM106.784 129.625L111.344 123.318L112.747 124.064L108.538 129.642L106.784 129.625ZM115.564 134.378C114.767 133.954 114.252 133.482 114.018 132.962C113.784 132.442 113.816 131.923 114.114 131.403C114.432 130.883 114.996 130.408 115.804 129.978C116.622 129.543 117.515 129.249 118.482 129.097C119.449 128.944 120.411 128.93 121.368 129.054C122.335 129.184 123.217 129.461 124.014 129.885C124.822 130.315 125.343 130.784 125.577 131.292C125.821 131.807 125.794 132.318 125.497 132.827C125.21 133.341 124.657 133.816 123.839 134.251C123.031 134.68 122.133 134.977 121.144 135.141C120.177 135.305 119.205 135.325 118.227 135.2C117.26 135.082 116.372 134.808 115.564 134.378ZM116.649 133.802C117.201 134.096 117.812 134.279 118.482 134.353C119.162 134.42 119.853 134.387 120.555 134.251C121.256 134.115 121.92 133.881 122.547 133.547C123.483 133.05 123.982 132.519 124.046 131.954C124.12 131.394 123.748 130.897 122.93 130.462C122.122 130.032 121.187 129.834 120.124 129.868C119.061 129.902 118.062 130.168 117.127 130.665C116.5 130.999 116.059 131.352 115.804 131.725C115.548 132.098 115.485 132.465 115.612 132.827C115.761 133.188 116.106 133.513 116.649 133.802ZM124.141 138.939C123.61 138.656 123.243 138.348 123.041 138.015C122.85 137.676 122.834 137.339 122.994 137.006C123.164 136.667 123.509 136.359 124.03 136.082L129.69 133.072L130.965 133.751L125.64 136.582C125.024 136.91 124.71 137.235 124.699 137.557C124.699 137.885 124.981 138.198 125.544 138.498C126.055 138.769 126.623 138.947 127.25 139.032C127.877 139.117 128.51 139.108 129.148 139.006C129.807 138.905 130.407 138.71 130.949 138.422L129.227 139.557C128.356 139.738 127.463 139.772 126.549 139.659C125.635 139.546 124.832 139.306 124.141 138.939ZM127.298 140.448L129.211 139.43L129.132 139.388L135.349 136.082L136.625 136.76L128.494 141.083L127.298 140.448ZM131.043 142.439L139.174 138.115L140.369 138.751L138.297 139.853L138.376 139.895L132.318 143.117L131.043 142.439ZM136.559 140.862L138.281 139.726C139.163 139.46 140.029 139.361 140.88 139.429C141.73 139.497 142.474 139.7 143.112 140.04C143.377 140.181 143.537 140.288 143.59 140.362L142.362 141.014C142.33 140.975 142.267 140.93 142.171 140.879C142.086 140.822 141.974 140.757 141.836 140.684C141.028 140.254 140.167 140.056 139.253 140.09C138.361 140.124 137.462 140.381 136.559 140.862ZM144.087 149.527C143.322 149.12 142.865 148.679 142.716 148.205C142.567 147.73 142.737 147.261 143.226 146.797L143.434 146.874L141.409 147.95L140.213 147.314L151.692 141.211L152.967 141.889L147.722 144.678L147.595 144.559C148.424 144.333 149.279 144.268 150.161 144.364C151.065 144.461 151.889 144.706 152.633 145.102C153.355 145.486 153.807 145.913 153.988 146.382C154.179 146.857 154.11 147.34 153.781 147.832C153.451 148.323 152.866 148.792 152.027 149.239C151.177 149.691 150.278 150.005 149.332 150.18C148.386 150.355 147.462 150.389 146.558 150.281C145.655 150.174 144.831 149.923 144.087 149.527ZM145.012 148.832C145.82 149.261 146.728 149.451 147.738 149.4C148.758 149.343 149.752 149.058 150.719 148.544C151.676 148.035 152.197 147.515 152.282 146.984C152.378 146.447 152.022 145.964 151.214 145.534C150.406 145.105 149.487 144.915 148.456 144.966C147.435 145.012 146.441 145.291 145.474 145.806C144.528 146.309 144.013 146.831 143.928 147.374C143.843 147.916 144.204 148.402 145.012 148.832ZM152.369 153.947C151.837 153.665 151.471 153.357 151.269 153.023C151.077 152.684 151.061 152.348 151.221 152.015C151.391 151.675 151.736 151.367 152.257 151.091L157.917 148.081L159.192 148.759L153.867 151.591C153.251 151.918 152.937 152.243 152.927 152.566C152.927 152.893 153.208 153.207 153.772 153.506C154.282 153.778 154.851 153.956 155.478 154.041C156.105 154.125 156.737 154.117 157.375 154.015C158.034 153.913 158.634 153.718 159.176 153.43L157.455 154.566C156.583 154.747 155.69 154.781 154.776 154.668C153.862 154.555 153.06 154.315 152.369 153.947ZM155.525 155.456L157.439 154.439L157.359 154.397L163.577 151.091L164.852 151.769L156.721 156.092L155.525 155.456ZM161.838 158.982C160.838 158.451 160.27 157.905 160.132 157.346C160.004 156.781 160.323 156.25 161.088 155.752L162.316 156.405C161.869 156.721 161.699 157.055 161.806 157.405C161.912 157.756 162.284 158.1 162.922 158.439C163.485 158.739 164.032 158.917 164.564 158.973C165.095 159.03 165.558 158.954 165.951 158.745C166.227 158.598 166.376 158.422 166.397 158.219C166.429 158.01 166.243 157.725 165.839 157.363L164.867 156.49C164.314 155.992 164.048 155.54 164.07 155.133C164.101 154.721 164.394 154.368 164.946 154.074C165.648 153.701 166.461 153.545 167.386 153.607C168.321 153.664 169.235 153.93 170.128 154.404C171.01 154.873 171.515 155.368 171.642 155.888C171.77 156.408 171.494 156.888 170.813 157.329L169.586 156.676C169.947 156.405 170.08 156.12 169.984 155.82C169.889 155.52 169.57 155.227 169.028 154.938C168.507 154.661 168.002 154.5 167.513 154.455C167.035 154.404 166.615 154.475 166.254 154.667C165.977 154.814 165.839 154.995 165.839 155.21C165.85 155.43 166.031 155.707 166.381 156.04L167.306 156.905C167.859 157.414 168.119 157.88 168.087 158.304C168.055 158.728 167.747 159.095 167.162 159.406C166.45 159.784 165.621 159.937 164.675 159.864C163.74 159.784 162.794 159.491 161.838 158.982ZM166.899 161.504L175.03 157.18L176.305 157.858L168.174 162.182L166.899 161.504ZM176.784 156.146L178.282 155.349L179.749 156.129L178.25 156.926L176.784 156.146ZM170.729 163.54L178.86 159.217L180.056 159.853L178.142 160.87L178.222 160.912L172.004 164.218L170.729 163.54ZM176.548 166.634L181.873 163.803C182.49 163.475 182.798 163.147 182.798 162.82C182.798 162.492 182.495 162.167 181.889 161.845C181.358 161.562 180.768 161.373 180.119 161.277C179.482 161.186 178.839 161.189 178.19 161.285C177.553 161.387 176.957 161.585 176.405 161.879L178.127 160.743C179.009 160.567 179.907 160.536 180.821 160.649C181.746 160.768 182.569 161.02 183.292 161.404C184.142 161.856 184.578 162.348 184.599 162.879C184.642 163.41 184.27 163.885 183.483 164.303L177.824 167.312L176.548 166.634ZM183.446 170.471C182.67 170.059 182.165 169.598 181.931 169.089C181.708 168.575 181.745 168.058 182.043 167.538C182.34 167.018 182.904 166.538 183.733 166.097C184.562 165.656 185.454 165.357 186.411 165.198C187.389 165.04 188.356 165.029 189.313 165.165C190.269 165.3 191.141 165.577 191.927 165.995C192.682 166.397 193.171 166.832 193.394 167.301C193.628 167.776 193.596 168.25 193.298 168.725C193.011 169.205 192.464 169.66 191.656 170.09C191.55 170.146 191.444 170.197 191.337 170.242C191.242 170.293 191.125 170.344 190.987 170.395L184.275 166.826L185.343 166.258L191.274 169.412L190.269 169.505C191.247 168.985 191.779 168.471 191.864 167.962C191.97 167.453 191.63 166.99 190.843 166.572C190.035 166.142 189.1 165.944 188.037 165.978C186.996 166.012 186.002 166.281 185.056 166.784C184.089 167.298 183.557 167.84 183.462 168.411C183.387 168.982 183.765 169.488 184.594 169.929C185.114 170.206 185.683 170.389 186.299 170.48C186.927 170.564 187.543 170.542 188.149 170.412L189.361 171.056C188.351 171.31 187.315 171.387 186.252 171.285C185.21 171.183 184.275 170.912 183.446 170.471ZM191.871 174.951C190.872 174.42 190.303 173.874 190.165 173.315C190.037 172.75 190.356 172.218 191.121 171.721L192.349 172.374C191.903 172.69 191.733 173.024 191.839 173.374C191.945 173.725 192.317 174.069 192.955 174.408C193.518 174.708 194.066 174.886 194.597 174.942C195.128 174.999 195.591 174.923 195.984 174.714C196.26 174.567 196.409 174.391 196.431 174.188C196.462 173.979 196.276 173.694 195.873 173.332L194.9 172.459C194.347 171.961 194.082 171.509 194.103 171.102C194.135 170.69 194.427 170.337 194.98 170.043C195.681 169.67 196.494 169.514 197.419 169.576C198.354 169.633 199.268 169.899 200.161 170.373C201.043 170.842 201.548 171.337 201.676 171.857C201.803 172.377 201.527 172.857 200.847 173.298L199.619 172.645C199.98 172.374 200.113 172.089 200.018 171.789C199.922 171.489 199.603 171.196 199.061 170.907C198.54 170.63 198.035 170.469 197.547 170.424C197.068 170.373 196.648 170.444 196.287 170.636C196.011 170.783 195.873 170.964 195.873 171.179C195.883 171.399 196.064 171.676 196.415 172.009L197.339 172.874C197.892 173.383 198.152 173.849 198.12 174.273C198.089 174.697 197.78 175.064 197.196 175.375C196.484 175.753 195.655 175.906 194.709 175.833C193.773 175.753 192.827 175.46 191.871 174.951ZM199.562 179.04C198.563 178.509 197.994 177.964 197.856 177.404C197.729 176.839 198.047 176.308 198.813 175.811L200.04 176.463C199.594 176.78 199.424 177.113 199.53 177.464C199.636 177.814 200.008 178.159 200.646 178.498C201.21 178.797 201.757 178.975 202.288 179.032C202.82 179.088 203.282 179.012 203.675 178.803C203.952 178.656 204.101 178.481 204.122 178.278C204.154 178.068 203.968 177.783 203.564 177.421L202.591 176.548C202.039 176.051 201.773 175.599 201.794 175.192C201.826 174.779 202.118 174.426 202.671 174.132C203.372 173.759 204.186 173.604 205.11 173.666C206.046 173.723 206.96 173.988 207.852 174.463C208.735 174.932 209.239 175.426 209.367 175.946C209.495 176.466 209.218 176.947 208.538 177.387L207.31 176.735C207.672 176.463 207.805 176.178 207.709 175.879C207.613 175.579 207.294 175.285 206.752 174.997C206.232 174.72 205.727 174.559 205.238 174.514C204.759 174.463 204.34 174.533 203.978 174.726C203.702 174.873 203.564 175.053 203.564 175.268C203.574 175.489 203.755 175.765 204.106 176.099L205.031 176.964C205.583 177.472 205.844 177.938 205.812 178.362C205.78 178.786 205.472 179.153 204.887 179.464C204.175 179.843 203.346 179.996 202.4 179.922C201.465 179.843 200.519 179.549 199.562 179.04ZM204.015 181.238L205.657 180.365L207.299 181.238L205.657 182.112L204.015 181.238Z" fill="white"/>
</g>
<defs>
<filter id="filter0_d_1395_505" x="-10.5909" y="0.695557" width="593.059" height="351.013" filterUnits="userSpaceOnUse" color-interpolation-filters="sRGB">
<feFlood flood-opacity="0" result="BackgroundImageFix"/>
<feColorMatrix in="SourceAlpha" type="matrix" values="0 0 0 0 0 0 0 0 0 0 0 0 0 0 0 0 0 0 127 0" result="hardAlpha"/>
<feOffset dy="37.6179"/>
<feGaussianBlur stdDeviation="15.2954"/>
<feComposite in2="hardAlpha" operator="out"/>
<feColorMatrix type="matrix" values="0 0 0 0 0 0 0 0 0 0 0 0 0 0 0 0 0 0 0.25 0"/>
<feBlend mode="normal" in2="BackgroundImageFix" result="effect1_dropShadow_1395_505"/>
<feBlend mode="normal" in="SourceGraphic" in2="effect1_dropShadow_1395_505" result="shape"/>
</filter>
<linearGradient id="paint0_linear_1395_505" x1="33.2405" y1="-4.55966" x2="288.487" y2="-70.3169" gradientUnits="userSpaceOnUse">
<stop stop-color="#29314D"/>
<stop offset="1" stop-color="#333B57"/>
</linearGradient>
<linearGradient id="paint1_linear_1395_505" x1="347.853" y1="32.877" x2="147.796" y2="285.892" gradientUnits="userSpaceOnUse">
<stop stop-color="#DADCE2"/>
<stop offset="1" stop-color="#78797C" stop-opacity="0.81"/>
</linearGradient>
</defs>
</svg>
