<svg width="568" height="399" viewBox="0 0 568 399" fill="none" xmlns="http://www.w3.org/2000/svg">
<path fill-rule="evenodd" clip-rule="evenodd" d="M281.564 56.7039C279.931 57.7546 276.763 60.2764 277.155 61.9576C277.242 62.3291 277.329 62.4051 277.412 62.4787C277.803 62.8214 278.135 63.1126 278.135 92.9548C278.135 112.553 276.703 126.01 275.775 134.735C274.986 142.148 274.561 146.146 275.686 147.594C276.448 148.575 276.641 148.895 276.885 148.948C277.424 149.068 278.213 147.886 285.974 149.695C291.607 151.009 297.241 151.797 301.467 152.388C305.692 152.979 308.509 153.373 308.509 153.898C308.509 154.739 314.715 155.65 317.817 156L322.352 141.815C320.178 141.115 316.483 137.717 319.091 129.732C322.352 119.749 330.359 106.615 342.607 105.564C352.405 104.724 364.326 105.214 369.062 105.564L380.819 112.394C382.192 113.489 383.837 114.95 385.554 116.684C391.806 122.997 399.013 132.913 397.476 141.815C395.516 153.163 396.659 156 397.476 156H406V109.767V80.3458C406 75.3022 402.734 72.9905 401.101 72.4652C401.101 72.4652 385.048 67.3745 374.646 64.5845C359.285 60.4643 341.496 56.5287 334.964 55.6531C333.092 55.4021 331.218 55.0973 329.297 54.7849C324.517 54.0074 319.45 53.1832 313.408 53.0262C304.803 52.8027 297.678 54.0481 290.824 55.246C287.72 55.7887 284.67 56.3216 281.564 56.7039Z" fill="#003380" fill-opacity="0.1"/>
<path d="M206.903 69.9843L206.76 71.7193L206.63 73.2532L206.545 74.1933L206.379 76.1747L206.274 77.3063L206.068 79.6523L205.954 80.9302L205.48 86.3252L205.211 89.2731L204.675 95.2699L204.402 98.2818L203.858 104.388L203.561 108.041L203.431 109.695L203.202 112.911L203.108 114.383L202.95 117.255L202.889 118.61L202.712 123.813L202.707 126.337L202.742 131.416L202.825 134.221L202.919 137.091L202.964 138.819L202.988 139.601L203.074 142.47L203.1 143.601L203.149 145.661L203.157 146.423L203.167 147.801L203.161 148.278L203.125 149.111L203.092 149.365L203.009 149.782L202.954 149.88L202.675 150.037L202.455 150.023L202.027 149.454L201.733 148.563L201.58 147.892L201.282 146.423L201.137 145.505L200.845 143.559L200.712 142.449L200.451 140.137L200.328 138.872L200.101 136.296L200.007 134.941L199.675 129.403L199.623 126.636L199.608 123.928L199.634 121.845L199.667 120.682L199.74 118.263L199.799 116.945L199.923 114.226L200 112.763L200.165 109.781L200.266 108.19L200.48 104.963L200.596 103.272L201.129 96.302L201.446 92.5861L202.009 85.9208L202.323 82.1313L202.442 80.5232L202.666 77.5174L202.737 76.2735L202.876 73.9507L202.911 73.0166L202.973 71.2856L202.967 70.6059L202.948 69.3655L202.912 68.9042L202.811 68.0624L202.74 67.7642L202.579 67.2215L202.476 67.0406L201.701 66.0274L201.364 65.8224L201.132 65.7434L200.634 65.6291L200.294 65.5983L199.546 65.5599L199.056 65.5746L198.002 65.6177L197.323 65.6663L195.872 65.7852L194.979 65.866L193.06 66.0469L191.895 66.1564L179.772 67.9922L171.919 69.8243L168.15 71.0257L160.706 73.6182L157.166 75.1922L150.215 78.4953L146.964 80.3906L143.743 82.3337L142.194 83.3643L139.143 85.4559L137.679 86.5653L134.797 88.8054L133.426 89.985L130.723 92.365L129.454 93.6152L126.954 96.1366L125.779 97.4388L123.491 100.093L122.426 101.457L120.35 104.226L119.403 105.662L117.565 108.547L116.737 110.027L115.457 112.342L114.754 113.655L114.472 114.234L113.499 116.339L113.209 117.312L112.725 119.282L112.574 120.493L112.444 121.77L112.389 122.51L112.273 124.073L112.214 125.005L112.096 128.532L112.144 130.719L112.233 131.753L112.47 133.788L112.661 134.764L113.1 136.701L113.399 137.647L114.061 139.544L114.481 140.498L115.386 142.419L115.935 143.399L117.095 145.401L117.786 146.454L119.231 148.602L120.063 149.748L123.721 154.387L126.291 157.295L127.656 158.648L130.429 161.322L131.907 162.563L134.906 165.003L136.488 166.141L139.73 168.366L141.448 169.412L144.947 171.434L146.794 172.377L153.121 122.641L152.573 175.077L191.895 66.1564L162.079 166.488L160.751 170.956L158.8 177.52L161.175 178.635L161.722 179.009L161.882 179.175L162.14 179.486L162.132 179.604L161.9 180.177L161.563 180.477L161.32 180.581L160.77 180.766L160.666 180.781L160.416 180.817L159.678 180.89L159.246 180.89L157.356 180.751L156.221 180.514L153.846 179.931L152.546 179.472L146.612 177.047L142.731 175.13L140.914 174.068L140.845 174.028L137.103 171.733L135.293 170.462L131.719 167.82L130.009 166.38L126.635 163.421L125.041 161.832L121.897 158.585L120.426 156.857L117.552 153.342L116.227 151.486L113.654 147.733L112.49 145.778L111.317 143.968L110.66 143.155L110.365 142.916L109.77 142.539L109.471 142.492L108.844 142.48L108.488 142.576L107.675 143.057L107.158 143.621L106.92 144.028L106.446 144.943L106.221 145.535L105.773 146.81L105.56 147.595L105.145 149.258L104.935 150.254L104.533 152.331L104.342 153.539L103.953 156.067L103.757 157.495L103.371 160.482L103.183 162.159L102.068 171.873L104.717 177.632L106.781 181.582L108.378 184.162L109.276 185.413L111.156 187.891L112.188 189.095L114.328 191.471L115.486 192.619L117.877 194.873L119.161 195.955L121.79 198.078L123.185 199.084L126.034 201.065L127.539 202.005L130.603 203.825L132.212 204.671L134.282 206.088L134.749 206.558L134.891 206.76L135.111 207.15L135.101 207.296L134.507 207.919L133.632 207.965L132.997 207.823L131.603 207.441L130.76 207.112L128.982 206.356L127.994 205.871L125.967 204.815L124.897 204.196L122.738 202.911L121.658 202.2L119.509 200.742L118.482 199.969L116.471 198.4L115.56 197.599L113.734 195.812L112.26 194.25L111.469 193.355L108.199 189.53L106.8 187.697L101.721 181.031L100.839 194.9L100.529 200.159L100.394 203.051L100.367 204.251L100.37 206.501L100.425 207.431L100.582 209.195L100.737 209.957L101.102 211.394L101.362 212.053L101.957 213.339L102.348 213.988L103.203 215.282L103.744 215.996L104.897 217.474L105.601 218.335L109.145 222.324L111.692 224.827L113.044 226.006L115.823 228.321L117.303 229.407L120.315 231.517L121.915 232.5L124.69 234.366L125.994 235.403L126.344 235.793L126.646 236.17L126.718 236.321L126.814 236.594L126.776 236.692L126.65 236.868L126.509 236.905L126.163 236.965L125.895 236.948L123.901 236.39L122.142 235.599L121.11 235.037L118.954 233.808L117.795 233.073L115.423 231.536L114.221 230.698L111.828 228.976L110.677 228.095L108.434 226.327L107.429 225.465L105.516 223.764L104.743 222.981L103.346 221.487L102.905 220.863L101.683 219.445L100.922 218.836L100.703 218.822L100.264 219.455L100.059 220.489L99.9959 221.228L99.9005 222.856L99.8881 223.819L99.8906 225.83L99.9194 226.915L100.158 231.373L100.397 233.371L100.657 235.306L100.81 236.105L101.139 237.595L101.336 238.094L102.18 239.938L102.914 241.214L103.354 241.867L105.305 244.506L106.51 245.813L109.044 248.388L110.461 249.571L113.364 251.848L114.886 252.789L116.685 253.978L117.691 254.703L118.085 255.031L118.803 255.664L119.055 255.928L119.487 256.442L119.597 256.642L119.728 257.008L119.68 257.133L119.503 257.343L119.297 257.375L118.799 257.399L118.428 257.338L117.599 257.166L117.063 257.004L114.38 255.878L112.394 254.797L111.345 254.116L109.22 252.668L108.141 251.819L105.987 250.066L104.931 249.109L103.625 247.979L102.834 247.35L102.499 247.109L101.881 246.702L101.667 246.597L101.301 246.463L101.248 246.524L101.12 247.388L101.163 248.502L101.236 249.268L101.424 250.933L101.566 251.905L101.869 253.935L102.052 255.03L102.857 259.542L103.316 261.674L103.788 263.742L104.015 264.665L104.475 266.401L104.701 267.077L107.14 272.685L109.398 276.399L110.822 278.234L113.875 281.88L115.677 283.665L119.471 287.202L121.627 288.927L126.122 292.325C126.122 292.325 127.639 293.322 128.61 293.961C130.618 295.221 133.752 297.189 133.752 297.189L136.557 298.716L142.307 301.735L145.397 303.143L151.709 305.904L155.068 307.183L156.806 307.927L157.793 308.43L158.161 308.664L158.809 309.119L158.976 309.313L159.206 309.667L159.133 309.782L158.759 310.162L158.449 310.28L157.729 310.464L157.262 310.489L156.243 310.489L155.636 310.432L154.367 310.259L153.651 310.113L152.172 309.78L151.371 309.554L149.731 309.065L148.87 308.771L145.303 307.433L143.459 306.563L135.703 302.655L130.864 299.924L128.615 298.505L124.242 295.62L122.233 294.133L118.34 291.132L116.58 289.588L113.199 286.481L111.711 284.89L108.865 281.708L107.655 280.089L105.376 276.841L104.453 275.203L102.754 271.919L102.134 270.273L101.259 267.62L100.717 265.639L100.46 264.549L99.9669 262.305L99.7346 261.088L99.2984 258.591L99.098 257.256L98.3451 251.664L98.0546 248.543L97.5199 242.083L97.3362 238.565L97.029 231.348L96.9648 227.489L96.8868 219.617L96.938 215.48L97.0903 207.063L97.2627 202.686L97.6552 193.825L97.953 189.273L98.6901 179.222L99.2637 172.64L99.5896 169.439L100.269 163.121L100.641 160.088L101.403 154.133L101.81 151.322L102.648 145.831L103.087 143.289L103.971 138.369L104.438 136.15L105.361 131.894L105.837 130.052L106.792 126.57L107.273 125.15L108.392 121.402L108.675 120.282L108.762 119.819L108.921 118.976L108.938 118.711L109.32 117.064L109.86 115.621L110.241 114.764L111.081 112.963L111.592 111.976L112.667 109.934L113.273 108.871L115.84 104.517L117.227 102.448L118.612 100.407L119.299 99.4776L120.661 97.6824L121.305 96.9064L124.727 93.0851L127.158 90.6235L128.448 89.4296L131.075 87.0907L132.46 85.9579L135.274 83.7411L136.744 82.6779L142.817 78.5663L146.089 76.7273L152.794 73.1975L156.364 71.6621L161.978 69.3847L165.634 68.0384L167.424 67.4546L170.983 66.3499L172.724 65.8824L176.188 65.0011L177.889 64.6504L184.625 63.4541L187.91 63.1949L194.442 62.8944L197.667 63.0629L207.415 63.5912M162.302 186.289L162.361 186.513L162.423 187.077L162.369 187.541L162.212 188.596L162.066 189.358L160.141 200.655L159.141 208.302L158.763 212.317L158.399 216.37L158.249 218.472L157.97 222.732L157.861 224.955L157.648 229.458L157.571 231.831L157.427 236.65L157.38 239.19L157.266 247.251L157.239 252.17L157.248 254.456L157.292 258.902L157.338 260.998L157.452 265.099L157.539 267.06L157.972 274.725L158.327 278.511L158.695 282.326L158.922 284.277L159.395 288.245L159.67 290.319L160.043 293.298L160.189 294.593L160.441 297.041L160.522 298.065L160.653 299.983L160.671 300.728L160.684 302.069L160.638 302.525L160.533 303.289L160.433 303.439L160.212 303.59L160.051 303.433L159.714 302.962L159.5 302.48L159.049 301.359L158.775 300.543L157.971 297.647L157.953 297.581L157.44 295.272L157.197 293.962L156.734 291.252L156.519 289.76L156.103 286.686L155.915 285.031L155.552 281.639L155.389 279.839L155.075 276.184L154.945 274.266L154.461 266.368L154.311 262.182L154.061 253.684L154.029 249.322L154.032 240.565L154.122 236.201L154.38 227.534L154.613 223.353L155.137 215.125L155.511 211.293L156.138 205.284L156.568 201.713L156.783 200.138L157.218 197.146L157.439 195.847L157.888 193.398L158.124 192.375L158.597 190.45L158.833 189.685L159.33 188.284L159.583 187.768L160.106 186.856L160.384 186.58L160.497 186.491L160.933 186.147L161.222 186.101L161.996 186.104" fill="#003380" fill-opacity="0.1"/>
<path d="M191.895 66.1564L179.772 67.9922L171.919 69.8243L168.15 71.0257L160.706 73.6182L157.166 75.1922L150.215 78.4953L146.964 80.3906L143.743 82.3337L142.194 83.3643L139.143 85.4559L137.679 86.5653L134.797 88.8054L133.426 89.985L130.723 92.365L129.454 93.6152L126.954 96.1366L125.779 97.4388L123.491 100.093L122.426 101.457L120.35 104.226L119.403 105.662L117.565 108.547L116.737 110.027L115.457 112.342L114.754 113.655L114.472 114.234L113.499 116.339L113.209 117.312L112.725 119.282L112.574 120.493L112.444 121.77L112.389 122.51L112.273 124.073L112.214 125.005L112.096 128.532L112.144 130.719L112.233 131.753L112.47 133.788L112.661 134.764L113.1 136.701L113.399 137.647L114.061 139.544L114.481 140.498L115.386 142.419L115.935 143.399L117.095 145.401L117.786 146.454L119.231 148.602L120.063 149.748L123.721 154.387L126.291 157.295L127.656 158.648L130.429 161.322L131.907 162.563L134.906 165.003L136.488 166.141L139.73 168.366L141.448 169.412L144.947 171.434L146.794 172.377L153.121 122.641L152.573 175.077L191.895 66.1564Z" fill="#003380" fill-opacity="0.1"/>
<path d="M179.605 107.512L162.079 166.488L162.862 165.689L163.539 165.043L166.344 162.468L167.718 161.371L169.082 160.31L169.704 159.882L170.896 159.086L171.402 158.815L177.484 140.851L179.605 107.512Z" fill="#003380" fill-opacity="0.1"/>
<path d="M202.476 67.0406L201.701 66.0274L201.364 65.8224L201.132 65.7434L200.634 65.6291L200.294 65.5983L199.546 65.5599L199.056 65.5746L198.002 65.6177L197.323 65.6663L195.872 65.7852L194.979 65.866L193.06 66.0469L191.895 66.1564L179.605 107.512L180.971 130.555L202.476 67.0406Z" fill="#003380" fill-opacity="0.1"/>
<path d="M199.634 121.845L199.667 120.682L199.74 118.263L199.799 116.945L199.923 114.226L200 112.763L200.165 109.781L200.266 108.19L200.48 104.963L200.596 103.272L201.129 96.302L201.446 92.5861L202.009 85.9208L202.323 82.1313L202.442 80.5232L202.666 77.5174L202.737 76.2735L202.876 73.9507L202.911 73.0166L202.973 71.2856L202.967 70.6059L202.948 69.3655L202.912 68.9042L202.811 68.0624L202.74 67.7642L202.579 67.2215L202.476 67.0406L181.38 137.463L182.4 154.677L186.493 153.643L199.634 121.845Z" fill="#003380" fill-opacity="0.1"/>
<path d="M128.61 293.961L133.752 297.189L136.557 298.716C151.623 283.614 155.075 276.184 128.61 293.961Z" fill="#003380" fill-opacity="0.1"/>
<path d="M160.666 180.781L160.416 180.817L159.678 180.89L159.246 180.89L157.356 180.751L156.221 180.514L153.846 179.931L152.546 179.472L146.612 177.047L142.731 175.13L140.914 174.068L102.068 171.873L104.717 177.632L106.781 181.582L108.378 184.162L109.276 185.413L111.156 187.891L112.188 189.095L114.328 191.471L115.486 192.619L117.877 194.873L119.161 195.955L121.79 198.078L123.185 199.084L126.034 201.065L127.539 202.005L130.603 203.825L132.212 204.671L134.282 206.088L134.749 206.558L134.891 206.76L135.111 207.15L135.101 207.296L134.507 207.919L133.632 207.965L132.997 207.823L131.603 207.441L130.76 207.112L128.982 206.356L127.994 205.871L125.967 204.815L124.897 204.196L122.738 202.911L121.658 202.2L119.509 200.742L118.482 199.969L116.471 198.4L115.56 197.599L113.734 195.812L112.26 194.25L111.469 193.355L108.199 189.53L106.8 187.697L101.721 181.031L100.839 194.9L100.529 200.159L100.394 203.051L100.367 204.251L100.37 206.501L100.425 207.431L100.582 209.195L100.737 209.957L101.102 211.394L101.362 212.053L101.957 213.339L102.348 213.988L103.203 215.282L103.744 215.996L104.897 217.474L105.601 218.335L109.145 222.324L111.692 224.827L113.044 226.006L115.823 228.321L117.303 229.407L120.315 231.517L121.915 232.5L124.69 234.366L125.994 235.403L126.344 235.793L126.646 236.17L126.718 236.321L126.814 236.594L126.776 236.692L126.65 236.868L126.509 236.905L126.163 236.965L125.895 236.948L123.901 236.39L122.142 235.599L121.11 235.037L118.954 233.808L117.795 233.073L115.423 231.536L114.221 230.698L111.828 228.976L110.677 228.095L108.434 226.327L107.429 225.465L105.516 223.764L104.743 222.981L103.346 221.487L102.905 220.863L101.683 219.445L100.922 218.836L100.703 218.822L100.264 219.455L100.059 220.489L99.9959 221.228L99.9005 222.856L99.8881 223.819L99.8906 225.83L99.9194 226.915L100.158 231.373L100.397 233.371L100.657 235.306L100.81 236.105L101.139 237.595L101.336 238.094L102.18 239.938L102.914 241.214L103.354 241.867L105.305 244.506L106.51 245.813L109.044 248.388L110.461 249.571L113.364 251.848L114.886 252.789L116.685 253.978L117.691 254.703L118.085 255.031L118.803 255.664L119.055 255.928L119.487 256.442L119.597 256.642L119.728 257.008L119.68 257.133L119.503 257.343L119.297 257.375L118.799 257.399L118.428 257.338L117.599 257.166L117.063 257.004L114.38 255.878L112.394 254.797L111.345 254.116L109.22 252.668L108.141 251.819L105.987 250.066L104.931 249.109L103.625 247.979L102.834 247.35L102.499 247.109L101.881 246.702L101.667 246.597L101.301 246.463L101.248 246.524L101.12 247.388L101.163 248.502L101.236 249.268L101.424 250.933L101.566 251.905L101.869 253.935L102.052 255.03L102.857 259.542L103.316 261.674L103.788 263.742L104.015 264.665L104.475 266.401L104.701 267.077L107.14 272.685L109.398 276.399L110.822 278.234L113.875 281.88L115.677 283.665L119.471 287.202L121.627 288.927L126.122 292.325L128.61 293.961C155.075 276.184 151.623 283.614 136.557 298.716L142.307 301.735L145.397 303.143L151.709 305.904L155.068 307.183L156.806 307.927L157.793 308.43L158.161 308.664L158.809 309.119L157.971 297.647L157.953 297.581L157.44 295.272L157.197 293.962L156.734 291.252L156.519 289.76L156.103 286.686L155.915 285.031L155.552 281.639L155.389 279.839L155.075 276.184L154.945 274.266L154.461 266.368L154.311 262.182L154.061 253.684L154.029 249.322L154.032 240.565L154.122 236.201L154.38 227.534L154.613 223.353L155.137 215.125L155.511 211.293L156.138 205.284L156.568 201.713L156.783 200.138L157.218 197.146L157.439 195.847L157.888 193.398L158.124 192.375L158.597 190.45L158.833 189.685L159.33 188.284L159.583 187.768L160.106 186.856L160.384 186.58L160.497 186.491L160.666 180.781Z" fill="#003380" fill-opacity="0.1"/>
<path d="M158.809 309.119L158.976 309.313L159.206 309.667L159.133 309.782C159.206 309.667 161.191 310.629 160.533 303.289L160.433 303.439L160.212 303.59L160.051 303.433L159.714 302.962L159.5 302.48L159.049 301.359L158.775 300.543L157.971 297.647L158.809 309.119Z" fill="#003380" fill-opacity="0.1"/>
<path d="M140.845 174.028L137.103 171.733L135.293 170.462L131.719 167.82L130.009 166.38L126.635 163.421L125.041 161.832L121.897 158.585L120.426 156.857L117.552 153.342L116.227 151.486L113.654 147.733L112.49 145.778L111.317 143.968L110.66 143.155L110.365 142.916L109.77 142.539L109.471 142.492L108.844 142.48L108.488 142.576L107.675 143.057L107.158 143.621L106.92 144.028L106.446 144.943L106.221 145.535L105.773 146.81L105.56 147.595L105.145 149.258L104.935 150.254L104.533 152.331L104.342 153.539L103.953 156.067L103.757 157.495L103.371 160.482L103.183 162.159L102.068 171.873L140.914 174.068L140.845 174.028Z" fill="#003380" fill-opacity="0.1"/>
<path d="M202.954 149.88L202.675 150.037L202.455 150.023L202.027 149.454L201.733 148.563L201.58 147.892L201.282 146.423L201.137 145.505L200.845 143.559L200.712 142.449L200.451 140.137L200.328 138.872L200.101 136.296L200.007 134.941L199.675 129.403L199.623 126.636L199.608 123.928L199.634 121.845L186.493 153.643L182.4 154.677L181.38 137.463L176.708 153.061L177.484 140.851L171.402 158.815L170.896 159.086L169.704 159.882L169.082 160.31L167.718 161.371L166.344 162.468L163.539 165.043L162.862 165.689L162.079 166.488L160.751 170.956L161.389 170.396L161.752 170.079L162.584 169.288L163.019 168.857L164.029 167.856L164.847 167.036L166.88 165.439L167.958 164.645L170.425 163.15L171.703 162.414L174.478 161.067L175.89 160.413L178.849 159.252L180.343 158.695L183.369 157.777L184.88 157.341L187.847 156.703L189.308 156.42L192.1 156.102L195.959 156.035L196.723 156.084L197.798 156.088L198.281 156.063L198.887 155.882L199.148 155.761C200.671 156.209 203.564 155.661 202.954 149.88Z" fill="#003380" fill-opacity="0.1"/>
<path d="M180.971 130.555L177.484 140.851L176.708 153.061L181.38 137.463L180.971 130.555Z" fill="#003380" fill-opacity="0.1"/>
<path d="M179.605 107.512L177.484 140.851L180.971 130.555L179.605 107.512Z" fill="#003380" fill-opacity="0.1"/>
<path d="M202.476 67.0406L180.971 130.555L181.38 137.463L202.476 67.0406Z" fill="#003380" fill-opacity="0.1"/>
<path d="M299.4 243.39L299.85 244.43L300.28 245.79L300.54 246.74L301.09 248.78L301.38 249.98L301.99 252.47L302.29 253.8L304.02 260.74L305.27 265.04L305.95 267.04L307.35 270.92L308.1 272.72L309.65 276.21L310.48 277.81L312.18 280.91L313.1 282.33L314.97 285.07L315.97 286.31L318.02 288.69L319.11 289.76L321.34 291.81L322.53 292.72L324.92 294.39L326.32 295.15L327.01 295.39L328.42 295.79L329.23 295.88L330.95 296.01H332.03L336.87 295.52L340.34 294.73L342.1 294.15L345.6 292.86L347.25 292.06L350.46 290.37L351.84 289.4L353.85 287.88L354.75 286.99L355.02 286.53L355.46 285.57L355.56 284.98L355.69 283.71V282.87L355.77 281.1L355.92 280.21L356.04 279.9L356.31 279.37L356.5 279.22L356.92 279.01H357.19L358.29 279.68L358.69 280.73V281.51L358.95 283.28L359.32 284.01H359.56L360.08 283.77L360.62 283.37L360.98 283.07L361.75 282.4L362.2 281.97L363.17 281.06L363.71 280.53L366.02 278.22L367.34 276.85L370.05 274L371.46 272.47L374.29 269.36L375.66 267.82L378.34 264.77L379.54 263.36L381.8 260.64L382.68 259.52L383.52 258.43L383.86 257.97L384.47 257.09L384.69 256.74L386.15 254.55L387.09 253.26L387.52 252.75L388.34 251.81L388.66 251.52L389.24 251.06H389.41L390.11 251.44L390.24 252.02L390.09 252.41L390.03 253.59L390.33 254.29L390.62 254.47L391.09 254.97L391.2 255.41L391.14 255.71L390.94 256.37L390.7 256.79L390.15 257.71L389.73 258.3L388.78 259.55L388.15 260.32L386.76 261.95L385.89 262.94L384.02 265.02L382.9 266.25L380.51 268.83L379.1 270.34L375.06 274.71L372.69 277.32L371.75 278.38L370.85 279.4L370.47 279.83L369.78 280.64L369.51 280.96L369.04 281.54L368.9 281.73L368.69 282.03V282.07L369.3 282.44L370.26 282.8L370.97 283.01L372.5 283.45L373.43 283.69L375.37 284.18L376.44 284.42L379.55 285.14L381.46 285.6L382.28 285.8L383.8 286.19L384.34 286.34L385.27 286.6L385.44 286.67L386.08 286.81L386.38 286.73L386.47 286.61L386.61 286.31L386.62 286.07L386.6 285.54L386.53 285.2L386.34 284.45L386.19 283.99L385.84 283.02L385.6 282.46L385.09 281.27L384.77 280.59L384.1 279.18L383.7 278.4L382.54 276.05L381.86 274.62L381.59 274.02L381.1 272.9L380.94 272.52L380.7 271.86V271.76L380.78 271.17L380.92 270.95L381.03 270.93L381.59 271.09L382.02 271.51L382.98 272.57L383.58 273.41L384.88 275.31L385.63 276.56L387.34 279.31L388.33 280.79L388.79 281.37L389.69 282.43L390.14 282.81L391.06 283.48L391.56 283.68L392.6 284.01L393.2 284.07L394.48 284.1L395.24 284.02L396.85 283.8L397.81 283.62L399.87 283.19L401.1 282.92L412.33 280.79L420.37 279.62L424.53 279.16L432.91 278.34L437.08 278.09L445.36 277.68L449.33 277.64L452.46 277.62L454.35 277.6H455.2L458.36 277.62L459.63 277.69L461.98 277.87L462.91 278.05L464.63 278.47L465.33 278.81L466.61 279.58L467.16 280.13L468.2 281.34L468.69 282.14L469.68 283.87L470.22 284.97L471.34 287.33L472.02 288.78L475.4 297.01L477.2 302.58L477.88 305.47L479.11 311.32L479.53 314.41L480.23 320.71L480.4 324.09L480.56 328.81L480.58 331.66L480.54 332.96L480.42 335.49L480.31 336.66L480.05 338.93L479.86 340L478.96 344.1L478.24 346.03L476.62 349.86L475.52 351.86L474.39 353.95L473.76 355.19L473.52 355.7L473.1 356.61L472.99 356.91L472.83 357.38L472.87 357.4L473.23 357.55L473.67 357.72L473.97 357.82L475.34 358.3L476.16 358.56L477.69 359.32L478.66 360.07L479.15 360.59L480.13 361.73L480.63 362.46L481.64 364.03L482.18 364.99L485.22 370.44L494.21 371.56L498.77 372.26L501.44 372.81L502.6 373.13L504.8 373.8L505.72 374.18L507.45 374.98L508.14 375.43L509.41 376.35L509.87 376.87L510.69 377.93L510.94 378.52L511.32 379.73L511.34 380.39L511.29 381.75L511.11 382.49L510.85 383.9L510.95 384.49L511.2 384.66L511.87 384.91L512.48 384.96L513.93 385.01H515.02L518.16 385.25L519.6 385.61L519.94 385.85L520.21 386.09L520.24 386.22L520.22 386.48L520.1 386.61L519.78 386.88L519.5 387.01L518.85 387.26L518.39 387.37L518.14 387.41L517.88 387.42L517.25 387.46L516.81 387.48L515.83 387.51L515.21 387.53L513.91 387.56L513.14 387.57L511.53 387.6L510.62 387.61L508.73 387.64L507.7 387.65L503.29 387.7L500.77 387.73L495.53 387.77L492.67 387.78L486.79 387.82L483.69 387.83L470.87 387.87L464.28 387.88L457.7 387.89L454.46 387.88H448.04L444.96 387.87L438.91 387.86L436.08 387.85L430.59 387.83L428.13 387.81L423.4 387.78L421.39 387.76L419.45 387.74L418.57 387.72L416.9 387.7L416.18 387.69L414.8 387.66L414.23 387.65L413.18 387.62L412.78 387.6L412.08 387.57L411.86 387.55L411.53 387.52L411.51 387.5L410.95 387.42L410.12 387.36L409.49 387.32L408.09 387.25L407.21 387.21L405.33 387.13L404.23 387.09L401.92 387L400.63 386.96L397.97 386.87L396.52 386.82L390.48 386.65L387.18 386.57L379.53 386.36L375.12 386.22L373.24 386.15L369.67 386.01L368.17 385.93L365.35 385.77L364.18 385.69L362.02 385.51L361.15 385.41L359.54 385.2L358.92 385.09L357.78 384.84L357.36 384.71L356.6 384.43L356.33 384.27L356.04 383.56L356.54 383.05L357.06 382.83L358.26 382.4L359.02 382.26L360.63 382.03H361.5L362.79 381.95L363.47 381.82L363.71 381.74L364.11 381.54L364.2 381.42L364.28 381.16L364.19 381.01L363.1 380.3L361.95 380.01H361.34L359.65 379.88L358.3 379.68L357.54 379.52L354.27 378.76L352.43 378.21L348.68 377.01L346.8 376.3L343.08 374.83L341.41 374.04L337.31 371.83L334.83 370.22L333.73 369.34L331.61 367.53L330.69 366.56L328.93 364.58L328.18 363.52L326.79 361.36L326.23 360.22L325.2 357.89L324.82 356.67L324.16 354.17L323.97 352.87L323.69 350.22V348.83L323.64 346.96L323.57 345.86L323.52 345.43L323.4 344.64L323.33 344.39L323.19 344.01H323.1L322.77 344.14L322.37 344.35L322.09 344.51L320.78 345.3L319.88 345.88L317.92 347.14L316.77 347.9L314.37 349.49L313.08 350.36L307.72 354.01L305.19 355.79L302.71 357.54L301.61 358.34L299.52 359.86L298.69 360.49L293.51 364.33L290.14 366.74L288.52 367.86L285.34 370.03L283.84 371.01L280.9 372.9L279.55 373.73L276.93 375.3L275.76 375.95L273.52 377.15L272.57 377.61L270.78 378.41L270.07 378.65L268.8 379.01H268.37L267.5 378.77L266.66 378.39L266.15 378.11L263.92 376.78L262.75 375.94L259.65 374.07L257.99 373.48L257.39 373.5L256.83 373.58L256.61 373.7L256.22 374L256.09 374.22L255.88 374.73L255.84 375.07L255.81 375.79L255.88 376.23L255.9 377.36L255.72 377.93L255.52 378.15L255.04 378.54L254.65 378.7L253.79 378.99L253.19 379.12L252.22 379.27L251.33 379.36L250.78 379.39L248.28 379.54L246.69 379.59L243.29 379.68L241.34 379.71L237.3 379.75H235.14L226.21 379.71L221.87 379.6L217.59 379.49L215.62 379.41L211.82 379.25L210.19 379.14L206.8 378.87L204.88 378.65L204.09 378.53L202.64 378.28L202.1 378.15L201.15 377.87L200.86 377.72L200.41 377.43L200.38 377.28L200.47 376.98L200.72 376.83L201.35 376.54L201.88 376.39L203.08 376.11L203.9 375.98L206.19 375.24L206.66 374.91L206.79 374.73L206.96 374.37L206.93 374.19L206.92 372.55L207.26 371.5L207.6 370.99L208.39 370L208.96 369.52L210.2 368.58L210.98 368.13L212.67 367.26L213.67 366.84L215.79 366.03L217.02 365.65L219.57 364.9L221.01 364.56L223.99 363.88L225.64 363.57L228.91 362.91L230.8 362.46L231.62 362.24L233.17 361.77L233.84 361.52L235.11 361.01L235.65 360.73L237.59 359.52L238.32 358.75L239.64 357.08L240.19 356L241.56 353.93L242.41 353.15L242.73 353.07L243.28 353.12L243.36 353.48L243.42 353.9L243.38 354.2L243.28 354.85L243.15 355.26L242.3 357.68L241.63 359.09L241.24 359.7L240.39 360.87L239.88 361.38L238.8 362.36L238.14 362.78L236.76 363.6L235.93 363.97L234.18 364.67L233.15 364.99L230.97 365.62L229.71 365.91L227.05 366.5L225.51 366.8L221.56 367.66L219.04 368.3L217.93 368.62L215.81 369.28L215 369.58L213.57 370.17L213.2 370.41L211.73 371.49L211.15 372.09L211.09 372.35L211.12 372.82L211.41 373.02L212.16 373.39L212.84 373.54L214.4 373.81L215.52 373.93L217.99 374.14L219.6 374.23L221.27 374.32L222.21 374.36L224.15 374.43L225.22 374.47L227.44 374.54L228.66 374.58L231.16 374.65L232.53 374.69L238.49 374.82L241.73 374.85L243.04 374.84L245.45 374.77L246.39 374.68L248.1 374.48L248.74 374.31L249.89 373.92L250.3 373.65L251.02 373.06L251.27 372.67L251.7 371.83L251.85 371.3L252.13 370.18L252.26 369.5L252.4 367.53L252.21 366.2L251.93 365.43L251.24 363.77L250.67 362.7L250.06 361.58L249.69 360.95L248.9 359.61L248.44 358.85L245.06 352.72L243.07 348.59L242.27 346.67L241.51 344.77L241.2 343.89L240.61 342.18L240.38 341.41L239.99 339.93L239.87 339.29L239.69 338.11V337.65L239.91 336.48L240.25 335.5L240.5 334.97L241.68 332.72L242.44 331.72L243.71 330.19L244.74 329.08L245.34 328.48L247.95 326.01L249.53 324.66L252.87 321.9L254.75 320.44L258.64 317.5L260.74 316L265.02 313L267.24 311.53L271.74 308.6L274.01 307.2L278.54 304.46L280.77 303.21L285.18 300.78L287.27 299.73L293.9 296.69L298.67 294.72L300.93 293.87L303.15 293.07L304.16 292.72L306.13 292.06L306.98 291.81L308.59 291.36L309.22 291.22L310.35 291.01H310.69L312.42 290.72L312.96 290.17L312.91 289.66L312.82 289.1L312.7 288.75L312.39 287.99L312.16 287.53L311.65 286.56L311.31 285.99L310.58 284.77L310.14 284.07L307.21 278.78L305.35 274.77L304.49 272.6L302.84 268.18L302.12 265.89L300.77 261.3L300.23 259.01L299.27 253.58L298.84 249.84L298.76 248.22L298.69 246.67L298.7 246.01L298.73 244.8L298.78 244.35L298.9 243.59L299.01 243.42L299.24 243.23M469.41 360.21L468.4 360.68L468.13 361.11L467.6 361.65L467.02 362.08L466.65 362.3L465 363.24L464.07 363.63L461.73 365.15L460.84 366.47L460.73 367.34L460.67 368.25L460.73 368.77L460.88 369.84L461.04 370.45L461.41 371.71L461.68 372.41L462.26 373.88L462.63 374.69L464.63 377.89L466.34 379.6L467.42 380.27L469.76 381.49L471.21 381.94L474.29 382.75L476.15 383.02L477.8 383.22L478.94 383.32L481.39 383.5L482.79 383.58L488.8 383.84L491.69 383.87L495.33 383.86L497.48 383.79L498.43 383.73L500.24 383.59L501.03 383.49L502.52 383.26L503.15 383.12L504.34 382.81L504.82 382.61L505.73 382.21L506.08 381.97L506.72 381.47L506.94 381.18L507.34 380.58L507.45 380.24L507.3 379.47L506.84 378.92L506.44 378.64L505.56 378.06L504.98 377.78L503.74 377.21L503.02 376.93L499.84 375.87L497.99 375.44L494.16 374.67L492.19 374.47L489.22 374.14L487.55 373.9L486.85 373.76L485.54 373.48L484.99 373.31L483.97 372.94L483.55 372.71L482.07 371.68L481.53 370.9L480.54 369.17L480.05 367.94L478.18 364.56L477.42 363.51L477.04 363.07L476.29 362.26L475.94 361.99L473.71 360.69L472.14 360.17L471.4 360.09L469.98 360.04M312.24 261.69L314.12 262.13L315.08 262.53L316.95 263.41L317.58 263.89L318.15 264.37L318.3 264.6L318.51 265.05L318.45 265.24L318.07 266.08L317.79 266.31L317.15 266.64L316.71 266.62L315.73 266.45L315.09 266.17L313.69 265.48L312.81 264.94L311.43 264L310.76 263.42L310.56 263.17L310.23 262.67L310.2 262.46L310.23 262.07L310.38 261.92L311.11 261.64L311.81 261.63M416.3 259.55L416.69 260.35V260.86L416.47 262.06L416.12 262.68L415.31 263.89L414.81 264.38L413.79 265.23L413.33 265.39L412.9 265.5L412.72 265.46L412.39 265.33L412.28 265.15L412.16 263.59L412.55 262.23L412.89 261.55L413.64 260.23L414.08 259.77L414.95 259.01H415.35M386.34 214.29L386.91 214.4L389.47 215.15L390.19 215.45L390.47 215.6L390.97 215.89L391.11 216.03L391.7 216.84L391.66 217.17L391.37 217.75L390.96 217.93L389.98 218.21L389.29 218.2L387.8 218.08L386.94 217.84L385.45 217.3L384.67 216.88L384.39 216.66L383.89 216.2L383.75 215.97L383.53 215.52V215.32L383.6 214.93L383.74 214.77L384.09 214.48L384.37 214.39L385 214.24H385.43M338.21 174.2L338.49 175.29L338.19 176.23L337.85 176.74L337.04 177.78L336.49 178.26L335.3 179.19L334.62 179.55L333.1 180.3L332.53 180.55L332.01 180.76L331.83 180.82L331.53 180.91L331.49 180.89L330.76 180.68L329.92 180.45L329.44 180.32L328.02 179.66L327.67 179.14L327.77 178.9L328.14 178.43L328.58 178.27L329.63 178.01H330.38L332.95 177.37L334.74 176.44L335.37 175.84L337.16 174.46L337.64 174.21L337.82 174.16L338.14 174.12M271.07 62.99L271.32 63.86L271.47 65.04L271.53 65.94L271.66 67.93L271.72 69.23L271.82 72.03L271.87 73.73L271.95 77.34L271.99 79.45L272.05 83.87L272.08 86.38L272.12 91.6L272.13 94.52L272.15 100.55L272.16 103.87V109.34L272.17 112.74L272.18 114.33L272.19 117.44L272.2 118.88L272.22 121.7L272.23 123L272.26 125.54L272.27 126.71L272.3 128.98L272.32 130.01L272.4 133.92L272.45 135.52L272.56 138.48L272.62 139.65L272.76 141.77L272.84 142.54L273.01 143.92L273.11 144.35L273.32 145.07L273.44 145.21L274.55 145.93L275.77 146.34L276.62 146.52L278.51 146.87L279.71 147.02L282.3 147.3L283.88 147.42L291.85 148.22L294.36 148.55L295.43 148.71L297.43 149.04L298.12 149.18L302.73 150.47L305.6 151.55L306.77 152.12L307.88 152.69L308.34 152.96L309.19 153.51L309.5 153.76L310.02 154.26L310.13 154.47L310.27 154.88L310.17 155.05L309.75 155.6L309.43 155.72L308.68 155.88L308.05 155.8L307.37 155.68L306.94 155.58L306.03 155.35L305.48 155.19L304.29 154.83L303.58 154.61L302.08 154.12L301.19 153.83L297.71 152.91L294.96 152.39L293.36 152.17L289.99 151.76L288.05 151.6L283.99 151.3L281.69 151.18L268.19 150.51L268.26 141.01L268.42 127.65L268.58 118.55L268.68 114.04L268.89 105.09L269.01 100.82L269.27 92.45L269.41 88.62L269.55 84.87L269.62 83.12L269.76 79.68L269.83 78.1L269.98 75.04L270.05 73.67L270.19 71.04L270.27 69.9L270.41 67.74L270.48 66.86L270.62 65.24L270.69 64.64L270.82 63.61L270.88 63.33L271.01 62.93M422.32 134.61L423.1 134.93L423.51 135.17L425.23 136.29L426.04 137.01L427.59 138.51L428.12 139.25L428.61 139.97L428.76 140.31L428.99 140.94V141.2L428.92 141.96L428.75 142.12L428.3 142.31L427.88 142.17L426.88 141.73L426.12 141.25L425.32 140.74L424.84 140.41L423.83 139.72L423.24 139.3L421.65 138.12L420.78 137.42L420.45 137.11L419.84 136.52L419.63 136.27L419.28 135.79L419.2 135.59L419.1 135.21L419.15 135.06L419.31 134.79L419.49 134.69L419.9 134.52L420.21 134.47L420.87 134.4H421.3M424.49 125.87L426.75 126.23L428.57 126.38L429.36 126.39L430.79 126.45L431.37 126.56L431.49 126.67L431.61 126.93L431.52 127.13L431.25 127.58L430.99 127.9L430.56 128.3L430.25 128.47L429.57 128.78L429.16 128.9L427.35 129.29L426.33 129.34H424.26L423.33 129.18L421.56 128.76L420.99 128.38L420.24 127.83L419.99 127.53V127.4L420.07 127.12L420.24 126.96L420.66 126.61L420.99 126.39L422.64 125.82L423.94 125.74M423.36 109.67L423.54 109.87V110.08L423.47 110.6L423.33 110.97L423 111.78L422.73 112.3L422.12 113.41L421.7 114.07L420.24 116.25L419.5 117.19L418.77 118.1L418.45 118.46L417.85 119.1L417.63 119.29L416.65 119.94L416.2 120.06L416.07 119.99L415.87 119.76L415.86 119.53L415.89 119.01L415.99 118.67L416.59 117.06L417.17 116.06L418.51 113.96L419.41 112.9L420.84 111.33L421.65 110.54L421.99 110.28L422.61 109.83L422.84 109.73L423.25 109.61M116.56 41.13L117.15 41.43L117.32 41.78L117.59 42.63L117.64 43.35L117.68 44.13L117.7 44.61L117.71 45.64V46.26L117.99 51.07L118.16 52.67L118.27 53.39L118.49 54.74L118.61 55.26L119 57.91L118.99 58.52L118.94 58.71L118.81 59.01H118.71L118.25 58.79L117.93 58.44L117.77 58.17L117.09 56.85L116.76 55.91L116.12 53.85L115.83 52.63L115.3 50.09L115.12 48.73L114.7 46.2L114.41 45.12L114.21 44.84L113.79 44.41L113.48 44.38L112.8 44.42L112.32 44.56L108.01 46.23L104.82 47.82L103.2 48.77L100 50.75L98.53 51.81L95.73 53.95L94.62 54.99L90.95 59.05L88.98 61.89L88.24 63.34L86.91 66.25L86.49 67.69L85.82 70.57L85.73 71.96L85.71 74.7L85.94 75.98L86.59 78.48L87.16 79.6L88.47 81.74L89.38 82.65L91.37 84.34L92.63 84.98L96.71 87.06L95.12 90.15L94.46 91.79L94.02 93.19L93.83 93.98L93.12 97.32L92.97 98.87L92.61 101.91L92.36 103.52L92.23 104.12L91.97 105.17L91.84 105.49L91.6 105.99L91.49 106.02L91.28 105.95L91.2 105.7L91.04 105.05L91 104.51L90.92 103.29V102.45L90.94 100.64L90.99 99.51L91.18 96.29L91.34 94.28L91.43 93.42L91.61 91.81L91.7 91.22L91.89 90.22L91.97 90.01L91.95 89.14L91.59 88.47L91.22 88.07L90.38 87.24L89.77 86.76L88.41 85.76L87.54 85.19L85.54 83.94L84.33 83.25L83.83 83L82.9 82.56L82.58 82.45L82.05 82.32L81.98 82.39L81.73 83L81.68 83.62L81.71 84.01L81.95 85.77L82.23 86.79L82.89 88.88L83.32 89.85L84.22 91.69L84.72 92.32L86.19 94.56L86.68 95.73V96.06L86.64 96.36L86.55 96.43L86.34 96.52L86.18 96.49L85.8 96.35L85.55 96.19L85.01 95.8L84.68 95.5L83.69 94.71L83.14 94.37L82.92 94.31L82.5 94.24L82.35 94.31L82.07 94.52L81.98 94.73L81.84 95.23L81.81 95.58L81.8 96.37L81.84 96.87L81.95 97.95L82.06 98.6L82.3 99.99L82.46 100.79L83.19 103.73L83.76 105.31L84.11 105.97L84.88 107.24L85.38 107.83L86.46 109L87.15 109.61L88.46 110.86L89.18 111.64L89.44 111.98L89.89 112.62L89.99 112.86L90.1 113.27L90.01 113.36L89.41 113.85L89.08 113.92L88.39 113.96L87.98 113.79L87.11 113.33L86.57 112.89L85.42 111.9L84.71 111.18L82.91 108.9L81.88 107.06L81.44 106L80.63 103.78L80.31 102.55L79.73 99.99L79.53 98.6L79.19 95.75L79.11 94.22L79 91.11L79.04 89.47L79.19 86.14L79.36 84.4L79.75 80.89L80.05 79.08L81.91 70.77L83.56 65.85L84.59 63.68L86.81 59.52L88.13 57.72L90.93 54.29L92.56 52.83L94.93 50.92L96.8 49.6L97.83 48.93L102.19 46.27L104.43 45.1L106.66 43.96L107.73 43.47L109.81 42.54L110.75 42.17L112.54 41.52L113.28 41.32L114.66 41.01H115.14M319.01 46.52L322.35 46.55L323.93 46.57L330 46.68L332.75 46.78L338.07 47.01L340.54 47.18L345.36 47.56L347.67 47.81L356.72 49.01L361.47 49.94L366.29 50.93L368.89 51.52L374.21 52.76L377.15 53.49L387.12 56.24L393.21 58.21L396 59.27L401.4 61.44L403.86 62.61L408.62 65.01L410.78 66.29L416.19 69.52L416.51 77.02L416.54 83.85L416.47 86.12L416.41 87.13L416.27 89.04L416.18 89.76L415.99 91.17L415.86 91.8L415.6 92.99L415.46 93.47L415.17 94.33L415.03 94.6L414.75 95.01H414.62L413.88 94.8L413.71 94.55L413.65 94.33L413.53 93.81L413.49 93.41L413.41 92.53L413.38 91.92L413.34 90.58L413.32 89.71L413.29 87.82L413.28 86.63L413.27 84.1L413.26 82.55L413.19 71.59L406.84 67.89L401.64 65.2L397.65 63.45L395.42 62.6L390.82 60.92L388.31 60.11L383.17 58.52L380.42 57.77L374.81 56.3L371.86 55.61L365.87 54.27L362.76 53.66L356.46 52.48L353.23 51.96L346.71 50.95L343.39 50.53L336.53 49.83L331.46 49.47L328.75 49.35L317.54 48.99L311.86 49.03L306.2 49.09L303.48 49.18L298.11 49.39L295.62 49.54L290.79 49.89L288.66 50.11L284.6 50.59L282.94 50.88L278.96 51.52L276.63 51.83L275.7 51.92L274.02 52.05H273.5L273.04 52.03L272.9 52L272.69 51.93V51.88L273.26 51.38L274.16 50.92L274.82 50.64L276.26 50.05L277.12 49.74L278.94 49.1L279.94 48.79L284.59 47.53L286.17 47.24L287.06 47.13L288.94 46.93L290.06 46.85L292.45 46.71L293.9 46.67L297.01 46.59L298.91 46.57L300.87 46.55L301.95 46.54L304.18 46.52H305.4L307.92 46.51H309.3H312.14H313.69M117.71 62.1L118.16 62.24L118.29 62.35L118.57 62.86L118.36 63.2L117.71 63.93L117.08 64.31L115.61 65.08L114.61 65.43L110.29 67.42L107.29 69.26L105.86 70.33L103.08 72.54L101.91 73.69L99.74 75.99L99.02 77.08L97.62 79.14L97.08 79.86L96.58 80.5L96.4 80.7L96.11 81.01H96.06L95.59 80.45L95.7 79.57L95.94 78.95L96.53 77.59L96.98 76.79L97.99 75.14L98.62 74.26L102.69 69.73L105.92 66.96L107.61 65.81L109.3 64.72L110.13 64.25L111.78 63.39L112.56 63.05L114.09 62.46L114.79 62.28L116.14 62.01H116.72M200.12 2.03L202.12 2.12L202.79 2.24L203.4 2.37L203.61 2.46L203.96 2.64L204.03 2.75L204.2 3.91L204.19 5.27L204.14 6.16L204 8.05L203.9 9.1L203.66 11.27L203.52 12.37L203.22 14.56L203.06 15.58L202.73 17.54L202.57 18.34L202.24 19.81L202.09 20.28L201.8 21.01H201.67L200.8 20.23L200.39 19L200.28 18.08L200.11 16.05L200.13 14.79L200.23 12.14L200.39 10.63L201.01 4.69L191.6 5.32L185.92 5.9L182.05 6.48L180.11 6.85L176.25 7.65L174.36 8.12L170.62 9.11L168.85 9.66L165.36 10.79L163.76 11.39L160.66 12.63L159.29 13.27L156.7 14.57L155.63 15.24L153.66 16.57L152.95 17.24L151.85 18.51L151.32 19.43L151.15 19.98L150.87 21.16L150.79 21.91L150.69 23.51V24.54L150.92 27.98L151.27 30.47L151.51 31.64L152.03 33.91L152.31 34.81L152.61 35.66L152.75 35.99L153.05 36.59L153.19 36.78L153.94 36.57L155.04 36.12L155.83 35.78L157.55 35.02L158.57 34.55L160.71 33.55L161.88 32.99L165.65 31.34L168.35 30.3L169.76 29.82L175.57 28.01L178.57 27.3L184.56 26.03L187.43 25.63L190.27 25.29L191.62 25.18L194.27 25.03L195.5 25.02L198.23 25.09L199.6 25.19L200.05 25.27L200.82 25.44L200.98 25.55L201.17 25.77L201.05 25.89L200.68 26.15L200.28 26.28L199.36 26.55L198.7 26.68L197.26 26.94L196.34 27.07L194.38 27.31L193.21 27.41L184.97 28.54L179.53 29.68L176.84 30.44L171.47 32.08L168.8 33.09L163.49 35.25L160.85 36.52L158.33 37.72L157.2 38.26L155.04 39.28L154.17 39.69L152.58 40.43L152.07 40.66L151.62 40.86L151.47 40.92L151.24 41.01H151.22L150.34 40.4L149.69 39.44L149.37 38.73L148.73 37.16L148.43 36.2L147.85 34.18L147.6 33.04L147 28.4L146.94 25.24L147.08 23.75L147.45 20.85L147.79 19.62L148.57 17.32L149.09 16.52L150.29 15.19L151.45 14.24L152.18 13.74L153.74 12.74L154.66 12.23L156.56 11.22L157.62 10.71L162.12 8.71L164.63 7.8L169.79 6.06L172.44 5.37L176.78 4.4L179.99 3.81L181.68 3.56L188.57 2.64L191.79 2.37L194.93 2.14L196.34 2.08L199.02 2L200.12 2.03Z" fill="#181415"/>
<path d="M321.22 162.49C321.22 162.49 323.524 159.485 324 157.2C324.241 156.045 324.32 154.184 324.32 154.184L320.4 163.65L321.22 162.49Z" fill="#181415"/>
<path d="M326.95 142.89L327.365 142.5H325.62L324.62 141.78C323.704 143.654 323.849 146.223 323.42 149.08C323.027 151.699 323.168 153.19 322.5 155.8C321.971 157.869 319.62 160.5 319.62 160.5C319.62 160.5 318.779 161.527 318.42 162L317.45 163C317.45 163 316.856 163.721 316.65 164.27C316.556 164.52 316.47 164.93 316.47 164.93C316.47 164.93 316.216 165.636 316.247 166.1C316.266 166.367 316.329 166.561 316.394 166.77C316.466 167.002 316.784 167.26 316.784 167.26L317 167.5C317.522 167.927 318.62 168.5 320.62 169.34C320.223 169.712 320.62 172.888 320.62 172.888C320.62 172.888 320.945 176.398 321.443 179.72C321.708 181.485 322.021 183.197 322.36 184.3L323.22 186.72L323.4 187.31L324.12 188.5L324.75 189.5L325.62 190.5C325.62 190.5 326.054 191.015 326.5 191.5C326.717 191.736 328.14 192.83 328.14 192.83C328.534 193.102 329.455 193.564 330.383 193.76C330.383 193.76 330.91 193.941 331 194C331.32 194.05 331.793 194.22 331.793 194.22C332.264 194.329 333 194.5 333 194.5L334.192 194.65L336.12 194.67L337.148 194.66L338.838 194.58L339.62 194.5L341.05 194.17L341.63 193.99L342.34 193.95L342.63 194L342.74 194.43L342.73 194.7L342.24 195.62L341.92 196.15L340.84 197.57L340.22 198.35L338.53 200.32L335.31 203.88L334.42 204.85L332.94 206.48L332.24 207.24L331.12 208.53L330.6 209.14L329.8 210.18L329.43 210.67L328.88 211.54L328.39 212.39L327.98 213.95L327.81 216.79V218.24L327.45 220.62L327.2 221.73L326.29 223.5L325.77 224.32L324.26 225.59L321.24 227.03L320.26 227.36L318.65 227.76L318.3 227.84L317.8 227.9L317.42 227.86L317.4 227.83L317.32 227.56L317.27 227.39L317.15 226.87L317.02 226.29L316.66 224.53L316.47 223.56L316.03 221.22L315.8 219.99L315.31 217.33L314.82 214.63L313.92 209.36L313.72 208.14L313.39 206.06L313.05 203.74L312.88 202.3L312.89 199.65L312.97 198.35L313.5 195.83L313.84 194.58L314.94 192.04L317.28 188.06L317.71 187.41L318.38 186.29L318.68 185.75L319.1 184.86L319.27 184.44L319.44 183.8L319.5 183.52L319.43 183.15L319.37 183.01L319.08 182.94H318.9L318.4 183.2L318.12 183.37L317.4 183.96L316.1 185.26L315.33 186.1L314.03 187.81L313.41 188.67L312.42 190.47L311.96 191.38L311.26 193.32L310.95 194.32L310.55 196.46L310.38 197.57L310.25 199.98L310.23 201.22L310.37 203.96L310.48 205.37L310.89 208.49L311.79 213.68L312.12 215.36L312.65 218.21L312.89 219.55L313.23 221.78L313.38 222.82L313.53 224.52L313.58 225.31L313.53 226.57L313.48 227.15L313.22 228.05L313.06 228.46L312.59 229.1L312.32 229.39L311.62 229.85L310.31 230.43L309.9 230.58L308.87 231L308.33 231.23L307.16 231.77L303.81 233.46L303.09 233.86L302.12 234.51L301.71 234.81L301.34 235.24L301.22 235.43L301.41 235.65L301.57 235.74L302.27 235.75L302.68 235.73L303.85 235.54L304.5 235.42L306.1 235.02L306.95 234.79L308.94 234.19L312.31 233.07L314.69 232.23L319.7 230.91L320.88 230.63L322.94 230.25L325.31 230.01H325.91L326.89 230L327.34 230.01L328.08 230.1L328.42 230.16L328.99 230.45L329.26 230.64L329.73 231.25L329.96 231.6L330.42 232.64L330.65 233.22L331.15 234.8L331.42 235.67L332.05 237.9L333.22 242.1L333.64 243.61L334.72 246.36L335.3 247.66L336.57 249.82L337.22 250.81L338.53 252.16L338.86 252.43L339.49 252.79L340.38 253.01H340.78L341.39 252.57L341.81 251.53V251.33L342.06 250.44L342.23 249.93L342.76 248.56L343.05 247.83L343.78 246.16L345.04 243.51L345.39 242.79L346.02 241.57L346.32 240.99L346.86 240.02L347.39 239.11L348.35 237.9L348.84 237.38L349.94 236.7L352.04 235.95L353.13 235.65L354.68 234.76L355.34 234.29L355.91 233.35L355.99 233.13L355.93 232.75L355.87 232.58L355.52 232.32L355.31 232.21L354.66 232.13L353.31 232.25L352.53 232.4L351.47 232.28L350.81 231.51V231.26L351.15 230.22L351.36 229.63L352.06 228.05L352.45 227.2L353.42 225.24L353.92 224.23L355.07 222.07L356.24 219.9L358.7 215.68L359.3 214.7L360.41 212.98L361.85 210.96L362.43 210.23L363.24 209.11L363.58 208.6L363.94 207.88L364.06 207.57L363.98 207.21L363.4 207.01H363.08L362.31 207.41L361.9 207.67L360.94 208.59L360.43 209.11L359.29 210.55L358.7 211.33L357.39 213.28L356.71 214.32L355.22 216.78L354.46 218.07L352.8 221.03L351.96 222.57L350.14 226.02L347.23 231.76L346.18 233.86L344.22 237.68L343.27 239.5L341.63 242.53L341.25 243.22L340.58 244.4L340.26 244.95L339.73 245.81L339.49 246.19L339.13 246.7L338.81 247.01H338.69L338.4 246.71L338.25 246.51L337.89 245.84L337.71 245.47L337.3 244.48L337.09 243.94L336.64 242.67L336.18 241.33L335.22 237.98L333.79 232.26L333.47 230.81L332.69 228.38L332.5 227.86L332.15 227.08L331.71 226.45L331.59 226.37L331.36 225.72L331.25 225.33L331.07 224.16L330.99 223.53L330.88 221.99L330.81 219.44V212.99L337.81 205.44L338.77 204.4L340.53 202.45L341.36 201.5L342.75 199.87L343.39 199.12L344.26 198L344.81 197.09V196.98L345.21 196.73L345.47 196.6L346.3 196.35L346.76 196.22L347.92 195.98L349.89 195.69L350.93 195.56L353.18 195.05L354.35 194.74L356.99 193.82L358.37 193.3L361.54 191.9L367.06 189.22L367.16 189.17L367.35 189.3L367.44 189.41L367.59 189.8L367.81 191.74V192.53L368.23 194.35L369.23 196.57L369.57 197.03L370.04 197.59L370.25 197.8L370.55 197.81L370.69 197.74L370.93 197.14L371.36 195.51L371.62 194.42L372.4 192.63L372.85 191.77L374.19 190.27L374.94 189.54L377.05 188.13L377.63 187.77L378.98 187.03L381.31 185.87L382.32 185.39L384.25 184.61L385.2 184.25L387.03 183.72L392.16 183.01H393.29L395.02 183.18L395.85 183.31L397.44 183.98L397.86 184.2L398.78 184.78L399.26 185.09L400.35 185.91L400.93 186.35L402.27 187.43L404.66 189.41L405.76 190.33L408.27 192.57L409.57 193.74L412.38 196.37L415.24 199.07L421.17 204.99L422.62 206.45L425.37 209.31L426.71 210.72L429.13 213.34L430.28 214.6L432.21 216.82L434.37 219.51L435.18 220.61L436.62 222.48L436.94 222.89L437.45 223.5L437.92 224.01L438.2 224.23L439.02 225.14L439.46 225.65L440.53 227.01L441.64 228.44L444.1 231.93L444.69 232.79L445.78 234.45L446.3 235.25L447.16 236.66L447.54 237.31L448.04 238.29L448.26 239.09L448.1 239.34L447.14 239.56L445.25 239.41L444.8 239.29L444.11 239.2L443.8 239.18L443.36 239.27L443.17 239.35L442.94 239.64L442.81 240.32V240.56L443.16 241.08L443.39 241.34L444.17 241.89L444.6 242.17L445.77 242.73L447.89 243.54L448.62 243.78L449.85 244.24L450.44 244.48L451.48 245.03L451.97 245.33L452.9 246.1L453.36 246.52L454.27 247.63L454.73 248.24L455.73 249.81L456.25 250.67L457.42 252.84L458.04 254.02L459.5 256.91L462.1 262.19L462.76 263.55L463.93 265.87L464.5 266.96L465.48 268.77L465.94 269.61L466.73 270.9L467.09 271.48L467.68 272.25L467.94 272.57L468.32 272.82L468.49 272.87L468.67 272.59L468.73 272.39L468.7 271.57L468.65 271.1L468.41 269.76L468.3 269.22L467.92 267.93L467.71 267.25L467.13 265.71L466.81 264.91L466.04 263.13L465.64 262.22L464.7 260.25L463.72 258.24L461.34 253.75L460.09 251.45L457.26 246.56L454.35 241.62L447.78 231.53L446.12 229.07L442.79 224.4L437.93 218.01L436.58 216.33L433.37 212.63L431.7 210.74L428.01 206.78L424.24 202.8L416.17 194.93L414.18 193.04L410.33 189.52L408.45 187.83L404.97 184.88L404.13 184.18L402.57 182.93L401.8 182.33L400.4 181.28L399.73 180.79L398.52 179.98L396.95 179.05L396.17 178.65L394.31 178.32L393.31 178.25L390.85 178.61L390.18 178.75L388.71 179.16L387.95 179.39L386.26 179.99L385.38 180.31L383.45 181.1L380.24 182.51L379.21 182.98L377.35 183.78L376.46 184.16L374.99 184.74L374.32 185L373.4 185.29L372.81 185.35V185.27L373.01 184.9L373.13 184.68L373.54 184.09L375.31 181.83L376 181.01L377.08 179.46L377.3 179.11L377.61 178.53L377.81 177.93V177.43L377.34 177.05L377.18 177.01L376.75 177.08L376.51 177.15L375.92 177.43L375.6 177.6L374.83 178.1L374.43 178.38L373.5 179.1L373.02 179.48L371.91 180.41L370.07 182.06L368.54 183.45L365.74 185.71L364.36 186.76L361.68 188.44L360.33 189.23L357.52 190.47L352.89 191.99L351.92 192.25L350.54 192.56L349.92 192.68H349.07L348.7 192.65L348.18 192.33L347.53 191.47L347.33 191.11L346.79 190.62L346.47 190.41L345.5 190.2L344.93 190.13L343.24 190.17L342.76 190.19L341.62 190.28L339.59 190.46C339.59 190.46 335.23 191.93 332.6 191.15C331.265 190.754 330.542 190.35 329.44 189.5C328.454 188.74 327.25 187.182 327.25 187.182C327.25 187.182 326.664 186.337 326.371 185.75C325.919 184.842 325.5 184 325.5 184L324.75 182.13L323.52 179.72C323.52 179.72 323.312 179.022 323.21 178.567C323.009 177.668 322.892 176.23 322.892 176.23L323.01 172.758C323.01 172.758 322.988 172.55 323 172.418C323.023 172.159 323.21 171.788 323.21 171.788L323.35 171L323.52 170.5L323.65 169.78L325.06 169.03L328.31 167.62L323.56 167.26L322.25 167.16L320.21 166.77L319.77 166.66L319.18 166.44L318.81 166.1V165.99L319.14 165.41L319.35 165.08L320.02 164.15L320.4 163.65L324.32 154.184V150.72L324.44 149.36L325.07 146.87L325.44 145.69L326.43 143.76L326.95 142.89Z" fill="#181415"/>
<path d="M317.4 183.96L318.12 183.37L318.4 183.2L318.9 182.94H319.08L319.37 183.01L319.43 183.15L319.5 183.52L319.44 183.8L319.27 184.44C319.72 183.213 319.984 180.438 319.68 179.83C319.376 179.222 318.22 182.387 317.4 183.96Z" fill="#181415"/>
<path d="M220.059 58.4999L220.019 60.3999L219.979 62.0799L219.949 63.1099L219.899 65.2799L219.859 66.5199L219.789 69.0899L219.749 70.4899L219.589 76.3999L219.489 79.6299L219.299 86.1999L219.199 89.4999L219.009 96.1899L218.929 100.19L218.899 102L218.869 105.52V107.13L218.899 110.27L218.929 111.75L219.119 117.43L219.309 120.18L219.749 125.71L220.069 128.76L220.409 131.88L220.599 133.76L220.689 134.61L221.019 137.73L221.139 138.96L221.359 141.2L221.429 142.03L221.549 143.53L221.579 144.05L221.599 144.96L221.579 145.24L221.509 145.7L221.449 145.81L221.119 146H220.849L220.279 145.41L219.849 144.46L219.609 143.74L219.129 142.16L218.879 141.17L218.369 139.07L218.119 137.87L217.619 135.37L217.369 134L216.889 131.21L216.669 129.74L215.829 123.73L215.549 120.72L215.319 117.77L215.189 115.5L215.139 114.23L215.039 111.59L215.009 110.15L214.949 107.18L214.929 105.58L214.899 102.32V100.58L214.909 97.0499L214.919 95.1999L215.029 87.5699L215.129 83.4999L215.299 76.1999L215.389 72.0499L215.409 70.2899L215.449 66.9999L215.439 65.6399L215.429 63.0999L215.399 62.0799L215.339 60.1899L215.279 59.4499L215.159 58.0999L215.079 57.5999L214.889 56.6899L214.779 56.3699L214.539 55.7899L214.399 55.5999L213.369 54.5499L212.939 54.3499L212.649 54.2799L212.029 54.1899L211.609 54.1799L210.689 54.1899L210.089 54.2399L208.799 54.3599L207.969 54.4599L206.199 54.6899L205.109 54.8399L202.769 55.1699L201.349 55.3699L186.619 58.2099L177.129 60.7499L172.599 62.3199L163.669 65.6599L159.449 67.6199L151.179 71.6999L147.339 73.9899L143.539 76.3299L141.719 77.5599L138.139 80.0499L136.429 81.3599L133.069 83.9999L131.479 85.3799L128.349 88.1599L126.889 89.6099L124.019 92.5299L122.679 94.0299L120.079 97.0799L118.879 98.6399L116.549 101.8L115.499 103.43L113.469 106.7L112.569 108.37L111.179 110.98L110.419 112.46L110.119 113.11L109.089 115.47L108.809 116.55L108.369 118.73L108.279 120.06L108.219 121.46L108.209 122.27L108.189 123.98V125L108.319 128.85L108.549 131.23L108.739 132.35L109.189 134.55L109.499 135.6L110.189 137.68L110.629 138.69L111.589 140.71L112.179 141.72L113.439 143.75L114.189 144.78L115.769 146.88L116.699 147.98L118.639 150.22L119.749 151.41L124.599 156.21L127.979 159.2L129.759 160.58L133.369 163.3L135.279 164.55L139.149 167L141.179 168.13L145.329 170.33L147.519 171.35L151.969 173.31L154.309 174.21L159.089 175.96L161.609 176.75L166.739 178.29L169.439 178.98L172.439 180.03L173.139 180.4L173.349 180.57L173.689 180.89V181.02L173.449 181.66L173.059 182.01L172.769 182.14L172.109 182.38L171.679 182.46L170.779 182.59L170.249 182.62L167.919 182.6L166.509 182.42L163.549 181.95L161.919 181.54L154.449 179.31L149.539 177.49L147.139 176.42L142.369 174.18L140.049 172.92L135.459 170.29L133.249 168.84L128.879 165.85L126.799 164.23L122.689 160.91L120.749 159.13L116.949 155.5L115.179 153.57L111.729 149.66L110.149 147.61L108.569 145.72L107.699 144.88L107.319 144.64L106.559 144.27L106.189 144.24L105.419 144.27L104.989 144.4L104.029 144.98L103.439 145.63L103.179 146.09L102.669 147.12L102.439 147.78L101.989 149.2L101.789 150.07L101.409 151.91L101.229 153.01L100.899 155.3L100.759 156.63L100.479 159.41L100.349 160.98L100.109 164.26L100.009 166.1L99.3989 176.76L103.099 182.85L105.939 187.01L108.099 189.71L109.299 191.01L111.799 193.58L113.159 194.82L115.969 197.26L117.479 198.43L120.589 200.72L122.249 201.81L125.639 203.94L127.429 204.94L131.079 206.9L132.999 207.82L136.899 209.59L138.939 210.4L141.589 211.8L142.199 212.28L142.389 212.49L142.689 212.9V213.06L142.009 213.78L140.939 213.89L140.149 213.78L138.409 213.46L137.349 213.16L135.109 212.46L133.859 212L131.289 210.99L129.929 210.39L127.179 209.14L125.799 208.44L123.049 207L121.729 206.23L119.139 204.66L117.959 203.85L115.579 202.03L113.649 200.43L112.609 199.51L108.299 195.57L106.439 193.67L99.6889 186.76V201.93L99.7189 207.68L99.7789 210.84L99.8389 212.15L100.019 214.6L100.159 215.61L100.489 217.52L100.739 218.34L101.299 219.88L101.669 220.58L102.499 221.94L103.029 222.62L104.179 223.97L104.899 224.71L106.429 226.24L107.359 227.13L112.019 231.23L115.339 233.78L117.089 234.97L120.679 237.3L122.579 238.38L126.439 240.47L128.479 241.43L132.029 243.27L133.709 244.31L134.169 244.71L134.569 245.1L134.669 245.26L134.809 245.55L134.769 245.66L134.629 245.86L134.459 245.91L134.039 246H133.709L131.219 245.53L128.999 244.79L127.689 244.25L124.949 243.06L123.469 242.34L120.439 240.83L118.899 240L115.829 238.29L114.349 237.41L111.459 235.64L110.159 234.77L107.679 233.05L106.669 232.25L104.839 230.72L104.249 230.07L102.639 228.61L101.659 228H101.389L100.899 228.72L100.729 229.86L100.709 230.67L100.719 232.45L100.779 233.5L100.939 235.69L101.059 236.87L101.699 241.71L102.149 243.87L102.619 245.96L102.869 246.82L103.389 248.42L103.669 248.95L104.849 250.9L105.849 252.24L106.439 252.92L109.039 255.66L110.619 257L113.929 259.63L115.759 260.82L119.499 263.1L121.439 264.02L123.739 265.19L125.029 265.91L125.539 266.24L126.469 266.88L126.799 267.15L127.369 267.68L127.519 267.89L127.709 268.28L127.659 268.42L127.459 268.66L127.209 268.71L126.599 268.77L126.139 268.73L125.109 268.6L124.439 268.46L121.059 267.42L118.539 266.38L117.199 265.71L114.479 264.28L113.089 263.43L110.309 261.67L108.939 260.7L107.249 259.56L106.229 258.93L105.799 258.69L105.009 258.29L104.739 258.19L104.279 258.07L104.219 258.14L104.129 259.09L104.269 260.3L104.419 261.13L104.779 262.93L105.029 263.98L105.559 266.17L105.869 267.35L107.209 272.21L107.939 274.5L108.679 276.72L109.029 277.71L109.729 279.57L110.059 280.29L113.489 286.23L116.549 290.12L118.439 292.02L122.469 295.78L124.819 297.6L129.749 301.19L132.529 302.92L138.309 306.31L141.489 307.92L148.049 311.08L151.609 312.55L158.899 315.44L162.799 316.76L170.759 319.33L174.979 320.49L177.169 321.18L178.419 321.66L178.889 321.89L179.719 322.34L179.939 322.54L180.249 322.91L180.169 323.04L179.739 323.48L179.369 323.63L178.499 323.88L177.929 323.94L176.679 324.01L175.929 323.99L174.359 323.89L173.469 323.78L171.629 323.52L170.629 323.33L168.579 322.91L167.499 322.65L163.019 321.44L160.689 320.62L150.869 316.9L144.719 314.26L141.849 312.87L136.259 310.03L133.679 308.55L128.669 305.55L126.389 303.99L121.999 300.84L120.049 299.21L116.309 295.94L114.699 294.26L111.649 290.88L110.389 289.16L108.049 285.7L107.159 283.95L105.879 281.12L105.059 279L104.659 277.83L103.879 275.42L103.499 274.11L102.769 271.42L102.419 269.98L101.059 263.94L100.459 260.56L99.2989 253.56L98.7989 249.74L97.8589 241.9L97.4789 237.7L96.7689 229.13L96.5089 224.62L96.0389 215.44L95.9089 210.66L95.6989 200.98L95.7089 196L95.8289 185L96.0189 177.79L96.1689 174.28L96.5089 167.35L96.7289 164.02L97.1989 157.48L97.4789 154.39L98.0789 148.35L98.4189 145.55L99.1189 140.13L99.5189 137.68L100.319 132.98L100.759 130.94L101.659 127.08L102.139 125.5L103.219 121.34L103.479 120.1L103.549 119.59L103.679 118.66V118.37L104.019 116.55L104.569 114.94L104.969 113.98L105.859 111.96L106.409 110.85L107.569 108.55L108.229 107.35L111.039 102.43L112.579 100.08L114.119 97.7599L114.889 96.6999L116.419 94.6499L117.149 93.7599L121.049 89.3599L123.839 86.5099L125.329 85.1199L128.369 82.3899L129.979 81.0599L133.259 78.4499L134.979 77.1899L142.109 72.2899L145.979 70.0599L153.929 65.7499L158.189 63.8299L164.899 60.9599L169.279 59.2399L171.429 58.4799L175.709 57.0299L177.809 56.3999L181.989 55.1999L184.049 54.6999L192.219 52.9299L196.229 52.4199L204.219 51.6399L208.189 51.5999L220.189 51.4999M174.419 188.29L174.509 188.53L174.629 189.14L174.599 189.65L174.489 190.81L174.369 191.65L172.889 204.09L172.259 212.49L172.109 216.89L171.979 221.33L171.959 223.63L171.949 228.29L171.989 230.72L172.079 235.64L172.169 238.23L172.369 243.49L172.509 246.26L172.999 255.05L173.349 260.41L173.539 262.9L173.939 267.74L174.159 270.02L174.619 274.48L174.879 276.61L176.009 284.93L176.739 289.03L177.489 293.16L177.919 295.27L178.809 299.56L179.309 301.8L179.999 305.02L180.279 306.42L180.779 309.07L180.959 310.18L181.269 312.26L181.349 313.07L181.469 314.53L181.449 315.03L181.379 315.87L181.269 316.04L181.009 316.22L180.799 316.06L180.349 315.57L180.049 315.06L179.409 313.87L179.009 313L177.769 309.83L176.959 307.35L176.559 305.94L175.779 303.02L175.399 301.41L174.649 298.09L174.289 296.3L173.579 292.63L173.239 290.68L172.569 286.72L172.259 284.64L171.049 276.07L170.539 271.52L169.569 262.28L169.189 257.53L168.509 247.99L168.279 243.23L167.919 233.77L167.879 229.2V220.2L168.039 216L168.339 209.41L168.589 205.49L168.729 203.76L169.029 200.47L169.199 199.04L169.559 196.34L169.769 195.21L170.199 193.08L170.429 192.23L170.929 190.67L171.199 190.09L171.769 189.06L172.089 188.74L172.729 188.23L173.079 188.16L174.029 188.11M215.829 149.06L216.459 149.09L216.689 149.14L217.399 149.41L217.539 149.69L217.689 150.36V150.87L217.539 151.98L217.239 152.48L216.929 152.63L216.199 152.87L215.609 152.93L214.289 153H213.349L208.619 153.34L205.219 153.88L203.449 154.29L199.859 155.19L198.039 155.77L194.399 156.98L192.609 157.69L189.069 159.16L187.389 159.97L184.089 161.63L182.579 162.52L179.669 164.32L178.409 165.26L176.039 167.14L175.099 168.09L173.939 169.25L173.439 169.75L172.479 170.67L172.059 171.04L171.279 171.73L170.949 171.99L170.329 172.45L170.089 172.6L169.239 172.99L169.009 172.87L168.689 172.44V171.94L169.129 170.86L169.819 169.85L170.319 169.24L171.429 167.96L172.099 167.25L173.499 165.81L174.279 165.06L177.519 162.06L179.119 160.77L180.709 159.52L181.439 159.01L182.839 158.06L183.439 157.73L186.279 156.32L188.379 155.39L189.499 154.94L194.159 153.21L196.609 152.46L201.549 151.05L203.929 150.54L208.589 149.64L210.609 149.44L212.859 149.23L214.079 149.12L214.569 149.09L215.479 149.05M189.009 113.1L189.509 113.33L189.579 113.57L189.619 114.12L189.539 114.53L188.999 115.47L188.269 116.05L187.679 116.34L186.339 116.9L185.409 117.19L183.369 117.78L182.049 118.11L174.919 120.36L170.019 122.35L167.619 123.54L162.899 126.02L160.739 127.37L156.589 130.13L154.869 131.55L153.589 132.59L153.029 133.03L151.959 133.86L151.499 134.2L150.629 134.82L150.259 135.06L149.569 135.49L149.279 135.63L148.319 136L148.059 135.91L147.689 135.56V135.13L148.049 134.36L148.609 133.6L149.029 133.13L149.949 132.13L150.509 131.56L151.689 130.4L152.349 129.78L155.139 127.26L156.599 126.06L159.499 123.78L160.749 122.95L163.349 121.36L165.299 120.29L166.349 119.77L170.699 117.71L172.949 116.81L177.439 115.12L179.479 114.51L181.479 113.94L182.379 113.74L184.109 113.38L184.849 113.29L187.529 113.03L188.679 113.01M185.409 89.9799L185.949 90.0399L186.929 90.1999L187.229 90.3399L187.689 90.6499V90.8799L187.179 92.0699L186.299 92.7699L185.559 93.0799L183.879 93.6799L182.709 93.9599L180.139 94.5099L178.489 94.7699L173.799 95.7699L170.579 96.6899L168.959 97.2699L165.689 98.4999L164.069 99.2199L160.819 100.72L159.219 101.57L156.049 103.31L154.519 104.26L151.489 106.21L150.059 107.25L147.239 109.38L145.919 110.49L143.369 112.76L142.219 113.93L140.479 115.68L139.739 116.4L138.329 117.73L137.759 118.24L136.689 119.15L136.279 119.44L135.539 119.93L135.289 120.02L134.879 120.1L134.789 119.98L134.699 119.64L134.769 119.31L134.989 118.55L135.219 118.02L135.749 116.85L136.129 116.11L137.319 114.31L138.439 112.93L139.139 112.17L140.619 110.61L141.459 109.8L143.209 108.15L144.149 107.32L148.079 104L150.099 102.51L152.109 101.06L153.089 100.42L155.009 99.1899L155.909 98.6899L158.999 97.0999L161.399 95.9699L162.669 95.4099L165.229 94.3199L166.469 93.8299L168.879 92.9099L169.929 92.5599L175.819 90.9999L179.819 90.2899L181.579 90.1199L183.279 89.9899L184.019 89.9699M91.9489 89.1299L91.9689 89.9999L91.8889 90.2099L91.6989 91.2099L91.6089 91.7999L91.4289 93.4099L91.3389 94.2699L91.1789 96.2799L90.9889 99.4999L90.9389 100.63L90.9189 102.44V103.28L90.9989 104.5L91.0389 105.04L91.1989 105.69L91.2789 105.94L91.4889 106.01L91.5989 105.98L91.8389 105.48L91.9689 105.16L92.2289 104.11L92.3589 103.51L92.6089 101.9L92.9689 98.8599L93.1189 97.3099L93.8289 93.9699L94.0189 93.1799L94.1289 92.8299L93.8589 93.8799L93.6689 94.8899L93.3189 96.9899L93.1889 98.1599L92.9489 100.56L92.8889 101.82L92.6289 105.34L92.4189 107.14L92.2989 107.76L92.0489 108.81L91.8989 109.05L91.6089 109.32L91.4489 109.16L91.1389 108.16L90.9889 106.94L90.9489 106.12L90.8789 104.37V103.37L90.8889 101.29L90.9089 100.21L91.0989 95.8299L91.2789 93.9899L91.4689 92.2399L91.5789 91.5499L91.8289 90.3399L91.9689 89.9999L91.9489 89.1299L91.7289 88.7199L91.9489 89.1299ZM303.699 100.06L304.039 100.1L305.129 100.39L305.379 100.71L305.689 101.44V102L305.649 102.79L305.509 103.06L305.129 103.52L304.739 103.65L303.779 103.85L302.999 103.88L301.219 103.91L299.939 103.88L296.419 103.73L294.459 103.55L293.689 103.44L292.269 103.19L291.779 103.05L290.929 102.75L290.729 102.59L290.479 102.25L290.579 102.08L290.949 101.74L291.379 101.57L292.389 101.24L293.149 101.08L294.839 100.78L295.939 100.65L298.829 100.32L300.429 100.16L301.089 100.11L302.319 100.04H302.799M315.689 69.5599L322.019 69.5899L325.609 69.6199L327.129 69.6499L330.009 69.7199L331.219 69.7699L333.519 69.8799L334.489 69.9499L336.329 70.0999L337.119 70.2099L338.639 70.4199L339.319 70.5599L341.889 71.1699L343.189 71.5999L345.589 72.4899L346.959 73.1099L347.489 73.4099L348.449 73.9999L348.739 74.2599L349.189 74.7599V74.9599L349.109 75.8399L348.879 76.0799L348.239 76.4399L347.599 76.4199L346.899 76.3699L346.449 76.2899L345.469 76.1099L344.869 75.9599L343.579 75.6399L342.809 75.4299L341.159 74.9799L340.189 74.6999L335.749 73.6399L334.179 73.3799L333.299 73.2799L331.479 73.0899L330.419 73.0199L328.199 72.8899L326.889 72.8399L324.119 72.7599L322.489 72.7299L319.039 72.6799L317.009 72.6699L312.729 72.6499H310.229L306.409 72.6399L304.099 72.6299H303.049L301.029 72.6199H300.119L298.379 72.5999L297.599 72.5899L294.759 72.5499L293.699 72.5199L291.789 72.4399L291.149 72.3899L290.049 72.2799L289.759 72.1999L289.349 72.0299L289.359 71.9199L289.499 71.6899L289.739 71.5499L290.319 71.2399L290.729 71.0599L293.359 70.2799L294.549 70.0899L295.269 70.0199L296.799 69.8699L297.729 69.8199L299.699 69.7199L300.879 69.6799L303.369 69.6099L304.839 69.5899L307.929 69.5599H309.729L313.509 69.5499M107.569 54.1399L107.819 54.4799L107.639 54.7999L107.089 55.5199L106.579 55.9099L105.409 56.6999L104.649 57.0199L103.209 57.8099L102.109 58.5799L101.529 59.0399L99.2089 61.0799L98.2989 62.1399L96.6889 63.9299L95.9989 64.5399L94.7189 65.5599L94.2289 65.7799L93.3489 66.0199L93.0889 65.8299L92.6889 65.2399V64.6299L93.0589 63.7099L93.6289 62.8699L94.0489 62.3799L95.9889 60.2499L97.1789 59.1499L99.5989 57.0199L100.659 56.2599L101.679 55.5599L102.089 55.3399L102.849 54.9999H103.089L104.569 54.8199L105.669 54.5599L106.109 54.3899L107.029 54.1299L107.439 54.0999M184.889 12.9399L185.939 13.1199L186.219 13.3099L186.609 13.7299L186.509 14.0499L185.759 14.6899L184.749 15.1499L184.019 15.3799L182.439 15.8499L181.459 16.0699L179.399 16.5099L178.239 16.7099L171.389 18.2199L169.219 18.8299L168.279 19.1399L166.539 19.7399L165.919 20.0099L164.699 20.5599L164.199 20.7699L163.269 21.1799L162.899 21.3299L161.679 21.8099L161.349 21.8599L160.859 21.8699L160.769 21.7099L160.689 21.2899V20.9499L161.209 20.2999L162.019 19.6799L162.619 19.2999L163.919 18.5199L164.699 18.0999L166.339 17.2499L167.239 16.8299L170.219 15.6199L172.369 14.8999L173.479 14.5899L177.949 13.4899L179.949 13.2099L181.889 12.9599L182.719 12.9199L184.289 12.8799L184.889 12.9399Z" fill="#003380"/>
<path d="M357.779 384.83L358.919 385.08L359.539 385.19L361.149 385.4L362.019 385.5L364.179 385.68L365.349 385.76L368.169 385.92L369.669 386L373.239 386.14L375.029 386.21L374.249 386.19L372.949 386.14L370.429 386.04L369.309 385.98L367.139 385.88L366.179 385.82L364.339 385.7L363.529 385.64L361.999 385.51L361.349 385.44L360.109 385.29L359.589 385.21L357.809 384.87L357.449 384.73M358.299 379.67L359.649 379.87L361.339 380H361.949L363.099 380.29L364.189 381L364.279 381.15L364.199 381.41L364.109 381.53L363.709 381.73L363.469 381.81L362.789 381.94L361.499 382.02H360.629L359.019 382.25L358.259 382.39L357.109 382.8L357.529 382.43L358.139 382.04L360.769 380.31L357.539 379.51M337.309 371.82L341.409 374.03L343.079 374.82L346.799 376.29L348.679 377L349.849 377.37L347.389 376.64L343.139 374.98L341.229 374.03L337.569 372.04L336.379 371.21M332.909 368.63L332.899 368.62L332.889 368.61M324.689 356.18L324.529 355.73L324.389 355.02M270.039 58.0204L270.289 58.2704L270.559 58.7304L270.599 59.0704L270.589 59.7904L270.479 60.1404L269.979 60.9004L269.589 60.6404L269.269 60.1304L268.939 59.1304L268.969 58.5304L269.089 58.3204L269.379 57.9604L269.589 57.9404M378.609 386.33L377.119 386.28L375.379 386.22L379.529 386.35L387.179 386.56L381.859 386.42M323.689 350.63V350.21L323.849 351.74L323.689 350.63Z" fill="#938FA1"/>
<path d="M86.5 80.162C87.5 85.162 90 84.662 90.5 85.162C91 85.662 92.5152 83.9549 93 82.6621C93.4114 81.5651 92.7841 80.8136 93 79.6621C93.3219 77.9455 94.0866 77.1507 95 75.6621C96.3078 73.5308 97.2219 72.4203 99 70.6621C101.083 68.6027 102.568 67.795 105 66.1621C106.529 65.1351 107.5 63.9954 109 63.6621C110.5 63.3288 113.7 62.5621 114.5 62.1621C115.3 61.7621 114.833 59.9954 114.5 59.1621C113.5 55.9954 111.5 49.262 111.5 47.662C111.5 46.062 110.5 46.3287 110 46.662C104.333 49.9954 92.2 57.562 89 61.162C85.8 64.762 85 68.3287 85 69.662C85.1667 71.4954 85.7 76.162 86.5 80.162Z" fill="#003380" fill-opacity="0.1"/>
<path d="M150 22.6626C150 19.4626 152.5 18.6626 152.5 18.6626L154.5 17.1621C156.1 15.9617 177.167 10.3289 187.5 7.66258C191.333 7.16258 198.7 6.46258 197.5 7.66258C196.3 8.86258 196.667 16.8292 197 20.6626C197.333 22.3292 197.4 25.5626 195 25.1626C192.6 24.7626 186.667 25.3292 184 25.6626C179.167 26.8292 167.8 29.9626 161 33.1626C152.5 37.1626 152 34.6626 151.5 33.6626C151 32.6626 150 26.6626 150 22.6626Z" fill="#003380" fill-opacity="0.1"/>
<path fill-rule="evenodd" clip-rule="evenodd" d="M380.97 171.05C380.477 170.763 379.946 170.48 379.376 170.196C376.401 168.716 373.591 166.544 373.128 165.359C372.672 164.194 370.059 164.14 367.315 165.258C364.572 166.376 361.645 166.468 360.8 165.476C359.948 164.466 361.174 162.978 363.517 162.174C366.295 161.2 368.048 158.386 368.584 154.077C369.337 147.981 369.064 147.393 364.959 146.199C362.454 145.476 361.128 144.091 361.909 143.024C364.232 139.83 372.027 144.666 372.573 149.627C372.752 151.265 373.016 153.588 373.254 155.675C373.375 156.735 373.488 157.735 373.58 158.552C373.895 161.251 376.31 164.249 379.739 166.223C385.039 169.302 385.606 169.193 389.352 164.569C391.537 161.855 391.425 156.08 393.011 150.778C396.713 138.466 392.344 123.088 382.659 114.421C375.709 108.18 359.763 104.56 345.934 106.071C334.115 107.378 325.565 114.491 323.211 123.901C319.5 135.384 328.959 142.675 331.964 141.5C333.116 141.049 328.511 139.584 327.5 137C325.312 131.405 324.122 125.785 326.011 125.046C326.767 124.75 328.05 127.362 328.862 130.83C329.887 135.178 336 140 336 140C336 140 342.532 142.829 342.722 143.315C343.292 144.772 333.937 145.026 328.176 143.718C321.643 142.218 316.329 132.596 318.292 124.078C322.265 106.777 345.453 97.6575 368.585 104C394.395 111.064 404 131 394 161C393 164 392.835 165.356 391.5 168C389.55 171.864 383.677 172.167 380.97 171.05ZM364.764 149.545C366.163 148.999 366.63 150.249 366.258 153.643C365.972 156.308 365.087 158.223 364.311 157.854C362.112 156.855 362.478 150.439 364.764 149.545ZM346.719 134.651C348.702 137.773 352.339 141.391 354.81 142.642C357.271 143.919 358.366 145.328 357.251 145.764C354.285 146.924 343.601 139.992 341.99 135.873C339.566 129.676 343.006 128.778 346.719 134.651ZM331.964 149.225C332.609 150.876 332.753 153.083 332.309 154.175C331.857 155.247 330.768 155.248 329.893 154.179C329.01 153.091 328.858 150.865 329.547 149.229C330.462 147.057 331.113 147.049 331.964 149.225Z" fill="#181415"/>
</svg>
