<svg width="574" height="514" viewBox="0 0 574 514" fill="none" xmlns="http://www.w3.org/2000/svg">
<g clip-path="url(#clip0_1797_583)">
<path d="M119.882 78.1257C119.882 78.1257 53.3606 141.136 66.0531 228.556C78.7456 315.976 156.582 383.49 217.839 439.668C279.096 495.845 366.056 503.559 428.788 460.565C491.52 417.571 457.632 363.199 493.077 285.683C528.522 208.168 551.633 191.747 532.615 111.532C513.597 31.3161 399.751 -19.3645 286.428 1.83621C173.105 23.0369 119.882 78.1257 119.882 78.1257Z" fill="#005AE2"/>
<path opacity="0.5" d="M119.882 78.1257C119.882 78.1257 53.3606 141.136 66.0531 228.556C78.7456 315.976 156.582 383.49 217.839 439.668C279.096 495.845 366.056 503.559 428.788 460.565C491.52 417.571 457.632 363.199 493.077 285.683C528.522 208.168 551.633 191.747 532.615 111.532C513.597 31.3161 399.751 -19.3645 286.428 1.83621C173.105 23.0369 119.882 78.1257 119.882 78.1257Z" fill="white"/>
<path d="M406.517 64.6532H306.99L307.996 50.1475H407.523L406.517 64.6532Z" fill="white"/>
<path d="M406.517 84.9723H306.99L307.996 70.4666H407.523L406.517 84.9723Z" fill="white"/>
<path d="M406.517 105.305H306.99L307.996 90.7856H407.523L406.517 105.305Z" fill="white"/>
<path d="M406.517 125.624H306.99L307.996 111.105H407.523L406.517 125.624Z" fill="white"/>
<path d="M406.517 145.943H306.99L307.996 131.424H407.523L406.517 145.943Z" fill="white"/>
<path d="M406.517 166.262H306.99L307.996 151.743H407.523L406.517 166.262Z" fill="white"/>
<path d="M406.517 186.581H306.99L307.996 172.076H407.523L406.517 186.581Z" fill="white"/>
<path d="M406.517 206.914H306.99L307.996 192.395H407.523L406.517 206.914Z" fill="white"/>
<path d="M406.517 227.233H306.99L307.996 212.714H407.523L406.517 227.233Z" fill="white"/>
<path d="M406.517 247.553H306.99L307.996 233.033H407.523L406.517 247.553Z" fill="white"/>
<path d="M406.517 267.872H306.99L307.996 253.352H407.523L406.517 267.872Z" fill="white"/>
<path d="M511.764 64.6532H412.223L413.242 50.1475H512.77L511.764 64.6532Z" fill="white"/>
<path d="M511.764 84.9723H412.223L413.242 70.4666H512.77L511.764 84.9723Z" fill="white"/>
<path d="M511.764 105.305H412.223L413.242 90.7856H512.77L511.764 105.305Z" fill="white"/>
<path d="M511.764 125.624H412.223L413.242 111.105H512.77L511.764 125.624Z" fill="white"/>
<path d="M511.764 145.943H412.223L413.242 131.424H512.77L511.764 145.943Z" fill="white"/>
<path d="M511.764 166.262H412.223L413.242 151.743H512.77L511.764 166.262Z" fill="white"/>
<path d="M511.764 186.581H412.223L413.242 172.076H512.77L511.764 186.581Z" fill="white"/>
<path d="M511.764 206.914H412.223L413.242 192.395H512.77L511.764 206.914Z" fill="white"/>
<path d="M511.764 227.233H412.223L413.242 212.714H512.77L511.764 227.233Z" fill="white"/>
<path d="M511.764 247.553H412.223L413.242 233.033H512.77L511.764 247.553Z" fill="white"/>
<path d="M511.764 267.872H412.223L413.242 253.352H512.77L511.764 267.872Z" fill="white"/>
<path d="M293.029 49.3484H87.3865V225.704H293.029V49.3484Z" fill="#428DFF"/>
<path d="M282.735 58.1648H97.6672V216.888H282.735V58.1648Z" fill="white"/>
<mask id="mask0_1797_583" style="mask-type:luminance" maskUnits="userSpaceOnUse" x="97" y="58" width="186" height="159">
<path d="M282.735 58.1648H97.6672V216.888H282.735V58.1648Z" fill="white"/>
</mask>
<g mask="url(#mask0_1797_583)">
<path d="M282.735 106.283C249.453 129.95 201.784 145.654 146.48 170.326C129.054 177.975 112.655 187.777 97.6672 199.503V216.902H282.735V106.283Z" fill="#428DFF"/>
<path d="M282.735 58.1648H208.468C200.199 65.2317 190.428 73.1251 178.88 81.5834C136.613 112.565 154.928 143.574 205.656 121.009C231.689 109.452 260.671 82.6854 282.735 59.3633V58.1648Z" fill="#428DFF"/>
<path d="M129.64 75.9629C129.64 63.0276 113.529 73.2078 97.7361 86.212V118.874C113.102 103.804 129.64 87.5345 129.64 75.9629Z" fill="#428DFF"/>
<path d="M145.074 127.374C145.074 130.3 144.206 133.16 142.58 135.593C140.954 138.026 138.642 139.923 135.938 141.043C133.233 142.162 130.257 142.455 127.386 141.884C124.515 141.314 121.877 139.904 119.808 137.835C117.738 135.766 116.328 133.13 115.757 130.26C115.186 127.39 115.479 124.415 116.599 121.712C117.719 119.008 119.616 116.698 122.05 115.072C124.484 113.446 127.346 112.579 130.273 112.579C134.199 112.579 137.964 114.137 140.739 116.912C143.515 119.687 145.074 123.45 145.074 127.374Z" fill="#428DFF"/>
<path opacity="0.75" d="M282.735 106.283C249.453 129.95 201.784 145.654 146.48 170.326C129.054 177.975 112.655 187.777 97.6672 199.503V216.902H282.735V106.283Z" fill="white"/>
<path opacity="0.75" d="M282.735 58.1648H208.468C200.199 65.2317 190.428 73.1251 178.88 81.5834C136.613 112.565 154.928 143.574 205.656 121.009C231.689 109.452 260.671 82.6854 282.735 59.3633V58.1648Z" fill="white"/>
<g opacity="0.75">
<path d="M129.64 75.9629C129.64 63.0276 113.529 73.2078 97.7361 86.212V118.874C113.102 103.804 129.64 87.5345 129.64 75.9629Z" fill="white"/>
</g>
<path opacity="0.75" d="M145.074 127.374C145.074 130.3 144.206 133.16 142.58 135.593C140.954 138.026 138.642 139.923 135.938 141.043C133.233 142.162 130.257 142.455 127.386 141.884C124.515 141.314 121.877 139.904 119.808 137.835C117.738 135.766 116.328 133.13 115.757 130.26C115.186 127.39 115.479 124.415 116.599 121.712C117.719 119.008 119.616 116.698 122.05 115.072C124.484 113.446 127.346 112.579 130.273 112.579C134.199 112.579 137.964 114.137 140.739 116.912C143.515 119.687 145.074 123.45 145.074 127.374Z" fill="white"/>
</g>
<path d="M250.749 174.555C250.749 178.457 249.591 182.272 247.422 185.516C245.253 188.761 242.17 191.289 238.563 192.782C234.956 194.274 230.987 194.664 227.159 193.902C223.33 193.14 219.814 191.26 217.055 188.499C214.295 185.739 212.417 182.223 211.657 178.395C210.897 174.568 211.29 170.601 212.785 166.997C214.281 163.392 216.813 160.312 220.06 158.146C223.307 155.981 227.124 154.826 231.028 154.829C233.619 154.829 236.184 155.339 238.578 156.33C240.971 157.322 243.146 158.775 244.977 160.607C246.809 162.439 248.261 164.614 249.251 167.007C250.242 169.401 250.75 171.965 250.749 174.555Z" fill="white"/>
<path d="M501.084 223.238L460.526 223.583C460.526 223.583 457.77 223.238 457.177 225.25C457.177 225.25 450.135 243.02 449.804 249.385C449.473 255.749 451.182 254.743 448.426 263.16C445.67 271.577 438.035 291.304 433.68 307.394C427.823 329.008 426.293 351.958 425.921 374.275C425.921 377.856 423.716 408.714 429.298 408.714C433.928 408.714 476.608 414.376 477.118 406.152C479.172 373.365 473.246 341.337 484.629 309.46C489.053 297.062 494.124 284.003 497.887 271.054C501.649 258.105 502.297 244.632 504.777 231.38C506.445 222.233 501.084 223.238 501.084 223.238Z" fill="#29314D"/>
<path d="M505.067 227.261C504.667 222.577 501.084 223.238 501.084 223.238L460.526 223.583C460.526 223.583 457.77 223.238 457.177 225.25C457.177 225.25 450.135 243.02 449.804 249.385C449.704 251.066 449.751 252.753 449.942 254.426L450.796 255.804C450.796 255.804 452.174 267.527 468.229 268.202C484.285 268.877 493.38 261.493 496.729 254.426C500.078 247.36 501.428 235.995 504.102 229.286C504.389 228.595 504.711 227.919 505.067 227.261Z" fill="#428DFF"/>
<path d="M495.654 240.348C492.898 250.142 494.565 252.856 491.851 269.718C489.136 286.579 479.337 305.534 475.52 323.016C471.703 340.497 473.356 401.867 473.894 404.595C474.107 406.04 474.185 407.502 474.128 408.962C475.961 408.273 477.063 407.336 477.146 406.055C479.199 373.269 473.274 341.241 484.657 309.364C489.081 296.966 494.152 283.906 497.914 270.957C501.677 258.008 502.324 244.536 504.805 231.284C505.839 225.773 504.212 223.969 502.793 223.431C499.711 228.748 497.312 234.431 495.654 240.348Z" fill="#428DFF"/>
<path d="M417.308 487.8L417.032 487.579V449.724H422.476V425.796H402.355V449.724H407.785V488.227L359.634 503.573V507.375C359.634 508.53 360.093 509.637 360.909 510.453C361.726 511.27 362.834 511.728 363.989 511.728C365.144 511.728 366.251 511.27 367.068 510.453C367.885 509.637 368.343 508.53 368.343 507.375V506.838L408.612 502.154V507.926C408.612 508.934 409.013 509.902 409.726 510.615C410.439 511.328 411.407 511.728 412.416 511.728C413.424 511.728 414.392 511.328 415.105 510.615C415.819 509.902 416.219 508.934 416.219 507.926V501.961L458.114 506.838V507.375C458.114 508.53 458.573 509.637 459.39 510.453C460.206 511.27 461.314 511.728 462.469 511.728C463.624 511.728 464.732 511.27 465.548 510.453C466.365 509.637 466.824 508.53 466.824 507.375V503.573L417.308 487.8Z" fill="#29314D"/>
<path d="M474.721 402.46H355.141C352.097 402.46 349.629 404.927 349.629 407.97V424.707C349.629 427.751 352.097 430.218 355.141 430.218H474.721C477.765 430.218 480.233 427.751 480.233 424.707V407.97C480.233 404.927 477.765 402.46 474.721 402.46Z" fill="#29314D"/>
<path d="M4.01042 223.238L44.5684 223.583C44.5684 223.583 47.3247 223.238 47.931 225.25C47.931 225.25 54.9732 243.02 55.304 249.385C55.6347 255.749 53.9259 254.743 56.6821 263.16C59.4383 271.577 67.0731 291.304 71.428 307.394C77.2988 329.008 78.8147 351.958 79.1868 374.275C79.1868 377.856 81.3918 408.714 75.8104 408.714C71.1937 408.714 28.5134 414.376 27.9897 406.152C25.9501 373.365 31.8622 341.337 20.4789 309.46C16.0552 297.062 10.9837 284.003 7.23522 271.054C3.48674 258.105 2.82524 244.632 0.344626 231.38C-1.28155 222.233 4.01042 223.238 4.01042 223.238Z" fill="#29314D"/>
<path d="M0.0966797 227.261C0.496334 222.577 4.06566 223.238 4.06566 223.238L44.6237 223.583C44.6237 223.583 47.3799 223.238 47.9863 225.25C47.9863 225.25 55.0285 243.02 55.3592 249.385C55.4489 251.066 55.3982 252.753 55.2076 254.426L54.3532 255.804C54.3532 255.804 52.9751 267.527 36.92 268.202C20.8649 268.877 11.728 261.493 8.36539 254.413C5.00278 247.332 3.67979 235.981 0.992459 229.272C0.733157 228.585 0.434057 227.913 0.0966797 227.261Z" fill="#428DFF"/>
<path d="M9.44022 240.348C12.1965 250.142 10.5289 252.856 13.2438 269.718C15.9587 286.579 25.7709 305.534 29.5745 323.016C33.3781 340.497 31.7933 401.867 31.2007 404.595C30.9941 406.041 30.9157 407.502 30.9664 408.962C29.1473 408.273 28.031 407.336 27.9483 406.055C25.9087 373.269 31.8209 341.241 20.4376 309.364C16.0138 296.966 10.9424 283.906 7.19389 270.957C3.44541 258.008 2.78391 244.536 0.303297 231.284C-0.716511 225.773 0.909668 223.969 2.31535 223.431C5.3994 228.745 7.79363 234.429 9.44022 240.348Z" fill="#428DFF"/>
<path d="M87.7862 487.8L88.0618 487.579V449.724H82.5494V425.796H102.684V449.724H97.2401V488.227L145.392 503.573V507.375C145.392 508.53 144.933 509.637 144.116 510.453C143.299 511.27 142.192 511.728 141.037 511.728C139.882 511.728 138.774 511.27 137.957 510.453C137.141 509.637 136.682 508.53 136.682 507.375V506.838L96.5648 502.154V507.926C96.5064 508.897 96.0795 509.808 95.3713 510.475C94.6631 511.142 93.7271 511.513 92.7543 511.513C91.7816 511.513 90.8455 511.142 90.1373 510.475C89.4292 509.808 89.0023 508.897 88.9438 507.926V501.961L46.9526 506.838V507.375C46.9859 507.966 46.8981 508.558 46.6947 509.115C46.4912 509.671 46.1764 510.18 45.7694 510.61C45.3623 511.041 44.8717 511.383 44.3276 511.618C43.7834 511.852 43.1971 511.973 42.6046 511.973C42.0121 511.973 41.4258 511.852 40.8817 511.618C40.3375 511.383 39.8469 511.041 39.4399 510.61C39.0328 510.18 38.718 509.671 38.5145 509.115C38.3111 508.558 38.2233 507.966 38.2566 507.375V503.573L87.7862 487.8Z" fill="#29314D"/>
<path d="M30.3738 430.204H149.953C152.998 430.204 155.466 427.737 155.466 424.694V407.956C155.466 404.913 152.998 402.446 149.953 402.446H30.3738C27.3293 402.446 24.8613 404.913 24.8613 407.956V424.694C24.8613 427.737 27.3293 430.204 30.3738 430.204Z" fill="#29314D"/>
<path d="M450.755 324.503H123.314V512.623H450.755V324.503Z" fill="#CCCCCC"/>
<path d="M450.493 329.022H123.466V334.229H450.493V329.022Z" fill="#29314D"/>
<path d="M453.181 321.417H116.024V329.642H453.181V321.417Z" fill="#CCCCCC"/>
<path d="M210.48 305.08C210.48 305.08 214.339 322.313 214.118 327.121C213.898 331.928 204.816 344.809 204.582 341.861C204.659 339.362 205.201 336.9 206.18 334.601C206.18 334.601 202.997 338.913 201.867 338.733C200.737 338.554 202.776 332.603 202.776 332.603C202.776 332.603 199.372 336.006 198.229 335.358C197.085 334.711 200.723 329.683 200.723 329.683C200.723 329.683 196.589 333.995 196.423 332.631C196.258 331.267 200.048 325.605 200.048 325.605C200.048 325.605 196.189 317.436 195.913 314.034C195.938 311.657 196.731 309.352 198.173 307.463L210.48 305.08Z" fill="white"/>
<mask id="mask1_1797_583" style="mask-type:luminance" maskUnits="userSpaceOnUse" x="195" y="305" width="20" height="38">
<path d="M210.48 305.08C210.48 305.08 214.339 322.313 214.118 327.121C213.898 331.928 204.816 344.809 204.582 341.861C204.659 339.362 205.201 336.9 206.18 334.601C206.18 334.601 202.997 338.913 201.867 338.733C200.737 338.554 202.776 332.603 202.776 332.603C202.776 332.603 199.372 336.006 198.229 335.358C197.085 334.711 200.723 329.683 200.723 329.683C200.723 329.683 196.589 333.995 196.423 332.631C196.258 331.267 200.048 325.605 200.048 325.605C200.048 325.605 196.189 317.436 195.913 314.034C195.938 311.657 196.731 309.352 198.173 307.463L210.48 305.08Z" fill="white"/>
</mask>
<g mask="url(#mask1_1797_583)">
<path d="M210.48 305.08C210.48 305.08 214.339 322.313 214.118 327.121C213.898 331.928 204.816 344.809 204.582 341.861C204.659 339.362 205.201 336.9 206.18 334.601C206.18 334.601 202.997 338.913 201.867 338.733C200.737 338.554 202.776 332.603 202.776 332.603C202.776 332.603 199.372 336.006 198.229 335.358C197.085 334.711 200.723 329.683 200.723 329.683C200.723 329.683 196.589 333.995 196.423 332.631C196.258 331.267 200.048 325.605 200.048 325.605C200.048 325.605 196.189 317.436 195.913 314.034C195.938 311.657 196.731 309.352 198.173 307.463L210.48 305.08Z" fill="#D9D9D9"/>
</g>
<path d="M210.48 305.08C210.48 305.08 214.339 322.313 214.118 327.121C213.898 331.928 204.816 344.809 204.582 341.861C204.659 339.362 205.201 336.9 206.18 334.601C206.18 334.601 202.997 338.913 201.867 338.733C200.737 338.554 202.776 332.603 202.776 332.603C202.776 332.603 199.372 336.006 198.229 335.358C197.085 334.711 200.723 329.683 200.723 329.683C200.723 329.683 196.589 333.995 196.423 332.631C196.258 331.267 200.048 325.605 200.048 325.605C200.048 325.605 196.189 317.436 195.913 314.034C195.938 311.657 196.731 309.352 198.173 307.463L210.48 305.08Z" stroke="#29314D" stroke-linecap="round" stroke-linejoin="round"/>
<path d="M209.57 305.08C209.57 305.08 212.327 317.106 212.079 320.508C211.831 323.911 208.44 333.884 205.946 332.066C203.452 330.248 207.531 323.456 207.531 323.456C207.531 323.456 200.53 318.538 198.918 313.924C197.305 309.309 198.228 307.353 198.228 307.353L209.57 305.08Z" fill="white"/>
<mask id="mask2_1797_583" style="mask-type:luminance" maskUnits="userSpaceOnUse" x="197" y="305" width="16" height="28">
<path d="M209.57 305.08C209.57 305.08 212.327 317.106 212.079 320.508C211.831 323.911 208.44 333.884 205.946 332.066C203.452 330.248 207.531 323.456 207.531 323.456C207.531 323.456 200.53 318.538 198.918 313.924C197.305 309.309 198.228 307.353 198.228 307.353L209.57 305.08Z" fill="white"/>
</mask>
<g mask="url(#mask2_1797_583)">
<path d="M209.57 305.08C209.57 305.08 212.327 317.106 212.079 320.508C211.831 323.911 208.44 333.884 205.946 332.066C203.452 330.248 207.531 323.456 207.531 323.456C207.531 323.456 200.53 318.538 198.918 313.924C197.305 309.309 198.228 307.353 198.228 307.353L209.57 305.08Z" fill="#D9D9D9"/>
</g>
<path d="M209.57 305.08C209.57 305.08 212.327 317.106 212.079 320.508C211.831 323.911 208.44 333.884 205.946 332.066C203.452 330.248 207.531 323.456 207.531 323.456C207.531 323.456 200.53 318.538 198.918 313.924C197.305 309.309 198.228 307.353 198.228 307.353L209.57 305.08Z" stroke="#29314D" stroke-linecap="round" stroke-linejoin="round"/>
<path d="M201.26 248.723L210.921 306.237L197.305 309.322L183.689 264.965L201.26 248.723Z" fill="#29314D" stroke="#29314D" stroke-linecap="round" stroke-linejoin="round"/>
<path d="M197.305 276.826C197.305 276.826 198.187 345.318 199.496 363.764C200.806 382.209 195.982 406.799 191.6 413.824C187.217 420.85 167.869 464.794 168.751 467.398C169.633 470.002 173.588 477.936 173.588 480.127V489.343C173.588 489.343 195.541 503.835 197.305 503.835C199.069 503.835 201.26 507.347 196.864 509.992C192.468 512.637 143.269 512.623 141.078 510.86C139.633 509.563 138.57 507.896 138.005 506.039C138.005 506.039 130.976 508.67 131.417 502.085C131.858 495.5 139.755 467.398 139.755 467.398C139.755 467.398 134.932 436.651 136.682 416.896C138.432 397.142 144.592 373.42 144.592 368.599C144.592 363.778 138.446 331.708 137.564 326.446C136.682 321.183 123.948 306.237 129.653 294.39C135.359 282.543 139.755 263.642 141.519 262.334C143.283 261.025 167 260.13 176.661 262.334C186.322 264.538 196.864 264.524 197.305 276.826Z" fill="#29314D" stroke="#29314D" stroke-linecap="round" stroke-linejoin="round"/>
<path d="M153.757 138.766C153.757 138.766 146.246 145.489 144.95 147.817C143.655 150.145 127.889 172.613 127.627 188.675C127.366 204.738 139.286 253.311 139.286 253.311L121.371 298.867L126.553 300.933L131.721 295.244V303.785C131.721 303.785 137.674 309.212 153.192 314.378C168.709 319.544 188.637 313.607 188.637 313.607L194.576 275.806V313.097L201.564 308.441L202.129 246.34C202.129 246.34 207.82 212.99 207.82 203.636C207.82 194.282 192.041 165.064 185.054 156.578C178.067 148.092 166.422 141.067 163.004 138.477C159.586 135.887 153.757 138.766 153.757 138.766Z" fill="#29314D"/>
<mask id="mask3_1797_583" style="mask-type:luminance" maskUnits="userSpaceOnUse" x="121" y="137" width="87" height="180">
<path d="M153.757 138.766C153.757 138.766 146.246 145.489 144.95 147.817C143.655 150.145 127.889 172.613 127.627 188.675C127.366 204.738 139.286 253.311 139.286 253.311L121.371 298.867L126.553 300.933L131.721 295.244V303.785C131.721 303.785 137.674 309.212 153.192 314.378C168.709 319.544 188.637 313.607 188.637 313.607L194.576 275.806V313.097L201.564 308.441L202.129 246.34C202.129 246.34 207.82 212.99 207.82 203.636C207.82 194.282 192.041 165.064 185.054 156.578C178.067 148.092 166.422 141.067 163.004 138.477C159.586 135.887 153.757 138.766 153.757 138.766Z" fill="white"/>
</mask>
<g mask="url(#mask3_1797_583)">
<path opacity="0.17" d="M153.757 138.766C153.757 138.766 146.246 145.489 144.95 147.817C143.655 150.145 127.889 172.613 127.627 188.675C127.366 204.738 139.286 253.311 139.286 253.311L121.371 298.867L126.553 300.933L131.721 295.244V303.785C131.721 303.785 137.674 309.212 153.192 314.378C168.709 319.544 188.637 313.607 188.637 313.607L194.576 275.806V313.097L201.564 308.441L202.129 246.34C202.129 246.34 207.82 212.99 207.82 203.636C207.82 194.282 192.041 165.064 185.054 156.578C178.067 148.092 166.422 141.067 163.004 138.477C159.586 135.887 153.757 138.766 153.757 138.766Z" fill="white"/>
<path d="M131.652 193.828C131.652 193.828 141.05 200.481 147.307 202.823" stroke="#29314D" stroke-linecap="round" stroke-linejoin="round"/>
<path d="M134.394 200.881C134.394 200.881 144.964 203.636 150.435 203.636" stroke="#29314D" stroke-linecap="round" stroke-linejoin="round"/>
<path d="M149.664 263.45L179.403 266.976L177.446 273.23L150.049 270.103" stroke="#29314D" stroke-linecap="round" stroke-linejoin="round"/>
</g>
<path d="M153.757 138.766C153.757 138.766 146.246 145.489 144.95 147.817C143.655 150.145 127.889 172.613 127.627 188.675C127.366 204.738 139.286 253.311 139.286 253.311L121.371 298.867L126.553 300.933L131.721 295.244V303.785C131.721 303.785 137.674 309.212 153.192 314.378C168.709 319.544 188.637 313.607 188.637 313.607L194.576 275.806V313.097L201.564 308.441L202.129 246.34C202.129 246.34 207.82 212.989 207.82 203.636C207.82 194.282 192.041 165.064 185.054 156.578C178.067 148.092 166.422 141.067 163.004 138.477C159.586 135.887 153.757 138.766 153.757 138.766Z" stroke="#29314D" stroke-linecap="round" stroke-linejoin="round"/>
<path d="M152.199 140.268L180.919 171.304L197.732 203.374C197.732 203.374 194.108 179.584 191.007 173.068C187.907 166.552 173.932 150.407 172.361 146.784C170.79 143.161 152.199 140.268 152.199 140.268Z" fill="white" stroke="#29314D" stroke-linecap="round" stroke-linejoin="round"/>
<path d="M189.781 188.248L197.732 203.401C197.732 203.401 195.265 187.188 192.647 177.889L191.007 173.136C188.806 169.276 186.308 165.591 183.538 162.116L179.031 161.22L180.919 171.359L186.735 176.112L189.781 188.248Z" fill="#29314D" stroke="#29314D" stroke-linecap="round" stroke-linejoin="round"/>
<path d="M182.118 151.963L183.607 153.685L188.278 159.196L191.035 173.192L179.059 161.248C179.059 161.248 180.63 154.044 182.118 151.963Z" fill="white" stroke="#29314D" stroke-linecap="round" stroke-linejoin="round"/>
<path d="M195.665 94.2846C195.665 94.2846 201.949 99.1061 202.735 103.762C203.52 108.418 201.178 113.598 201.44 115.403C201.701 117.207 206.346 121.354 206.098 123.42C205.849 125.486 201.963 126.258 201.963 126.258C201.963 126.258 197.746 141.604 196.713 144.166C195.679 146.729 190.497 145.971 186.625 145.461L179.638 166.125L156.596 139.028L160.22 128.159C160.22 128.159 150.394 116.271 149.608 103.597C148.823 90.9234 158.925 82.1345 173.409 80.3299C187.893 78.5253 200.061 85.4958 201.605 88.3473C203.148 91.1989 195.665 94.2846 195.665 94.2846Z" fill="white"/>
<mask id="mask4_1797_583" style="mask-type:luminance" maskUnits="userSpaceOnUse" x="149" y="80" width="58" height="87">
<path d="M195.665 94.2846C195.665 94.2846 201.949 99.1061 202.735 103.762C203.52 108.418 201.178 113.598 201.44 115.403C201.701 117.207 206.346 121.354 206.098 123.42C205.849 125.486 201.963 126.258 201.963 126.258C201.963 126.258 197.746 141.604 196.713 144.166C195.679 146.729 190.497 145.971 186.625 145.461L179.638 166.125L156.596 139.028L160.22 128.159C160.22 128.159 150.394 116.271 149.608 103.597C148.823 90.9234 158.925 82.1345 173.409 80.3299C187.893 78.5253 200.061 85.4958 201.605 88.3473C203.148 91.1989 195.665 94.2846 195.665 94.2846Z" fill="white"/>
</mask>
<g mask="url(#mask4_1797_583)">
<path d="M195.665 94.2846C195.665 94.2846 201.949 99.1061 202.735 103.762C203.52 108.418 201.178 113.598 201.44 115.403C201.701 117.207 206.346 121.354 206.098 123.42C205.849 125.486 201.963 126.258 201.963 126.258C201.963 126.258 197.746 141.604 196.713 144.166C195.679 146.729 190.497 145.971 186.625 145.461L179.638 166.125L156.596 139.028L160.22 128.159C160.22 128.159 150.394 116.271 149.608 103.597C148.823 90.9234 158.925 82.1345 173.409 80.3299C187.893 78.5253 200.061 85.4958 201.605 88.3473C203.148 91.1989 195.665 94.2846 195.665 94.2846Z" fill="#D9D9D9"/>
<path d="M168.819 153.437C172.706 152.652 179.224 151.302 185.095 149.98L186.611 145.489C189.836 145.916 193.97 146.522 195.844 145.213C191.434 143.395 180.52 140.213 178.287 136.121C175.531 131.038 185.178 116.243 185.178 108.845C185.178 101.448 175.931 93.1274 175.931 93.1274C171.479 88.8983 163.362 87.6172 156.155 87.6172C153.886 89.5976 152.109 92.0788 150.966 94.8643C149.823 97.6499 149.344 100.663 149.567 103.666C150.353 116.339 160.179 128.228 160.179 128.228L156.554 139.097L168.819 153.437Z" fill="#B8B8B8"/>
</g>
<path d="M195.665 94.2846C195.665 94.2846 201.949 99.1061 202.735 103.762C203.52 108.418 201.178 113.598 201.44 115.403C201.701 117.207 206.346 121.354 206.098 123.42C205.849 125.486 201.963 126.258 201.963 126.258C201.963 126.258 197.746 141.604 196.713 144.166C195.679 146.729 190.497 145.971 186.625 145.461L179.638 166.125L156.596 139.028L160.22 128.159C160.22 128.159 150.394 116.271 149.608 103.597C148.823 90.9234 158.925 82.1345 173.409 80.3299C187.893 78.5253 200.061 85.4958 201.605 88.3473C203.148 91.1989 195.665 94.2846 195.665 94.2846Z" stroke="#29314D" stroke-linecap="round" stroke-linejoin="round"/>
<path d="M195.665 94.2846C195.665 94.2846 203.162 91.1851 201.605 88.3473C200.048 85.5095 187.893 78.5115 173.409 80.3299C158.925 82.1483 148.837 90.9234 149.609 103.597C150.38 116.271 160.22 128.159 160.22 128.159L159.669 129.812C165.03 132.429 170.57 128.159 170.57 128.159C169.558 128.669 168.411 128.844 167.293 128.658C166.176 128.472 165.146 127.936 164.354 127.126C161.254 124.288 160.992 115.237 164.878 114.452C168.764 113.667 171.341 115.237 171.341 118.075C171.341 120.913 172.113 119.108 174.194 118.847C176.275 118.585 174.442 112.386 175.738 111.353C177.832 110.057 179.672 108.391 181.167 106.435C183.496 103.335 176.771 100.759 176 97.9076C175.228 95.0561 195.665 94.2846 195.665 94.2846Z" fill="#29314D" stroke="#29314D" stroke-linecap="round" stroke-linejoin="round"/>
<path d="M197.512 114.48L192.716 116.078H197.057" stroke="#29314D" stroke-linecap="round" stroke-linejoin="round"/>
<path d="M199.345 109.686C199.345 109.686 197.291 106.724 195.004 108.088C192.716 109.452 192.496 110.374 192.496 110.374" stroke="#29314D" stroke-linecap="round" stroke-linejoin="round"/>
<path d="M194.411 130.459C195.814 131.418 197.527 131.812 199.207 131.562" stroke="#29314D" stroke-linecap="round" stroke-linejoin="round"/>
<path d="M155.562 134.11L184.53 162.557L181.953 174.707L151.166 141.604L155.562 134.11Z" fill="white" stroke="#29314D" stroke-linecap="round" stroke-linejoin="round"/>
<path d="M266.845 242.869C266.845 242.869 256.647 236.807 254.993 237.358C253.339 237.909 237.353 249.481 238.456 252.236C239.558 254.991 248.103 258.573 253.064 260.502C258.025 262.43 268.223 258.297 268.223 258.297L266.845 242.869Z" fill="white" stroke="#29314D" stroke-linecap="round" stroke-linejoin="round"/>
<path d="M237.133 240.665C237.133 240.665 245.953 235.705 247.331 235.705C248.709 235.705 256.702 242.869 256.702 242.869L253.395 247.828C253.395 247.828 263.868 253.063 262.766 254.991C261.663 256.92 257.529 259.95 253.119 260.501C248.709 261.053 236.306 253.063 236.306 253.063L237.133 240.665Z" fill="white"/>
<mask id="mask5_1797_583" style="mask-type:luminance" maskUnits="userSpaceOnUse" x="236" y="235" width="27" height="26">
<path d="M237.133 240.665C237.133 240.665 245.953 235.705 247.331 235.705C248.709 235.705 256.702 242.869 256.702 242.869L253.395 247.828C253.395 247.828 263.868 253.063 262.766 254.991C261.663 256.92 257.529 259.95 253.119 260.501C248.709 261.053 236.306 253.063 236.306 253.063L237.133 240.665Z" fill="white"/>
</mask>
<g mask="url(#mask5_1797_583)">
<path d="M237.133 240.665C237.133 240.665 245.953 235.705 247.331 235.705C248.709 235.705 256.702 242.869 256.702 242.869L253.395 247.828C253.395 247.828 263.868 253.063 262.766 254.991C261.663 256.92 257.529 259.95 253.119 260.501C248.709 261.053 236.306 253.063 236.306 253.063L237.133 240.665Z" fill="#D9D9D9"/>
</g>
<path d="M237.133 240.665C237.133 240.665 245.953 235.705 247.331 235.705C248.709 235.705 256.702 242.869 256.702 242.869L253.395 247.828C253.395 247.828 263.868 253.063 262.766 254.991C261.663 256.92 257.529 259.95 253.119 260.501C248.709 261.053 236.306 253.063 236.306 253.063L237.133 240.665Z" stroke="#29314D" stroke-linecap="round" stroke-linejoin="round"/>
<path d="M231.014 238.46L238.731 239.838L236.251 253.063L229.636 250.859L231.014 238.46Z" fill="white" stroke="#29314D" stroke-linecap="round" stroke-linejoin="round"/>
<path d="M141.45 161.593C141.45 161.593 134.008 175.919 133.181 183.083C132.355 190.246 162.673 247.277 164.878 249.206C167.083 251.134 231.565 253.063 231.565 253.063L234.321 239.012L179.197 223.307L160.454 165.725" fill="#29314D"/>
<mask id="mask6_1797_583" style="mask-type:luminance" maskUnits="userSpaceOnUse" x="133" y="161" width="102" height="93">
<path d="M141.45 161.593C141.45 161.593 134.008 175.919 133.181 183.083C132.355 190.246 162.673 247.277 164.878 249.206C167.083 251.134 231.565 253.063 231.565 253.063L234.321 239.012L179.197 223.307L160.454 165.725" fill="white"/>
</mask>
<g mask="url(#mask6_1797_583)">
<path opacity="0.17" d="M141.45 161.593C141.45 161.593 134.008 175.919 133.181 183.083C132.355 190.246 162.673 247.277 164.878 249.206C167.083 251.134 231.565 253.063 231.565 253.063L234.321 239.012L179.197 223.307L160.454 165.725" fill="white"/>
</g>
<path d="M141.45 161.593C141.45 161.593 134.008 175.919 133.181 183.083C132.355 190.246 162.673 247.277 164.878 249.206C167.083 251.134 231.565 253.063 231.565 253.063L234.321 239.012L179.197 223.307L160.454 165.725" stroke="#29314D" stroke-linecap="round" stroke-linejoin="round"/>
<path d="M257.198 238.736C257.198 238.736 253.339 235.43 251.961 239.287C250.583 243.144 242.039 252.512 245.898 252.787C249.756 253.063 256.923 245.073 256.923 245.073" fill="white"/>
<path d="M257.198 238.736C257.198 238.736 253.339 235.43 251.961 239.287C250.583 243.144 242.039 252.512 245.898 252.787C249.756 253.063 256.923 245.073 256.923 245.073" stroke="#29314D" stroke-linecap="round" stroke-linejoin="round"/>
<path d="M240.11 254.165C240.11 254.165 239.117 258.807 241.488 260.777C243.155 262.155 244.092 258.298 243.693 255.542C243.293 252.787 240.936 251.961 240.11 254.165Z" fill="white" stroke="#29314D" stroke-linecap="round" stroke-linejoin="round"/>
<path d="M244.023 255.267C244.023 255.267 243.031 259.909 245.402 261.879C247.069 263.257 248.006 259.4 247.607 256.644C247.207 253.889 244.795 253.063 244.023 255.267Z" fill="white" stroke="#29314D" stroke-linecap="round" stroke-linejoin="round"/>
<path d="M247.827 256.92C247.827 256.92 246.835 261.562 249.205 263.532C250.873 264.91 251.81 261.053 251.41 258.298C251.01 255.542 248.654 254.716 247.827 256.92Z" fill="white" stroke="#29314D" stroke-linecap="round" stroke-linejoin="round"/>
<path d="M251.644 259.165C251.644 259.165 250.735 262.292 252.912 263.615C254.442 264.552 255.31 261.948 254.938 260.088C254.566 258.229 252.402 257.677 251.644 259.165Z" fill="white" stroke="#29314D" stroke-linecap="round" stroke-linejoin="round"/>
<path d="M266.845 242.869L267.672 260.502L273.736 258.849L272.357 242.593L266.845 242.869Z" stroke="#29314D" stroke-linecap="round" stroke-linejoin="round"/>
<path d="M270.979 241.216L273.735 262.155L319.765 257.195L320.867 229.92L270.979 241.216Z" fill="#29314D" stroke="#29314D" stroke-linecap="round" stroke-linejoin="round"/>
<path d="M190.277 324.682C190.277 324.682 181.925 380.446 181.925 399.333C181.925 418.219 169.191 449.834 168.75 467.398" stroke="white" stroke-linecap="round" stroke-linejoin="round"/>
<path d="M141.078 510.833C143.269 512.596 192.468 512.596 196.864 509.965C201.26 507.334 199.055 503.807 197.305 503.807C195.555 503.807 173.588 489.315 173.588 489.315C173.588 489.315 161.722 498.545 155.135 500.735C148.547 502.926 138.005 503.366 138.005 503.366V506.011C138.57 507.869 139.632 509.536 141.078 510.833Z" fill="white" stroke="#29314D" stroke-linecap="round" stroke-linejoin="round"/>
<path d="M196.864 509.992C199.179 508.615 199.62 506.962 199.345 505.736C192.884 507.012 186.32 507.699 179.734 507.788C166.463 508.146 145.584 507.334 138.391 507.031C138.986 508.511 139.932 509.825 141.147 510.86C143.269 512.623 192.468 512.623 196.864 509.992Z" fill="white" stroke="#29314D" stroke-linecap="round" stroke-linejoin="round"/>
<path d="M136.723 506.383L138.005 503.394L139.755 467.398C139.755 467.398 131.845 495.5 131.417 502.085C131.087 506.879 134.725 506.783 136.723 506.383Z" fill="#29314D" stroke="#29314D" stroke-linecap="round" stroke-linejoin="round"/>
<path d="M326.448 313.703C326.448 313.703 322.052 379.137 326.448 405.476C330.845 431.816 341.87 477.496 343.578 483.199C344.655 486.603 345.122 490.171 344.957 493.737L369.556 497.25C369.556 497.25 362.087 410.753 362.087 400.655C362.087 390.557 370.438 315.026 370.438 315.026L326.448 313.703Z" fill="#29314D" stroke="#29314D" stroke-linecap="round" stroke-linejoin="round"/>
<path d="M344.902 493.737C344.902 493.737 318.111 505.157 315.024 507.347C311.937 509.538 321.625 512.624 333.477 512.624C345.329 512.624 357.208 511.246 357.208 511.246L362.032 508.615L362.473 511.687H375.207C375.207 511.687 377.412 501.148 376.585 498.517C375.958 496.717 375.227 494.955 374.393 493.241L344.902 493.737Z" fill="#29314D" stroke="#29314D" stroke-linecap="round" stroke-linejoin="round"/>
<path d="M322.493 308.441C322.493 308.441 324.698 371.23 329.963 393.629C335.227 416.029 344.461 470.47 344.461 476.173C344.495 479.434 344.054 482.682 343.151 485.816L341.387 491.547C341.688 492.915 342.151 494.242 342.766 495.5C342.766 495.5 354.176 498.132 361.646 498.132C366.315 498.09 370.954 497.39 375.427 496.051C375.427 496.051 375.661 482.276 376.102 475.732C376.543 469.189 374.352 426.994 374.352 416.897C374.352 406.799 371.706 401.082 371.706 388.794C371.706 376.506 369.515 343.569 369.956 338.293C370.397 333.017 376.543 327.272 377.866 320.729C379.189 314.185 380.498 307.118 380.498 307.118L322.493 308.441Z" fill="#29314D" stroke="#29314D" stroke-linecap="round" stroke-linejoin="round"/>
<path d="M327.758 374.454C327.758 374.454 340.037 459.601 343.11 464.973C344.943 468.401 345.435 472.389 344.488 476.159" stroke="white" stroke-linecap="round" stroke-linejoin="round"/>
<path d="M311.951 258.821C311.951 258.821 310.311 275.614 310.311 288.452C310.311 295.616 310.242 304.983 310.173 311.761C310.154 314.55 311.105 317.259 312.866 319.423C314.626 321.587 317.085 323.072 319.82 323.622C322.705 324.256 325.645 324.611 328.599 324.682L318.276 260.791C318.276 260.791 313.605 252.897 311.951 258.821Z" fill="#29314D" stroke="#29314D" stroke-linecap="round" stroke-linejoin="round"/>
<path d="M360.722 144.4C363.239 145.724 365.535 147.43 367.53 149.456C369.289 151.767 370.847 154.223 372.188 156.798C372.188 156.798 390.862 178.316 391.303 180.506C391.744 182.697 380.76 251.864 380.76 251.864L393.274 317.285C393.274 317.285 373.07 328.484 357.691 329.146C346.872 329.614 330.597 326.156 321.859 324.062C320.121 323.651 318.556 322.703 317.386 321.353C316.216 320.003 315.501 318.32 315.341 316.541C314.487 307.339 312.888 288.99 311.951 271.618C310.876 251.437 313.935 211.46 316.085 197.409C318.235 183.358 325.098 164.265 330.362 156.358C335.627 148.45 350.138 140.268 360.722 144.4Z" fill="#29314D" stroke="#29314D" stroke-linecap="round" stroke-linejoin="round"/>
<path d="M372.188 156.799C370.86 154.259 369.32 151.835 367.585 149.553C365.591 147.526 363.294 145.821 360.777 144.497C352.013 141.039 340.547 146.054 333.89 152.39C333.008 154.346 326.063 170.188 322.769 183.138C319.255 196.913 319.696 214.326 319.696 214.326C319.696 214.326 331.341 199.393 347.148 181.829C355.041 173.05 363.662 164.953 372.919 157.625L372.188 156.799Z" fill="#29314D"/>
<mask id="mask7_1797_583" style="mask-type:luminance" maskUnits="userSpaceOnUse" x="319" y="143" width="54" height="72">
<path d="M372.188 156.799C370.86 154.259 369.32 151.835 367.585 149.553C365.591 147.526 363.294 145.821 360.777 144.497C352.013 141.039 340.547 146.054 333.89 152.39C333.008 154.346 326.063 170.188 322.769 183.138C319.255 196.913 319.696 214.326 319.696 214.326C319.696 214.326 331.341 199.393 347.148 181.829C355.041 173.05 363.662 164.953 372.919 157.625L372.188 156.799Z" fill="white"/>
</mask>
<g mask="url(#mask7_1797_583)">
<path opacity="0.17" d="M372.188 156.799C370.86 154.259 369.32 151.835 367.585 149.553C365.591 147.526 363.294 145.821 360.777 144.497C352.013 141.039 340.547 146.054 333.89 152.39C333.008 154.346 326.063 170.188 322.769 183.138C319.255 196.913 319.696 214.326 319.696 214.326C319.696 214.326 331.341 199.393 347.148 181.829C355.041 173.05 363.662 164.953 372.919 157.625L372.188 156.799Z" fill="white"/>
</g>
<path d="M372.188 156.799C370.86 154.259 369.32 151.835 367.585 149.553C365.591 147.526 363.294 145.821 360.777 144.497C352.013 141.039 340.547 146.054 333.89 152.39C333.008 154.346 326.063 170.188 322.769 183.138C319.255 196.913 319.696 214.326 319.696 214.326C319.696 214.326 331.341 199.393 347.148 181.829C355.041 173.05 363.662 164.953 372.919 157.625L372.188 156.799Z" stroke="#29314D" stroke-linecap="round" stroke-linejoin="round"/>
<path d="M332.388 162.488C332.388 162.488 326.449 181.099 324.643 186.361C322.838 191.623 322.659 199.875 322.659 199.875C322.659 199.875 344.902 166.607 350.331 161.014C355.761 155.421 362.858 146.687 362.858 146.687L358.076 145.31L332.388 162.488Z" fill="white" stroke="#29314D" stroke-linecap="round" stroke-linejoin="round"/>
<path d="M334.028 155.738C334.028 155.738 331.396 163.48 331.396 164.003C331.396 164.527 330.734 171.91 330.734 171.91L340.119 159.223L334.028 155.738Z" fill="white" stroke="#29314D" stroke-linecap="round" stroke-linejoin="round"/>
<path d="M357.911 140.268L332.223 161.179L336.178 172.696L362.528 145.861L357.911 140.268Z" fill="white" stroke="#29314D" stroke-linecap="round" stroke-linejoin="round"/>
<path d="M354.59 306.126C354.59 306.126 350.938 315.205 349.849 318.18C348.76 321.156 349.312 332.81 349.449 334.036C349.587 335.262 351.751 335.524 351.751 335.524C351.751 335.524 352.426 344.864 353.239 345.167C354.084 345.377 354.947 345.511 355.816 345.566C355.816 345.566 357.305 350.319 359.206 349.905C359.778 349.731 360.286 349.395 360.67 348.938C361.054 348.481 361.297 347.922 361.37 347.329C361.995 347.388 362.624 347.281 363.195 347.02C363.766 346.759 364.258 346.353 364.622 345.842C365.397 344.703 366.035 343.478 366.524 342.191C366.524 342.191 369.777 340.566 370.038 339.34C370.3 338.114 371.127 333.829 371.127 333.829C371.127 333.829 372.078 333.554 372.078 330.716C372.078 327.878 369.914 310.397 369.914 310.397L354.59 306.126Z" fill="white" stroke="#29314D" stroke-linecap="round" stroke-linejoin="round"/>
<path d="M351.751 335.524L352.151 327.286" stroke="#29314D" stroke-linecap="round" stroke-linejoin="round"/>
<path d="M355.816 345.539L356.698 333.347" stroke="#29314D" stroke-linecap="round" stroke-linejoin="round"/>
<path d="M361.37 347.302L362.004 334.105" stroke="#29314D" stroke-linecap="round" stroke-linejoin="round"/>
<path d="M366.524 342.164L367.31 332.975" stroke="#29314D" stroke-linecap="round" stroke-linejoin="round"/>
<path d="M381.366 174.514L391.248 180.437L387.954 248.723L370.383 313.262L353.694 308.882L358.958 257.912L356.326 206.542C356.326 206.542 360.061 194.571 368.619 187.986" fill="#29314D"/>
<path d="M381.366 174.514L391.248 180.437L387.954 248.723L370.383 313.262L353.694 308.882L358.958 257.912L356.326 206.542C356.326 206.542 360.061 194.571 368.619 187.986" stroke="#29314D" stroke-linecap="round" stroke-linejoin="round"/>
<path d="M361.039 186.044C361.039 186.044 356.547 197.45 356.326 206.57" stroke="white" stroke-linecap="round" stroke-linejoin="round"/>
<path d="M364.788 191.472C364.788 191.472 357.098 204.022 357.098 209.697C357.098 215.373 359.124 262.733 359.124 262.733L353.859 303.619" stroke="white" stroke-linecap="round" stroke-linejoin="round"/>
<path d="M317.064 98.431C317.064 98.431 311.785 113.419 312.282 115.568C312.778 117.717 313.274 120.996 313.274 120.996C313.274 120.996 305.005 131.203 306.025 132.36C307.045 133.518 311.62 134.826 311.62 134.826C311.62 134.826 315.41 150.641 316.898 152.115C318.387 153.589 327.606 150.31 327.606 150.31L337.487 162.818L357.746 143.395L355.279 133.187C355.279 133.187 365.987 114.411 365.821 105.512C365.656 96.6127 347.382 84.7656 334.359 84.9309C321.336 85.0962 309.153 89.8764 311.62 93.334C313.073 95.3819 314.924 97.1156 317.064 98.431Z" fill="white"/>
<mask id="mask8_1797_583" style="mask-type:luminance" maskUnits="userSpaceOnUse" x="305" y="84" width="61" height="79">
<path d="M317.064 98.431C317.064 98.431 311.785 113.419 312.282 115.568C312.778 117.717 313.274 120.996 313.274 120.996C313.274 120.996 305.005 131.203 306.025 132.36C307.045 133.518 311.62 134.826 311.62 134.826C311.62 134.826 315.41 150.641 316.898 152.115C318.387 153.589 327.606 150.31 327.606 150.31L337.487 162.818L357.746 143.395L355.279 133.187C355.279 133.187 365.987 114.411 365.821 105.512C365.656 96.6127 347.382 84.7656 334.359 84.9309C321.336 85.0962 309.153 89.8764 311.62 93.334C313.073 95.3819 314.924 97.1156 317.064 98.431Z" fill="white"/>
</mask>
<g mask="url(#mask8_1797_583)">
<path d="M359.427 95.2214C356.917 95.5879 354.466 96.2826 352.137 97.2878L332.719 105.154C332.719 105.154 323.472 113.006 324.45 119.012C325.429 125.018 333.697 133.339 331.851 139.345C330.004 145.351 318.442 151.826 318.442 151.826L322.066 151.963C324.822 151.316 327.661 150.31 327.661 150.31L329.177 152.225L347.892 152.9L357.801 143.395L355.334 133.187C355.334 133.187 366.042 114.411 365.876 105.512C365.766 102.233 363.23 98.5551 359.427 95.2214Z" fill="#B8B8B8"/>
</g>
<path d="M317.064 98.431C317.064 98.431 311.785 113.419 312.282 115.568C312.778 117.717 313.274 120.996 313.274 120.996C313.274 120.996 305.005 131.203 306.025 132.36C307.045 133.518 311.62 134.826 311.62 134.826C311.62 134.826 315.41 150.641 316.898 152.115C318.387 153.589 327.606 150.31 327.606 150.31L337.487 162.818L357.746 143.395L355.279 133.187C355.279 133.187 365.987 114.411 365.821 105.512C365.656 96.6127 347.382 84.7656 334.359 84.9309C321.336 85.0962 309.153 89.8764 311.62 93.334C313.073 95.3819 314.924 97.1156 317.064 98.431Z" stroke="#29314D" stroke-linecap="round" stroke-linejoin="round"/>
<path d="M355.279 133.187C355.279 133.187 365.987 114.411 365.822 105.512C365.656 96.6127 347.382 84.7656 334.359 84.9309C321.336 85.0962 309.153 89.8764 311.62 93.334C313.073 95.3819 314.925 97.1156 317.064 98.431C317.064 98.431 325.139 102.219 325.139 103.211C325.139 104.203 320.357 109.465 322.011 111.78C323.665 114.094 331.561 116.877 331.561 116.877C331.561 116.877 330.183 121.326 332.223 121.822C334.263 122.318 335.186 120.334 336.495 119.067C337.804 117.8 342.435 115.926 343.096 121.533C343.486 125.554 342.43 129.583 340.12 132.898C339.472 133.38 348.526 139.482 352.523 137.664C353.556 137.196 354.769 136.576 355.982 135.928L355.279 133.187Z" fill="#29314D" stroke="#29314D" stroke-linecap="round" stroke-linejoin="round"/>
<path d="M315.741 125.115C316.38 125.115 316.898 123.123 316.898 120.665C316.898 118.208 316.38 116.216 315.741 116.216C315.101 116.216 314.583 118.208 314.583 120.665C314.583 123.123 315.101 125.115 315.741 125.115Z" stroke="#29314D" stroke-linecap="round" stroke-linejoin="round"/>
<path d="M317.064 118.86L336.495 119.026" stroke="#29314D" stroke-linecap="round" stroke-linejoin="round"/>
<path d="M313.866 113.502C313.866 113.502 315.713 110.554 317.56 114.232" stroke="#29314D" stroke-linecap="round" stroke-linejoin="round"/>
<path d="M313.494 137.513C315.493 136.699 317.353 135.578 319.007 134.193" stroke="#29314D" stroke-linecap="round" stroke-linejoin="round"/>
<path d="M11.4934 512.624H553.879" stroke="#29314D" stroke-width="2" stroke-miterlimit="10"/>
</g>
<defs>
<clipPath id="clip0_1797_583">
<rect width="574" height="514" fill="white" transform="translate(0 0.000976562)"/>
</clipPath>
</defs>
</svg>
