<svg width="28" height="28" viewBox="0 0 28 28" fill="none" xmlns="http://www.w3.org/2000/svg">
<path d="M19.6204 20.4473C20.8446 20.1915 21.9225 19.4803 22.6476 18.4637C25.0648 15.2084 22.3337 10.3186 18.2955 10.6782C15.0442 2.4632 3.45741 8.35542 8.12485 15.8337" stroke="#3D43F5" stroke-width="1.5" stroke-miterlimit="10" stroke-linecap="round" stroke-linejoin="round"/>
<path d="M9.72049 15.8796C9.18366 15.7381 8.61781 15.727 8.08162 15.8528C3.89624 17.0752 5.24586 23.2576 9.55261 22.6392" stroke="#3D43F5" stroke-width="1.5" stroke-miterlimit="10" stroke-linecap="round" stroke-linejoin="round"/>
<path d="M16.9014 11.3815C17.3243 11.0415 17.8074 10.8031 18.3345 10.6793" stroke="#3D43F5" stroke-width="1.5" stroke-miterlimit="10" stroke-linecap="round" stroke-linejoin="round"/>
<path d="M12.7229 21.1403L13.6351 20.9426L14.0958 23.0679C14.163 23.3781 14.5888 23.4481 14.7381 23.1675L16.4212 20.1382C16.6277 19.7687 16.4537 19.539 16.0433 19.628L15.1311 19.8257L14.6704 17.7004C14.6032 17.3903 14.1774 17.3202 14.0281 17.6009L12.345 20.6302C12.1385 20.9996 12.3125 21.2293 12.7229 21.1403Z" stroke="#3D43F5" stroke-width="1.5" stroke-miterlimit="10" stroke-linecap="round" stroke-linejoin="round"/>
</svg>
