<svg width="26" height="26" viewBox="0 0 26 26" fill="none" xmlns="http://www.w3.org/2000/svg">
<path d="M10.1816 3.15107L18.9081 4.55507C19.5071 4.65143 20.0385 4.75588 20.5073 4.89747C23.0139 5.59381 23.5123 6.90291 22.9845 10.1834L22.0475 16.0072C21.5197 19.2877 20.6358 20.3744 18.0374 20.2494C17.5478 20.2368 17.0196 20.1707 16.4114 20.0729L7.68498 18.6689C7.08602 18.5725 6.55453 18.4681 6.08574 18.3265C3.57919 17.6301 3.08082 16.321 3.60861 13.0405L4.5456 7.21676C5.0734 3.93628 5.95723 2.84956 8.5557 2.97457C9.04525 2.98716 9.58268 3.0547 10.1816 3.15107Z" stroke="#3D43F5" stroke-width="1.5" stroke-linecap="round" stroke-linejoin="round"/>
<path d="M15.0684 9.9118L18.4594 10.4574" stroke="#3D43F5" stroke-width="1.5" stroke-linecap="round" stroke-linejoin="round"/>
<path d="M7.90698 14.2331L7.9254 14.2361L17.6102 15.7942" stroke="#3D43F5" stroke-width="1.5" stroke-linecap="round" stroke-linejoin="round"/>
<path d="M6.97705 21.5422L16.1919 23.0248" stroke="#3D43F5" stroke-width="1.5" stroke-linecap="round" stroke-linejoin="round"/>
<path d="M9.18722 8.94665L9.19549 8.94799" stroke="#3D43F5" stroke-width="2" stroke-linecap="round" stroke-linejoin="round"/>
<path d="M12.2285 9.43597L12.2368 9.4373" stroke="#3D43F5" stroke-width="2" stroke-linecap="round" stroke-linejoin="round"/>
</svg>
