<svg width="28" height="28" viewBox="0 0 28 28" fill="none" xmlns="http://www.w3.org/2000/svg">
<path d="M14.0001 9.20508L12.7517 11.3751C12.4717 11.8534 12.7051 12.2501 13.2534 12.2501H14.7351C15.2951 12.2501 15.5167 12.6467 15.2367 13.1251L14.0001 15.2951" stroke="#513DFF" stroke-width="1.6" stroke-linecap="round" stroke-linejoin="round"/>
<path d="M9.68326 21.0467V19.6934C6.99992 18.0717 4.79492 14.91 4.79492 11.55C4.79492 5.77504 10.1033 1.24838 16.0999 2.55504C18.7366 3.13838 21.0466 4.88838 22.2483 7.30338C24.6866 12.2034 22.1199 17.4067 18.3516 19.6817V21.035C18.3516 21.3734 18.4799 22.155 17.2316 22.155H10.8033C9.51992 22.1667 9.68326 21.665 9.68326 21.0467Z" stroke="#513DFF" stroke-width="1.6" stroke-linecap="round" stroke-linejoin="round"/>
<path d="M9.91675 25.6667C12.5884 24.9083 15.4117 24.9083 18.0834 25.6667" stroke="#513DFF" stroke-width="1.6" stroke-linecap="round" stroke-linejoin="round"/>
</svg>
