<svg width="27" height="25" viewBox="0 0 27 25" fill="none" xmlns="http://www.w3.org/2000/svg">
<g clip-path="url(#clip0_578_2775)">
<g style="mix-blend-mode:multiply" opacity="0.5">
<path opacity="0.05" d="M3.63754 4.08304C-0.769361 9.14757 0.103071 16.9527 5.58373 21.5129C11.0644 26.0732 19.0729 25.6566 23.4574 20.614C27.8419 15.5495 26.9695 7.74441 21.4888 3.18414C16.0082 -1.37614 8.02207 -0.981498 3.63754 4.06111V4.08304Z" fill="white"/>
<path opacity="0.05" d="M3.88254 4.25889C-0.3454 9.14803 0.549402 16.69 5.91821 21.1187C11.2647 25.5475 19.0271 25.1748 23.255 20.2856C27.4606 15.4403 26.5434 7.89834 21.197 3.46961C15.8505 -0.959119 8.11048 -0.608329 3.88254 4.28081V4.25889Z" fill="#F7F7F7"/>
<path opacity="0.05" d="M4.12899 4.45609C0.0576401 9.16983 0.997185 16.4487 6.23178 20.7678C11.444 25.065 18.9827 24.7362 23.0317 20.0224C27.0807 15.3306 26.1187 8.02976 20.9065 3.73258C15.6943 -0.564601 8.17797 -0.25766 4.12899 4.45609Z" fill="#EFEEEE"/>
<path opacity="0.05" d="M4.37647 4.65253C0.484085 9.16896 1.446 16.2286 6.54637 20.3942C11.6467 24.5599 18.9394 24.2749 22.8094 19.7365C26.6794 15.2201 25.7175 8.18236 20.6171 4.01672C15.5391 -0.148912 8.26886 0.136105 4.37647 4.65253Z" fill="#E7E6E6"/>
<path opacity="0.05" d="M4.62035 4.85114C0.88455 9.19217 1.8912 15.9887 6.85735 20.0228C11.8235 24.0569 18.8701 23.7938 22.5835 19.4528C26.2969 15.1118 25.2903 8.33712 20.3241 4.30303C15.358 0.26894 8.33378 0.510108 4.62035 4.85114Z" fill="#DFDEDE"/>
<path opacity="0.05" d="M4.86815 5.04809C1.31131 9.21373 2.34033 15.7472 7.19463 19.6497C12.0266 23.5523 18.8494 23.333 22.3839 19.1674C25.9184 15.0237 24.867 8.4683 20.035 4.58768C15.2031 0.685136 8.40262 0.882456 4.86815 5.04809Z" fill="#D7D5D5"/>
<path opacity="0.05" d="M5.11457 5.24517C1.71432 9.23541 2.78809 15.5277 7.50817 19.2987C12.2059 23.0697 18.7827 22.8943 22.1605 18.9041C25.5161 14.9138 24.4423 8.62152 19.7446 4.85053C15.0469 1.07953 8.49245 1.233 5.11457 5.22324V5.24517Z" fill="#D0CDCD"/>
<path opacity="0.05" d="M5.36054 5.42078C2.13926 9.23563 3.23539 15.2648 7.82125 18.9043C12.4071 22.5437 18.7378 22.3903 21.9368 18.5973C25.1357 14.8044 24.0395 8.77521 19.4537 5.13576C14.8678 1.49631 8.55946 1.62786 5.33817 5.4427L5.36054 5.42078Z" fill="#C8C5C5"/>
<path opacity="0.05" d="M5.58118 5.61836C2.51649 9.25781 3.65736 15.0239 8.109 18.5318C12.5606 22.0397 18.6453 21.9301 21.6876 18.3126C24.7299 14.6951 23.5891 8.90702 19.1374 5.39911C14.6858 1.89121 8.62351 1.97891 5.55881 5.61836H5.58118Z" fill="#C0BCBC"/>
<path opacity="0.05" d="M5.82863 5.81563C2.94289 9.25776 4.10614 14.8046 8.42355 18.181C12.741 21.5573 18.6019 21.4916 21.4653 18.0494C24.351 14.6073 23.1654 9.06044 18.848 5.70601C14.5306 2.32965 8.69199 2.3735 5.80626 5.83756L5.82863 5.81563Z" fill="#B8B4B4"/>
<path opacity="0.05" d="M6.07656 6.01347C3.34741 9.2802 4.5554 14.564 8.76097 17.8088C12.9442 21.0536 18.559 21.0317 21.2658 17.743C23.9726 14.4763 22.7646 9.19251 18.5814 5.96962C14.3758 2.72481 8.8057 2.74673 6.07656 6.01347Z" fill="#B0ACAC"/>
<path opacity="0.05" d="M6.3229 6.20933C3.77271 9.30067 5.00306 14.3214 9.07441 17.4346C13.1458 20.5479 18.5146 20.5479 21.0424 17.4565C23.5926 14.3652 22.3622 9.34452 18.2909 6.23125C14.2195 3.11799 8.87308 3.09607 6.3229 6.18741V6.20933Z" fill="#A8A3A3"/>
<path opacity="0.05" d="M6.56901 6.40794C4.17542 9.32389 5.45051 14.1034 9.38764 17.0851C13.3248 20.0668 18.4475 20.1107 20.8187 17.1947C23.19 14.2788 21.9372 9.49928 18.0001 6.53949C14.063 3.55777 8.96261 3.492 6.56901 6.40794Z" fill="#A09B9B"/>
<path opacity="0.05" d="M6.81359 6.60535C4.59895 9.3459 5.89641 13.8623 9.69932 16.7125C13.5022 19.5627 18.4013 19.6504 20.5935 16.9098C22.8082 14.1693 21.5107 9.65285 17.7078 6.8246C13.9049 3.97443 9.02822 3.88673 6.81359 6.60535Z" fill="#989393"/>
<path opacity="0.05" d="M7.06037 6.77888C5.00232 9.32211 6.34453 13.5974 10.0356 16.316C13.7266 19.0346 18.3572 19.1662 20.3929 16.601C22.4286 14.0359 21.1088 9.78252 17.4177 7.06389C13.7266 4.34527 9.09604 4.21372 7.06037 6.77888Z" fill="#908A8A"/>
<path opacity="0.05" d="M7.30692 6.97651C5.42784 9.34434 6.79241 13.3784 10.3493 15.9436C13.9061 18.5307 18.313 18.6841 20.1697 16.3163C22.0488 13.9485 20.6842 9.91438 17.1274 7.34922C13.5705 4.76214 9.18601 4.58675 7.30692 6.97651Z" fill="#888282"/>
<path opacity="0.05" d="M7.53048 7.17436C5.80799 9.3668 7.2173 13.1378 10.6399 15.5933C14.0625 18.0489 18.2234 18.2462 19.9235 16.0537C21.646 13.8613 20.2367 10.0903 16.814 7.6567C13.3914 5.20116 9.2306 4.98192 7.53048 7.19628V7.17436Z" fill="#817A7A"/>
<path opacity="0.05" d="M7.77538 7.37096C6.23185 9.38801 7.66353 12.8959 10.9519 15.2199C14.2403 17.5439 18.1775 17.7851 19.6986 15.768C21.2422 13.751 19.8105 10.2431 16.5221 7.91907C13.2337 5.59509 9.31892 5.35392 7.77538 7.37096Z" fill="#797171"/>
<path opacity="0.05" d="M8.02346 7.5684C6.63651 9.41004 8.11294 12.6768 11.2671 14.8473C14.4437 17.0397 18.1123 17.3028 19.4769 15.4831C20.8639 13.6415 19.3874 10.3966 16.2333 8.2042C13.0791 6.01176 9.38803 5.72675 8.02346 7.5684Z" fill="#716969"/>
<path opacity="0.05" d="M8.26902 7.76558C7.06104 9.43184 8.55983 12.4355 11.6022 14.4964C14.6445 16.5573 18.0895 16.8642 19.2751 15.198C20.4831 13.5317 18.9843 10.5281 15.9419 8.48909C12.8996 6.45012 9.477 6.09933 8.24665 7.76558H8.26902Z" fill="#696161"/>
<path opacity="0.05" d="M8.51412 7.94072C7.46272 9.40965 9.00626 12.1721 11.9144 14.1015C14.8225 16.0089 18.0214 16.3816 19.0728 14.8908C20.1242 13.3999 18.5806 10.6593 15.6725 8.73C12.7644 6.80065 9.56551 6.44986 8.51412 7.91879V7.94072Z" fill="#615858"/>
<path opacity="0.05" d="M8.76026 8.14046C7.88783 9.43399 9.45373 11.9553 12.2276 13.7312C15.0015 15.5071 17.9767 15.9236 18.8492 14.6082C19.7216 13.2927 18.1781 10.7933 15.3818 9.01743C12.6079 7.21963 9.65506 6.82499 8.76026 8.14046Z" fill="#595050"/>
</g>
<path d="M11.1984 14.2559C15.583 18.1804 21.4215 18.3996 23.748 14.8259C25.8508 11.5592 24.6428 5.85885 20.661 2.89905C16.8804 0.0708045 11.4221 0.333897 8.96142 2.81135C6.29939 5.48613 7.10471 10.6164 11.1984 14.2778V14.2559Z" fill="url(#paint0_linear_578_2775)"/>
<path d="M11.6234 13.7511C15.9855 17.6097 21.7794 17.8509 24.0835 14.3211C26.1639 11.0982 24.9336 5.46363 20.9517 2.52576C17.1935 -0.258639 11.78 -0.0174704 9.34163 2.41614C6.70197 5.06899 7.52966 10.1335 11.6234 13.7511Z" fill="url(#paint1_radial_578_2775)"/>
<g opacity="0.28">
<path d="M17.4394 6.3841C14.509 4.03819 10.9298 3.24891 8.33484 4.14781C8.55853 3.51201 8.9612 2.9639 9.45334 2.45964C11.7575 0.113725 17.0592 -0.0616704 20.7502 2.72273C24.665 5.6606 25.9401 11.2732 23.9491 14.3646C23.457 15.11 22.7411 15.7677 21.9358 16.1624C22.4056 12.9395 20.6384 8.94926 17.4394 6.40603V6.3841Z" fill="url(#paint2_radial_578_2775)"/>
</g>
<g style="mix-blend-mode:screen">
<path opacity="0.05" d="M10.3484 12.5238C9.72208 11.7784 8.24566 9.6079 8.55884 9.38866C9.38653 8.75285 10.9301 8.95017 11.1985 9.65175C11.713 10.9234 10.3484 12.5238 10.3484 12.5238Z" fill="white"/>
<path opacity="0.1" d="M10.3241 12.4576C9.72011 11.7341 8.28842 9.62936 8.57924 9.41011C9.38456 8.79623 10.8834 8.99355 11.1518 9.67321C11.6439 10.901 10.3241 12.4576 10.3241 12.4576Z" fill="white"/>
<path opacity="0.14" d="M10.3019 12.4134C9.72028 11.7118 8.33334 9.6728 8.60178 9.45356C9.38473 8.8616 10.8164 9.03699 11.0849 9.71665C11.577 10.9225 10.2795 12.4134 10.2795 12.4134H10.3019Z" fill="white"/>
<path opacity="0.19" d="M10.28 12.3707C9.7208 11.6911 8.35622 9.71788 8.64703 9.49864C9.40761 8.9286 10.7946 9.104 11.063 9.7398C11.5328 10.9018 10.3024 12.3707 10.3024 12.3707H10.28Z" fill="white"/>
<path opacity="0.24" d="M10.2566 12.3263C9.69735 11.6686 8.39989 9.73924 8.66833 9.54193C9.40654 8.97189 10.7487 9.16921 10.9948 9.78309C11.4422 10.9232 10.2566 12.3263 10.2566 12.3263Z" fill="white"/>
<path opacity="0.29" d="M10.212 12.283C9.67513 11.6472 8.40003 9.78361 8.66848 9.58629C9.38432 9.03818 10.6818 9.21357 10.9279 9.82746C11.3753 10.9237 10.212 12.283 10.212 12.283Z" fill="white"/>
<path opacity="0.33" d="M10.1896 12.2388C9.67513 11.6249 8.44478 9.82714 8.69085 9.62982C9.38432 9.10363 10.637 9.27903 10.8831 9.87099C11.3081 10.9234 10.1896 12.2388 10.1896 12.2388Z" fill="white"/>
<path opacity="0.38" d="M10.1681 12.1928C9.67601 11.6009 8.49039 9.84692 8.71409 9.67153C9.3852 9.16727 10.5932 9.34266 10.8169 9.9127C11.2195 10.9431 10.1458 12.1928 10.1458 12.1928H10.1681Z" fill="white"/>
<path opacity="0.43" d="M10.1436 12.15C9.6738 11.58 8.51055 9.89178 8.75662 9.71638C9.40535 9.23405 10.5686 9.38752 10.7923 9.93563C11.195 10.9222 10.1659 12.15 10.1659 12.15H10.1436Z" fill="white"/>
<path opacity="0.48" d="M10.1231 12.1057C9.67569 11.5576 8.55719 9.93516 8.78089 9.75977C9.40725 9.27743 10.5258 9.45282 10.7271 9.97901C11.1074 10.9437 10.1231 12.1057 10.1231 12.1057Z" fill="white"/>
<path opacity="0.52" d="M10.0773 12.0626C9.65226 11.5364 8.55613 9.97979 8.77983 9.8044C9.38382 9.34398 10.4576 9.51938 10.6589 10.0236C11.0168 10.9445 10.0773 12.0626 10.0773 12.0626Z" fill="white"/>
<path opacity="0.57" d="M10.0541 12.0182C9.6514 11.514 8.60001 10.0012 8.80134 9.84771C9.38296 9.40922 10.412 9.56269 10.5909 10.067C10.9489 10.9439 10.0317 12.0182 10.0317 12.0182H10.0541Z" fill="white"/>
<path opacity="0.62" d="M10.0331 11.9751C9.65286 11.4928 8.64621 10.0458 8.84754 9.89233C9.40679 9.47577 10.3687 9.62924 10.57 10.1116C10.9056 10.9666 10.0555 11.9751 10.0555 11.9751H10.0331Z" fill="white"/>
<path opacity="0.67" d="M10.0107 11.9315C9.65281 11.4711 8.66853 10.0899 8.86986 9.9364C9.40674 9.51984 10.3239 9.69523 10.5029 10.1337C10.8161 10.9449 10.0107 11.9315 10.0107 11.9315Z" fill="white"/>
<path opacity="0.71" d="M9.98753 11.8871C9.65198 11.4486 8.71244 10.1112 8.8914 9.97967C9.40591 9.58503 10.2783 9.7385 10.4573 10.177C10.7705 10.9443 9.98753 11.8871 9.98753 11.8871Z" fill="white"/>
<path opacity="0.76" d="M9.94365 11.8211C9.6081 11.4045 8.73566 10.1329 8.89226 10.0014C9.3844 9.62864 10.2121 9.78211 10.3687 10.1987C10.6595 10.9441 9.92128 11.8211 9.92128 11.8211H9.94365Z" fill="white"/>
<path opacity="0.81" d="M9.92141 11.7782C9.60822 11.3835 8.75816 10.1777 8.93712 10.0461C9.4069 9.69535 10.1898 9.84882 10.3464 10.2435C10.6149 10.945 9.92141 11.7782 9.92141 11.7782Z" fill="white"/>
<path opacity="0.86" d="M9.89847 11.7344C9.60766 11.3617 8.80234 10.2216 8.95893 10.0901C9.40633 9.7612 10.1445 9.91467 10.3011 10.2874C10.5696 10.967 9.92084 11.7563 9.92084 11.7563L9.89847 11.7344Z" fill="white"/>
<path opacity="0.9" d="M9.87708 11.6892C9.60864 11.3384 8.82569 10.2422 8.98228 10.1326C9.40731 9.80368 10.1008 9.95715 10.235 10.3079C10.4811 10.9438 9.87708 11.6892 9.87708 11.6892Z" fill="white"/>
<path opacity="0.95" d="M9.85375 11.6464C9.60768 11.3176 8.86947 10.2871 9.00369 10.1775C9.40635 9.87055 10.0551 10.024 10.1893 10.3529C10.4354 10.9448 9.85375 11.6464 9.85375 11.6464Z" fill="white"/>
<path d="M9.83151 11.6028C9.60781 11.2959 8.91434 10.3312 9.04856 10.2216C9.42885 9.93656 10.0328 10.09 10.1447 10.397C10.3684 10.967 9.83151 11.6028 9.83151 11.6028Z" fill="white"/>
</g>
<g style="mix-blend-mode:screen">
<path opacity="0.05" d="M15.985 16.1203C13.8598 16.0983 10.124 12.6781 10.3254 12.415C11.511 10.8365 12.5624 8.84136 15.4034 11.1434C17.3272 12.7001 15.985 16.1203 15.985 16.1203Z" fill="white"/>
<path opacity="0.1" d="M15.8746 16.0772C13.8389 16.0334 10.1926 12.7447 10.3939 12.4816C11.5348 10.9469 12.5638 9.01759 15.3153 11.232C17.172 12.7228 15.8746 16.0772 15.8746 16.0772Z" fill="white"/>
<path opacity="0.14" d="M15.7618 16.0334C13.8156 15.9896 10.2811 12.8105 10.4601 12.5475C11.5562 11.0566 12.5405 9.1711 15.2249 11.3197C17.0145 12.7667 15.7394 16.0334 15.7394 16.0334H15.7618Z" fill="white"/>
<path opacity="0.19" d="M15.6497 15.9894C13.7706 15.9237 10.348 12.8762 10.5493 12.6131C11.6007 11.1661 12.5626 9.34636 15.1575 11.4292C16.9024 12.8323 15.6497 15.9894 15.6497 15.9894Z" fill="white"/>
<path opacity="0.24" d="M15.5597 15.9458C13.7701 15.8581 10.4594 12.9421 10.6383 12.679C11.6673 11.2978 12.5845 9.5 15.09 11.517C16.7677 12.8544 15.5597 15.9458 15.5597 15.9458Z" fill="white"/>
<path opacity="0.29" d="M15.4483 15.923C13.7482 15.8353 10.5269 13.029 10.7059 12.7659C11.6902 11.4285 12.5626 9.69646 15.0009 11.6258C16.6116 12.9193 15.4483 15.923 15.4483 15.923Z" fill="white"/>
<path opacity="0.33" d="M15.3354 15.8793C13.7024 15.7697 10.6153 13.0949 10.7943 12.8318C11.7338 11.5383 12.5839 9.8501 14.9328 11.7137C16.4987 12.9634 15.3354 15.8574 15.3354 15.8574V15.8793Z" fill="white"/>
<path opacity="0.38" d="M15.2259 15.8356C13.6824 15.726 10.6848 13.1609 10.8637 12.9197C11.7809 11.6919 12.5862 10.0476 14.8456 11.8454C16.3444 13.0293 15.2259 15.8576 15.2259 15.8576V15.8356Z" fill="white"/>
<path opacity="0.43" d="M15.1125 15.791C13.636 15.6595 10.7503 13.2259 10.9293 12.9847C11.8017 11.8008 12.5623 10.2003 14.7545 11.9323C16.1862 13.0724 15.1125 15.8129 15.1125 15.8129V15.791Z" fill="white"/>
<path opacity="0.48" d="M15.0012 15.7474C13.6142 15.5939 10.8403 13.2918 11.0193 13.0507C11.847 11.9106 12.5852 10.354 14.688 12.0202C16.0749 13.1164 15.0235 15.7474 15.0235 15.7474H15.0012Z" fill="white"/>
<path opacity="0.52" d="M14.8885 15.7037C13.5911 15.5502 10.9067 13.3578 11.0856 13.1166C11.8909 12.0204 12.5844 10.5295 14.5977 12.1081C15.9175 13.1385 14.8885 15.7037 14.8885 15.7037Z" fill="white"/>
<path opacity="0.57" d="M14.7789 15.6606C13.5485 15.4852 10.9984 13.4243 11.155 13.1832C11.9155 12.1527 12.5643 10.6838 14.5105 12.1966C15.7632 13.1832 14.7789 15.6606 14.7789 15.6606Z" fill="white"/>
<path opacity="0.62" d="M14.6663 15.6156C13.5255 15.4402 11.0647 13.4889 11.2437 13.2477C11.9595 12.2611 12.5859 10.858 14.4203 12.305C15.6282 13.2477 14.6663 15.6156 14.6663 15.6156Z" fill="white"/>
<path opacity="0.67" d="M14.5518 15.5721C13.5004 15.3748 11.1515 13.5551 11.3081 13.3139C12.0016 12.3712 12.5608 11.0119 14.3281 12.3931C15.4689 13.2701 14.5518 15.5721 14.5518 15.5721Z" fill="white"/>
<path opacity="0.71" d="M14.4414 15.5277C13.4571 15.3085 11.2201 13.6203 11.3767 13.3791C12.0254 12.4802 12.5623 11.1867 14.2401 12.4802C15.3138 13.3134 14.419 15.5277 14.419 15.5277H14.4414Z" fill="white"/>
<path opacity="0.76" d="M14.3306 15.5073C13.4358 15.2881 11.2882 13.7095 11.4672 13.4903C12.0712 12.6572 12.5857 11.3856 14.174 12.6133C15.203 13.3807 14.3306 15.5073 14.3306 15.5073Z" fill="white"/>
<path opacity="0.81" d="M14.2168 15.4632C13.3891 15.2221 11.3758 13.7751 11.5323 13.5558C12.114 12.7665 12.5614 11.5607 14.0825 12.7008C15.0444 13.4243 14.2168 15.4632 14.2168 15.4632Z" fill="white"/>
<path opacity="0.86" d="M14.1075 15.4192C13.3693 15.178 11.4455 13.8406 11.6021 13.6214C12.139 12.876 12.564 11.714 13.9957 12.8102C14.8905 13.4899 14.0852 15.4411 14.0852 15.4411L14.1075 15.4192Z" fill="white"/>
<path opacity="0.9" d="M13.9963 15.3742C13.3475 15.1111 11.5356 13.9053 11.6922 13.6861C12.1843 13.0064 12.587 11.8883 13.9292 12.8968C14.7792 13.5107 13.9963 15.3742 13.9963 15.3742Z" fill="white"/>
<path opacity="0.95" d="M13.882 15.3315C13.3004 15.0465 11.6003 13.9722 11.7569 13.753C12.2267 13.1172 12.5622 12.0429 13.8373 12.9856C14.6202 13.5557 13.882 15.3315 13.882 15.3315Z" fill="white"/>
<path d="M13.7714 15.2862C13.2793 15.0012 11.691 14.0365 11.8252 13.8173C12.2503 13.2253 12.5634 12.2168 13.7491 13.0718C14.4873 13.598 13.7491 15.2862 13.7491 15.2862H13.7714Z" fill="white"/>
</g>
</g>
<defs>
<linearGradient id="paint0_linear_578_2775" x1="13.8803" y1="-0.490294" x2="19.2213" y2="22.5411" gradientUnits="userSpaceOnUse">
<stop stop-color="#616161"/>
<stop offset="0.29" stop-color="white"/>
<stop offset="0.62" stop-color="#1C1C1C"/>
<stop offset="0.65" stop-color="#1F1F1F"/>
<stop offset="0.68" stop-color="#2B2B2B"/>
<stop offset="0.71" stop-color="#3E3E3E"/>
<stop offset="0.74" stop-color="#585858"/>
<stop offset="0.77" stop-color="#7B7B7B"/>
<stop offset="0.8" stop-color="#A4A4A4"/>
<stop offset="0.82" stop-color="#D4D4D4"/>
<stop offset="1" stop-color="#575757"/>
</linearGradient>
<radialGradient id="paint1_radial_578_2775" cx="0" cy="0" r="1" gradientUnits="userSpaceOnUse" gradientTransform="translate(28.6474 -2.39227) rotate(136.166) scale(20.0982 20.0859)">
<stop offset="0.1" stop-color="white"/>
<stop offset="0.52" stop-color="#C2C2C2"/>
</radialGradient>
<radialGradient id="paint2_radial_578_2775" cx="0" cy="0" r="1" gradientUnits="userSpaceOnUse" gradientTransform="translate(34.7658 -5.238) rotate(136.166) scale(18.5199 19.2877)">
<stop offset="0.41" stop-color="#474747"/>
<stop offset="0.64" stop-color="white"/>
</radialGradient>
<clipPath id="clip0_578_2775">
<rect width="25.4124" height="24.665" fill="white" transform="matrix(-1 0 0 1 26.25 0.000244141)"/>
</clipPath>
</defs>
</svg>
