<svg width="24" height="23" viewBox="0 0 24 23" fill="none" xmlns="http://www.w3.org/2000/svg">
<path d="M17.6668 6.80085C17.6108 6.79152 17.5455 6.79152 17.4895 6.80085C16.2015 6.75418 15.1748 5.69952 15.1748 4.39285C15.1748 3.05818 16.2481 1.98485 17.5828 1.98485C18.9175 1.98485 19.9908 3.06752 19.9908 4.39285C19.9815 5.69952 18.9548 6.75418 17.6668 6.80085Z" stroke="#3D43F5" stroke-width="1.5" stroke-linecap="round" stroke-linejoin="round"/>
<path d="M16.7052 13.5955C17.9839 13.8102 19.3933 13.5862 20.3826 12.9235C21.6986 12.0462 21.6986 10.6089 20.3826 9.73153C19.3839 9.06886 17.9559 8.84486 16.6772 9.06886" stroke="#3D43F5" stroke-width="1.5" stroke-linecap="round" stroke-linejoin="round"/>
<path d="M6.43924 6.80085C6.49524 6.79152 6.56057 6.79152 6.61657 6.80085C7.90457 6.75418 8.93123 5.69952 8.93123 4.39285C8.93123 3.05818 7.8579 1.98485 6.52324 1.98485C5.18857 1.98485 4.11523 3.06752 4.11523 4.39285C4.12457 5.69952 5.15124 6.75418 6.43924 6.80085Z" stroke="#3D43F5" stroke-width="1.5" stroke-linecap="round" stroke-linejoin="round"/>
<path d="M7.40017 13.5955C6.1215 13.8102 4.71217 13.5862 3.72284 12.9235C2.40684 12.0462 2.40684 10.6089 3.72284 9.73153C4.72151 9.06886 6.1495 8.84486 7.42817 9.06886" stroke="#3D43F5" stroke-width="1.5" stroke-linecap="round" stroke-linejoin="round"/>
<path d="M12.0667 13.7729C12.0107 13.7635 11.9454 13.7635 11.8894 13.7729C10.6014 13.7262 9.57471 12.6715 9.57471 11.3648C9.57471 10.0302 10.648 8.95685 11.9827 8.95685C13.3174 8.95685 14.3907 10.0395 14.3907 11.3648C14.3814 12.6715 13.3547 13.7355 12.0667 13.7729Z" stroke="#3D43F5" stroke-width="1.5" stroke-linecap="round" stroke-linejoin="round"/>
<path d="M9.35077 16.7128C8.03477 17.5902 8.03477 19.0275 9.35077 19.9048C10.8441 20.9035 13.2894 20.9035 14.7828 19.9048C16.0988 19.0275 16.0988 17.5902 14.7828 16.7128C13.2988 15.7235 10.8441 15.7235 9.35077 16.7128Z" stroke="#3D43F5" stroke-width="1.5" stroke-linecap="round" stroke-linejoin="round"/>
</svg>
