<svg width="36" height="37" viewBox="0 0 36 37" fill="none" xmlns="http://www.w3.org/2000/svg">
<g clip-path="url(#clip0_578_2747)">
<path style="mix-blend-mode:multiply" opacity="0.25" d="M21.6878 28.9237C22.0314 30.5086 19.3861 32.4278 15.7808 33.2093C12.1756 33.9907 8.97304 33.3391 8.62949 31.7541C8.28595 30.1692 10.9313 28.25 14.5365 27.4685C18.1417 26.6871 21.3443 27.3387 21.6878 28.9237Z" fill="url(#paint0_radial_578_2747)"/>
<path d="M11.8294 31.5157C11.7213 30.8771 11.1179 30.446 10.4842 30.5529C9.84635 30.6607 9.42029 31.267 9.53348 31.9088C9.64164 32.5474 10.2459 32.9826 10.8829 32.8707C11.5166 32.7638 11.9426 32.1575 11.8336 31.5148L11.8294 31.5157Z" fill="url(#paint1_linear_578_2747)"/>
<path d="M16.8739 22.7873L11.445 32.3525C10.8825 32.9274 9.54391 32.1548 9.67699 31.3333L15.1059 21.7681L16.8698 22.7882L16.8739 22.7873Z" fill="url(#paint2_linear_578_2747)"/>
<path style="mix-blend-mode:multiply" d="M16.8739 22.7873L11.445 32.3525C10.8825 32.9274 9.54391 32.1548 9.67699 31.3333L15.1059 21.7681L16.8698 22.7882L16.8739 22.7873Z" fill="url(#paint3_linear_578_2747)"/>
<path d="M24.2731 19.5603C25.5059 23.7922 23.0375 27.8159 18.7528 28.5443C14.4681 29.2727 9.99316 26.4317 8.75537 22.1965C7.51847 17.9655 9.991 13.9409 14.2766 13.2167C18.5613 12.4883 23.0362 15.3293 24.2731 19.5603Z" fill="#3D43F5"/>
<path d="M24.7226 19.5936C25.9595 23.8246 23.486 27.845 19.2014 28.5734C14.9167 29.3018 10.4417 26.4608 9.20898 22.2289C7.97209 17.9979 10.4446 13.9733 14.7302 13.2491C19.0149 12.5207 23.4898 15.3617 24.7267 19.5927L24.7226 19.5936Z" fill="url(#paint4_radial_578_2747)"/>
<path d="M24.2806 19.6676C23.1134 15.6784 18.8941 12.9998 14.8547 13.6837C14.7217 13.7082 14.5947 13.7401 14.4667 13.7678C18.5005 13.0981 22.7015 15.772 23.8669 19.7529C24.9929 23.6116 22.8447 27.2784 19.0504 28.1357C19.0586 28.1339 19.0669 28.1321 19.0751 28.1303C23.1136 27.4423 25.4469 23.6526 24.2797 19.6634L24.2806 19.6676Z" fill="#777CF8"/>
<path d="M27.0573 12.0448L20.9613 23.1179C19.0106 26.1409 11.4163 22.6258 13.2028 18.9851L19.2989 7.91205L27.0573 12.0448Z" fill="url(#paint5_linear_578_2747)"/>
<path d="M13.2902 18.8529L19.3124 7.91782L19.2973 7.90803L13.2013 18.9811C11.0578 22.7297 18.8192 26.178 20.9541 23.1281C18.8605 25.8903 11.5424 22.433 13.2943 18.852L13.2902 18.8529Z" fill="url(#paint6_linear_578_2747)"/>
<path d="M28.9869 9.80169C29.9268 13.0213 28.0448 16.0817 24.7854 16.6357C21.526 17.1898 18.1187 15.0276 17.1788 11.808C16.239 8.58841 18.121 5.52804 21.3804 4.97399C24.6397 4.41994 28.0429 6.58297 28.9869 9.80169Z" fill="#080C91"/>
<path d="M28.8217 9.59797C29.7077 12.6289 27.9368 15.5041 24.8691 16.0253C21.8014 16.5465 18.5994 14.5141 17.7134 11.4831C16.8324 8.45545 18.5983 5.57704 21.666 5.05583C24.7337 4.53462 27.9357 6.56704 28.8217 9.59797Z" fill="url(#paint7_linear_578_2747)"/>
<path d="M28.5513 9.64347C27.7101 6.7596 24.664 4.82841 21.7458 5.32157C21.6128 5.34604 21.4858 5.37794 21.3578 5.40567C24.2654 4.92351 27.2992 6.85739 28.1376 9.72878C28.9417 12.4813 27.4421 15.0929 24.768 15.7553C24.7762 15.7535 24.7845 15.7517 24.7928 15.75C27.71 15.2526 29.3948 12.5181 28.5495 9.63515L28.5513 9.64347Z" fill="#999CFA"/>
</g>
<defs>
<radialGradient id="paint0_radial_578_2747" cx="0" cy="0" r="1" gradientUnits="userSpaceOnUse" gradientTransform="translate(15.1587 30.3389) rotate(-12.23) scale(6.68078 2.93702)">
<stop stop-color="#5E3518"/>
<stop offset="0.09" stop-color="#633B1F"/>
<stop offset="0.23" stop-color="#724E34"/>
<stop offset="0.4" stop-color="#8A6C57"/>
<stop offset="0.6" stop-color="#AB9687"/>
<stop offset="0.81" stop-color="#D5CBC3"/>
<stop offset="1" stop-color="white"/>
</radialGradient>
<linearGradient id="paint1_linear_578_2747" x1="9.70869" y1="31.0188" x2="11.8479" y2="32.5232" gradientUnits="userSpaceOnUse">
<stop stop-color="#020327"/>
<stop offset="1" stop-color="#0A10B8"/>
</linearGradient>
<linearGradient id="paint2_linear_578_2747" x1="13.7952" y1="27.758" x2="12.014" y2="26.7475" gradientUnits="userSpaceOnUse">
<stop stop-color="#242429"/>
<stop offset="0.26" stop-color="#18181B"/>
<stop offset="0.55" stop-color="#131316"/>
<stop offset="0.78" stop-color="#434343"/>
<stop offset="0.82" stop-color="#474747"/>
<stop offset="0.87" stop-color="#535353"/>
<stop offset="0.91" stop-color="#676767"/>
<stop offset="0.96" stop-color="#848484"/>
<stop offset="1" stop-color="#242429"/>
</linearGradient>
<linearGradient id="paint3_linear_578_2747" x1="12.0589" y1="28.7433" x2="14.5126" y2="24.4956" gradientUnits="userSpaceOnUse">
<stop stop-color="white"/>
<stop offset="1"/>
</linearGradient>
<radialGradient id="paint4_radial_578_2747" cx="0" cy="0" r="1" gradientUnits="userSpaceOnUse" gradientTransform="translate(19.5134 19.6247) rotate(-9.63991) scale(14.8584 14.9743)">
<stop stop-color="#5F64F7"/>
<stop offset="0.08" stop-color="#555BF6"/>
<stop offset="0.17" stop-color="#474DF5"/>
<stop offset="0.25" stop-color="#1B22F3"/>
<stop offset="0.34" stop-color="#0B12D0"/>
<stop offset="0.42" stop-color="#080C91"/>
<stop offset="0.53" stop-color="#080DA0"/>
<stop offset="0.67" stop-color="#2027F3"/>
<stop offset="0.83" stop-color="#070B83"/>
</radialGradient>
<linearGradient id="paint5_linear_578_2747" x1="15.4346" y1="14.3032" x2="23.6671" y2="19.0816" gradientUnits="userSpaceOnUse">
<stop stop-color="#090EAA"/>
<stop offset="0.08" stop-color="#080D9B"/>
<stop offset="0.16" stop-color="#070C8D"/>
<stop offset="0.25" stop-color="#070C8D"/>
<stop offset="0.58" stop-color="#090EAA"/>
<stop offset="0.87" stop-color="#8B8EF9"/>
<stop offset="1" stop-color="#0B11CB"/>
</linearGradient>
<linearGradient id="paint6_linear_578_2747" x1="15.4132" y1="14.6091" x2="23.2573" y2="19.1583" gradientUnits="userSpaceOnUse">
<stop stop-color="#070B88"/>
<stop offset="0.06" stop-color="#070B7E"/>
<stop offset="0.15" stop-color="#060A74"/>
<stop offset="0.2499" stop-color="#050861"/>
<stop offset="0.309" stop-color="#06096F"/>
<stop offset="0.58" stop-color="#070B88"/>
<stop offset="0.87" stop-color="#4248F5"/>
<stop offset="1" stop-color="#3D43F5"/>
</linearGradient>
<linearGradient id="paint7_linear_578_2747" x1="18.1127" y1="7.49746" x2="28.4747" y2="13.5096" gradientUnits="userSpaceOnUse">
<stop stop-color="#0B11CB"/>
<stop offset="0.11" stop-color="#0C13E4"/>
<stop offset="0.34" stop-color="#2A31F4"/>
<stop offset="0.56" stop-color="#474DF5"/>
<stop offset="0.78" stop-color="#555BF6"/>
<stop offset="1" stop-color="#5F64F7"/>
</linearGradient>
<clipPath id="clip0_578_2747">
<rect width="29.994" height="29.994" fill="white" transform="translate(0.28125 7.29712) rotate(-12.23)"/>
</clipPath>
</defs>
</svg>
