<svg width="33" height="25" viewBox="0 0 33 25" fill="none" xmlns="http://www.w3.org/2000/svg">
<path d="M0.66 0.114258C0.484962 0.114276 0.317099 0.184519 0.193329 0.30954C0.0695586 0.43456 1.75011e-05 0.604119 0 0.780925L0 10.4476C0 14.6691 3.41067 18.1143 7.59 18.1143C11.367 18.1143 14.3779 15.2524 14.9493 11.5947C15.3562 12.1642 15.7429 12.7457 16.2022 13.2666C15.3815 16.7793 14.3579 21.1717 13.8626 23.2952C13.8399 23.393 13.8393 23.4948 13.861 23.5928C13.8827 23.6908 13.926 23.7826 13.9877 23.8614C14.0494 23.9401 14.128 24.0038 14.2175 24.0476C14.307 24.0914 14.4051 24.1142 14.5045 24.1143H18.5728C18.7218 24.1144 18.8664 24.0637 18.9831 23.9703C19.0999 23.8769 19.182 23.7464 19.2161 23.5999C19.6659 21.6711 20.2365 19.2234 20.7732 16.9229C21.9949 17.569 23.4082 18.1143 25.08 18.1143C29.4409 18.1143 33 14.5192 33 10.1143C33 5.70929 29.4409 2.11426 25.08 2.11426C22.0121 2.11426 19.3575 3.93858 18.0507 6.639C16.6652 4.21629 15.6285 1.66176 15.2509 0.562175C15.2059 0.431284 15.1216 0.317813 15.0098 0.237539C14.898 0.157264 14.7642 0.114174 14.627 0.114258H10.56C10.385 0.114276 10.2171 0.184519 10.0933 0.30954C9.96956 0.43456 9.90002 0.604119 9.9 0.780925V10.4476C9.9 11.7399 8.8694 12.7809 7.59 12.7809C6.31061 12.7809 5.28 11.7399 5.28 10.4476V0.780925C5.27998 0.604119 5.21044 0.43456 5.08667 0.30954C4.9629 0.184519 4.79504 0.114276 4.62 0.114258H0.66ZM1.32 1.44759H3.96V10.4476C3.96 12.4633 5.59447 14.1143 7.59 14.1143C9.58553 14.1143 11.22 12.4633 11.22 10.4476V1.44759H14.1784C14.7004 2.92455 15.8037 5.80602 17.5338 8.47884C17.6032 8.58618 17.7017 8.67106 17.8175 8.72331C17.9334 8.77557 18.0617 8.79298 18.1871 8.77347C18.3125 8.75397 18.4297 8.69836 18.5246 8.61331C18.6195 8.52826 18.6882 8.41738 18.7223 8.29395C19.5165 5.41738 22.1039 3.44759 25.08 3.44759C28.7249 3.44759 31.68 6.43256 31.68 10.1143C31.68 13.796 28.7249 16.7809 25.08 16.7809C23.3743 16.7809 21.872 16.1543 20.6624 15.4033C20.5734 15.3482 20.4727 15.3152 20.3686 15.307C20.2645 15.2988 20.16 15.3157 20.0636 15.3562C19.9673 15.3968 19.8818 15.4598 19.8142 15.5402C19.7467 15.6206 19.6989 15.716 19.675 15.8187C19.1249 18.176 18.5375 20.6938 18.0507 22.7809H15.3386C15.8851 20.4374 16.7908 16.5517 17.557 13.2731C17.582 13.1663 17.5805 13.0549 17.5526 12.9488C17.5247 12.8428 17.4713 12.7453 17.3972 12.665C16.5445 11.7399 15.7675 10.6703 15.0782 9.56348C15.0018 9.44133 14.8882 9.34754 14.7545 9.29623C14.6208 9.24491 14.4743 9.23884 14.3369 9.27894C14.1995 9.31903 14.0787 9.40312 13.9927 9.51854C13.9067 9.63397 13.8601 9.77448 13.86 9.91895V10.4476C13.86 13.946 11.0535 16.7809 7.59 16.7809C4.12653 16.7809 1.32 13.946 1.32 10.4476V1.44759ZM25.08 6.11426C23.2762 6.11426 21.6935 7.35089 21.245 9.11426C21.1979 9.29983 20.9866 10.2053 20.6559 11.6195C20.6273 11.7417 20.6334 11.8696 20.6735 11.9884C20.7136 12.1073 20.7862 12.2123 20.8828 12.2913C21.8826 13.1096 23.3456 14.1143 25.08 14.1143C27.2576 14.1143 29.04 12.3138 29.04 10.1143C29.04 7.91467 27.2576 6.11426 25.08 6.11426ZM25.08 7.44759C26.5417 7.44759 27.72 8.63784 27.72 10.1143C27.72 11.5907 26.5417 12.7809 25.08 12.7809C24.0034 12.7809 22.9194 12.138 22.0468 11.4749C22.286 10.4539 22.5116 9.49278 22.5238 9.44499C22.8237 8.26569 23.8702 7.44759 25.08 7.44759Z" fill="#222222"/>
</svg>
