<svg width="131" height="41" viewBox="0 0 131 41" fill="none" xmlns="http://www.w3.org/2000/svg">
<rect x="1.80318" y="2.02534" width="128.258" height="37.9355" fill="white" stroke="#6F6F6F" stroke-width="0.903226"/>
<rect x="32.9648" y="1.57373" width="64.129" height="38.8387" fill="white"/>
<rect x="17.2461" y="5.64893" width="2.67154" height="2.67154" rx="1.33577" fill="#FF3333"/>
<rect x="0.449219" y="9.70264" width="130.065" height="21.6774" fill="white"/>
<path d="M9.70108 12.4126V16.4721C9.70108 16.9382 9.68716 17.3904 9.65933 17.8287C9.63846 18.267 9.62107 18.6079 9.60716 18.8514H9.70108C10.0141 18.3366 10.4664 17.9018 11.0577 17.547C11.6491 17.1922 12.4039 17.0147 13.3223 17.0147C14.7554 17.0147 15.8964 17.5122 16.7452 18.5071C17.6009 19.495 18.0288 20.9664 18.0288 22.9214C18.0288 24.2084 17.834 25.2937 17.4444 26.1773C17.0548 27.0609 16.5052 27.7287 15.7955 28.181C15.0859 28.6332 14.2476 28.8593 13.2805 28.8593C12.3761 28.8593 11.6317 28.6923 11.0473 28.3584C10.4698 28.0175 10.0246 27.6035 9.71151 27.1165H9.57585L9.22104 28.6506H7.96875V12.4126H9.70108ZM13.0405 18.4653C12.2126 18.4653 11.5552 18.6288 11.0682 18.9558C10.5812 19.2758 10.2298 19.7628 10.0141 20.4168C9.80543 21.0638 9.70108 21.8847 9.70108 22.8796V22.9735C9.70108 24.4137 9.9411 25.5164 10.4211 26.2817C10.9012 27.04 11.7743 27.4191 13.0405 27.4191C14.1049 27.4191 14.9015 27.0295 15.4303 26.2503C15.966 25.4711 16.2338 24.358 16.2338 22.9109C16.2338 21.436 15.9695 20.3263 15.4407 19.5819C14.9189 18.8375 14.1189 18.4653 13.0405 18.4653Z" fill="#38424D"/>
<path d="M22.7875 17.213V28.6506H21.0551V17.213H22.7875ZM21.9422 12.9344C22.2274 12.9344 22.4709 13.0283 22.6727 13.2161C22.8814 13.397 22.9857 13.6823 22.9857 14.0719C22.9857 14.4545 22.8814 14.7398 22.6727 14.9276C22.4709 15.1154 22.2274 15.2094 21.9422 15.2094C21.643 15.2094 21.3925 15.1154 21.1908 14.9276C20.996 14.7398 20.8986 14.4545 20.8986 14.0719C20.8986 13.6823 20.996 13.397 21.1908 13.2161C21.3925 13.0283 21.643 12.9344 21.9422 12.9344Z" fill="#38424D"/>
<path d="M28.2036 28.6506H26.4608V12.4126H28.2036V28.6506Z" fill="#38424D"/>
<path d="M33.6093 28.6506H31.8665V12.4126H33.6093V28.6506Z" fill="#38424D"/>
<path d="M39.0045 17.213V28.6506H37.2722V17.213H39.0045ZM38.1593 12.9344C38.4445 12.9344 38.688 13.0283 38.8898 13.2161C39.0985 13.397 39.2028 13.6823 39.2028 14.0719C39.2028 14.4545 39.0985 14.7398 38.8898 14.9276C38.688 15.1154 38.4445 15.2094 38.1593 15.2094C37.8601 15.2094 37.6096 15.1154 37.4079 14.9276C37.2131 14.7398 37.1157 14.4545 37.1157 14.0719C37.1157 13.6823 37.2131 13.397 37.4079 13.2161C37.6096 13.0283 37.8601 12.9344 38.1593 12.9344Z" fill="#38424D"/>
<path d="M52.5397 22.9109C52.5397 23.8501 52.4179 24.6885 52.1744 25.4259C51.9309 26.1634 51.5796 26.786 51.1204 27.2939C50.6612 27.8018 50.1047 28.1914 49.4507 28.4627C48.8037 28.7271 48.0697 28.8593 47.2488 28.8593C46.4835 28.8593 45.7808 28.7271 45.1407 28.4627C44.5076 28.1914 43.958 27.8018 43.4919 27.2939C43.0327 26.786 42.6744 26.1634 42.417 25.4259C42.1666 24.6885 42.0413 23.8501 42.0413 22.9109C42.0413 21.6586 42.2535 20.5942 42.6779 19.7176C43.1023 18.834 43.7076 18.1627 44.4937 17.7035C45.2868 17.2374 46.2295 17.0043 47.3218 17.0043C48.3654 17.0043 49.2768 17.2374 50.056 17.7035C50.8421 18.1696 51.4509 18.8445 51.8822 19.728C52.3205 20.6046 52.5397 21.6656 52.5397 22.9109ZM43.8363 22.9109C43.8363 23.8293 43.958 24.6259 44.2015 25.3007C44.445 25.9755 44.8207 26.4973 45.3286 26.8661C45.8365 27.2348 46.4904 27.4191 47.2905 27.4191C48.0836 27.4191 48.7341 27.2348 49.242 26.8661C49.7568 26.4973 50.136 25.9755 50.3795 25.3007C50.623 24.6259 50.7447 23.8293 50.7447 22.9109C50.7447 21.9995 50.623 21.2134 50.3795 20.5524C50.136 19.8846 49.7603 19.3697 49.2524 19.008C48.7445 18.6462 48.0871 18.4653 47.2801 18.4653C46.0904 18.4653 45.2173 18.8584 44.6607 19.6445C44.1111 20.4307 43.8363 21.5195 43.8363 22.9109Z" fill="#38424D"/>
<path d="M60.9508 17.0043C62.3075 17.0043 63.3337 17.3383 64.0294 18.0061C64.7251 18.6671 65.0729 19.7315 65.0729 21.1995V28.6506H63.3615V21.3143C63.3615 20.3611 63.1423 19.648 62.704 19.1749C62.2727 18.7019 61.6083 18.4653 60.7108 18.4653C59.4446 18.4653 58.5541 18.8236 58.0393 19.5402C57.5244 20.2568 57.267 21.2969 57.267 22.6605V28.6506H55.5347V17.213H56.9331L57.194 18.8619H57.2879C57.5314 18.4584 57.841 18.1209 58.2167 17.8496C58.5924 17.5713 59.0133 17.3626 59.4794 17.2235C59.9455 17.0774 60.436 17.0043 60.9508 17.0043Z" fill="#38424D"/>
<path d="M71.157 28.6506L66.8157 17.213H68.6733L71.1883 24.1319C71.3622 24.605 71.5396 25.1268 71.7205 25.6973C71.9014 26.2677 72.0266 26.7269 72.0962 27.0748H72.1692C72.2527 26.7269 72.3919 26.2677 72.5867 25.6973C72.7815 25.1198 72.9589 24.598 73.1189 24.1319L75.6339 17.213H77.4914L73.1397 28.6506H71.157Z" fill="#FF3333"/>
<path d="M81.0604 17.213V28.6506H79.3281V17.213H81.0604ZM80.2152 12.9344C80.5004 12.9344 80.7439 13.0283 80.9457 13.2161C81.1544 13.397 81.2587 13.6823 81.2587 14.0719C81.2587 14.4545 81.1544 14.7398 80.9457 14.9276C80.7439 15.1154 80.5004 15.2094 80.2152 15.2094C79.916 15.2094 79.6655 15.1154 79.4638 14.9276C79.269 14.7398 79.1716 14.4545 79.1716 14.0719C79.1716 13.6823 79.269 13.397 79.4638 13.2161C79.6655 13.0283 79.916 12.9344 80.2152 12.9344Z" fill="#FF3333"/>
<path d="M89.1377 17.0043C90.1117 17.0043 90.9465 17.22 91.6423 17.6513C92.338 18.0827 92.8702 18.6879 93.2389 19.4671C93.6077 20.2394 93.792 21.1438 93.792 22.1804V23.2553H85.8922C85.9131 24.598 86.247 25.6207 86.894 26.3234C87.541 27.0261 88.4524 27.3774 89.6282 27.3774C90.3517 27.3774 90.9918 27.3113 91.5483 27.1791C92.1049 27.0469 92.6824 26.8521 93.2807 26.5947V28.1183C92.7032 28.3758 92.1293 28.5636 91.5588 28.6819C90.9952 28.8001 90.3274 28.8593 89.5551 28.8593C88.4559 28.8593 87.4958 28.6366 86.6749 28.1914C85.8609 27.7392 85.2278 27.0782 84.7756 26.2086C84.3233 25.339 84.0972 24.2745 84.0972 23.0153C84.0972 21.7839 84.3025 20.7194 84.7129 19.8219C85.1304 18.9175 85.7148 18.2218 86.4661 17.7348C87.2245 17.2478 88.115 17.0043 89.1377 17.0043ZM89.1168 18.4236C88.1915 18.4236 87.4541 18.7262 86.9044 19.3315C86.3548 19.9367 86.0278 20.782 85.9235 21.8673H91.9762C91.9692 21.1855 91.8614 20.5872 91.6527 20.0724C91.4509 19.5506 91.1413 19.1471 90.7239 18.8619C90.3065 18.5697 89.7708 18.4236 89.1168 18.4236Z" fill="#FF3333"/>
<path d="M106.044 28.6297L104.009 21.9717C103.918 21.6865 103.831 21.4082 103.748 21.1368C103.671 20.8586 103.598 20.5942 103.529 20.3437C103.466 20.0863 103.407 19.8498 103.351 19.6341C103.302 19.4115 103.261 19.2202 103.226 19.0601H103.153C103.125 19.2202 103.087 19.4115 103.038 19.6341C102.989 19.8498 102.93 20.0863 102.861 20.3437C102.798 20.6011 102.728 20.8725 102.652 21.1577C102.575 21.436 102.488 21.7178 102.391 22.003L100.262 28.6297H98.3107L95.1591 17.1922H96.954L98.6029 23.5058C98.7142 23.9232 98.8185 24.3371 98.9159 24.7476C99.0203 25.1511 99.1073 25.5338 99.1768 25.8955C99.2534 26.2503 99.309 26.5599 99.3438 26.8243H99.4273C99.469 26.6504 99.5143 26.4417 99.563 26.1982C99.6186 25.9547 99.6777 25.6973 99.7404 25.4259C99.8099 25.1476 99.883 24.8728 99.9595 24.6015C100.036 24.3232 100.113 24.0623 100.189 23.8188L102.297 17.1922H104.165L106.2 23.8084C106.304 24.1423 106.405 24.4902 106.503 24.852C106.607 25.2137 106.701 25.5651 106.784 25.906C106.868 26.2399 106.927 26.5391 106.962 26.8034H107.045C107.073 26.5669 107.125 26.2747 107.202 25.9268C107.278 25.579 107.365 25.1963 107.463 24.7789C107.567 24.3615 107.675 23.9371 107.786 23.5058L109.456 17.1922H111.22L108.058 28.6297H106.044Z" fill="#FF3333"/>
<path d="M120.706 25.5198C120.706 26.2503 120.521 26.8661 120.153 27.367C119.791 27.8609 119.269 28.2331 118.587 28.4836C117.912 28.734 117.105 28.8593 116.166 28.8593C115.366 28.8593 114.674 28.7967 114.089 28.6714C113.505 28.5462 112.994 28.3688 112.555 28.1392V26.5425C113.022 26.7721 113.578 26.9808 114.225 27.1687C114.872 27.3565 115.533 27.4505 116.208 27.4505C117.196 27.4505 117.912 27.2904 118.358 26.9704C118.803 26.6504 119.026 26.2156 119.026 25.6659C119.026 25.3529 118.935 25.0781 118.754 24.8415C118.58 24.598 118.285 24.365 117.867 24.1423C117.45 23.9127 116.872 23.6623 116.135 23.391C115.404 23.1127 114.771 22.8379 114.236 22.5665C113.707 22.2883 113.296 21.9508 113.004 21.5543C112.719 21.1577 112.576 20.6429 112.576 20.0098C112.576 19.0428 112.966 18.3018 113.745 17.787C114.531 17.2652 115.561 17.0043 116.834 17.0043C117.523 17.0043 118.166 17.0739 118.765 17.213C119.37 17.3452 119.933 17.5261 120.455 17.7557L119.871 19.1436C119.398 18.9419 118.893 18.7714 118.358 18.6323C117.822 18.4931 117.276 18.4236 116.719 18.4236C115.919 18.4236 115.303 18.5558 114.872 18.8201C114.448 19.0845 114.236 19.4463 114.236 19.9054C114.236 20.2602 114.333 20.5524 114.528 20.782C114.73 21.0116 115.05 21.2273 115.488 21.429C115.926 21.6308 116.504 21.8673 117.22 22.1387C117.937 22.403 118.556 22.6779 119.078 22.9631C119.6 23.2414 120 23.5823 120.278 23.9858C120.563 24.3824 120.706 24.8937 120.706 25.5198Z" fill="#FF3333"/>
<path d="M7.5028 5.20696C7.77674 5.20696 8.00274 5.24121 8.1808 5.30969C8.36038 5.37665 8.49431 5.47938 8.58257 5.61787C8.67084 5.75636 8.71498 5.9329 8.71498 6.14748C8.71498 6.32402 8.68302 6.47164 8.6191 6.59035C8.55518 6.70753 8.47148 6.80265 8.36799 6.8757C8.2645 6.94875 8.15417 7.00506 8.03698 7.04463L8.95239 8.54443H8.50039L7.68315 7.15192H6.98917V8.54443H6.60109V5.20696H7.5028ZM7.47998 5.54254H6.98917V6.82319H7.51878C7.7912 6.82319 7.99133 6.76765 8.11916 6.65655C8.24852 6.54545 8.3132 6.38185 8.3132 6.16574C8.3132 5.93898 8.24472 5.77843 8.10775 5.68407C7.9723 5.58971 7.76304 5.54254 7.47998 5.54254ZM11.3448 8.54443H9.48657V5.20696H11.3448V5.54939H9.87464V6.62915H11.2603V6.96701H9.87464V8.20201H11.3448V8.54443ZM13.5112 5.50145C13.327 5.50145 13.1611 5.53341 13.0135 5.59732C12.8674 5.65972 12.7426 5.75103 12.6391 5.87126C12.5372 5.98997 12.4588 6.13378 12.404 6.30271C12.3492 6.47164 12.3218 6.66188 12.3218 6.87342C12.3218 7.15344 12.3652 7.39694 12.4519 7.60392C12.5402 7.80937 12.6711 7.9684 12.8446 8.08102C13.0196 8.19364 13.238 8.24995 13.4997 8.24995C13.6489 8.24995 13.7889 8.23778 13.9198 8.21343C14.0522 8.18755 14.1808 8.15559 14.3056 8.11755V8.4554C14.1838 8.50106 14.056 8.53454 13.9221 8.55585C13.7881 8.57868 13.6291 8.59009 13.445 8.59009C13.1056 8.59009 12.8218 8.52008 12.5935 8.38007C12.3667 8.23854 12.1963 8.03917 12.0821 7.78197C11.9695 7.52478 11.9132 7.22116 11.9132 6.87113C11.9132 6.6185 11.9482 6.38794 12.0182 6.17944C12.0897 5.96942 12.1932 5.78832 12.3287 5.63613C12.4656 5.48394 12.633 5.36676 12.8309 5.28458C13.0303 5.20088 13.2585 5.15902 13.5157 5.15902C13.6847 5.15902 13.8475 5.17577 14.0043 5.20925C14.161 5.24273 14.3025 5.29067 14.4289 5.35306L14.2736 5.68179C14.1671 5.63309 14.0499 5.59124 13.9221 5.55623C13.7958 5.51971 13.6588 5.50145 13.5112 5.50145Z" fill="#6F6F6F"/>
</svg>
