<svg width="25" height="25" viewBox="0 0 25 25" fill="none" xmlns="http://www.w3.org/2000/svg">
<path d="M23.0613 0.567382L2.60467 0.567383C2.1348 0.567383 1.68417 0.75404 1.35192 1.08629C1.01967 1.41854 0.833008 1.86917 0.833008 2.33905L0.833008 22.7957C0.833009 23.2656 1.01967 23.7162 1.35192 24.0485C1.68417 24.3807 2.1348 24.5674 2.60468 24.5674L23.0613 24.5674C23.5312 24.5674 23.9818 24.3807 24.3141 24.0485C24.6464 23.7162 24.833 23.2656 24.833 22.7957L24.833 2.33905C24.833 1.86917 24.6464 1.41854 24.3141 1.08629C23.9818 0.75404 23.5312 0.567382 23.0613 0.567382ZM7.98634 21.0124L4.37801 21.0124L4.37801 9.55072L7.98634 9.55072L7.98634 21.0124ZM6.17968 7.96238C5.77037 7.96008 5.37092 7.83658 5.03174 7.60747C4.69256 7.37836 4.42885 7.05391 4.27389 6.67507C4.11892 6.29623 4.07966 5.87997 4.16104 5.47884C4.24242 5.0777 4.44081 4.70966 4.73116 4.42116C5.02152 4.13267 5.39082 3.93665 5.79247 3.85784C6.19413 3.77904 6.61012 3.82098 6.98796 3.97837C7.3658 4.13576 7.68855 4.40155 7.91547 4.74219C8.1424 5.08284 8.26333 5.48307 8.26301 5.89238C8.26687 6.16642 8.21552 6.43842 8.11202 6.69219C8.00852 6.94595 7.85499 7.17628 7.66058 7.36945C7.46617 7.56262 7.23486 7.71467 6.98043 7.81653C6.72601 7.9184 6.45368 7.968 6.17968 7.96238ZM21.2863 21.0224L17.6797 21.0224L17.6797 14.7607C17.6797 12.9141 16.8947 12.344 15.8813 12.344C14.8113 12.344 13.7613 13.1507 13.7613 14.8074L13.7613 21.0224L10.153 21.0224L10.153 9.55905L13.623 9.55905L13.623 11.1474L13.6697 11.1474C14.018 10.4424 15.238 9.23738 17.0997 9.23738C19.113 9.23738 21.288 10.4324 21.288 13.9324L21.2863 21.0224Z" fill="#0A66C2"/>
</svg>
