<svg width="190" height="31" viewBox="0 0 190 31" fill="none" xmlns="http://www.w3.org/2000/svg">
<path d="M1.03087 21.8791C0.931283 21.7294 0.865347 21.5599 0.837662 21.3823C0.811925 21.227 0.811925 21.0684 0.837662 20.9131C0.833122 20.6639 0.889987 20.4176 1.00325 20.1956C1.11761 19.995 1.25676 19.8095 1.4173 19.6436C1.59764 19.5044 1.79183 19.3841 1.99685 19.2848C2.19853 19.2608 2.40235 19.2608 2.60403 19.2848C2.90229 19.2867 3.19219 19.3834 3.43197 19.5608C3.73239 19.7917 4.00147 20.0607 4.23236 20.3612C4.68988 21.0166 5.29485 21.5554 5.99864 21.9342C6.76508 22.3322 7.61919 22.5316 8.48261 22.5139C8.94858 22.5039 9.41176 22.439 9.86256 22.3207C10.293 22.1992 10.7024 22.0131 11.0769 21.7687C11.4219 21.5503 11.7141 21.2581 11.9325 20.9131C12.145 20.5547 12.2503 20.1428 12.236 19.7264C12.2561 19.3055 12.14 18.8893 11.9048 18.5396C11.6802 18.2292 11.3876 17.9743 11.0493 17.7944C10.6782 17.6097 10.29 17.4618 9.8901 17.3528L8.5654 17.0493C7.62453 16.8607 6.70128 16.593 5.80551 16.2489C4.977 15.9553 4.20288 15.5263 3.51476 14.9794C2.89588 14.4944 2.38782 13.8827 2.02448 13.1854C1.63601 12.4463 1.4458 11.619 1.47247 10.7844C1.46036 9.90388 1.65906 9.03324 2.05202 8.24522C2.43895 7.50038 2.96335 6.83553 3.59755 6.28572C4.27534 5.73166 5.04003 5.29337 5.86068 4.98857C6.74691 4.6778 7.68162 4.52823 8.62057 4.54698C9.27876 4.54144 9.93563 4.60623 10.5801 4.74019C11.1954 4.87494 11.7962 5.06901 12.3741 5.31974C12.9256 5.57553 13.4369 5.91018 13.892 6.31326C14.3562 6.68339 14.7411 7.14339 15.0235 7.66567C15.157 7.86015 15.2248 8.09225 15.2167 8.32801C15.2585 8.54683 15.2585 8.77154 15.2167 8.99036C15.1329 9.1806 15.0213 9.35733 14.8855 9.51475C14.7223 9.65656 14.5355 9.76873 14.3336 9.846C14.1289 9.94979 13.9003 9.99737 13.6712 9.98396C13.2824 9.98809 12.9034 9.86175 12.5948 9.62516L11.7669 8.96282C11.5096 8.77552 11.2318 8.61808 10.9389 8.4936C10.6412 8.35642 10.3251 8.26343 10.0005 8.21759C9.60555 8.18628 9.20875 8.18628 8.81378 8.21759C8.34866 8.21443 7.88501 8.27006 7.43384 8.38318C7.03566 8.49931 6.66171 8.68633 6.3299 8.93519C6.01231 9.14001 5.75503 9.42579 5.58468 9.76312C5.39759 10.0906 5.30223 10.4625 5.30867 10.8395C5.28763 11.2562 5.41475 11.6668 5.66747 11.9987C5.95776 12.3093 6.30424 12.5622 6.68862 12.7439C7.16751 12.9589 7.66682 13.1253 8.17898 13.2406L10.0833 13.6822C10.8423 13.8759 11.5889 14.1155 12.3188 14.3998C13.0283 14.6876 13.6965 15.0681 14.3059 15.5314C14.8822 15.9862 15.353 16.5605 15.6859 17.2149C16.0686 17.9562 16.2584 18.7819 16.2379 19.616C16.2463 20.5137 16.0479 21.4014 15.6583 22.2103C15.2792 23.007 14.7333 23.7129 14.0576 24.2802C13.3602 24.892 12.5554 25.3693 11.6841 25.6877C10.7369 26.0268 9.73699 26.195 8.73099 26.1845C7.92795 26.1898 7.12836 26.0782 6.35744 25.8533C5.61275 25.6554 4.89802 25.3583 4.23236 24.9701C3.61851 24.6232 3.06029 24.1859 2.57641 23.673C1.92635 23.2059 1.39662 22.5911 1.03087 21.8791Z" fill="#223064"/>
<path d="M17.3973 11.8872C17.3865 11.6494 17.4339 11.4125 17.5354 11.1972C17.6112 10.9801 17.7337 10.7823 17.8942 10.6176C18.0659 10.4664 18.2618 10.3451 18.4737 10.2588C18.6924 10.1677 18.9269 10.1208 19.1637 10.1208C19.4006 10.1208 19.6351 10.1677 19.8537 10.2588C20.0656 10.3451 20.2615 10.4664 20.4332 10.6176C20.6017 10.7812 20.7334 10.9788 20.8197 11.1972C20.9296 11.4105 20.9864 11.6472 20.9853 11.8872V18.2901C20.9912 19.3272 21.408 20.3197 22.1444 21.05C22.8873 21.764 23.874 22.1684 24.9042 22.1815C25.4269 22.1985 25.9464 22.0947 26.4222 21.8779C26.8578 21.6663 27.2507 21.3763 27.5813 21.0224C27.9129 20.6539 28.1665 20.222 28.3266 19.7529C28.5053 19.2379 28.5984 18.6971 28.6025 18.1521V11.7767C28.5917 11.5389 28.6391 11.3021 28.7405 11.0868C28.8268 10.8684 28.9584 10.6708 29.1269 10.5072C29.3131 10.3621 29.5171 10.2415 29.7341 10.1484C29.9487 10.0447 30.1861 9.99729 30.424 10.0104C30.6618 9.99962 30.8987 10.047 31.114 10.1484C31.3174 10.2351 31.5042 10.3565 31.666 10.5072C31.8258 10.6778 31.9563 10.8736 32.0523 11.0868C32.1402 11.3064 32.187 11.5402 32.1904 11.7767V18.1521C32.2178 20.1454 31.4765 22.0727 30.1205 23.5339C29.4642 24.233 28.6764 24.7958 27.8022 25.1898C26.8889 25.5915 25.9019 25.7983 24.9042 25.797C23.8804 25.7927 22.8676 25.5863 21.9236 25.1898C21.024 24.7977 20.2087 24.2354 19.5225 23.5339C18.8293 22.8466 18.2763 22.0311 17.8942 21.1328C17.5065 20.1871 17.3094 19.1741 17.3145 18.1521L17.3973 11.8872Z" fill="#223064"/>
<path d="M34.481 18.3756C34.4768 17.274 34.7024 16.1836 35.1434 15.1741C35.5425 14.1457 36.143 13.2074 36.9097 12.4142C37.6672 11.6687 38.5562 11.0698 39.5317 10.6479C40.5411 10.2069 41.6315 9.98129 42.7331 9.98553C42.9808 9.96866 43.2292 10.0042 43.4622 10.0898C43.6952 10.1754 43.9076 10.3091 44.0855 10.4823C44.4159 10.8321 44.5945 11.2984 44.5822 11.7794C44.5791 12.0249 44.5324 12.2679 44.4443 12.497C44.3385 12.7114 44.1987 12.9071 44.0303 13.0766C43.8586 13.2278 43.6626 13.3491 43.4507 13.4354C43.2145 13.4897 42.9693 13.4897 42.7331 13.4354C42.125 13.4491 41.5251 13.5803 40.9668 13.8217C40.4228 14.0612 39.9271 14.3979 39.504 14.8153C39.089 15.236 38.7443 15.7205 38.4829 16.2504C38.2283 16.8142 38.0966 17.4257 38.0965 18.0444V23.7022C38.0931 23.9387 38.0464 24.1726 37.9585 24.3922C37.8784 24.599 37.7563 24.7869 37.5997 24.9441C37.4361 25.1125 37.2386 25.2443 37.0202 25.3305C36.8103 25.4188 36.5853 25.4656 36.3577 25.4685C36.1122 25.4654 35.8693 25.4187 35.6402 25.3305C35.4218 25.2443 35.2243 25.1125 35.0607 24.9441C34.8866 24.7901 34.7457 24.6024 34.6466 24.3922C34.5588 24.1726 34.512 23.9387 34.5086 23.7022L34.481 18.3756Z" fill="#223064"/>
<path d="M48.4461 19.6427C48.5834 20.046 48.7787 20.4272 49.0258 20.7742C49.2872 21.1092 49.5937 21.4064 49.9365 21.6574C50.2801 21.9101 50.6622 22.1057 51.0681 22.237C51.4859 22.3792 51.9238 22.4537 52.3652 22.4577C52.7591 22.5101 53.1581 22.5101 53.5519 22.4577C53.8702 22.3793 54.1765 22.2586 54.4628 22.0989C54.769 21.878 55.134 21.7532 55.5114 21.7402C55.7514 21.739 55.9881 21.7958 56.2014 21.9058C56.4073 22.0119 56.5939 22.1518 56.7534 22.3198C56.9132 22.4904 57.0438 22.6862 57.1399 22.8993C57.2254 23.1292 57.272 23.3717 57.2778 23.6169C57.2679 23.978 57.1421 24.3263 56.919 24.6104C56.638 24.9383 56.2898 25.2019 55.8979 25.3832C55.4046 25.6042 54.8853 25.7619 54.3523 25.8524C53.6992 25.9903 53.0327 26.0551 52.3652 26.0456C50.2947 26.016 48.3162 25.1851 46.8454 23.7273C45.3677 22.2677 44.5248 20.2845 44.4995 18.2075C44.5248 16.1306 45.3677 14.1474 46.8454 12.6878C47.5722 11.9772 48.4235 11.4065 49.3569 11.0042C50.3354 10.594 51.3871 10.3874 52.448 10.397C53.4913 10.3846 54.5256 10.5915 55.4839 11.0042C56.4152 11.3982 57.2664 11.9594 57.9954 12.6601C58.7131 13.3764 59.293 14.2183 59.7065 15.144C60.143 16.1074 60.3778 17.15 60.3965 18.2075C60.403 18.4375 60.3622 18.6663 60.2767 18.8799C60.1913 19.0935 60.063 19.2874 59.8997 19.4494C59.5541 19.7656 59.0983 19.934 58.6301 19.9187L48.4461 19.6427ZM56.7258 16.6344C56.6006 16.1919 56.4049 15.7725 56.1462 15.3924C55.8846 15.0164 55.5683 14.6816 55.2079 14.3989C54.8304 14.1224 54.4111 13.9081 53.9659 13.7641C53.5017 13.6173 53.0177 13.5429 52.5308 13.5433C52.0417 13.5429 51.5562 13.6269 51.0957 13.7917C50.6702 13.9418 50.2699 14.1558 49.9089 14.4264C49.5502 14.7025 49.2421 15.0387 48.9981 15.42C48.7502 15.7963 48.5552 16.2049 48.4186 16.6344H56.7258Z" fill="#223064"/>
<path d="M62.1074 6.25973C62.1061 6.01092 62.1628 5.7652 62.273 5.54213C62.3618 5.32505 62.493 5.12784 62.6589 4.96199C62.8247 4.79614 63.0219 4.66505 63.239 4.57624C63.4721 4.46652 63.7266 4.40997 63.9841 4.41065H69.642C70.575 4.41643 71.5031 4.54632 72.4019 4.79699C73.2925 5.0409 74.1464 5.40294 74.9409 5.87339C75.7292 6.32678 76.4532 6.88364 77.0936 7.52926C77.7287 8.1688 78.2846 8.88234 78.7496 9.65442C79.21 10.4799 79.5624 11.361 79.7983 12.2763C80.0537 13.174 80.1837 14.1028 80.1847 15.0362C80.194 15.9702 80.0638 16.9004 79.7983 17.796C79.5522 18.6815 79.2 19.5341 78.7496 20.3352C78.2846 21.1073 77.7287 21.8207 77.0936 22.4603C76.4387 23.0893 75.7169 23.6446 74.9409 24.1162C74.1398 24.5667 73.2873 24.9188 72.4019 25.165C71.5059 25.4288 70.5759 25.559 69.642 25.5513H63.9841C63.7297 25.5481 63.4777 25.5014 63.239 25.4134C63.0219 25.3246 62.8247 25.1934 62.6589 25.0275C62.493 24.8617 62.3618 24.6645 62.273 24.4474C62.1628 24.2243 62.1061 23.9787 62.1074 23.7299V6.25973ZM65.8333 8.16406V21.9635H69.7523C70.7013 21.9802 71.6427 21.7919 72.5122 21.4115C73.3173 21.0549 74.0477 20.5493 74.6649 19.9212C75.8855 18.651 76.5764 16.9633 76.5969 15.2017C76.6093 14.2559 76.431 13.3172 76.0725 12.4419C75.7641 11.5904 75.2851 10.811 74.6649 10.1512C74.0477 9.52311 73.3173 9.01742 72.5122 8.66082C71.6427 8.28041 70.7013 8.09218 69.7523 8.10889L65.8333 8.16406Z" fill="#223064"/>
<path d="M81.6476 18.3751C81.6338 17.2754 81.8501 16.1849 82.2824 15.1736C82.7015 14.1491 83.3101 13.2127 84.0763 12.4137C84.8747 11.6537 85.8117 11.0541 86.8362 10.6474C87.8447 10.2032 88.9357 9.9775 90.0377 9.98503C90.2894 9.96934 90.5417 10.0053 90.779 10.0907C91.0163 10.1762 91.2337 10.3092 91.4176 10.4818C91.748 10.8316 91.9266 11.2979 91.9144 11.7789C91.9157 12.0277 91.859 12.2735 91.7488 12.4965C91.6626 12.7149 91.5309 12.9125 91.3625 13.0761C91.1907 13.2273 90.9947 13.3486 90.7828 13.4349C90.5374 13.4896 90.2831 13.4896 90.0377 13.4349C89.4387 13.4515 88.8485 13.5826 88.2989 13.8212C87.755 14.0607 87.2593 14.3974 86.8362 14.8148C86.3939 15.2287 86.0408 15.7286 85.7988 16.2839C85.5567 16.8392 85.4308 17.4381 85.4287 18.0439V23.7017C85.4253 23.9382 85.3785 24.172 85.2907 24.3917C85.2011 24.6002 85.0696 24.788 84.9043 24.9436C84.7567 25.1178 84.5665 25.2509 84.3523 25.33C84.1337 25.4211 83.8992 25.468 83.6623 25.468C83.4255 25.468 83.191 25.4211 82.9724 25.33C82.7487 25.2382 82.5431 25.1073 82.3652 24.9436C82.191 24.796 82.0579 24.6059 81.9788 24.3917C81.8774 24.1763 81.83 23.9395 81.8408 23.7017L81.6476 18.3751Z" fill="#223064"/>
<path d="M92.9902 6.53513C92.9906 6.28042 93.0373 6.02794 93.1282 5.78999C93.233 5.55187 93.383 5.33628 93.5698 5.15519C93.7495 4.98651 93.9543 4.84686 94.177 4.74122C94.4198 4.63149 94.6832 4.57471 94.9497 4.57471C95.2162 4.57471 95.4797 4.63149 95.7225 4.74122C95.9452 4.84686 96.15 4.98651 96.3297 5.15519C96.5082 5.33737 96.6489 5.55314 96.7436 5.78999C96.8561 6.0221 96.9128 6.27724 96.9092 6.53513C96.9131 6.80192 96.8565 7.06612 96.7436 7.3079C96.6489 7.54474 96.5082 7.76052 96.3297 7.9427C96.15 8.11138 95.9452 8.25103 95.7225 8.35667C95.4797 8.4664 95.2162 8.5231 94.9497 8.5231C94.6832 8.5231 94.4198 8.4664 94.177 8.35667C93.9543 8.25103 93.7495 8.11138 93.5698 7.9427C93.383 7.76161 93.233 7.54602 93.1282 7.3079C93.0375 7.06031 92.9909 6.79879 92.9902 6.53513ZM93.1282 11.9169C93.1316 11.6805 93.1784 11.4466 93.2662 11.227C93.372 11.0127 93.5118 10.8169 93.6802 10.6473C93.8438 10.4789 94.0414 10.3472 94.2598 10.261C94.4851 10.1603 94.7307 10.113 94.9774 10.123C95.2152 10.1121 95.452 10.1595 95.6673 10.261C95.8775 10.3476 96.0659 10.4795 96.2193 10.6473C96.3798 10.812 96.5023 11.0099 96.5781 11.227C96.6795 11.4423 96.7269 11.6792 96.7161 11.9169V24.088C96.7269 24.3258 96.6795 24.5626 96.5781 24.778C96.5048 24.9962 96.3819 25.1945 96.2191 25.3573C96.0563 25.5202 95.858 25.6431 95.6397 25.7164C95.4211 25.8075 95.1866 25.8544 94.9497 25.8544C94.7129 25.8544 94.4784 25.8075 94.2598 25.7164C94.0478 25.6301 93.8519 25.5088 93.6802 25.3576C93.5118 25.1881 93.372 24.9923 93.2662 24.778C93.1784 24.5584 93.1316 24.3245 93.1282 24.088V11.9169Z" fill="#223064"/>
<path d="M98.6209 12.6884C98.5084 12.4563 98.4517 12.201 98.4552 11.9431C98.4613 11.7159 98.5081 11.4916 98.5933 11.2808C98.6752 11.0584 98.7967 10.8526 98.9521 10.6736C99.1227 10.5138 99.3185 10.3832 99.5316 10.2872C99.7547 10.177 100 10.1203 100.249 10.1216C100.594 10.1247 100.93 10.2305 101.215 10.4252C101.512 10.6069 101.743 10.8773 101.878 11.198L105.41 19.6984L108.915 11.2256C109.039 10.8915 109.273 10.6093 109.578 10.4252C109.874 10.2339 110.218 10.1288 110.571 10.1216C110.82 10.1203 111.066 10.177 111.289 10.2872C111.497 10.3768 111.685 10.5084 111.841 10.6736C111.993 10.8497 112.123 11.0444 112.227 11.2532C112.267 11.4722 112.267 11.6966 112.227 11.9156C112.223 12.1815 112.167 12.444 112.062 12.6884L107.066 24.6387C106.901 24.9792 106.642 25.2661 106.321 25.4666C106.037 25.6354 105.712 25.7215 105.383 25.715C105.015 25.7233 104.655 25.6064 104.361 25.3838C104.099 25.1914 103.89 24.9349 103.754 24.6387L98.6209 12.6884Z" fill="#223064"/>
<path d="M116.477 19.6434C116.614 20.0467 116.81 20.4279 117.057 20.775C117.325 21.1034 117.631 21.3997 117.967 21.6581C118.311 21.9108 118.693 22.1065 119.099 22.2377C119.517 22.38 119.955 22.4545 120.396 22.4584C120.799 22.5087 121.207 22.5087 121.611 22.4584C121.92 22.3796 122.217 22.2589 122.494 22.0996C122.8 21.8787 123.165 21.7539 123.542 21.7409C123.782 21.7398 124.019 21.7966 124.232 21.9065C124.443 22.0056 124.63 22.1464 124.784 22.3205C124.944 22.4911 125.075 22.6869 125.171 22.9C125.21 23.1376 125.21 23.38 125.171 23.6176C125.161 23.9787 125.035 24.327 124.812 24.6112C124.531 24.9391 124.183 25.2026 123.791 25.3839C123.298 25.6049 122.778 25.7626 122.245 25.8531C121.592 25.9911 120.926 26.0559 120.258 26.0464C119.204 26.049 118.161 25.8328 117.195 25.4116C115.285 24.6213 113.76 23.1159 112.944 21.2165C112.52 20.2513 112.304 19.2074 112.31 18.153C112.306 17.09 112.522 16.0377 112.944 15.062C113.355 14.1264 113.935 13.2749 114.656 12.5505C115.394 11.841 116.254 11.2707 117.195 10.867C118.163 10.4544 119.206 10.2476 120.258 10.2598C121.31 10.25 122.353 10.4567 123.322 10.867C124.241 11.2681 125.082 11.8286 125.806 12.5228C126.525 13.2433 127.114 14.0839 127.544 15.0068C127.958 15.9765 128.183 17.0162 128.207 18.0702C128.213 18.3002 128.172 18.5291 128.087 18.7427C128.001 18.9563 127.873 19.1501 127.71 19.3122C127.364 19.6284 126.909 19.7967 126.44 19.7814L116.477 19.6434ZM124.757 16.6351C124.643 16.1884 124.447 15.7671 124.177 15.3931C123.662 14.6251 122.904 14.0519 122.024 13.7648C121.55 13.6202 121.057 13.5459 120.562 13.5441C120.081 13.5411 119.604 13.6253 119.154 13.7924C118.718 13.9365 118.307 14.1509 117.94 14.4272C117.581 14.7033 117.273 15.0395 117.029 15.4208C116.779 15.7921 116.592 16.2025 116.477 16.6351H124.757Z" fill="#223064"/>
<path d="M185.033 0.435059H135.769C133.239 0.435059 131.188 2.48623 131.188 5.01648V25.8536C131.188 28.3839 133.239 30.4351 135.769 30.4351H185.033C187.563 30.4351 189.614 28.3839 189.614 25.8536V5.01648C189.614 2.48623 187.563 0.435059 185.033 0.435059Z" fill="#BE2134"/>
<path d="M135.189 6.20187C135.192 5.95639 135.239 5.71339 135.327 5.48427C135.426 5.27408 135.567 5.08624 135.741 4.93226C135.905 4.76383 136.102 4.63217 136.321 4.54592C136.781 4.36165 137.295 4.36165 137.756 4.54592C137.974 4.63217 138.172 4.76383 138.335 4.93226C138.525 5.07119 138.669 5.26334 138.749 5.48427C138.85 5.70963 138.897 5.95524 138.887 6.20187V17.4346C138.795 18.722 139.178 19.9986 139.964 21.0225C140.343 21.4267 140.807 21.7426 141.322 21.9477C141.837 22.1528 142.391 22.242 142.944 22.2092C143.543 22.2213 144.138 22.0987 144.683 21.8504C145.177 21.6338 145.612 21.3028 145.953 20.8845C146.325 20.4372 146.606 19.9215 146.781 19.3665C146.976 18.7132 147.069 18.0336 147.057 17.3518V6.31221C147.055 6.0634 147.112 5.81776 147.222 5.59469C147.301 5.38048 147.434 5.1903 147.609 5.04268C147.782 4.87358 147.989 4.7421 148.216 4.65634C148.676 4.47207 149.19 4.47207 149.651 4.65634C149.869 4.74259 150.067 4.87425 150.23 5.04268C150.404 5.19666 150.545 5.3845 150.644 5.59469C150.733 5.82381 150.779 6.06673 150.782 6.31221V17.4898C150.792 18.6625 150.605 19.8285 150.23 20.9397C149.91 21.956 149.384 22.8955 148.685 23.6996C147.998 24.4654 147.15 25.0688 146.201 25.4658C145.141 25.898 144.006 26.1138 142.862 26.1007C141.741 26.1187 140.629 25.8927 139.605 25.4383C138.688 25.0395 137.869 24.4463 137.204 23.6996C136.534 22.9463 136.027 22.0632 135.713 21.1053C135.354 20.0575 135.177 18.9561 135.189 17.8486V6.20187Z" fill="#F1F2F2"/>
<path d="M152.494 21.879C152.417 21.7183 152.353 21.5523 152.3 21.3822C152.289 21.2261 152.289 21.0692 152.3 20.913C152.292 20.6599 152.359 20.4101 152.494 20.1955C152.608 19.9949 152.747 19.8094 152.908 19.6435C153.079 19.4923 153.275 19.371 153.487 19.2847C153.689 19.2584 153.893 19.2584 154.094 19.2847C154.385 19.2824 154.667 19.3798 154.895 19.5607C155.211 19.783 155.49 20.053 155.723 20.3611C156.18 21.0165 156.785 21.5553 157.489 21.9342C158.253 22.339 159.109 22.5388 159.973 22.5138C160.43 22.5037 160.884 22.4388 161.325 22.3206C161.758 22.2044 162.168 22.0179 162.54 21.7686C162.89 21.5565 163.183 21.263 163.395 20.913C163.616 20.5569 163.731 20.1453 163.726 19.7263C163.747 19.3054 163.63 18.8892 163.395 18.5395C163.171 18.2291 162.878 17.9742 162.54 17.7943C162.159 17.6097 161.762 17.4618 161.353 17.3527L160.056 17.0492C159.068 16.8684 158.098 16.6005 157.158 16.2488C156.329 15.9552 155.555 15.5262 154.867 14.9793C154.231 14.5045 153.712 13.891 153.349 13.1854C152.983 12.4393 152.803 11.6153 152.825 10.7843C152.813 9.90378 153.011 9.03315 153.404 8.24513C153.782 7.4945 154.308 6.82801 154.95 6.28563C155.614 5.72586 156.37 5.28683 157.186 4.98848C158.072 4.67828 159.007 4.52873 159.945 4.54689C160.595 4.54141 161.242 4.6062 161.877 4.7401C162.494 4.87071 163.095 5.06492 163.671 5.31965C164.231 5.57515 164.752 5.90971 165.217 6.31317C165.666 6.69832 166.048 7.15535 166.348 7.66557C166.46 7.8681 166.518 8.09645 166.514 8.32792C166.556 8.54674 166.556 8.77145 166.514 8.99027C166.42 9.18144 166.299 9.35807 166.155 9.51465C166.002 9.65607 165.824 9.76838 165.631 9.84591C165.424 9.94404 165.197 9.99132 164.968 9.98387C164.58 9.98799 164.201 9.86166 163.892 9.62507L163.037 8.96273C162.793 8.77015 162.523 8.61222 162.236 8.49351C161.937 8.36006 161.621 8.26723 161.298 8.2175C160.894 8.18621 160.488 8.18621 160.083 8.2175C159.627 8.21458 159.173 8.27023 158.731 8.38309C158.325 8.49949 157.942 8.68634 157.6 8.9351C157.297 9.15757 157.044 9.43927 156.854 9.76303C156.688 10.0973 156.603 10.4661 156.606 10.8394C156.585 11.2561 156.712 11.6667 156.965 11.9986C157.25 12.3029 157.586 12.555 157.958 12.7438C158.448 12.9544 158.956 13.1207 159.476 13.2405L161.353 13.6821C162.12 13.8795 162.875 14.1191 163.616 14.3997C164.326 14.6875 164.994 15.068 165.603 15.5313C166.164 16.0012 166.633 16.5722 166.983 17.2148C167.356 17.9586 167.537 18.7842 167.508 19.6159C167.516 20.5136 167.318 21.4013 166.928 22.2102C166.55 23 166.015 23.7044 165.355 24.2801C164.653 24.8859 163.849 25.3625 162.981 25.6877C161.255 26.2887 159.387 26.3465 157.627 25.8532C156.891 25.6568 156.185 25.3596 155.53 24.9701C154.912 24.6164 154.345 24.18 153.846 23.6729C153.289 23.163 152.831 22.5549 152.494 21.879Z" fill="#F1F2F2"/>
<path d="M181.473 23.2306H172.31L171.73 24.6658C171.605 25.0144 171.36 25.3076 171.04 25.4937C170.743 25.7091 170.386 25.825 170.019 25.8249C169.761 25.8285 169.506 25.7718 169.274 25.6593C169.059 25.5536 168.864 25.4138 168.694 25.2453C168.539 25.0663 168.417 24.8606 168.335 24.6382C168.25 24.4179 168.203 24.1844 168.197 23.9482V23.617C168.185 23.4977 168.185 23.3775 168.197 23.2582L174.987 5.70537C175.096 5.32436 175.329 4.99041 175.649 4.75573C175.968 4.52105 176.357 4.39884 176.753 4.40822C177.121 4.40422 177.479 4.52052 177.774 4.73939C178.087 4.92206 178.33 5.20362 178.464 5.5397L185.336 23.2582C185.348 23.3775 185.348 23.4977 185.336 23.617C185.336 23.617 185.336 23.8654 185.336 23.9758C185.331 24.2121 185.284 24.4455 185.198 24.6658C185.112 24.8842 184.98 25.0817 184.812 25.2453C184.653 25.4258 184.455 25.5674 184.232 25.6593C184 25.7718 183.745 25.8285 183.487 25.8249C183.12 25.825 182.763 25.7091 182.466 25.4937C182.153 25.2993 181.911 25.0089 181.776 24.6658L181.473 23.2306ZM173.772 19.5048H180.01L176.808 11.3631L173.772 19.5048Z" fill="#F1F2F2"/>
</svg>
