<svg width="37" height="27" viewBox="0 0 37 27" fill="none" xmlns="http://www.w3.org/2000/svg">
<path d="M27.9721 17.0433C25.1919 17.0433 23.357 14.8933 22.8429 14.0642C23.5007 8.79689 25.4296 7.13324 27.9721 7.13324C30.4869 7.13324 32.4435 9.1451 32.4435 12.091C32.4435 15.037 30.4869 17.0488 27.9721 17.0488V17.0433ZM27.9721 3.8999C23.4454 3.8999 20.9085 6.85136 20.1789 9.89125C19.3554 8.34367 18.7474 6.27102 18.272 4.3476H12.0154V12.1408C12.0154 14.9651 10.7276 17.0599 8.21276 17.0599C5.69794 17.0599 4.25537 14.9706 4.25537 12.1408L4.28301 4.3476H0.673828V12.1408C0.673828 14.4124 1.40893 16.474 2.75201 17.9497C4.13378 19.4697 6.02404 20.2601 8.21276 20.2601C12.5681 20.2601 15.608 16.9217 15.608 12.1408V6.90111C16.0612 8.62555 17.1445 11.9363 19.2172 14.838L17.2827 25.859H20.9527L22.2294 18.0492C22.6495 18.3974 23.0972 18.7125 23.567 18.9888C24.794 19.7626 26.2034 20.1993 27.6515 20.249C27.6515 20.249 27.8726 20.2601 27.9886 20.2601C32.4766 20.2601 36.0527 16.7835 36.0527 12.091C36.0527 7.39854 32.4711 3.90543 27.9831 3.90543L27.9721 3.8999Z" fill="#6FDA44"/>
</svg>
