<svg width="153" height="40" viewBox="0 0 153 40" fill="none" xmlns="http://www.w3.org/2000/svg">
<path d="M13.0951 27.8578C20.3274 27.8578 26.1904 21.9949 26.1904 14.7626C26.1904 13.9429 26.115 13.1409 25.971 12.3629C25.193 12.2189 24.391 12.1436 23.5713 12.1436C16.339 12.1436 10.4761 18.0065 10.4761 25.2388C10.4761 26.0585 10.5514 26.8605 10.6955 27.6385C11.4734 27.7825 12.2755 27.8578 13.0951 27.8578Z" fill="#175CD3"/>
<path fill-rule="evenodd" clip-rule="evenodd" d="M10.6956 27.6381C4.60931 26.5109 0 21.1749 0 14.7622C0 7.52993 5.86294 1.66699 13.0952 1.66699C19.5079 1.66699 24.844 6.27631 25.9711 12.3626C25.1932 12.2185 24.3911 12.1432 23.5714 12.1432C16.3391 12.1432 10.4762 18.0061 10.4762 25.2384C10.4762 26.0581 10.5515 26.8601 10.6956 27.6381Z" fill="#1570EF"/>
<path fill-rule="evenodd" clip-rule="evenodd" d="M13.0951 27.8575C20.3274 27.8575 26.1903 21.9945 26.1903 14.7622C26.1903 13.9426 26.115 13.1405 25.971 12.3625C32.0572 13.4897 36.6665 18.8258 36.6665 25.2384C36.6665 32.4707 30.8036 38.3336 23.5713 38.3336C17.1587 38.3336 11.8226 33.7243 10.6954 27.6381C11.4734 27.7822 12.2754 27.8575 13.0951 27.8575Z" fill="#2E90FA"/>
<path d="M61.8565 24.0866C61.3899 25.5955 60.5732 26.7233 59.4065 27.47C58.2399 28.2011 56.8788 28.5666 55.3232 28.5666C53.7988 28.5666 52.4765 28.2478 51.3565 27.61C50.2521 26.9722 49.3965 26.0622 48.7899 24.88C48.1988 23.6978 47.9032 22.2822 47.9032 20.6333C47.9032 18.9844 48.2065 17.5689 48.8132 16.3866C49.4199 15.2044 50.2754 14.2944 51.3799 13.6566C52.4843 13.0189 53.7832 12.7 55.2765 12.7C56.8476 12.7 58.1932 13.0344 59.3132 13.7033C60.4488 14.3566 61.2265 15.3522 61.6465 16.69L58.7299 17.9266C58.4654 16.9933 58.061 16.3322 57.5165 15.9433C56.9721 15.5389 56.2721 15.3366 55.4165 15.3366C54.141 15.3366 53.1221 15.7955 52.3599 16.7133C51.6132 17.6155 51.2399 18.9222 51.2399 20.6333C51.2399 22.3289 51.5976 23.6355 52.3132 24.5533C53.0288 25.4711 54.0632 25.93 55.4165 25.93C56.2565 25.93 56.9799 25.7044 57.5865 25.2533C58.2088 24.8022 58.6443 24.1178 58.8932 23.2L61.8565 24.0866Z" fill="white"/>
<path d="M65.8843 14.9866C64.562 14.9866 63.9009 14.4189 63.9009 13.2833C63.9009 12.1322 64.562 11.5566 65.8843 11.5566C67.2065 11.5566 67.8676 12.1322 67.8676 13.2833C67.8676 14.4189 67.2065 14.9866 65.8843 14.9866ZM67.4709 16.6666V28.3333H64.2743V16.6666H67.4709Z" fill="white"/>
<path d="M70.8595 28.3333V16.6666H73.6362L73.8462 18.9533C74.1418 18.16 74.5851 17.5455 75.1762 17.11C75.7829 16.6589 76.5451 16.4333 77.4629 16.4333C78.0073 16.4333 78.4273 16.5189 78.7229 16.69L78.3495 19.3733C78.194 19.3266 77.9995 19.2878 77.7662 19.2566C77.5484 19.21 77.2607 19.1866 76.9029 19.1866C76.4207 19.1866 75.9618 19.3033 75.5262 19.5366C75.1062 19.7544 74.7562 20.0966 74.4762 20.5633C74.1962 21.0144 74.0562 21.59 74.0562 22.29V28.3333H70.8595Z" fill="white"/>
<path d="M85.7721 16.4333C87.3277 16.4333 88.5332 16.7678 89.3888 17.4366C90.2599 18.1055 90.8354 18.9144 91.1154 19.8633L88.1288 20.9366C87.8176 19.5211 87.0476 18.8133 85.8188 18.8133C84.9321 18.8133 84.2399 19.1244 83.7421 19.7466C83.2599 20.3689 83.0188 21.2944 83.0188 22.5233C83.0188 23.7678 83.2677 24.6933 83.7654 25.3C84.2788 25.8911 84.971 26.1866 85.8421 26.1866C87.1954 26.1866 88.0043 25.4944 88.2688 24.11L91.1621 25.0433C90.8976 26.0855 90.3065 26.9333 89.3888 27.5866C88.4865 28.24 87.3121 28.5666 85.8654 28.5666C84.6521 28.5666 83.5865 28.3255 82.6688 27.8433C81.7665 27.3611 81.0665 26.6689 80.5688 25.7666C80.071 24.8644 79.8221 23.7755 79.8221 22.5C79.8221 21.2244 80.071 20.1355 80.5688 19.2333C81.0821 18.3311 81.7821 17.6389 82.6688 17.1566C83.571 16.6744 84.6054 16.4333 85.7721 16.4333Z" fill="white"/>
<path d="M98.966 16.4333C100.133 16.4333 101.167 16.6744 102.069 17.1566C102.972 17.6389 103.672 18.3311 104.169 19.2333C104.683 20.1355 104.939 21.2244 104.939 22.5C104.939 23.7755 104.683 24.8644 104.169 25.7666C103.672 26.6689 102.972 27.3611 102.069 27.8433C101.167 28.3255 100.133 28.5666 98.966 28.5666C97.7838 28.5666 96.7416 28.3255 95.8393 27.8433C94.9527 27.3611 94.2527 26.6689 93.7393 25.7666C93.2416 24.8644 92.9927 23.7755 92.9927 22.5C92.9927 21.2244 93.2416 20.1355 93.7393 19.2333C94.2527 18.3311 94.9527 17.6389 95.8393 17.1566C96.7416 16.6744 97.7838 16.4333 98.966 16.4333ZM98.966 18.8133C98.0949 18.8133 97.4104 19.1244 96.9127 19.7466C96.4304 20.3533 96.1893 21.2711 96.1893 22.5C96.1893 23.7289 96.4304 24.6544 96.9127 25.2766C97.4104 25.8833 98.0949 26.1866 98.966 26.1866C99.8216 26.1866 100.49 25.8833 100.973 25.2766C101.47 24.6544 101.719 23.7289 101.719 22.5C101.719 21.2711 101.47 20.3533 100.973 19.7466C100.49 19.1244 99.8216 18.8133 98.966 18.8133Z" fill="white"/>
<path d="M112.934 16.4333C114.101 16.4333 115.135 16.6744 116.037 17.1566C116.94 17.6389 117.64 18.3311 118.137 19.2333C118.651 20.1355 118.907 21.2244 118.907 22.5C118.907 23.7755 118.651 24.8644 118.137 25.7666C117.64 26.6689 116.94 27.3611 116.037 27.8433C115.135 28.3255 114.101 28.5666 112.934 28.5666C111.752 28.5666 110.71 28.3255 109.807 27.8433C108.921 27.3611 108.221 26.6689 107.707 25.7666C107.21 24.8644 106.961 23.7755 106.961 22.5C106.961 21.2244 107.21 20.1355 107.707 19.2333C108.221 18.3311 108.921 17.6389 109.807 17.1566C110.71 16.6744 111.752 16.4333 112.934 16.4333ZM112.934 18.8133C112.063 18.8133 111.379 19.1244 110.881 19.7466C110.399 20.3533 110.157 21.2711 110.157 22.5C110.157 23.7289 110.399 24.6544 110.881 25.2766C111.379 25.8833 112.063 26.1866 112.934 26.1866C113.79 26.1866 114.459 25.8833 114.941 25.2766C115.439 24.6544 115.687 23.7289 115.687 22.5C115.687 21.2711 115.439 20.3533 114.941 19.7466C114.459 19.1244 113.79 18.8133 112.934 18.8133Z" fill="white"/>
<path d="M124.732 11.5566V24.74C124.732 25.2844 124.826 25.6655 125.012 25.8833C125.199 26.1011 125.51 26.21 125.946 26.21C126.21 26.21 126.428 26.1944 126.599 26.1633C126.77 26.1322 126.988 26.07 127.252 25.9766L126.972 28.0766C126.708 28.2322 126.373 28.3489 125.969 28.4266C125.58 28.52 125.191 28.5666 124.802 28.5666C123.667 28.5666 122.834 28.2944 122.306 27.75C121.792 27.19 121.536 26.3033 121.536 25.09V11.5566H124.732Z" fill="white"/>
<path d="M134.447 28.5666C132.611 28.5666 131.141 28.0378 130.037 26.98C128.932 25.9066 128.38 24.4133 128.38 22.5C128.38 21.2244 128.629 20.1355 129.127 19.2333C129.624 18.3311 130.317 17.6389 131.203 17.1566C132.106 16.6744 133.132 16.4333 134.283 16.4333C135.466 16.4333 136.469 16.6744 137.293 17.1566C138.118 17.6233 138.748 18.2689 139.183 19.0933C139.619 19.9022 139.837 20.8278 139.837 21.87C139.837 22.1811 139.829 22.4766 139.813 22.7566C139.798 23.0366 139.774 23.2855 139.743 23.5033H131.507C131.631 24.4055 131.942 25.0822 132.44 25.5333C132.953 25.9689 133.614 26.1866 134.423 26.1866C135.108 26.1866 135.66 26.0544 136.08 25.79C136.5 25.5255 136.827 25.16 137.06 24.6933L139.603 25.6733C139.23 26.5911 138.577 27.3066 137.643 27.82C136.71 28.3178 135.644 28.5666 134.447 28.5666ZM134.26 18.79C132.751 18.79 131.841 19.6222 131.53 21.2866H136.78C136.687 20.4778 136.422 19.8633 135.987 19.4433C135.567 19.0078 134.991 18.79 134.26 18.79Z" fill="white"/>
<path d="M147.212 28.5666C146.03 28.5666 144.949 28.3566 143.969 27.9366C143.005 27.5166 142.219 26.9255 141.612 26.1633L143.456 24.2966C143.829 24.8566 144.327 25.3155 144.949 25.6733C145.571 26.0311 146.31 26.21 147.166 26.21C147.772 26.21 148.255 26.1244 148.612 25.9533C148.986 25.7666 149.172 25.4789 149.172 25.09C149.172 24.8411 149.087 24.6311 148.916 24.46C148.745 24.2733 148.402 24.1255 147.889 24.0166L145.836 23.5966C144.482 23.3166 143.518 22.8966 142.942 22.3366C142.382 21.7611 142.102 21.0222 142.102 20.12C142.102 19.4822 142.289 18.8833 142.662 18.3233C143.051 17.7633 143.627 17.3122 144.389 16.97C145.151 16.6122 146.1 16.4333 147.236 16.4333C149.6 16.4333 151.296 17.1566 152.322 18.6033L150.409 20.47C150.067 19.9255 149.616 19.5133 149.056 19.2333C148.511 18.9378 147.936 18.79 147.329 18.79C145.96 18.79 145.276 19.1711 145.276 19.9333C145.276 20.1822 145.385 20.4 145.602 20.5866C145.82 20.7578 146.217 20.9055 146.792 21.03L149.172 21.52C150.324 21.7533 151.148 22.15 151.646 22.71C152.144 23.2544 152.392 23.9155 152.392 24.6933C152.392 25.8133 151.941 26.7389 151.039 27.47C150.152 28.2011 148.877 28.5666 147.212 28.5666Z" fill="white"/>
</svg>
