<svg xmlns="http://www.w3.org/2000/svg" fill="none" viewBox="35.1 35.34 683.88 197.28">
<path d="M35.1096 87.9227L64.9096 58.1227C69.5296 53.5027 75.7896 50.9127 82.3096 50.9127H179.75V50.9528L142.78 87.9227H35.0996H35.1096Z" fill="url(#paint0_linear_1_528)"/>
<path d="M219.98 77.0427C219.98 84.0027 217.22 90.6728 212.3 95.5828L182.96 124.923H182.94V124.943L127.54 180.333L127.43 180.223V127.913L179.71 75.6227L182.93 72.3928L219.98 35.3428V77.0427Z" fill="url(#paint1_linear_1_528)"/>
<path d="M127.54 180.343L127.43 180.463V180.233L127.54 180.343Z" fill="url(#paint2_linear_1_528)"/>
<path d="M109.13 161.943H108.84V161.653L72.1196 124.933H71.7896V124.603L35.1096 87.9227V129.943C35.1096 136.613 37.7596 143.003 42.4696 147.713L127.4 232.623L127.42 232.603V180.213L109.12 161.913V161.933L109.13 161.943ZM108.84 199.043V198.953H108.93L108.84 199.043Z" fill="url(#paint3_linear_1_528)"/>
<path d="M312.01 79.6694H330.98L299.63 160.059H279.53L248.18 79.6694H267.15L289.67 140.939L312.01 79.6694Z" fill="#231F20"/>
<path d="M352.369 127.269C353.659 133.379 356.599 138.069 361.209 141.339C365.819 144.609 371.449 146.249 378.089 146.249C387.309 146.249 394.219 142.929 398.829 136.279L413.139 144.639C405.209 156.319 393.469 162.169 377.929 162.169C364.849 162.169 354.299 158.179 346.259 150.189C338.219 142.209 334.199 132.099 334.199 119.879C334.199 107.659 338.169 97.8293 346.099 89.7293C354.029 81.6393 364.209 77.5894 376.649 77.5894C388.439 77.5894 398.119 81.7193 405.669 89.9693C413.229 98.2293 417.009 108.249 417.009 120.039C417.009 121.869 416.789 124.279 416.369 127.279H352.379L352.369 127.269ZM352.209 113.119H399.479C398.299 106.579 395.589 101.649 391.359 98.3293C387.119 95.0093 382.169 93.3493 376.489 93.3493C370.059 93.3493 364.699 95.1194 360.409 98.6494C356.119 102.189 353.389 107.009 352.209 113.119Z" fill="#231F20"/>
<path d="M474.56 77.5791C483.78 77.5791 491.229 80.5291 496.909 86.4191C502.589 92.3191 505.43 100.409 505.43 110.699V160.059H488.06V112.469C488.06 106.469 486.45 101.859 483.24 98.6391C480.02 95.4291 475.63 93.8191 470.06 93.8191C463.95 93.8191 459.02 95.7191 455.27 99.5291C451.52 103.329 449.64 109.149 449.64 116.969V160.059H432.27V79.6691H449.64V89.9591C454.89 81.7091 463.2 77.5791 474.56 77.5791Z" fill="#231F20"/>
<path d="M587.76 79.6693H605.13V160.059H587.76V148.479C581.22 157.589 571.84 162.149 559.62 162.149C548.58 162.149 539.14 158.049 531.32 149.849C523.49 141.649 519.58 131.659 519.58 119.859C519.58 108.059 523.49 97.9393 531.32 89.7893C539.14 81.6393 548.58 77.5693 559.62 77.5693C571.84 77.5693 581.22 82.0693 587.76 91.0793V79.6593V79.6693ZM544.18 138.279C549 143.159 555.06 145.599 562.35 145.599C569.64 145.599 575.7 143.159 580.52 138.279C585.34 133.399 587.75 127.269 587.75 119.869C587.75 112.469 585.34 106.339 580.52 101.459C575.7 96.5793 569.64 94.1393 562.35 94.1393C555.06 94.1393 549.01 96.5793 544.18 101.459C539.36 106.339 536.94 112.469 536.94 119.869C536.94 127.269 539.35 133.399 544.18 138.279Z" fill="#231F20"/>
<path d="M640.5 101.759C640.5 104.409 641.98 106.499 644.95 108.029C647.92 109.559 651.48 110.969 655.64 112.249C659.8 113.529 664.06 114.839 668.42 116.189C672.78 117.529 676.43 120.019 679.35 123.649C682.27 127.279 683.74 131.869 683.74 137.399C683.74 145.119 680.77 151.179 674.82 155.569C668.87 159.969 661.39 162.159 652.39 162.159C644.46 162.159 637.65 160.499 631.97 157.179C626.29 153.859 622.16 149.249 619.59 143.349L634.54 134.669C637.33 142.389 643.27 146.249 652.39 146.249C661.51 146.249 666.06 143.249 666.06 137.239C666.06 134.669 664.58 132.579 661.64 130.969C658.69 129.359 655.14 127.919 650.98 126.639C646.82 125.359 642.56 124.039 638.2 122.699C633.84 121.359 630.18 118.939 627.23 115.459C624.28 111.979 622.81 107.559 622.81 102.189C622.81 94.7893 625.62 88.8394 631.25 84.3394C636.88 79.8394 643.87 77.5894 652.23 77.5894C658.88 77.5894 664.8 79.0593 670 82.0093C675.2 84.9593 679.19 89.0593 681.98 94.3093L667.35 102.509C664.56 96.3993 659.52 93.3493 652.24 93.3493C648.92 93.3493 646.13 94.0693 643.88 95.4893C641.63 96.9193 640.5 99.0093 640.5 101.759Z" fill="#231F20"/>
<path d="M279.34 193.926V190.516H301.74V193.926H279.34ZM288.7 218.036V191.316H292.43V218.036H288.7Z" fill="#231F20"/>
<path d="M314.109 218.036V190.516H317.839V218.036H314.109ZM316.649 193.926V190.516H332.229V193.926H316.649ZM316.649 205.586V202.336H331.119V205.586H316.649ZM316.649 218.036V214.626H332.429V218.036H316.649Z" fill="#231F20"/>
<path d="M357.32 218.426C355.34 218.426 353.5 218.066 351.81 217.336C350.12 216.606 348.64 215.596 347.39 214.306C346.13 213.016 345.16 211.506 344.48 209.786C343.8 208.066 343.45 206.226 343.45 204.276C343.45 202.326 343.79 200.446 344.48 198.726C345.17 197.006 346.14 195.506 347.39 194.226C348.64 192.946 350.11 191.936 351.79 191.216C353.47 190.496 355.3 190.126 357.28 190.126C359.45 190.126 361.35 190.496 362.99 191.236C364.63 191.976 366.08 192.976 367.35 194.246L364.77 196.826C363.9 195.846 362.83 195.086 361.58 194.526C360.32 193.966 358.89 193.696 357.28 193.696C355.83 193.696 354.49 193.956 353.28 194.466C352.06 194.976 351.01 195.716 350.11 196.666C349.21 197.616 348.52 198.736 348.03 200.036C347.54 201.336 347.3 202.746 347.3 204.276C347.3 205.806 347.54 207.226 348.03 208.516C348.52 209.816 349.21 210.936 350.11 211.886C351.01 212.836 352.07 213.566 353.28 214.086C354.5 214.606 355.83 214.856 357.28 214.856C359 214.856 360.49 214.576 361.76 214.006C363.03 213.436 364.1 212.666 364.97 211.686L367.55 214.226C366.28 215.546 364.79 216.576 363.09 217.316C361.38 218.056 359.46 218.426 357.32 218.426Z" fill="#231F20"/>
<path d="M380.04 218.036V190.516H383.77V218.036H380.04ZM382.58 205.506V202.096H398.72V205.506H382.58ZM397.8 218.036V190.516H401.53V218.036H397.8Z" fill="#231F20"/>
<path d="M415.96 218.036V190.516H418.58L419.69 194.836V218.026H415.96V218.036ZM434.99 218.036L418.1 195.476L418.58 190.516L435.51 213.036L435 218.036H434.99ZM434.99 218.036L433.88 213.956V190.526H437.61V218.046H434.99V218.036Z" fill="#231F20"/>
<path d="M464.57 218.426C462.61 218.426 460.79 218.066 459.1 217.336C457.41 216.606 455.93 215.596 454.66 214.286C453.39 212.976 452.41 211.466 451.71 209.746C451.01 208.026 450.66 206.186 450.66 204.236C450.66 202.286 451.01 200.406 451.71 198.706C452.41 196.996 453.39 195.506 454.64 194.206C455.89 192.906 457.36 191.906 459.04 191.196C460.72 190.486 462.54 190.126 464.49 190.126C466.44 190.126 468.26 190.486 469.94 191.196C471.62 191.906 473.09 192.916 474.36 194.206C475.63 195.496 476.62 197.006 477.33 198.726C478.04 200.446 478.4 202.296 478.4 204.276C478.4 206.256 478.04 208.066 477.33 209.786C476.62 211.506 475.63 213.006 474.38 214.306C473.12 215.606 471.66 216.616 469.98 217.336C468.3 218.066 466.5 218.426 464.57 218.426ZM464.49 214.856C466.47 214.856 468.21 214.396 469.7 213.486C471.19 212.576 472.38 211.316 473.25 209.716C474.12 208.116 474.56 206.286 474.56 204.226C474.56 202.696 474.31 201.286 473.81 200.006C473.31 198.726 472.61 197.606 471.71 196.656C470.81 195.706 469.75 194.966 468.54 194.456C467.32 193.936 465.98 193.686 464.5 193.686C462.54 193.686 460.82 194.136 459.33 195.036C457.84 195.936 456.66 197.176 455.8 198.766C454.94 200.356 454.51 202.176 454.51 204.236C454.51 205.766 454.75 207.186 455.24 208.496C455.73 209.806 456.41 210.926 457.3 211.866C458.18 212.806 459.24 213.536 460.47 214.066C461.7 214.596 463.04 214.856 464.49 214.856Z" fill="#231F20"/>
<path d="M491.45 218.036V190.516H495.18V218.036H491.45ZM493.98 218.036V214.626H508.73V218.036H493.98Z" fill="#231F20"/>
<path d="M531.41 218.426C529.45 218.426 527.63 218.066 525.94 217.336C524.25 216.606 522.77 215.596 521.5 214.286C520.23 212.976 519.25 211.466 518.55 209.746C517.85 208.026 517.5 206.186 517.5 204.236C517.5 202.286 517.85 200.406 518.55 198.706C519.25 196.996 520.23 195.506 521.48 194.206C522.73 192.906 524.2 191.906 525.88 191.196C527.56 190.486 529.38 190.126 531.33 190.126C533.28 190.126 535.1 190.486 536.78 191.196C538.46 191.906 539.93 192.916 541.2 194.206C542.47 195.496 543.46 197.006 544.17 198.726C544.88 200.446 545.24 202.296 545.24 204.276C545.24 206.256 544.88 208.066 544.17 209.786C543.46 211.506 542.47 213.006 541.22 214.306C539.96 215.606 538.5 216.616 536.82 217.336C535.14 218.066 533.34 218.426 531.41 218.426ZM531.33 214.856C533.31 214.856 535.05 214.396 536.54 213.486C538.03 212.576 539.22 211.316 540.09 209.716C540.96 208.116 541.4 206.286 541.4 204.226C541.4 202.696 541.15 201.286 540.65 200.006C540.15 198.726 539.45 197.606 538.55 196.656C537.65 195.706 536.59 194.966 535.38 194.456C534.16 193.936 532.82 193.686 531.34 193.686C529.38 193.686 527.66 194.136 526.17 195.036C524.68 195.936 523.5 197.176 522.64 198.766C521.78 200.356 521.35 202.176 521.35 204.236C521.35 205.766 521.59 207.186 522.08 208.496C522.57 209.806 523.25 210.926 524.14 211.866C525.02 212.806 526.08 213.536 527.31 214.066C528.54 214.596 529.88 214.856 531.33 214.856Z" fill="#231F20"/>
<path d="M570.979 218.426C569.049 218.426 567.249 218.066 565.569 217.336C563.889 216.606 562.419 215.596 561.169 214.306C559.909 213.016 558.929 211.506 558.219 209.786C557.509 208.066 557.149 206.216 557.149 204.236C557.149 202.256 557.509 200.406 558.219 198.706C558.929 197.006 559.929 195.506 561.189 194.206C562.459 192.916 563.949 191.906 565.649 191.196C567.349 190.486 569.209 190.126 571.219 190.126C573.409 190.126 575.439 190.546 577.289 191.396C579.139 192.246 580.689 193.456 581.929 195.046L579.349 197.626C578.479 196.356 577.329 195.386 575.899 194.716C574.469 194.046 572.909 193.706 571.219 193.706C569.209 193.706 567.429 194.156 565.889 195.056C564.339 195.956 563.139 197.196 562.279 198.786C561.419 200.376 560.989 202.196 560.989 204.256C560.989 206.316 561.429 208.176 562.299 209.766C563.169 211.356 564.349 212.596 565.829 213.496C567.309 214.396 568.999 214.846 570.899 214.846C572.799 214.846 574.499 214.476 575.919 213.736C577.329 212.996 578.419 211.906 579.189 210.466C579.959 209.026 580.339 207.266 580.339 205.176L582.599 206.796H570.709V203.386H584.189V203.936C584.189 207.136 583.629 209.806 582.499 211.966C581.379 214.126 579.819 215.736 577.819 216.826C575.819 217.906 573.539 218.446 570.979 218.446V218.426Z" fill="#231F20"/>
<path d="M597.109 218.036V190.516H600.839V218.036H597.109Z" fill="#231F20"/>
<path d="M615.26 218.036V190.516H618.99V218.036H615.26ZM617.8 193.926V190.516H633.38V193.926H617.8ZM617.8 205.586V202.336H632.27V205.586H617.8ZM617.8 218.036V214.626H633.58V218.036H617.8Z" fill="#231F20"/>
<path d="M653.52 218.426C651.35 218.426 649.5 218.026 647.97 217.236C646.44 216.446 645.08 215.296 643.89 213.786L646.43 211.246C647.3 212.466 648.31 213.376 649.44 214.006C650.58 214.626 651.98 214.936 653.64 214.936C655.3 214.936 656.59 214.576 657.59 213.866C658.59 213.156 659.08 212.176 659.08 210.936C659.08 209.906 658.84 209.076 658.37 208.436C657.89 207.806 657.25 207.276 656.45 206.866C655.64 206.456 654.76 206.086 653.81 205.756C652.86 205.426 651.91 205.066 650.96 204.686C650.01 204.306 649.13 203.826 648.34 203.256C647.55 202.686 646.91 201.936 646.42 201.016C645.93 200.096 645.69 198.926 645.69 197.526C645.69 195.966 646.07 194.636 646.82 193.546C647.57 192.446 648.6 191.606 649.91 191.006C651.22 190.416 652.69 190.116 654.33 190.116C656.13 190.116 657.74 190.466 659.17 191.166C660.6 191.866 661.76 192.786 662.66 193.926L660.12 196.466C659.3 195.516 658.42 194.796 657.48 194.326C656.54 193.856 655.47 193.616 654.25 193.616C652.77 193.616 651.59 193.936 650.72 194.586C649.85 195.236 649.41 196.136 649.41 197.306C649.41 198.236 649.65 198.976 650.14 199.546C650.63 200.116 651.27 200.596 652.06 200.996C652.85 201.396 653.73 201.756 654.7 202.086C655.66 202.416 656.62 202.776 657.57 203.176C658.52 203.576 659.39 204.076 660.19 204.686C660.98 205.296 661.62 206.086 662.11 207.046C662.6 208.016 662.84 209.226 662.84 210.676C662.84 213.106 662 215.016 660.32 216.386C658.64 217.766 656.38 218.446 653.52 218.446V218.426Z" fill="#231F20"/>
<path d="M692.58 81.4181V79.7881H703.61V81.4181H692.58ZM697.19 92.9581V80.1681H699.03V92.9581H697.19Z" fill="#231F20"/>
<path d="M705.8 92.9581V79.7881H707.09L712.83 88.9581H711.95L717.69 79.7881H718.98V92.9581H717.14V82.9181L717.57 83.0281L713.04 90.2581H711.75L707.22 83.0281L707.63 82.9181V92.9581H705.79H705.8Z" fill="#231F20"/>
<defs>
<linearGradient id="paint0_linear_1_528" x1="127.54" y1="35.3428" x2="127.54" y2="232.623" gradientUnits="userSpaceOnUse">
<stop stop-color="#00ADEF"/>
<stop offset="1" stop-color="#0070F0"/>
</linearGradient>
<linearGradient id="paint1_linear_1_528" x1="127.54" y1="35.3428" x2="127.54" y2="232.623" gradientUnits="userSpaceOnUse">
<stop stop-color="#00ADEF"/>
<stop offset="1" stop-color="#0070F0"/>
</linearGradient>
<linearGradient id="paint2_linear_1_528" x1="127.54" y1="35.3428" x2="127.54" y2="232.623" gradientUnits="userSpaceOnUse">
<stop stop-color="#00ADEF"/>
<stop offset="1" stop-color="#0070F0"/>
</linearGradient>
<linearGradient id="paint3_linear_1_528" x1="127.54" y1="35.3428" x2="127.54" y2="232.623" gradientUnits="userSpaceOnUse">
<stop stop-color="#00ADEF"/>
<stop offset="1" stop-color="#0070F0"/>
</linearGradient>
</defs>
</svg>