<svg width="754" height="268" viewBox="0 0 754 268" fill="none" xmlns="http://www.w3.org/2000/svg">
<path d="M35.1096 87.9237L64.9096 58.1237C69.5296 53.5037 75.7896 50.9137 82.3096 50.9137H179.75V50.9537L142.78 87.9237H35.0996H35.1096Z" fill="url(#paint0_linear_301_1151)"/>
<path d="M219.98 77.0437C219.98 84.0037 217.22 90.6737 212.3 95.5837L182.96 124.924H182.94V124.944L127.54 180.334L127.43 180.224V127.914L179.71 75.6237L182.93 72.3937L219.98 35.3438V77.0437Z" fill="url(#paint1_linear_301_1151)"/>
<path d="M127.54 180.344L127.43 180.464V180.234L127.54 180.344Z" fill="url(#paint2_linear_301_1151)"/>
<path d="M109.13 161.944H108.84V161.654L72.1196 124.934H71.7896V124.604L35.1096 87.9237V129.944C35.1096 136.614 37.7596 143.004 42.4696 147.714L127.4 232.624L127.42 232.604V180.214L109.12 161.914V161.934L109.13 161.944ZM108.84 199.044V198.954H108.93L108.84 199.044Z" fill="url(#paint3_linear_301_1151)"/>
<path d="M312.01 79.6719H330.98L299.63 160.062H279.53L248.18 79.6719H267.15L289.67 140.942L312.01 79.6719Z" fill="#231F20"/>
<path d="M352.369 127.274C353.659 133.384 356.599 138.074 361.209 141.344C365.819 144.614 371.449 146.254 378.089 146.254C387.309 146.254 394.219 142.934 398.829 136.284L413.139 144.644C405.209 156.324 393.469 162.174 377.929 162.174C364.849 162.174 354.299 158.184 346.259 150.194C338.219 142.214 334.199 132.104 334.199 119.884C334.199 107.664 338.169 97.8337 346.099 89.7337C354.029 81.6437 364.209 77.5938 376.649 77.5938C388.439 77.5938 398.119 81.7237 405.669 89.9737C413.229 98.2337 417.009 108.254 417.009 120.044C417.009 121.874 416.789 124.284 416.369 127.284H352.379L352.369 127.274ZM352.209 113.124H399.479C398.299 106.584 395.589 101.654 391.359 98.3337C387.119 95.0137 382.169 93.3537 376.489 93.3537C370.059 93.3537 364.699 95.1237 360.409 98.6537C356.119 102.194 353.389 107.014 352.209 113.124Z" fill="#231F20"/>
<path d="M474.56 77.5781C483.78 77.5781 491.229 80.5281 496.909 86.4181C502.589 92.3181 505.43 100.408 505.43 110.698V160.058H488.06V112.468C488.06 106.468 486.45 101.858 483.24 98.6381C480.02 95.4281 475.63 93.8181 470.06 93.8181C463.95 93.8181 459.02 95.7181 455.27 99.5281C451.52 103.328 449.64 109.148 449.64 116.968V160.058H432.27V79.6681H449.64V89.9581C454.89 81.7081 463.2 77.5781 474.56 77.5781Z" fill="#231F20"/>
<path d="M587.76 79.6703H605.13V160.06H587.76V148.48C581.22 157.59 571.84 162.15 559.62 162.15C548.58 162.15 539.14 158.05 531.32 149.85C523.49 141.65 519.58 131.66 519.58 119.86C519.58 108.06 523.49 97.9403 531.32 89.7903C539.14 81.6403 548.58 77.5703 559.62 77.5703C571.84 77.5703 581.22 82.0703 587.76 91.0803V79.6603V79.6703ZM544.18 138.28C549 143.16 555.06 145.6 562.35 145.6C569.64 145.6 575.7 143.16 580.52 138.28C585.34 133.4 587.75 127.27 587.75 119.87C587.75 112.47 585.34 106.34 580.52 101.46C575.7 96.5803 569.64 94.1403 562.35 94.1403C555.06 94.1403 549.01 96.5803 544.18 101.46C539.36 106.34 536.94 112.47 536.94 119.87C536.94 127.27 539.35 133.4 544.18 138.28Z" fill="#231F20"/>
<path d="M640.5 101.764C640.5 104.414 641.98 106.504 644.95 108.034C647.92 109.564 651.48 110.974 655.64 112.254C659.8 113.534 664.06 114.844 668.42 116.194C672.78 117.534 676.43 120.024 679.35 123.654C682.27 127.284 683.74 131.874 683.74 137.404C683.74 145.124 680.77 151.184 674.82 155.574C668.87 159.974 661.39 162.164 652.39 162.164C644.46 162.164 637.65 160.504 631.97 157.184C626.29 153.864 622.16 149.254 619.59 143.354L634.54 134.674C637.33 142.394 643.27 146.254 652.39 146.254C661.51 146.254 666.06 143.254 666.06 137.244C666.06 134.674 664.58 132.584 661.64 130.974C658.69 129.364 655.14 127.924 650.98 126.644C646.82 125.364 642.56 124.044 638.2 122.704C633.84 121.364 630.18 118.944 627.23 115.464C624.28 111.984 622.81 107.564 622.81 102.194C622.81 94.7937 625.62 88.8438 631.25 84.3438C636.88 79.8438 643.87 77.5938 652.23 77.5938C658.88 77.5938 664.8 79.0637 670 82.0137C675.2 84.9637 679.19 89.0637 681.98 94.3137L667.35 102.514C664.56 96.4037 659.52 93.3537 652.24 93.3537C648.92 93.3537 646.13 94.0737 643.88 95.4937C641.63 96.9237 640.5 99.0137 640.5 101.764Z" fill="#231F20"/>
<path d="M279.34 193.926V190.516H301.74V193.926H279.34ZM288.7 218.036V191.316H292.43V218.036H288.7Z" fill="#231F20"/>
<path d="M314.109 218.036V190.516H317.839V218.036H314.109ZM316.649 193.926V190.516H332.229V193.926H316.649ZM316.649 205.586V202.336H331.119V205.586H316.649ZM316.649 218.036V214.626H332.429V218.036H316.649Z" fill="#231F20"/>
<path d="M357.319 218.425C355.339 218.425 353.499 218.065 351.809 217.335C350.119 216.605 348.639 215.595 347.389 214.305C346.129 213.015 345.159 211.505 344.479 209.785C343.799 208.065 343.449 206.225 343.449 204.275C343.449 202.325 343.789 200.445 344.479 198.725C345.169 197.005 346.139 195.505 347.389 194.225C348.639 192.945 350.109 191.935 351.789 191.215C353.469 190.495 355.299 190.125 357.279 190.125C359.449 190.125 361.349 190.495 362.989 191.235C364.629 191.975 366.079 192.975 367.349 194.245L364.769 196.825C363.899 195.845 362.829 195.085 361.579 194.525C360.319 193.965 358.889 193.695 357.279 193.695C355.829 193.695 354.489 193.955 353.279 194.465C352.059 194.975 351.009 195.715 350.109 196.665C349.209 197.615 348.519 198.735 348.029 200.035C347.539 201.335 347.299 202.745 347.299 204.275C347.299 205.805 347.539 207.225 348.029 208.515C348.519 209.815 349.209 210.935 350.109 211.885C351.009 212.835 352.069 213.565 353.279 214.085C354.499 214.605 355.829 214.855 357.279 214.855C358.999 214.855 360.489 214.575 361.759 214.005C363.029 213.435 364.099 212.665 364.969 211.685L367.549 214.225C366.279 215.545 364.789 216.575 363.089 217.315C361.379 218.055 359.459 218.425 357.319 218.425Z" fill="#231F20"/>
<path d="M380.039 218.036V190.516H383.769V218.036H380.039ZM382.579 205.506V202.096H398.719V205.506H382.579ZM397.799 218.036V190.516H401.529V218.036H397.799Z" fill="#231F20"/>
<path d="M415.959 218.036V190.516H418.579L419.689 194.836V218.026H415.959V218.036ZM434.989 218.036L418.099 195.476L418.579 190.516L435.509 213.036L434.999 218.036H434.989ZM434.989 218.036L433.879 213.956V190.526H437.609V218.046H434.989V218.036Z" fill="#231F20"/>
<path d="M464.57 218.425C462.61 218.425 460.79 218.065 459.1 217.335C457.41 216.605 455.93 215.595 454.66 214.285C453.39 212.975 452.41 211.465 451.71 209.745C451.01 208.025 450.66 206.185 450.66 204.235C450.66 202.285 451.01 200.405 451.71 198.705C452.41 196.995 453.39 195.505 454.64 194.205C455.89 192.905 457.36 191.905 459.04 191.195C460.72 190.485 462.54 190.125 464.49 190.125C466.44 190.125 468.26 190.485 469.94 191.195C471.62 191.905 473.09 192.915 474.36 194.205C475.63 195.495 476.62 197.005 477.33 198.725C478.04 200.445 478.4 202.295 478.4 204.275C478.4 206.255 478.04 208.065 477.33 209.785C476.62 211.505 475.63 213.005 474.38 214.305C473.12 215.605 471.66 216.615 469.98 217.335C468.3 218.065 466.5 218.425 464.57 218.425ZM464.49 214.855C466.47 214.855 468.21 214.395 469.7 213.485C471.19 212.575 472.38 211.315 473.25 209.715C474.12 208.115 474.56 206.285 474.56 204.225C474.56 202.695 474.31 201.285 473.81 200.005C473.31 198.725 472.61 197.605 471.71 196.655C470.81 195.705 469.75 194.965 468.54 194.455C467.32 193.935 465.98 193.685 464.5 193.685C462.54 193.685 460.82 194.135 459.33 195.035C457.84 195.935 456.66 197.175 455.8 198.765C454.94 200.355 454.51 202.175 454.51 204.235C454.51 205.765 454.75 207.185 455.24 208.495C455.73 209.805 456.41 210.925 457.3 211.865C458.18 212.805 459.24 213.535 460.47 214.065C461.7 214.595 463.04 214.855 464.49 214.855Z" fill="#231F20"/>
<path d="M491.449 218.036V190.516H495.179V218.036H491.449ZM493.979 218.036V214.626H508.729V218.036H493.979Z" fill="#231F20"/>
<path d="M531.41 218.425C529.45 218.425 527.63 218.065 525.94 217.335C524.25 216.605 522.77 215.595 521.5 214.285C520.23 212.975 519.25 211.465 518.55 209.745C517.85 208.025 517.5 206.185 517.5 204.235C517.5 202.285 517.85 200.405 518.55 198.705C519.25 196.995 520.23 195.505 521.48 194.205C522.73 192.905 524.2 191.905 525.88 191.195C527.56 190.485 529.38 190.125 531.33 190.125C533.28 190.125 535.1 190.485 536.78 191.195C538.46 191.905 539.93 192.915 541.2 194.205C542.47 195.495 543.46 197.005 544.17 198.725C544.88 200.445 545.24 202.295 545.24 204.275C545.24 206.255 544.88 208.065 544.17 209.785C543.46 211.505 542.47 213.005 541.22 214.305C539.96 215.605 538.5 216.615 536.82 217.335C535.14 218.065 533.34 218.425 531.41 218.425ZM531.33 214.855C533.31 214.855 535.05 214.395 536.54 213.485C538.03 212.575 539.22 211.315 540.09 209.715C540.96 208.115 541.4 206.285 541.4 204.225C541.4 202.695 541.15 201.285 540.65 200.005C540.15 198.725 539.45 197.605 538.55 196.655C537.65 195.705 536.59 194.965 535.38 194.455C534.16 193.935 532.82 193.685 531.34 193.685C529.38 193.685 527.66 194.135 526.17 195.035C524.68 195.935 523.5 197.175 522.64 198.765C521.78 200.355 521.35 202.175 521.35 204.235C521.35 205.765 521.59 207.185 522.08 208.495C522.57 209.805 523.25 210.925 524.14 211.865C525.02 212.805 526.08 213.535 527.31 214.065C528.54 214.595 529.88 214.855 531.33 214.855Z" fill="#231F20"/>
<path d="M570.98 218.425C569.05 218.425 567.25 218.065 565.57 217.335C563.89 216.605 562.42 215.595 561.17 214.305C559.91 213.015 558.93 211.505 558.22 209.785C557.51 208.065 557.15 206.215 557.15 204.235C557.15 202.255 557.51 200.405 558.22 198.705C558.93 197.005 559.93 195.505 561.19 194.205C562.46 192.915 563.95 191.905 565.65 191.195C567.35 190.485 569.21 190.125 571.22 190.125C573.41 190.125 575.44 190.545 577.29 191.395C579.14 192.245 580.69 193.455 581.93 195.045L579.35 197.625C578.48 196.355 577.33 195.385 575.9 194.715C574.47 194.045 572.91 193.705 571.22 193.705C569.21 193.705 567.43 194.155 565.89 195.055C564.34 195.955 563.14 197.195 562.28 198.785C561.42 200.375 560.99 202.195 560.99 204.255C560.99 206.315 561.43 208.175 562.3 209.765C563.17 211.355 564.35 212.595 565.83 213.495C567.31 214.395 569 214.845 570.9 214.845C572.8 214.845 574.5 214.475 575.92 213.735C577.33 212.995 578.42 211.905 579.19 210.465C579.96 209.025 580.34 207.265 580.34 205.175L582.6 206.795H570.71V203.385H584.19V203.935C584.19 207.135 583.63 209.805 582.5 211.965C581.38 214.125 579.82 215.735 577.82 216.825C575.82 217.905 573.54 218.445 570.98 218.445V218.425Z" fill="#231F20"/>
<path d="M597.109 218.036V190.516H600.839V218.036H597.109Z" fill="#231F20"/>
<path d="M615.26 218.036V190.516H618.99V218.036H615.26ZM617.8 193.926V190.516H633.38V193.926H617.8ZM617.8 205.586V202.336H632.27V205.586H617.8ZM617.8 218.036V214.626H633.58V218.036H617.8Z" fill="#231F20"/>
<path d="M653.521 218.427C651.351 218.427 649.501 218.027 647.971 217.237C646.441 216.447 645.081 215.297 643.891 213.787L646.431 211.247C647.301 212.467 648.311 213.377 649.441 214.007C650.581 214.627 651.981 214.937 653.641 214.937C655.301 214.937 656.591 214.577 657.591 213.867C658.591 213.157 659.081 212.177 659.081 210.937C659.081 209.907 658.841 209.077 658.371 208.437C657.891 207.807 657.251 207.277 656.451 206.867C655.641 206.457 654.761 206.087 653.811 205.757C652.861 205.427 651.911 205.067 650.961 204.687C650.011 204.307 649.131 203.827 648.341 203.257C647.551 202.687 646.911 201.937 646.421 201.017C645.931 200.097 645.691 198.927 645.691 197.527C645.691 195.967 646.071 194.637 646.821 193.547C647.571 192.447 648.601 191.607 649.911 191.007C651.221 190.417 652.691 190.117 654.331 190.117C656.131 190.117 657.741 190.467 659.171 191.167C660.601 191.867 661.761 192.787 662.661 193.927L660.121 196.467C659.301 195.517 658.421 194.797 657.481 194.327C656.541 193.857 655.471 193.617 654.251 193.617C652.771 193.617 651.591 193.937 650.721 194.587C649.851 195.237 649.411 196.137 649.411 197.307C649.411 198.237 649.651 198.977 650.141 199.547C650.631 200.117 651.271 200.597 652.061 200.997C652.851 201.397 653.731 201.757 654.701 202.087C655.661 202.417 656.621 202.777 657.571 203.177C658.521 203.577 659.391 204.077 660.191 204.687C660.981 205.297 661.621 206.087 662.111 207.047C662.601 208.017 662.841 209.227 662.841 210.677C662.841 213.107 662.001 215.017 660.321 216.387C658.641 217.767 656.381 218.447 653.521 218.447V218.427Z" fill="#231F20"/>
<path d="M692.58 81.4191V79.7891H703.61V81.4191H692.58ZM697.19 92.9591V80.1691H699.03V92.9591H697.19Z" fill="#231F20"/>
<path d="M705.799 92.9591V79.7891H707.089L712.829 88.9591H711.949L717.689 79.7891H718.979V92.9591H717.139V82.9191L717.569 83.0291L713.039 90.2591H711.749L707.219 83.0291L707.629 82.9191V92.9591H705.789H705.799Z" fill="#231F20"/>
<defs>
<linearGradient id="paint0_linear_301_1151" x1="127.54" y1="35.3437" x2="127.54" y2="232.624" gradientUnits="userSpaceOnUse">
<stop stop-color="#00ADEF"/>
<stop offset="1" stop-color="#0070F0"/>
</linearGradient>
<linearGradient id="paint1_linear_301_1151" x1="127.54" y1="35.3437" x2="127.54" y2="232.624" gradientUnits="userSpaceOnUse">
<stop stop-color="#00ADEF"/>
<stop offset="1" stop-color="#0070F0"/>
</linearGradient>
<linearGradient id="paint2_linear_301_1151" x1="127.54" y1="35.3437" x2="127.54" y2="232.624" gradientUnits="userSpaceOnUse">
<stop stop-color="#00ADEF"/>
<stop offset="1" stop-color="#0070F0"/>
</linearGradient>
<linearGradient id="paint3_linear_301_1151" x1="127.54" y1="35.3437" x2="127.54" y2="232.624" gradientUnits="userSpaceOnUse">
<stop stop-color="#00ADEF"/>
<stop offset="1" stop-color="#0070F0"/>
</linearGradient>
</defs>
</svg>
