<svg xmlns="http://www.w3.org/2000/svg" fill="none" viewBox="60.6 60 575.32 443.92">
<path d="M224.086 136.53L266.896 93.72C273.996 86.62 283.616 82.63 293.656 82.63H434.726V82.69L380.886 136.54H224.076L224.086 136.53Z" fill="url(#paint0_linear_50_30)"/>
<path d="M493.316 60V119.85C493.316 130.52 489.076 140.75 481.546 148.29L439.406 190.43H439.376V190.46L358.686 271.14L358.526 270.98V194.8L434.666 118.67L439.366 113.96L493.326 60H493.316Z" fill="url(#paint1_linear_50_30)"/>
<path d="M358.686 271.14L358.526 271.3V270.97L358.686 271.14Z" fill="url(#paint2_linear_50_30)"/>
<path d="M331.876 244.33H331.456V243.91L277.986 190.44H277.506V189.96L224.086 136.54V197.73C224.086 207.44 227.936 216.76 234.806 223.61L358.476 347.28L358.506 347.25V270.95L331.856 244.3V244.33H331.876ZM331.456 298.37V298.24H331.586L331.456 298.37Z" fill="url(#paint3_linear_50_30)"/>
<path d="M139.506 401.943H162.966L124.206 501.333H99.3557L60.5957 401.943H84.0557L111.896 477.703L139.516 401.943H139.506Z" fill="white"/>
<path d="M189.406 460.784C190.996 468.334 194.636 474.134 200.336 478.174C206.036 482.214 212.986 484.234 221.206 484.234C232.606 484.234 241.146 480.124 246.846 471.904L264.536 482.244C254.726 496.694 240.216 503.914 221.006 503.914C204.836 503.914 191.786 498.974 181.846 489.104C171.906 479.234 166.936 466.743 166.936 451.633C166.936 436.523 171.836 424.374 181.646 414.364C191.456 404.364 204.046 399.354 219.416 399.354C233.996 399.354 245.956 404.454 255.296 414.664C264.636 424.874 269.316 437.263 269.316 451.833C269.316 454.083 269.046 457.074 268.516 460.784H189.396H189.406ZM189.206 443.294H247.646C246.186 435.214 242.836 429.113 237.606 425.003C232.366 420.893 226.246 418.844 219.216 418.844C211.266 418.844 204.636 421.034 199.336 425.404C194.036 429.774 190.656 435.744 189.196 443.294H189.206Z" fill="white"/>
<path d="M340.475 399.363C351.875 399.363 361.075 403.013 368.105 410.293C375.125 417.583 378.645 427.583 378.645 440.313V501.343H357.175V442.503C357.175 435.083 355.185 429.383 351.215 425.403C347.235 421.423 341.805 419.443 334.915 419.443C327.365 419.443 321.265 421.793 316.625 426.503C311.985 431.213 309.665 438.403 309.665 448.073V501.343H288.195V401.953H309.665V414.673C316.155 404.473 326.425 399.363 340.475 399.363Z" fill="white"/>
<path d="M480.426 401.943H501.896V501.333H480.426V487.023C472.336 498.283 460.746 503.923 445.636 503.923C431.986 503.923 420.326 498.853 410.646 488.713C400.976 478.573 396.136 466.223 396.136 451.643C396.136 437.063 400.976 424.543 410.646 414.473C420.316 404.403 431.986 399.363 445.636 399.363C460.746 399.363 472.336 404.933 480.426 416.063V401.953V401.943ZM426.546 474.403C432.506 480.433 439.996 483.453 449.006 483.453C458.016 483.453 465.506 480.443 471.466 474.403C477.426 468.373 480.416 460.783 480.416 451.643C480.416 442.503 477.436 434.913 471.466 428.883C465.506 422.853 458.016 419.833 449.006 419.833C439.996 419.833 432.506 422.853 426.546 428.883C420.586 434.913 417.596 442.503 417.596 451.643C417.596 460.783 420.576 468.373 426.546 474.403Z" fill="white"/>
<path d="M545.626 429.244C545.626 432.514 547.466 435.104 551.136 436.994C554.806 438.894 559.216 440.634 564.356 442.214C569.496 443.794 574.766 445.424 580.156 447.084C585.546 448.744 590.056 451.824 593.676 456.314C597.296 460.804 599.106 466.474 599.106 473.304C599.106 482.844 595.426 490.334 588.076 495.764C580.726 501.204 571.476 503.914 560.346 503.914C550.536 503.914 542.126 501.854 535.096 497.754C528.066 493.644 522.976 487.944 519.786 480.654L538.276 469.924C541.716 479.464 549.076 484.234 560.346 484.234C571.616 484.234 577.246 480.524 577.246 473.094C577.246 469.914 575.426 467.334 571.776 465.344C568.126 463.354 563.736 461.574 558.596 459.984C553.456 458.404 548.186 456.774 542.796 455.114C537.406 453.454 532.886 450.474 529.236 446.164C525.586 441.864 523.766 436.394 523.766 429.764C523.766 420.624 527.246 413.264 534.206 407.694C541.166 402.124 549.816 399.344 560.146 399.344C568.366 399.344 575.686 401.164 582.116 404.814C588.546 408.464 593.476 413.534 596.926 420.024L578.836 430.164C575.386 422.614 569.166 418.834 560.146 418.834C556.036 418.834 552.596 419.724 549.806 421.484C547.026 423.254 545.626 425.834 545.626 429.234V429.244Z" fill="white"/>
<path d="M608.064 403.763V402.023H619.704V403.763H608.064ZM612.924 416.053V402.433H614.864V416.053H612.924Z" fill="white"/>
<path d="M622.004 416.053V402.023H623.364L629.424 411.783H628.494L634.554 402.023H635.914V416.053H633.974V405.363L634.424 405.483L629.644 413.183H628.284L623.504 405.483L623.934 405.363V416.053H621.994H622.004Z" fill="white"/>
<defs>
<linearGradient id="paint0_linear_50_30" x1="358.701" y1="60" x2="358.701" y2="347.28" gradientUnits="userSpaceOnUse">
<stop stop-color="#00ADEF"/>
<stop offset="1" stop-color="#0070F0"/>
</linearGradient>
<linearGradient id="paint1_linear_50_30" x1="358.701" y1="60" x2="358.701" y2="347.28" gradientUnits="userSpaceOnUse">
<stop stop-color="#00ADEF"/>
<stop offset="1" stop-color="#0070F0"/>
</linearGradient>
<linearGradient id="paint2_linear_50_30" x1="358.701" y1="60" x2="358.701" y2="347.28" gradientUnits="userSpaceOnUse">
<stop stop-color="#00ADEF"/>
<stop offset="1" stop-color="#0070F0"/>
</linearGradient>
<linearGradient id="paint3_linear_50_30" x1="358.701" y1="60" x2="358.701" y2="347.28" gradientUnits="userSpaceOnUse">
<stop stop-color="#00ADEF"/>
<stop offset="1" stop-color="#0070F0"/>
</linearGradient>
</defs>
</svg>