<svg width="697" height="564" viewBox="0 0 697 564" fill="none" xmlns="http://www.w3.org/2000/svg">
<path d="M224.086 136.53L266.896 93.72C273.996 86.62 283.616 82.63 293.656 82.63H434.726V82.69L380.886 136.54H224.076L224.086 136.53Z" fill="url(#paint0_linear_301_1351)"/>
<path d="M493.316 60V119.85C493.316 130.52 489.076 140.75 481.546 148.29L439.406 190.43H439.376V190.46L358.686 271.14L358.526 270.98V194.8L434.666 118.67L439.366 113.96L493.326 60H493.316Z" fill="url(#paint1_linear_301_1351)"/>
<path d="M358.686 271.14L358.526 271.3V270.97L358.686 271.14Z" fill="url(#paint2_linear_301_1351)"/>
<path d="M331.876 244.33H331.456V243.91L277.986 190.44H277.506V189.96L224.086 136.54V197.73C224.086 207.44 227.936 216.76 234.806 223.61L358.476 347.28L358.506 347.25V270.95L331.856 244.3V244.33H331.876ZM331.456 298.37V298.24H331.586L331.456 298.37Z" fill="url(#paint3_linear_301_1351)"/>
<path d="M139.506 401.945H162.966L124.206 501.335H99.3557L60.5957 401.945H84.0557L111.896 477.705L139.516 401.945H139.506Z" fill="#231F20"/>
<path d="M189.406 460.782C190.996 468.332 194.636 474.132 200.336 478.172C206.036 482.212 212.986 484.232 221.206 484.232C232.606 484.232 241.146 480.122 246.846 471.902L264.536 482.242C254.726 496.692 240.216 503.912 221.006 503.912C204.836 503.912 191.786 498.972 181.846 489.102C171.906 479.232 166.936 466.742 166.936 451.632C166.936 436.522 171.836 424.372 181.646 414.362C191.456 404.362 204.046 399.352 219.416 399.352C233.996 399.352 245.956 404.452 255.296 414.662C264.636 424.872 269.316 437.262 269.316 451.832C269.316 454.082 269.046 457.072 268.516 460.782H189.396H189.406ZM189.206 443.292H247.646C246.186 435.212 242.836 429.112 237.606 425.002C232.366 420.892 226.246 418.842 219.216 418.842C211.266 418.842 204.636 421.032 199.336 425.402C194.036 429.772 190.656 435.742 189.196 443.292H189.206Z" fill="#231F20"/>
<path d="M340.475 399.367C351.875 399.367 361.075 403.017 368.105 410.297C375.125 417.587 378.645 427.587 378.645 440.317V501.347H357.175V442.507C357.175 435.087 355.185 429.387 351.215 425.407C347.235 421.427 341.805 419.447 334.915 419.447C327.365 419.447 321.265 421.797 316.625 426.507C311.985 431.217 309.665 438.407 309.665 448.077V501.347H288.195V401.957H309.665V414.677C316.155 404.477 326.425 399.367 340.475 399.367Z" fill="#231F20"/>
<path d="M480.425 401.947H501.895V501.337H480.425V487.027C472.335 498.287 460.745 503.927 445.635 503.927C431.985 503.927 420.325 498.857 410.645 488.717C400.975 478.577 396.135 466.227 396.135 451.647C396.135 437.067 400.975 424.547 410.645 414.477C420.315 404.407 431.985 399.367 445.635 399.367C460.745 399.367 472.335 404.937 480.425 416.067V401.957V401.947ZM426.545 474.407C432.505 480.437 439.995 483.457 449.005 483.457C458.015 483.457 465.505 480.447 471.465 474.407C477.425 468.377 480.415 460.787 480.415 451.647C480.415 442.507 477.435 434.917 471.465 428.887C465.505 422.857 458.015 419.837 449.005 419.837C439.995 419.837 432.505 422.857 426.545 428.887C420.585 434.917 417.595 442.507 417.595 451.647C417.595 460.787 420.575 468.377 426.545 474.407Z" fill="#231F20"/>
<path d="M545.625 429.244C545.625 432.514 547.465 435.104 551.135 436.994C554.805 438.894 559.215 440.634 564.355 442.214C569.495 443.794 574.765 445.424 580.155 447.084C585.545 448.744 590.055 451.824 593.675 456.314C597.295 460.804 599.105 466.474 599.105 473.304C599.105 482.844 595.425 490.334 588.075 495.764C580.725 501.204 571.475 503.914 560.345 503.914C550.535 503.914 542.125 501.854 535.095 497.754C528.065 493.644 522.975 487.944 519.785 480.654L538.275 469.924C541.715 479.464 549.075 484.234 560.345 484.234C571.615 484.234 577.245 480.524 577.245 473.094C577.245 469.914 575.425 467.334 571.775 465.344C568.125 463.354 563.735 461.574 558.595 459.984C553.455 458.404 548.185 456.774 542.795 455.114C537.405 453.454 532.885 450.474 529.235 446.164C525.585 441.864 523.765 436.394 523.765 429.764C523.765 420.624 527.245 413.264 534.205 407.694C541.165 402.124 549.815 399.344 560.145 399.344C568.365 399.344 575.685 401.164 582.115 404.814C588.545 408.464 593.475 413.534 596.925 420.024L578.835 430.164C575.385 422.614 569.165 418.834 560.145 418.834C556.035 418.834 552.595 419.724 549.805 421.484C547.025 423.254 545.625 425.834 545.625 429.234V429.244Z" fill="#231F20"/>
<path d="M608.064 403.763V402.023H619.704V403.763H608.064ZM612.924 416.053V402.433H614.864V416.053H612.924Z" fill="#231F20"/>
<path d="M622.004 416.053V402.023H623.364L629.424 411.783H628.494L634.554 402.023H635.914V416.053H633.974V405.363L634.424 405.483L629.644 413.183H628.284L623.504 405.483L623.934 405.363V416.053H621.994H622.004Z" fill="#231F20"/>
<defs>
<linearGradient id="paint0_linear_301_1351" x1="358.701" y1="60" x2="358.701" y2="347.28" gradientUnits="userSpaceOnUse">
<stop stop-color="#00ADEF"/>
<stop offset="1" stop-color="#0070F0"/>
</linearGradient>
<linearGradient id="paint1_linear_301_1351" x1="358.701" y1="60" x2="358.701" y2="347.28" gradientUnits="userSpaceOnUse">
<stop stop-color="#00ADEF"/>
<stop offset="1" stop-color="#0070F0"/>
</linearGradient>
<linearGradient id="paint2_linear_301_1351" x1="358.701" y1="60" x2="358.701" y2="347.28" gradientUnits="userSpaceOnUse">
<stop stop-color="#00ADEF"/>
<stop offset="1" stop-color="#0070F0"/>
</linearGradient>
<linearGradient id="paint3_linear_301_1351" x1="358.701" y1="60" x2="358.701" y2="347.28" gradientUnits="userSpaceOnUse">
<stop stop-color="#00ADEF"/>
<stop offset="1" stop-color="#0070F0"/>
</linearGradient>
</defs>
</svg>
