<svg width="40" height="41" viewBox="0 0 40 41" fill="none" xmlns="http://www.w3.org/2000/svg">
<path d="M29.4701 10.5376L29.5043 10.5718V20.1445H19.1795V30.1616H8.8547V37.0333C3.52137 33.4436 0 27.3581 0 20.418C0 14.9137 2.22222 9.88805 5.84616 6.2983C9.47009 2.67437 14.4615 0.452148 20 0.452148C25.5385 0.452148 30.5299 2.67437 34.1539 6.2983C35.4188 7.56326 36.5128 8.96497 37.4017 10.5376H29.4701Z" fill="#428DFF"/>
<path d="M34.0168 34.7086C32.2732 36.418 30.2219 37.8197 27.9655 38.8112L19.1792 30.23V20.2129L31.863 32.6231L34.0168 34.7086Z" fill="#2E63B3"/>
<path d="M40.0001 20.8629C39.9317 23.6663 39.3164 26.2988 38.2223 28.7261L29.5044 20.2133V10.6406L40.0001 20.8629Z" fill="#2E63B3"/>
<path d="M19.3165 40.4527C15.4533 40.3159 11.8635 39.1194 8.85498 37.1023V30.2305L19.3165 40.4527Z" fill="#2E63B3"/>
</svg>
