<svg width="153" height="40" viewBox="0 0 153 40" fill="none" xmlns="http://www.w3.org/2000/svg">
<path d="M13.0951 27.8578C20.3274 27.8578 26.1904 21.9949 26.1904 14.7626C26.1904 13.9429 26.115 13.1409 25.971 12.3629C25.193 12.2189 24.391 12.1436 23.5713 12.1436C16.339 12.1436 10.4761 18.0065 10.4761 25.2388C10.4761 26.0585 10.5514 26.8605 10.6955 27.6385C11.4734 27.7825 12.2755 27.8578 13.0951 27.8578Z" fill="#175CD3"/>
<path fill-rule="evenodd" clip-rule="evenodd" d="M10.6956 27.6381C4.60931 26.5109 0 21.1749 0 14.7622C0 7.52993 5.86294 1.66699 13.0952 1.66699C19.5079 1.66699 24.844 6.27631 25.9711 12.3626C25.1932 12.2185 24.3911 12.1432 23.5714 12.1432C16.3391 12.1432 10.4762 18.0061 10.4762 25.2384C10.4762 26.0581 10.5515 26.8601 10.6956 27.6381Z" fill="#1570EF"/>
<path fill-rule="evenodd" clip-rule="evenodd" d="M13.095 27.8575C20.3273 27.8575 26.1902 21.9945 26.1902 14.7622C26.1902 13.9426 26.1149 13.1405 25.9708 12.3625C32.0571 13.4897 36.6664 18.8258 36.6664 25.2384C36.6664 32.4707 30.8035 38.3336 23.5712 38.3336C17.1585 38.3336 11.8225 33.7243 10.6953 27.6381C11.4733 27.7822 12.2753 27.8575 13.095 27.8575Z" fill="#2E90FA"/>
<path d="M61.8567 24.0866C61.39 25.5955 60.5733 26.7233 59.4067 27.47C58.24 28.2011 56.8789 28.5666 55.3233 28.5666C53.7989 28.5666 52.4767 28.2478 51.3567 27.61C50.2522 26.9722 49.3967 26.0622 48.79 24.88C48.1989 23.6978 47.9033 22.2822 47.9033 20.6333C47.9033 18.9844 48.2067 17.5689 48.8133 16.3866C49.42 15.2044 50.2755 14.2944 51.38 13.6566C52.4844 13.0189 53.7833 12.7 55.2767 12.7C56.8478 12.7 58.1933 13.0344 59.3133 13.7033C60.4489 14.3566 61.2267 15.3522 61.6467 16.69L58.73 17.9266C58.4655 16.9933 58.0611 16.3322 57.5167 15.9433C56.9722 15.5389 56.2722 15.3366 55.4167 15.3366C54.1411 15.3366 53.1222 15.7955 52.36 16.7133C51.6133 17.6155 51.24 18.9222 51.24 20.6333C51.24 22.3289 51.5978 23.6355 52.3133 24.5533C53.0289 25.4711 54.0633 25.93 55.4167 25.93C56.2567 25.93 56.98 25.7044 57.5867 25.2533C58.2089 24.8022 58.6444 24.1178 58.8933 23.2L61.8567 24.0866Z" fill="white"/>
<path d="M65.8844 14.9866C64.5622 14.9866 63.9011 14.4189 63.9011 13.2833C63.9011 12.1322 64.5622 11.5566 65.8844 11.5566C67.2066 11.5566 67.8677 12.1322 67.8677 13.2833C67.8677 14.4189 67.2066 14.9866 65.8844 14.9866ZM67.4711 16.6666V28.3333H64.2744V16.6666H67.4711Z" fill="white"/>
<path d="M70.8597 28.3333V16.6666H73.6363L73.8463 18.9533C74.1419 18.16 74.5852 17.5455 75.1763 17.11C75.783 16.6589 76.5452 16.4333 77.463 16.4333C78.0074 16.4333 78.4274 16.5189 78.723 16.69L78.3497 19.3733C78.1941 19.3266 77.9997 19.2878 77.7663 19.2566C77.5486 19.21 77.2608 19.1866 76.903 19.1866C76.4208 19.1866 75.9619 19.3033 75.5263 19.5366C75.1063 19.7544 74.7563 20.0966 74.4763 20.5633C74.1963 21.0144 74.0563 21.59 74.0563 22.29V28.3333H70.8597Z" fill="white"/>
<path d="M85.7722 16.4333C87.3278 16.4333 88.5333 16.7678 89.3889 17.4366C90.26 18.1055 90.8355 18.9144 91.1155 19.8633L88.1289 20.9366C87.8178 19.5211 87.0478 18.8133 85.8189 18.8133C84.9322 18.8133 84.24 19.1244 83.7422 19.7466C83.26 20.3689 83.0189 21.2944 83.0189 22.5233C83.0189 23.7678 83.2678 24.6933 83.7656 25.3C84.2789 25.8911 84.9711 26.1866 85.8422 26.1866C87.1955 26.1866 88.0044 25.4944 88.2689 24.11L91.1622 25.0433C90.8978 26.0855 90.3067 26.9333 89.3889 27.5866C88.4867 28.24 87.3122 28.5666 85.8656 28.5666C84.6522 28.5666 83.5867 28.3255 82.6689 27.8433C81.7667 27.3611 81.0667 26.6689 80.5689 25.7666C80.0711 24.8644 79.8222 23.7755 79.8222 22.5C79.8222 21.2244 80.0711 20.1355 80.5689 19.2333C81.0822 18.3311 81.7822 17.6389 82.6689 17.1566C83.5711 16.6744 84.6056 16.4333 85.7722 16.4333Z" fill="white"/>
<path d="M98.9661 16.4333C100.133 16.4333 101.167 16.6744 102.069 17.1566C102.972 17.6389 103.672 18.3311 104.169 19.2333C104.683 20.1355 104.939 21.2244 104.939 22.5C104.939 23.7755 104.683 24.8644 104.169 25.7666C103.672 26.6689 102.972 27.3611 102.069 27.8433C101.167 28.3255 100.133 28.5666 98.9661 28.5666C97.7839 28.5666 96.7417 28.3255 95.8395 27.8433C94.9528 27.3611 94.2528 26.6689 93.7395 25.7666C93.2417 24.8644 92.9928 23.7755 92.9928 22.5C92.9928 21.2244 93.2417 20.1355 93.7395 19.2333C94.2528 18.3311 94.9528 17.6389 95.8395 17.1566C96.7417 16.6744 97.7839 16.4333 98.9661 16.4333ZM98.9661 18.8133C98.095 18.8133 97.4106 19.1244 96.9128 19.7466C96.4306 20.3533 96.1895 21.2711 96.1895 22.5C96.1895 23.7289 96.4306 24.6544 96.9128 25.2766C97.4106 25.8833 98.095 26.1866 98.9661 26.1866C99.8217 26.1866 100.491 25.8833 100.973 25.2766C101.471 24.6544 101.719 23.7289 101.719 22.5C101.719 21.2711 101.471 20.3533 100.973 19.7466C100.491 19.1244 99.8217 18.8133 98.9661 18.8133Z" fill="white"/>
<path d="M112.934 16.4333C114.101 16.4333 115.135 16.6744 116.038 17.1566C116.94 17.6389 117.64 18.3311 118.138 19.2333C118.651 20.1355 118.908 21.2244 118.908 22.5C118.908 23.7755 118.651 24.8644 118.138 25.7666C117.64 26.6689 116.94 27.3611 116.038 27.8433C115.135 28.3255 114.101 28.5666 112.934 28.5666C111.752 28.5666 110.71 28.3255 109.808 27.8433C108.921 27.3611 108.221 26.6689 107.708 25.7666C107.21 24.8644 106.961 23.7755 106.961 22.5C106.961 21.2244 107.21 20.1355 107.708 19.2333C108.221 18.3311 108.921 17.6389 109.808 17.1566C110.71 16.6744 111.752 16.4333 112.934 16.4333ZM112.934 18.8133C112.063 18.8133 111.379 19.1244 110.881 19.7466C110.399 20.3533 110.158 21.2711 110.158 22.5C110.158 23.7289 110.399 24.6544 110.881 25.2766C111.379 25.8833 112.063 26.1866 112.934 26.1866C113.79 26.1866 114.459 25.8833 114.941 25.2766C115.439 24.6544 115.688 23.7289 115.688 22.5C115.688 21.2711 115.439 20.3533 114.941 19.7466C114.459 19.1244 113.79 18.8133 112.934 18.8133Z" fill="white"/>
<path d="M124.732 11.5566V24.74C124.732 25.2844 124.826 25.6655 125.012 25.8833C125.199 26.1011 125.51 26.21 125.946 26.21C126.21 26.21 126.428 26.1944 126.599 26.1633C126.77 26.1322 126.988 26.07 127.252 25.9766L126.972 28.0766C126.708 28.2322 126.373 28.3489 125.969 28.4266C125.58 28.52 125.191 28.5666 124.802 28.5666C123.667 28.5666 122.835 28.2944 122.306 27.75C121.792 27.19 121.536 26.3033 121.536 25.09V11.5566H124.732Z" fill="white"/>
<path d="M134.447 28.5666C132.611 28.5666 131.141 28.0378 130.037 26.98C128.932 25.9066 128.38 24.4133 128.38 22.5C128.38 21.2244 128.629 20.1355 129.127 19.2333C129.625 18.3311 130.317 17.6389 131.203 17.1566C132.106 16.6744 133.132 16.4333 134.283 16.4333C135.466 16.4333 136.469 16.6744 137.293 17.1566C138.118 17.6233 138.748 18.2689 139.183 19.0933C139.619 19.9022 139.837 20.8278 139.837 21.87C139.837 22.1811 139.829 22.4766 139.813 22.7566C139.798 23.0366 139.775 23.2855 139.743 23.5033H131.507C131.631 24.4055 131.942 25.0822 132.44 25.5333C132.953 25.9689 133.615 26.1866 134.423 26.1866C135.108 26.1866 135.66 26.0544 136.08 25.79C136.5 25.5255 136.827 25.16 137.06 24.6933L139.603 25.6733C139.23 26.5911 138.577 27.3066 137.643 27.82C136.71 28.3178 135.645 28.5666 134.447 28.5666ZM134.26 18.79C132.751 18.79 131.841 19.6222 131.53 21.2866H136.78C136.687 20.4778 136.422 19.8633 135.987 19.4433C135.567 19.0078 134.991 18.79 134.26 18.79Z" fill="white"/>
<path d="M147.213 28.5666C146.03 28.5666 144.949 28.3566 143.969 27.9366C143.005 27.5166 142.219 26.9255 141.613 26.1633L143.456 24.2966C143.829 24.8566 144.327 25.3155 144.949 25.6733C145.571 26.0311 146.31 26.21 147.166 26.21C147.773 26.21 148.255 26.1244 148.613 25.9533C148.986 25.7666 149.173 25.4789 149.173 25.09C149.173 24.8411 149.087 24.6311 148.916 24.46C148.745 24.2733 148.403 24.1255 147.889 24.0166L145.836 23.5966C144.483 23.3166 143.518 22.8966 142.943 22.3366C142.383 21.7611 142.103 21.0222 142.103 20.12C142.103 19.4822 142.289 18.8833 142.663 18.3233C143.051 17.7633 143.627 17.3122 144.389 16.97C145.151 16.6122 146.1 16.4333 147.236 16.4333C149.6 16.4333 151.296 17.1566 152.323 18.6033L150.409 20.47C150.067 19.9255 149.616 19.5133 149.056 19.2333C148.511 18.9378 147.936 18.79 147.329 18.79C145.96 18.79 145.276 19.1711 145.276 19.9333C145.276 20.1822 145.385 20.4 145.603 20.5866C145.82 20.7578 146.217 20.9055 146.793 21.03L149.173 21.52C150.324 21.7533 151.148 22.15 151.646 22.71C152.144 23.2544 152.393 23.9155 152.393 24.6933C152.393 25.8133 151.941 26.7389 151.039 27.47C150.153 28.2011 148.877 28.5666 147.213 28.5666Z" fill="white"/>
</svg>
