<svg width="182" height="39" viewBox="0 0 182 39" fill="none" xmlns="http://www.w3.org/2000/svg">
<path d="M27.9966 10.0324L28.0291 10.0648V19.1589H18.2205V28.6751H8.41197V35.2033C3.3453 31.7931 0 26.0119 0 19.4187C0 14.1896 2.11111 9.41528 5.55385 6.00502C8.99658 2.56228 13.7385 0.451172 19 0.451172C24.2615 0.451172 29.0034 2.56228 32.4462 6.00502C33.6479 7.20673 34.6872 8.53835 35.5316 10.0324H27.9966Z" fill="#428DFF"/>
<path d="M32.3145 32.9946C30.6581 34.6185 28.7094 35.9501 26.5658 36.892L18.2188 28.7399V19.2236L30.2683 31.0134L32.3145 32.9946Z" fill="#2E63B3"/>
<path d="M37.9983 19.841C37.9333 22.5042 37.3487 25.0051 36.3094 27.3111L28.0273 19.2239V10.1299L37.9983 19.841Z" fill="#2E63B3"/>
<path d="M18.3486 38.4514C14.6785 38.3214 11.2683 37.1847 8.41016 35.2685V28.7402L18.3486 38.4514Z" fill="#2E63B3"/>
<path opacity="0.9" d="M66.94 18.9644V20.2311C66.94 22.7969 66.0955 24.8756 64.4066 26.4995C62.7177 28.1234 60.5092 28.9354 57.8135 28.9354C54.9229 28.9354 52.5519 27.9935 50.7006 26.1422C48.8169 24.2909 47.875 21.985 47.875 19.2568C47.875 16.561 48.8169 14.2875 50.7006 12.4038C52.5844 10.52 54.8904 9.57812 57.6511 9.57812C59.4049 9.57812 60.9639 9.96786 62.4254 10.7798C63.8545 11.5918 64.9912 12.6636 65.7707 13.9952L63.14 15.5217C62.6528 14.6448 61.9058 13.9303 60.9314 13.3781C59.957 12.826 58.8528 12.5662 57.6511 12.5662C55.7024 12.5662 54.0784 13.2157 52.8442 14.4824C51.5776 15.7491 50.9605 17.373 50.9605 19.2892C50.9605 21.2055 51.61 22.7969 52.8767 24.0636C54.1434 25.3303 55.7998 25.9474 57.8784 25.9474C59.5348 25.9474 60.8664 25.5576 61.9058 24.7781C62.9451 23.9986 63.5947 22.9593 63.887 21.6602H57.6511V18.932H66.94V18.9644Z" fill="black"/>
<path opacity="0.9" d="M72.4309 17.5348C73.1454 15.8784 74.5095 15.0664 76.5232 15.0664V18.1844C75.4189 18.1194 74.477 18.3792 73.6326 18.9638C72.8206 19.5485 72.3984 20.5553 72.3984 21.9194V28.6425H69.5078V15.3262H72.3984V17.5348H72.4309Z" fill="black"/>
<path opacity="0.9" d="M109.711 15.2939H112.732L108.542 28.6102H105.716L102.891 19.5162L100.065 28.6102H97.0446L93.1797 15.2939H96.2327L98.7985 24.4854L101.592 15.2939H104.352L107.113 24.4854L109.711 15.2939Z" fill="black"/>
<path opacity="0.9" d="M118.063 25.882H124.526V28.6102H114.133V26.6939L120.369 18.0221H114.393V15.2939H124.234V17.2102L118.063 25.882Z" fill="black"/>
<path opacity="0.9" d="M139.529 9.96777V12.8909H134.268V28.6105H131.215V12.8909H125.953V9.96777H139.529Z" fill="black"/>
<path opacity="0.9" d="M141.479 23.1539C141.706 24.1607 142.193 24.9402 142.94 25.4923C143.687 26.0445 144.629 26.3043 145.733 26.3043C147.26 26.3043 148.397 25.7522 149.176 24.6479L151.547 26.0445C150.248 27.9932 148.299 28.9351 145.701 28.9351C143.525 28.9351 141.771 28.2855 140.439 26.9539C139.108 25.6222 138.426 23.9658 138.426 21.9197C138.426 19.9385 139.075 18.2821 140.407 16.918C141.706 15.5864 143.395 14.9043 145.474 14.9043C147.422 14.9043 149.014 15.5863 150.28 16.9504C151.547 18.3145 152.164 19.971 152.164 21.9197C152.164 22.212 152.132 22.6342 152.067 23.1214H141.479V23.1539ZM141.446 20.8154H149.274C149.079 19.7436 148.624 18.9317 147.942 18.3795C147.227 17.8274 146.416 17.5675 145.474 17.5675C144.402 17.5675 143.525 17.8599 142.81 18.4445C142.096 18.9966 141.641 19.8086 141.446 20.8154Z" fill="black"/>
<path opacity="0.9" d="M160.899 28.9348C158.886 28.9348 157.229 28.2528 155.865 26.9211C154.534 25.557 153.852 23.9006 153.852 21.9519C153.852 19.9707 154.534 18.3143 155.865 16.9502C157.197 15.6186 158.886 14.9365 160.899 14.9365C162.199 14.9365 163.368 15.2613 164.44 15.8784C165.511 16.4955 166.291 17.3399 166.843 18.3793L164.375 19.8083C164.082 19.1587 163.628 18.6716 163.011 18.3143C162.393 17.957 161.679 17.7622 160.899 17.7622C159.73 17.7622 158.756 18.1519 157.944 18.9639C157.164 19.7758 156.775 20.7502 156.775 21.9519C156.775 23.1536 157.164 24.128 157.944 24.9399C158.723 25.7519 159.73 26.1416 160.899 26.1416C161.679 26.1416 162.393 25.9468 163.011 25.5895C163.628 25.2323 164.115 24.7126 164.44 24.0955L166.908 25.4921C166.356 26.5639 165.511 27.4083 164.472 28.0254C163.368 28.6425 162.199 28.9348 160.899 28.9348Z" fill="black"/>
<path opacity="0.9" d="M175.97 14.9373C177.496 14.9373 178.73 15.4244 179.672 16.3988C180.614 17.3732 181.069 18.7048 181.069 20.4261V28.6108H178.178V20.7184C178.178 19.7116 177.918 18.9646 177.366 18.4125C176.847 17.8928 176.1 17.6005 175.19 17.6005C174.183 17.6005 173.371 17.9253 172.754 18.5424C172.137 19.1595 171.812 20.1338 171.812 21.433V28.5783H168.922V9.93555H171.812V16.9509C172.722 15.6193 174.086 14.9373 175.97 14.9373Z" fill="black"/>
<path opacity="0.9" d="M88.4734 21.9519C88.4734 23.1536 88.0837 24.1605 87.2717 24.9724C86.4597 25.7844 85.4854 26.1741 84.3162 26.1741C83.1469 26.1741 82.1726 25.7844 81.3606 24.9724C80.5486 24.1605 80.1589 23.1861 80.1589 21.9519C80.1589 20.7502 80.5486 19.7434 81.3606 18.9314C82.1726 18.1194 83.1469 17.7297 84.3162 17.7297V14.9365C82.3674 14.9365 80.711 15.6186 79.3469 16.9502C77.9828 18.3143 77.3008 19.9707 77.3008 21.9194C77.3008 23.9006 77.9828 25.557 79.3469 26.8887C80.711 28.2528 82.3674 28.9023 84.3162 28.9023C86.2974 28.9023 87.9538 28.2203 89.3179 26.8887C90.682 25.5246 91.364 23.8681 91.364 21.9194H88.4734V21.9519Z" fill="black"/>
<path d="M88.5379 14.9365H85.1602V17.7622H88.5379V21.1075H91.3636V17.7622V14.9365H88.5379Z" fill="#EB7424"/>
</svg>
