<svg width="182" height="39" viewBox="0 0 182 39" fill="none" xmlns="http://www.w3.org/2000/svg">
<path d="M27.9966 10.0321L28.0291 10.0646V19.1586H18.2205V28.6749H8.41197V35.2031C3.3453 31.7928 0 26.0116 0 19.4184C0 14.1894 2.11111 9.41503 5.55385 6.00478C8.99658 2.56204 13.7385 0.450928 19 0.450928C24.2615 0.450928 29.0034 2.56204 32.4462 6.00478C33.6479 7.20648 34.6872 8.53811 35.5316 10.0321H27.9966Z" fill="#428DFF"/>
<path d="M32.3162 32.9946C30.6598 34.6185 28.7111 35.9501 26.5675 36.892L18.2205 28.7399V19.2236L30.27 31.0134L32.3162 32.9946Z" fill="#2E63B3"/>
<path d="M38 19.841C37.935 22.5042 37.3504 25.0051 36.3111 27.3111L28.0291 19.2239V10.1299L38 19.841Z" fill="#2E63B3"/>
<path d="M18.3505 38.4509C14.6804 38.3209 11.2701 37.1842 8.41199 35.268V28.7397L18.3505 38.4509Z" fill="#2E63B3"/>
<path opacity="0.9" d="M66.9386 18.964V20.2306C66.9386 22.7964 66.0942 24.8751 64.4053 26.499C62.7164 28.1229 60.5078 28.9349 57.8121 28.9349C54.9215 28.9349 52.5506 27.993 50.6993 26.1417C48.8155 24.2904 47.8737 21.9845 47.8737 19.2563C47.8737 16.5605 48.8155 14.287 50.6993 12.4033C52.5831 10.5195 54.889 9.57764 57.6497 9.57764C59.4036 9.57764 60.9625 9.96737 62.4241 10.7793C63.8531 11.5913 64.9899 12.6631 65.7694 13.9947L63.1386 15.5212C62.6514 14.6443 61.9044 13.9298 60.9301 13.3776C59.9557 12.8255 58.8514 12.5657 57.6497 12.5657C55.701 12.5657 54.0771 13.2152 52.8429 14.4819C51.5762 15.7486 50.9591 17.3725 50.9591 19.2887C50.9591 21.205 51.6087 22.7964 52.8754 24.0631C54.142 25.3298 55.7984 25.9469 57.8771 25.9469C59.5335 25.9469 60.8651 25.5571 61.9044 24.7776C62.9437 23.9982 63.5933 22.9588 63.8856 21.6597H57.6497V18.9315H66.9386V18.964Z" fill="white"/>
<path opacity="0.9" d="M72.4275 17.5348C73.142 15.8784 74.5061 15.0664 76.5198 15.0664V18.1844C75.4155 18.1194 74.4736 18.3792 73.6292 18.9638C72.8172 19.5485 72.395 20.5553 72.395 21.9194V28.6425H69.5044V15.3262H72.395V17.5348H72.4275Z" fill="white"/>
<path opacity="0.9" d="M109.713 15.2937H112.733L108.544 28.6099H105.718L102.892 19.5159L100.067 28.6099H97.0461L93.1812 15.2937H96.2341L98.8 24.4852L101.593 15.2937H104.354L107.114 24.4852L109.713 15.2937Z" fill="white"/>
<path opacity="0.9" d="M118.06 25.8817H124.523V28.6099H114.13V26.6937L120.366 18.0219H114.39V15.2937H124.231V17.2099L118.06 25.8817Z" fill="white"/>
<path opacity="0.9" d="M139.528 9.96729V12.8904H134.267V28.61H131.214V12.8904H125.952V9.96729H139.528Z" fill="white"/>
<path opacity="0.9" d="M141.477 23.1536C141.704 24.1605 142.191 24.9399 142.938 25.4921C143.685 26.0442 144.627 26.304 145.732 26.304C147.258 26.304 148.395 25.7519 149.174 24.6476L151.545 26.0442C150.246 27.9929 148.297 28.9348 145.699 28.9348C143.523 28.9348 141.769 28.2852 140.438 26.9536C139.106 25.622 138.424 23.9656 138.424 21.9194C138.424 19.9382 139.074 18.2818 140.405 16.9177C141.704 15.5861 143.393 14.9041 145.472 14.9041C147.421 14.9041 149.012 15.5861 150.279 16.9502C151.545 18.3143 152.162 19.9707 152.162 21.9194C152.162 22.2117 152.13 22.634 152.065 23.1211H141.477V23.1536ZM141.444 20.8152H149.272C149.077 19.7434 148.622 18.9314 147.94 18.3793C147.226 17.8271 146.414 17.5673 145.472 17.5673C144.4 17.5673 143.523 17.8596 142.809 18.4442C142.094 18.9964 141.639 19.8083 141.444 20.8152Z" fill="white"/>
<path opacity="0.9" d="M160.899 28.9348C158.885 28.9348 157.229 28.2528 155.865 26.9211C154.533 25.557 153.851 23.9006 153.851 21.9519C153.851 19.9707 154.533 18.3143 155.865 16.9502C157.197 15.6186 158.885 14.9365 160.899 14.9365C162.198 14.9365 163.368 15.2613 164.439 15.8784C165.511 16.4955 166.291 17.3399 166.843 18.3793L164.374 19.8083C164.082 19.1587 163.627 18.6716 163.01 18.3143C162.393 17.957 161.679 17.7622 160.899 17.7622C159.73 17.7622 158.756 18.1519 157.944 18.9639C157.164 19.7758 156.774 20.7502 156.774 21.9519C156.774 23.1536 157.164 24.128 157.944 24.9399C158.723 25.7519 159.73 26.1416 160.899 26.1416C161.679 26.1416 162.393 25.9468 163.01 25.5895C163.627 25.2323 164.115 24.7126 164.439 24.0955L166.908 25.4921C166.356 26.5639 165.511 27.4083 164.472 28.0254C163.368 28.6425 162.198 28.9348 160.899 28.9348Z" fill="white"/>
<path opacity="0.9" d="M175.969 14.9363C177.496 14.9363 178.73 15.4235 179.672 16.3978C180.614 17.3722 181.068 18.7038 181.068 20.4252V28.6098H178.178V20.7175C178.178 19.7106 177.918 18.9636 177.366 18.4115C176.846 17.8918 176.099 17.5995 175.19 17.5995C174.183 17.5995 173.371 17.9243 172.754 18.5414C172.137 19.1585 171.812 20.1329 171.812 21.432V28.5773H168.921V9.93457H171.812V16.9499C172.721 15.6183 174.085 14.9363 175.969 14.9363Z" fill="white"/>
<path opacity="0.9" d="M88.4718 21.9519C88.4718 23.1536 88.0821 24.1605 87.2701 24.9724C86.4582 25.7844 85.4838 26.1741 84.3146 26.1741C83.1453 26.1741 82.171 25.7844 81.359 24.9724C80.5471 24.1605 80.1573 23.1861 80.1573 21.9519C80.1573 20.7502 80.5471 19.7434 81.359 18.9314C82.171 18.1194 83.1453 17.7297 84.3146 17.7297V14.9365C82.3659 14.9365 80.7094 15.6186 79.3453 16.9502C77.9812 18.3143 77.2992 19.9707 77.2992 21.9194C77.2992 23.9006 77.9812 25.557 79.3453 26.8887C80.7094 28.2528 82.3659 28.9023 84.3146 28.9023C86.2958 28.9023 87.9522 28.2203 89.3163 26.8887C90.6804 25.5246 91.3624 23.8681 91.3624 21.9194H88.4718V21.9519Z" fill="white"/>
<path d="M88.5367 14.9365H85.1589V17.7622H88.5367V21.1075H91.3624V17.7622V14.9365H88.5367Z" fill="#EB7424"/>
</svg>
