<?xml version="1.0" encoding="utf-8"?>
<!-- Generator: Adobe Illustrator 26.0.1, SVG Export Plug-In . SVG Version: 6.00 Build 0)  -->
<svg version="1.1" id="Layer_1" xmlns="http://www.w3.org/2000/svg" xmlns:xlink="http://www.w3.org/1999/xlink" x="0px" y="0px"
	 viewBox="0 0 1001 1000" style="enable-background:new 0 0 1001 1000;" xml:space="preserve">
<style type="text/css">
	.st0{fill:#FFFFFF;}
	.st1{opacity:0.8;enable-background:new    ;}
	.st2{fill:#EB7424;}
	.st3{fill:#2F7CCA;}
	.st4{fill:#21578D;}
	.st5{opacity:0.8;}
	.st6{opacity:0.4;fill:none;stroke:#000000;stroke-width:0.3538;stroke-miterlimit:10;enable-background:new    ;}
	.st7{fill:url(#SVGID_1_);}
	.st8{fill:url(#SVGID_00000015323459315228205170000009589043944431665829_);}
	.st9{fill:url(#SVGID_00000047751782984511485250000007444047449308872094_);}
	.st10{fill:url(#SVGID_00000017487969789971051060000011428301336482177721_);}
	.st11{opacity:0.4;fill:none;stroke:#000000;stroke-width:0.4398;stroke-miterlimit:10;enable-background:new    ;}
	.st12{opacity:0.5;fill:none;stroke:#000000;stroke-width:0.4398;stroke-miterlimit:10;enable-background:new    ;}
	.st13{fill:url(#SVGID_00000022548043067888294320000005239872365124173978_);}
	.st14{fill:url(#SVGID_00000120516810376087461250000013042823677183014046_);}
	.st15{fill:url(#SVGID_00000135677213750403508350000002460807604847810967_);}
	.st16{fill:url(#SVGID_00000183940121152453796600000013050501887235164854_);}
	.st17{clip-path:url(#SVGID_00000030464154341311002330000008583734851733216695_);}
	.st18{fill:none;stroke:#000000;stroke-width:2;stroke-opacity:0.15;}
	.st19{clip-path:url(#SVGID_00000138555817877957661190000017328663750347689113_);}
</style>
<path class="st0" d="M1000.1,0H0.1v1000h1000V0z"/>
<path class="st1" d="M341,562.8v4.3c0,8.6-2.8,15.5-8.5,21c-5.6,5.4-13,8.2-22.1,8.2c-9.6,0-17.6-3.1-23.8-9.4
	c-6.3-6.2-9.4-13.9-9.4-23c0-9,3.1-16.7,9.4-22.9c6.3-6.3,14-9.4,23.3-9.4c5.8,0,11.1,1.3,16,4c4.8,2.7,8.6,6.3,11.2,10.8l-8.8,5.1
	c-1.7-3-4.1-5.4-7.4-7.2c-3.3-1.8-6.9-2.7-11-2.7c-6.5,0-11.9,2.1-16.1,6.4c-4.2,4.3-6.3,9.6-6.3,16s2.1,11.7,6.4,16
	c4.2,4.2,9.8,6.3,16.7,6.3c5.5,0,10-1.3,13.5-3.9c3.5-2.6,5.7-6,6.6-10.4h-20.9v-9.2H341z"/>
<path class="st1" d="M359.4,558c2.4-5.5,7-8.3,13.7-8.3v10.4c-3.7-0.2-6.9,0.6-9.6,2.6c-2.7,2-4.1,5.3-4.1,9.8V595h-9.6v-44.6h9.6
	V558z"/>
<path class="st1" d="M484.2,550.5h10.2l-14,44.6H471l-9.4-30.4l-9.4,30.4H442l-13-44.6h10.2l8.6,30.7l9.4-30.7h9.2l9.3,30.7
	L484.2,550.5z"/>
<path class="st1" d="M512.1,586h21.7v9.1H499v-6.4l20.9-29h-20v-9.1h33v6.4L512.1,586z"/>
<path class="st1" d="M583.9,532.7v9.8h-17.6v52.6h-10.2v-52.6h-17.6v-9.8H583.9z"/>
<path class="st1" d="M590.4,576.9c0.7,3.4,2.3,6,4.9,7.8c2.6,1.8,5.7,2.7,9.4,2.7c5.1,0,8.9-1.8,11.5-5.5l7.9,4.6
	c-4.4,6.5-10.9,9.7-19.5,9.7c-7.2,0-13.1-2.2-17.6-6.6c-4.5-4.4-6.7-10-6.7-16.8c0-6.7,2.2-12.2,6.6-16.7c4.4-4.5,10-6.7,16.9-6.7
	c6.5,0,11.9,2.3,16.1,6.9c4.2,4.6,6.3,10.1,6.3,16.7c0,1-0.1,2.3-0.4,4L590.4,576.9L590.4,576.9z M590.3,569.1h26.2
	c-0.7-3.6-2.2-6.4-4.5-8.2c-2.3-1.8-5.1-2.8-8.2-2.8c-3.6,0-6.5,1-8.9,2.9C592.5,563,591,565.7,590.3,569.1z"/>
<path class="st1" d="M655.5,596.3c-6.7,0-12.3-2.3-16.8-6.8s-6.7-10.1-6.7-16.7c0-6.7,2.2-12.2,6.7-16.7s10.1-6.7,16.8-6.7
	c4.3,0,8.3,1,11.9,3.1c3.6,2.1,6.2,4.9,8,8.4l-8.3,4.8c-1-2.1-2.5-3.8-4.6-5c-2-1.2-4.4-1.8-7.1-1.8c-3.9,0-7.2,1.3-9.8,4
	c-2.6,2.7-4,6-4,10s1.3,7.3,4,10c2.6,2.7,5.9,4,9.8,4c2.6,0,5-0.6,7.1-1.9c2.1-1.2,3.7-2.9,4.8-5l8.3,4.7c-1.9,3.6-4.6,6.4-8.2,8.5
	C663.8,595.2,659.8,596.3,655.5,596.3z"/>
<path class="st1" d="M705.9,549.4c5.1,0,9.2,1.6,12.4,4.9c3.1,3.3,4.7,7.8,4.7,13.5v27.4h-9.6v-26.4c0-3.3-0.9-5.9-2.7-7.7
	c-1.8-1.8-4.2-2.7-7.3-2.7c-3.4,0-6.1,1.1-8.2,3.2c-2.1,2.1-3.1,5.3-3.1,9.7v23.9h-9.6v-62.4h9.6v23.5
	C695,551.7,699.6,549.4,705.9,549.4z"/>
<path class="st1" d="M413.1,572.8c0,4-1.3,7.4-4,10.1c-2.7,2.7-6,4-9.9,4c-3.9,0-7.2-1.3-9.9-4c-2.7-2.7-4-6-4-10.1
	c0-4,1.3-7.4,4-10.1c2.7-2.7,6-4,9.9-4v-9.4c-6.5,0-12.1,2.3-16.7,6.8s-6.9,10.1-6.9,16.7c0,6.6,2.3,12.2,6.9,16.7
	s10.1,6.8,16.7,6.8c6.6,0,12.2-2.3,16.7-6.8s6.8-10.1,6.8-16.7H413.1z"/>
<path class="st2" d="M413.3,549.4h-11.2v9.4h11.2v11.3h9.4v-11.3v-9.4H413.3z"/>
<path class="st3" d="M535.3,398.8l0.2,0.2v35.6h-38.3v37.2h-38.4v25.5c-19.9-13.3-32.9-36-32.9-61.7c0-20.5,8.3-39.1,21.8-52.5
	c13.4-13.4,32-21.8,52.5-21.8s39.1,8.3,52.5,21.8c4.7,4.7,8.7,9.9,12,15.7H535.3z"/>
<path class="st4" d="M552.2,488.5c-6.4,6.3-14,11.5-22.5,15.2l-32.6-31.9v-37.2l47,46.1L552.2,488.5z"/>
<path class="st4" d="M574.4,437.1c-0.2,10.4-2.5,20.2-6.6,29.2l-32.3-31.7V399L574.4,437.1z"/>
<path class="st4" d="M497.6,509.8c-14.3-0.5-27.7-5-38.8-12.5v-25.5L497.6,509.8z"/>
<g class="st5">
	<path d="M367.7,637.2l-1.9,1.5l-2.3-2.6c-1.6,0.8-3.3,1.2-5.1,1.2c-2,0-3.9-0.5-5.5-1.4c-1.6-0.9-2.9-2.2-3.8-3.8
		c-0.9-1.6-1.4-3.4-1.4-5.4s0.5-3.8,1.4-5.4c0.9-1.6,2.2-2.9,3.8-3.8c1.6-0.9,3.5-1.4,5.5-1.4s3.9,0.5,5.5,1.4
		c1.6,0.9,2.9,2.2,3.8,3.8c0.9,1.6,1.4,3.4,1.4,5.4c0,1.6-0.3,3.1-0.9,4.5c-0.6,1.4-1.5,2.6-2.7,3.5L367.7,637.2z M361.8,634.1
		l-4.1-4.8l1.9-1.5l4.3,5c0.8-0.8,1.5-1.7,2-2.7s0.7-2.2,0.7-3.4c0-1.5-0.3-2.9-1-4.1c-0.7-1.2-1.7-2.2-2.9-2.9
		c-1.2-0.7-2.6-1-4.1-1s-2.9,0.3-4.1,1c-1.2,0.7-2.2,1.7-2.9,2.9c-0.7,1.2-1,2.6-1,4.1s0.3,2.9,1,4.1s1.7,2.2,2.9,2.9
		c1.2,0.7,2.6,1.1,4.1,1.1C359.6,634.7,360.8,634.5,361.8,634.1z"/>
	<path d="M377,636.2c-1.2-0.7-2.2-1.6-2.9-2.8c-0.7-1.2-1-2.6-1-4.1v-12.8h2.6v12.6c0,1.1,0.2,2.1,0.7,2.9c0.5,0.9,1.1,1.5,1.9,2
		c0.8,0.5,1.8,0.7,2.8,0.7s2-0.2,2.8-0.7c0.8-0.5,1.5-1.1,1.9-2c0.5-0.9,0.7-1.8,0.7-2.9v-12.6h2.6v12.8c0,1.5-0.3,2.9-1,4.1
		c-0.7,1.2-1.6,2.2-2.9,2.8c-1.2,0.7-2.6,1-4.1,1S378.2,636.9,377,636.2z"/>
	<path d="M408,636.9l-2-5.3h-9.8l-2,5.3h-2.7l8.4-20.4h2.4l8.6,20.4H408z M401,619.5l-3.9,9.7h7.9L401,619.5z"/>
	<path d="M416.6,634.5h9v2.4H414v-20.4h2.6V634.5z"/>
	<path d="M429,636.9v-20.4h2.6v20.4H429z"/>
	<path d="M449.9,616.5v2.4h-6.2v18h-2.6v-18h-6.2v-2.4H449.9z"/>
	<path d="M469,616.5l-7.5,12.3v8.2h-2.6v-8.2l-7.5-12.3h2.8l6,9.9l6-9.9H469z"/>
	<path d="M469.1,636.9v-3.1h2.9v3.1H469.1z"/>
	<path d="M495.9,618.9H487v6.7h8.9v2.4H487v8.9h-2.6v-20.4h11.5V618.9z"/>
	<path d="M512.6,636.9l-2-5.3h-9.8l-2,5.3h-2.7l8.4-20.4h2.4l8.6,20.4H512.6z M505.6,619.5l-3.9,9.7h7.9L505.6,619.5z"/>
	<path d="M520.1,636.3c-1.1-0.6-2-1.4-2.7-2.4c-0.6-1-0.9-2.2-0.9-3.5h2.6c0,0.8,0.2,1.5,0.6,2.2c0.4,0.6,1,1.1,1.8,1.5
		c0.7,0.4,1.6,0.5,2.6,0.5c0.9,0,1.7-0.1,2.4-0.4s1.2-0.7,1.6-1.2c0.4-0.5,0.6-1.1,0.6-1.8c0-0.4-0.1-0.9-0.3-1.4
		c-0.1-0.2-0.2-0.3-0.3-0.4c-0.1-0.1-0.3-0.3-0.6-0.5c-0.2-0.1-0.4-0.3-0.8-0.4c-0.3-0.1-0.5-0.2-0.6-0.2c-0.1,0-0.4-0.1-0.8-0.2
		l-0.8-0.2l-0.9-0.2c-1.4-0.3-2.6-0.7-3.4-1s-1.5-0.8-2.1-1.3c-0.6-0.6-0.9-1.4-1.1-2.4c0-0.3-0.1-0.7-0.1-1c0-1.2,0.3-2.2,0.8-3
		c0.6-0.9,1.4-1.5,2.4-2s2.3-0.7,3.7-0.7c1.4,0,2.6,0.3,3.6,0.8s1.8,1.2,2.4,2.2c0.6,0.9,0.8,2,0.8,3.3h-2.5c0-0.7-0.2-1.4-0.6-2
		c-0.4-0.6-0.9-1-1.6-1.3c-0.7-0.3-1.4-0.5-2.3-0.5c-0.8,0-1.6,0.1-2.2,0.4c-0.7,0.3-1.2,0.6-1.5,1.1c-0.3,0.5-0.6,1-0.6,1.6
		c0,0.6,0.2,1.1,0.5,1.5c0.1,0.2,0.3,0.4,0.6,0.5c0.3,0.2,0.5,0.3,0.8,0.5c0.2,0.1,0.5,0.2,0.9,0.3c0.4,0.1,0.7,0.2,1.1,0.3l1.1,0.3
		c1.5,0.4,2.6,0.7,3.4,1s1.5,0.8,2.1,1.3c0.6,0.6,1,1.4,1.2,2.4c0.1,0.4,0.1,0.8,0.1,1.2c0,1.2-0.3,2.3-0.9,3.2
		c-0.6,0.9-1.5,1.6-2.6,2.1c-1.1,0.5-2.3,0.7-3.7,0.7C522.5,637.2,521.2,636.9,520.1,636.3z"/>
	<path d="M547.8,616.5v2.4h-6.2v18H539v-18h-6.2v-2.4H547.8z"/>
	<path d="M548.3,636.9v-3.1h2.9v3.1H548.3z"/>
	<path d="M575.4,616.5v2.4h-6.2v18h-2.6v-18h-6.2v-2.4H575.4z"/>
	<path d="M590.4,636.9l-4.4-8h-4.7v8h-2.6v-20.4h7.7c1.3,0,2.4,0.3,3.4,0.8s1.8,1.3,2.4,2.2c0.6,0.9,0.9,2,0.9,3.2
		c0,0.9-0.2,1.8-0.6,2.6c-0.4,0.8-0.9,1.5-1.6,2c-0.7,0.6-1.5,1-2.4,1.2l4.9,8.3h-3V636.9z M581.3,618.9v7.6h5.1
		c0.8,0,1.5-0.2,2.2-0.5c0.6-0.3,1.1-0.8,1.5-1.3c0.4-0.6,0.5-1.2,0.5-2c0-0.7-0.2-1.4-0.5-2c-0.4-0.6-0.8-1-1.5-1.3
		c-0.6-0.3-1.4-0.5-2.2-0.5H581.3z"/>
	<path d="M601.3,636.2c-1.2-0.7-2.2-1.6-2.9-2.8c-0.7-1.2-1-2.6-1-4.1v-12.8h2.6v12.6c0,1.1,0.2,2.1,0.7,2.9c0.5,0.9,1.1,1.5,1.9,2
		c0.8,0.5,1.8,0.7,2.8,0.7s2-0.2,2.8-0.7s1.5-1.1,1.9-2c0.5-0.9,0.7-1.8,0.7-2.9v-12.6h2.6v12.8c0,1.5-0.3,2.9-1,4.1
		c-0.7,1.2-1.6,2.2-2.9,2.8c-1.2,0.7-2.6,1-4.1,1S602.5,636.9,601.3,636.2z"/>
	<path d="M620.8,636.3c-1.1-0.6-2-1.4-2.7-2.4c-0.6-1-0.9-2.2-0.9-3.5h2.6c0,0.8,0.2,1.5,0.6,2.2c0.4,0.6,1,1.1,1.8,1.5
		c0.8,0.4,1.6,0.5,2.6,0.5c0.9,0,1.7-0.1,2.4-0.4c0.7-0.3,1.2-0.7,1.6-1.2c0.4-0.5,0.6-1.1,0.6-1.8c0-0.4-0.1-0.9-0.3-1.4
		c-0.1-0.2-0.2-0.3-0.3-0.4c-0.1-0.1-0.3-0.3-0.6-0.5c-0.2-0.1-0.4-0.3-0.8-0.4c-0.3-0.1-0.5-0.2-0.6-0.2c-0.1,0-0.4-0.1-0.8-0.2
		l-0.8-0.2l-0.9-0.2c-1.4-0.3-2.6-0.7-3.4-1s-1.5-0.8-2.1-1.3c-0.6-0.6-0.9-1.4-1.1-2.4c0-0.3-0.1-0.7-0.1-1c0-1.2,0.3-2.2,0.8-3
		c0.6-0.9,1.4-1.5,2.4-2s2.3-0.7,3.7-0.7c1.4,0,2.6,0.3,3.6,0.8s1.8,1.2,2.4,2.2c0.6,0.9,0.8,2,0.8,3.3h-2.5c0-0.7-0.2-1.4-0.6-2
		c-0.4-0.6-0.9-1-1.6-1.3s-1.4-0.5-2.3-0.5c-0.8,0-1.6,0.1-2.2,0.4c-0.7,0.3-1.2,0.6-1.5,1.1c-0.4,0.5-0.6,1-0.6,1.6
		c0,0.6,0.2,1.1,0.5,1.5c0.1,0.2,0.3,0.4,0.6,0.5c0.3,0.2,0.5,0.3,0.8,0.5c0.2,0.1,0.5,0.2,0.9,0.3c0.4,0.1,0.7,0.2,1.1,0.3l1.1,0.3
		c1.5,0.4,2.6,0.7,3.4,1s1.5,0.8,2.1,1.3c0.6,0.6,1,1.4,1.2,2.4c0.1,0.4,0.1,0.8,0.1,1.2c0,1.2-0.3,2.3-0.9,3.2
		c-0.6,0.9-1.5,1.6-2.6,2.1c-1.1,0.5-2.3,0.7-3.7,0.7C623.3,637.2,622,636.9,620.8,636.3z"/>
	<path d="M648.6,616.5v2.4h-6.2v18h-2.6v-18h-6.2v-2.4H648.6z"/>
	<path d="M649,636.9v-3.1h2.9v3.1H649z"/>
</g>
</svg>
