<svg width="300" height="300" viewBox="0 0 300 300" fill="none" xmlns="http://www.w3.org/2000/svg">
<path d="M221 75.6L221.3 75.9V147.9H143.9L144 223.1H66.5V274.6C26.4 247.7 0 201.9 0 150C0 108.6 16.8 71.1 43.9 43.9C71 16.7 108.6 0 150 0C191.4 0 228.9 16.8 256.1 43.9C265.5 53.3 273.7 64 280.4 75.7L221 75.6Z" fill="#2F7CCA"/>
<path d="M255.2 256.9C242.2 269.7 226.8 280.2 209.8 287.6L144 223.1L143.9 147.9L238.9 240.9L255.2 256.9Z" fill="#21578D"/>
<path d="M300 152.9C299.6 173.9 294.9 193.8 286.7 211.8L221.4 147.9V76L300 152.9Z" fill="#21578D"/>
<path d="M144.9 299.901C115.9 299.001 89 289.801 66.5 274.601V223.101L144.9 299.901Z" fill="#21578D"/>
</svg>
