<svg xmlns="http://www.w3.org/2000/svg" fill="none" viewBox="45.77 48.45 368.44 393.11">
<path d="M104.89 94.0818C114.28 84.6918 127.01 79.4219 140.28 79.4219H334.03V79.5019L260.35 153.192H45.7695H45.7795L104.89 94.0818Z" fill="url(#paint0_linear_50_28)"/>
<path d="M414.21 48.4531V132.203C414.21 145.613 408.88 158.473 399.4 167.953L340.43 226.923H340.39V226.963L229.97 337.363L229.75 337.143V232.903L333.94 128.733L414.2 48.4631H414.21V48.4531Z" fill="url(#paint1_linear_50_28)"/>
<path d="M229.99 337.353L229.76 337.583V337.133L229.99 337.353Z" fill="url(#paint2_linear_50_28)"/>
<path d="M193.301 300.677H192.721V300.097L119.561 226.938H118.911V226.287L45.8105 153.188V236.917C45.8105 250.207 51.0806 262.948 60.4806 272.338L229.731 441.568L229.771 441.528V337.117L193.301 300.648V300.688H193.311L193.301 300.677ZM192.721 374.617V374.438H192.901L192.721 374.617Z" fill="url(#paint3_linear_50_28)"/>
<defs>
<linearGradient id="paint0_linear_50_28" x1="229.99" y1="48.4531" x2="229.99" y2="441.568" gradientUnits="userSpaceOnUse">
<stop stop-color="#00ADEF"/>
<stop offset="1" stop-color="#0070F0"/>
</linearGradient>
<linearGradient id="paint1_linear_50_28" x1="229.99" y1="48.4531" x2="229.99" y2="441.568" gradientUnits="userSpaceOnUse">
<stop stop-color="#00ADEF"/>
<stop offset="1" stop-color="#0070F0"/>
</linearGradient>
<linearGradient id="paint2_linear_50_28" x1="229.99" y1="48.4531" x2="229.99" y2="441.568" gradientUnits="userSpaceOnUse">
<stop stop-color="#00ADEF"/>
<stop offset="1" stop-color="#0070F0"/>
</linearGradient>
<linearGradient id="paint3_linear_50_28" x1="229.99" y1="48.4531" x2="229.99" y2="441.568" gradientUnits="userSpaceOnUse">
<stop stop-color="#00ADEF"/>
<stop offset="1" stop-color="#0070F0"/>
</linearGradient>
</defs>
</svg>