<?xml version="1.0" encoding="utf-8"?>
<!-- Generator: Adobe Illustrator 26.0.1, SVG Export Plug-In . SVG Version: 6.00 Build 0)  -->
<svg version="1.1" id="Layer_1" xmlns="http://www.w3.org/2000/svg" xmlns:xlink="http://www.w3.org/1999/xlink" x="0px" y="0px"
	 viewBox="0 0 1000 1000" style="enable-background:new 0 0 1000 1000;" xml:space="preserve">
<style type="text/css">
	.st0{fill:#FFFFFF;}
	.st1{opacity:0.8;enable-background:new    ;}
	.st2{fill:#EB7424;}
	.st3{fill:#2F7CCA;}
	.st4{fill:#21578D;}
	.st5{opacity:0.8;}
	.st6{opacity:0.4;fill:none;stroke:#000000;stroke-width:0.3538;stroke-miterlimit:10;enable-background:new    ;}
	.st7{fill:url(#SVGID_1_);}
	.st8{fill:url(#SVGID_00000021108870221869636670000011633862322873871491_);}
	.st9{fill:url(#SVGID_00000074415037765079753340000005872228608155255223_);}
	.st10{fill:url(#SVGID_00000181779885995083811250000016412932060864368790_);}
	.st11{opacity:0.4;fill:none;stroke:#000000;stroke-width:0.4398;stroke-miterlimit:10;enable-background:new    ;}
	.st12{opacity:0.5;fill:none;stroke:#000000;stroke-width:0.4398;stroke-miterlimit:10;enable-background:new    ;}
	.st13{fill:url(#SVGID_00000051354270578287326360000005154354133981648793_);}
	.st14{fill:url(#SVGID_00000101071713942181685500000001489212564757561231_);}
	.st15{fill:url(#SVGID_00000170959169733824241220000016786996703975599518_);}
	.st16{fill:url(#SVGID_00000095335504023209709280000007248926472642117820_);}
	.st17{clip-path:url(#SVGID_00000093876068848341380450000006280595524453356950_);}
	.st18{fill:none;stroke:#000000;stroke-width:2;stroke-opacity:0.15;}
	.st19{clip-path:url(#SVGID_00000084499880359639747050000008050800368425593500_);}
</style>
<path class="st0" d="M1000,0H0v1000h1000V0z"/>
<path class="st3" d="M571,425.7l0.3,0.3v72h-77.4l0.1,75.2h-77.5v51.5C376.4,597.8,350,552,350,500.1c0-41.4,16.8-78.9,43.9-106.1
	c27.1-27.2,64.7-43.9,106.1-43.9s78.9,16.8,106.1,43.9c9.4,9.4,17.6,20.1,24.3,31.8L571,425.7L571,425.7z"/>
<path class="st4" d="M605.2,607c-13,12.8-28.4,23.3-45.4,30.7L494,573.2l-0.1-75.2l95,93L605.2,607z"/>
<path class="st4" d="M650,503c-0.4,21-5.1,40.9-13.3,58.9L571.4,498v-71.9L650,503z"/>
<path class="st4" d="M494.9,650c-29-0.9-55.9-10.1-78.4-25.3v-51.5L494.9,650z"/>
</svg>
