<svg width="702" height="174" viewBox="0 0 702 174" fill="none" xmlns="http://www.w3.org/2000/svg">
<g filter="url(#filter0_f_578_193)">
<path d="M626.373 87.5002C626.373 87.5002 453.991 99.0003 343.373 99.0003C318.908 99.0003 318.908 75.0147 343.373 75.0003C445.602 74.94 599.854 84.9553 626.413 86.7324C626.885 86.764 626.843 87.4416 626.373 87.5002Z" fill="#D9D9D9"/>
<path d="M626.373 87.5002C626.373 87.5002 453.991 99.0003 343.373 99.0003C318.908 99.0003 318.908 75.0147 343.373 75.0003C445.602 74.94 599.854 84.9553 626.413 86.7324C626.885 86.764 626.843 87.4416 626.373 87.5002Z" fill="#D9D9D9"/>
<path d="M75.3735 87.5002C75.3735 87.5002 247.756 99.0003 358.373 99.0003C382.839 99.0003 382.839 75.0147 358.373 75.0003C256.145 74.94 101.893 84.9553 75.3337 86.7324C74.8618 86.764 74.9042 87.4416 75.3735 87.5002Z" fill="#D9D9D9"/>
<path d="M75.3735 87.5002C75.3735 87.5002 247.756 99.0003 358.373 99.0003C382.839 99.0003 382.839 75.0147 358.373 75.0003C256.145 74.94 101.893 84.9553 75.3337 86.7324C74.8618 86.764 74.9042 87.4416 75.3735 87.5002Z" fill="#D9D9D9"/>
</g>
<defs>
<filter id="filter0_f_578_193" x="0" y="0" width="701.747" height="174" filterUnits="userSpaceOnUse" color-interpolation-filters="sRGB">
<feFlood flood-opacity="0" result="BackgroundImageFix"/>
<feBlend mode="normal" in="SourceGraphic" in2="BackgroundImageFix" result="shape"/>
<feGaussianBlur stdDeviation="37.5" result="effect1_foregroundBlur_578_193"/>
</filter>
</defs>
</svg>
